G04*
G04 #@! TF.GenerationSoftware,Altium Limited,Altium Designer,18.1.6 (161)*
G04*
G04 Layer_Color=2752767*
%FSLAX25Y25*%
%MOIN*%
G70*
G01*
G75*
%ADD62C,0.00200*%
%ADD63C,0.00267*%
D62*
X83413Y126129D02*
Y127729D01*
X85013D01*
Y126129D01*
X83413D01*
Y106129D02*
Y107729D01*
X85013D01*
Y106129D01*
X83413D01*
Y66129D02*
Y67729D01*
X85013D01*
Y66129D01*
X83413D01*
Y76129D02*
Y77729D01*
X85013D01*
Y76129D01*
X83413D01*
Y86129D02*
Y87729D01*
X85013D01*
Y86129D01*
X83413D01*
Y96129D02*
Y97729D01*
X85013D01*
Y96129D01*
X83413D01*
Y116129D02*
Y117729D01*
X85013D01*
Y116129D01*
X83413D01*
Y136129D02*
Y137729D01*
X85013D01*
Y136129D01*
X83413D01*
X13413Y75657D02*
Y77257D01*
X15013D01*
Y75657D01*
X13413D01*
Y95657D02*
Y97257D01*
X15013D01*
Y95657D01*
X13413D01*
Y135657D02*
Y137257D01*
X15013D01*
Y135657D01*
X13413D01*
Y125657D02*
Y127257D01*
X15013D01*
Y125657D01*
X13413D01*
Y115657D02*
Y117257D01*
X15013D01*
Y115657D01*
X13413D01*
Y105657D02*
Y107257D01*
X15013D01*
Y105657D01*
X13413D01*
Y85657D02*
Y87257D01*
X15013D01*
Y85657D01*
X13413D01*
Y65657D02*
Y67257D01*
X15013D01*
Y65657D01*
X13413D01*
X39606Y58649D02*
X38806Y60249D01*
X40406D01*
X39606Y58649D01*
X58819D02*
X58019Y60249D01*
X59619D01*
X58819Y58649D01*
X57382Y178531D02*
X57782Y178931D01*
X58182D01*
X57782Y179331D01*
X58182Y179731D01*
X57782D01*
X57382Y180131D01*
X56982Y179731D01*
X56582D01*
X56982Y179331D01*
X56582Y178931D01*
X56982D01*
X57382Y178531D01*
X41043D02*
X41443Y178931D01*
X41843D01*
X41443Y179331D01*
X41843Y179731D01*
X41443D01*
X41043Y180131D01*
X40643Y179731D01*
X40243D01*
X40643Y179331D01*
X40243Y178931D01*
X40643D01*
X41043Y178531D01*
X28600Y73614D02*
X29000Y74414D01*
X28600Y75214D01*
X29400Y74814D01*
X30200Y75214D01*
X29800Y74414D01*
X30200Y73614D01*
X29400Y74014D01*
X28600Y73614D01*
X44900Y24700D02*
X45300Y25500D01*
X44900Y26300D01*
X45700Y25900D01*
X46500Y26300D01*
X46100Y25500D01*
X46500Y24700D01*
X45700Y25100D01*
X44900Y24700D01*
X83900Y58100D02*
X84300Y58900D01*
X83900Y59700D01*
X84700Y59300D01*
X85500Y59700D01*
X85100Y58900D01*
X85500Y58100D01*
X84700Y58500D01*
X83900Y58100D01*
X18608Y38400D02*
X19008Y39200D01*
X18608Y40000D01*
X19408Y39600D01*
X20208Y40000D01*
X19808Y39200D01*
X20208Y38400D01*
X19408Y38800D01*
X18608Y38400D01*
X88200Y131100D02*
X88600Y131900D01*
X88200Y132700D01*
X89000Y132300D01*
X89800Y132700D01*
X89400Y131900D01*
X89800Y131100D01*
X89000Y131500D01*
X88200Y131100D01*
X88600Y121200D02*
X89000Y122000D01*
X88600Y122800D01*
X89400Y122400D01*
X90200Y122800D01*
X89800Y122000D01*
X90200Y121200D01*
X89400Y121600D01*
X88600Y121200D01*
X88860Y111000D02*
X89261Y111800D01*
X88860Y112600D01*
X89661Y112200D01*
X90460Y112600D01*
X90061Y111800D01*
X90460Y111000D01*
X89661Y111400D01*
X88860Y111000D01*
Y91100D02*
X89261Y91900D01*
X88860Y92700D01*
X89661Y92300D01*
X90460Y92700D01*
X90061Y91900D01*
X90460Y91100D01*
X89661Y91500D01*
X88860Y91100D01*
X94200Y150000D02*
X94600Y150800D01*
X94200Y151600D01*
X95000Y151200D01*
X95800Y151600D01*
X95400Y150800D01*
X95800Y150000D01*
X95000Y150400D01*
X94200Y150000D01*
X72700Y47100D02*
X73100Y47900D01*
X72700Y48700D01*
X73500Y48300D01*
X74300Y48700D01*
X73900Y47900D01*
X74300Y47100D01*
X73500Y47500D01*
X72700Y47100D01*
X65455Y117700D02*
X65855Y118500D01*
X65455Y119300D01*
X66255Y118900D01*
X67055Y119300D01*
X66655Y118500D01*
X67055Y117700D01*
X66255Y118100D01*
X65455Y117700D01*
X60400Y47000D02*
X60800Y47800D01*
X60400Y48600D01*
X61200Y48200D01*
X62000Y48600D01*
X61600Y47800D01*
X62000Y47000D01*
X61200Y47400D01*
X60400Y47000D01*
X48228Y42600D02*
X48628Y43400D01*
X48228Y44200D01*
X49028Y43800D01*
X49828Y44200D01*
X49428Y43400D01*
X49828Y42600D01*
X49028Y43000D01*
X48228Y42600D01*
X34900Y69800D02*
X35300Y70600D01*
X34900Y71400D01*
X35700Y71000D01*
X36500Y71400D01*
X36100Y70600D01*
X36500Y69800D01*
X35700Y70200D01*
X34900Y69800D01*
X55700D02*
X56100Y70600D01*
X55700Y71400D01*
X56500Y71000D01*
X57300Y71400D01*
X56900Y70600D01*
X57300Y69800D01*
X56500Y70200D01*
X55700Y69800D01*
X47167D02*
X47567Y70600D01*
X47167Y71400D01*
X47967Y71000D01*
X48767Y71400D01*
X48367Y70600D01*
X48767Y69800D01*
X47967Y70200D01*
X47167Y69800D01*
X83413Y145200D02*
X83813Y146000D01*
X83413Y146800D01*
X84213Y146400D01*
X85013Y146800D01*
X84613Y146000D01*
X85013Y145200D01*
X84213Y145600D01*
X83413Y145200D01*
X13100Y145800D02*
X13500Y146600D01*
X13100Y147400D01*
X13900Y147000D01*
X14700Y147400D01*
X14300Y146600D01*
X14700Y145800D01*
X13900Y146200D01*
X13100Y145800D01*
X30800Y155000D02*
X31200Y155800D01*
X30800Y156600D01*
X31600Y156200D01*
X32400Y156600D01*
X32000Y155800D01*
X32400Y155000D01*
X31600Y155400D01*
X30800Y155000D01*
X31200Y177500D02*
X31600Y178300D01*
X31200Y179100D01*
X32000Y178700D01*
X32800Y179100D01*
X32400Y178300D01*
X32800Y177500D01*
X32000Y177900D01*
X31200Y177500D01*
X23500Y172400D02*
X23900Y173200D01*
X23500Y174000D01*
X24300Y173600D01*
X25100Y174000D01*
X24700Y173200D01*
X25100Y172400D01*
X24300Y172800D01*
X23500Y172400D01*
X87234Y187034D02*
X87634Y187834D01*
X87234Y188634D01*
X88034Y188234D01*
X88834Y188634D01*
X88434Y187834D01*
X88834Y187034D01*
X88034Y187434D01*
X87234Y187034D01*
X10340Y186860D02*
X10740Y187660D01*
X10340Y188460D01*
X11140Y188060D01*
X11940Y188460D01*
X11540Y187660D01*
X11940Y186860D01*
X11140Y187260D01*
X10340Y186860D01*
X38900Y137400D02*
X39300Y138200D01*
X38900Y139000D01*
X39700Y138600D01*
X40500Y139000D01*
X40100Y138200D01*
X40500Y137400D01*
X39700Y137800D01*
X38900Y137400D01*
X43400Y153100D02*
X43800Y153900D01*
X43400Y154700D01*
X44200Y154300D01*
X45000Y154700D01*
X44600Y153900D01*
X45000Y153100D01*
X44200Y153500D01*
X43400Y153100D01*
X59600Y175300D02*
X60000Y176100D01*
X59600Y176900D01*
X60400Y176500D01*
X61200Y176900D01*
X60800Y176100D01*
X61200Y175300D01*
X60400Y175700D01*
X59600Y175300D01*
X52800Y168400D02*
X53200Y169200D01*
X52800Y170000D01*
X53600Y169600D01*
X54400Y170000D01*
X54000Y169200D01*
X54400Y168400D01*
X53600Y168800D01*
X52800Y168400D01*
X43600Y169000D02*
X44000Y169800D01*
X43600Y170600D01*
X44400Y170200D01*
X45200Y170600D01*
X44800Y169800D01*
X45200Y169000D01*
X44400Y169400D01*
X43600Y169000D01*
X35050Y80088D02*
X35450Y80888D01*
X35050Y81688D01*
X35850Y81288D01*
X36650Y81688D01*
X36250Y80888D01*
X36650Y80088D01*
X35850Y80488D01*
X35050Y80088D01*
X57398Y23900D02*
X57798Y24700D01*
X57398Y25500D01*
X58198Y25100D01*
X58998Y25500D01*
X58598Y24700D01*
X58998Y23900D01*
X58198Y24300D01*
X57398Y23900D01*
X58400Y32900D02*
X58800Y33700D01*
X58400Y34500D01*
X59200Y34100D01*
X60000Y34500D01*
X59600Y33700D01*
X60000Y32900D01*
X59200Y33300D01*
X58400Y32900D01*
X65400Y80800D02*
X65800Y81600D01*
X65400Y82400D01*
X66200Y82000D01*
X67000Y82400D01*
X66600Y81600D01*
X67000Y80800D01*
X66200Y81200D01*
X65400Y80800D01*
X88700Y80400D02*
X89100Y81200D01*
X88700Y82000D01*
X89500Y81600D01*
X90300Y82000D01*
X89900Y81200D01*
X90300Y80400D01*
X89500Y80800D01*
X88700Y80400D01*
X77500D02*
X77900Y81200D01*
X77500Y82000D01*
X78300Y81600D01*
X79100Y82000D01*
X78700Y81200D01*
X79100Y80400D01*
X78300Y80800D01*
X77500Y80400D01*
Y91500D02*
X77900Y92300D01*
X77500Y93100D01*
X78300Y92700D01*
X79100Y93100D01*
X78700Y92300D01*
X79100Y91500D01*
X78300Y91900D01*
X77500Y91500D01*
X67498Y91700D02*
X67898Y92500D01*
X67498Y93300D01*
X68298Y92900D01*
X69098Y93300D01*
X68698Y92500D01*
X69098Y91700D01*
X68298Y92100D01*
X67498Y91700D01*
X67116Y69400D02*
X67516Y70200D01*
X67116Y71000D01*
X67917Y70600D01*
X68717Y71000D01*
X68317Y70200D01*
X68717Y69400D01*
X67917Y69800D01*
X67116Y69400D01*
X66200Y41200D02*
X66600Y42000D01*
X66200Y42800D01*
X67000Y42400D01*
X67800Y42800D01*
X67400Y42000D01*
X67800Y41200D01*
X67000Y41600D01*
X66200Y41200D01*
X48300Y34800D02*
X48700Y35600D01*
X48300Y36400D01*
X49100Y36000D01*
X49900Y36400D01*
X49500Y35600D01*
X49900Y34800D01*
X49100Y35200D01*
X48300Y34800D01*
X11700Y58581D02*
X12100Y59381D01*
X11700Y60181D01*
X12500Y59781D01*
X13300Y60181D01*
X12900Y59381D01*
X13300Y58581D01*
X12500Y58981D01*
X11700Y58581D01*
X34200Y168400D02*
X34600Y169200D01*
X34200Y170000D01*
X35000Y169600D01*
X35800Y170000D01*
X35400Y169200D01*
X35800Y168400D01*
X35000Y168800D01*
X34200Y168400D01*
X73600Y169700D02*
X74000Y170500D01*
X73600Y171300D01*
X74400Y170900D01*
X75200Y171300D01*
X74800Y170500D01*
X75200Y169700D01*
X74400Y170100D01*
X73600Y169700D01*
X60422Y159800D02*
X60822Y160600D01*
X60422Y161400D01*
X61222Y161000D01*
X62022Y161400D01*
X61622Y160600D01*
X62022Y159800D01*
X61222Y160200D01*
X60422Y159800D01*
X52200Y155853D02*
X52600Y156653D01*
X52200Y157453D01*
X53000Y157053D01*
X53800Y157453D01*
X53400Y156653D01*
X53800Y155853D01*
X53000Y156253D01*
X52200Y155853D01*
X55400Y129194D02*
X55800Y129994D01*
X55400Y130794D01*
X56200Y130394D01*
X57000Y130794D01*
X56600Y129994D01*
X57000Y129194D01*
X56200Y129594D01*
X55400Y129194D01*
X68400Y140100D02*
X68800Y140900D01*
X68400Y141700D01*
X69200Y141300D01*
X70000Y141700D01*
X69600Y140900D01*
X70000Y140100D01*
X69200Y140500D01*
X68400Y140100D01*
X65900Y128000D02*
X66300Y128800D01*
X65900Y129600D01*
X66700Y129200D01*
X67500Y129600D01*
X67100Y128800D01*
X67500Y128000D01*
X66700Y128400D01*
X65900Y128000D01*
X73800Y132600D02*
X74200Y133400D01*
X73800Y134200D01*
X74600Y133800D01*
X75400Y134200D01*
X75000Y133400D01*
X75400Y132600D01*
X74600Y133000D01*
X73800Y132600D01*
X9866Y48434D02*
X10266Y49234D01*
X9866Y50034D01*
X10666Y49634D01*
X11466Y50034D01*
X11066Y49234D01*
X11466Y48434D01*
X10666Y48834D01*
X9866Y48434D01*
X87934Y28566D02*
X88334Y29366D01*
X87934Y30166D01*
X88734Y29766D01*
X89534Y30166D01*
X89134Y29366D01*
X89534Y28566D01*
X88734Y28966D01*
X87934Y28566D01*
Y48466D02*
X88334Y49266D01*
X87934Y50066D01*
X88734Y49666D01*
X89534Y50066D01*
X89134Y49266D01*
X89534Y48466D01*
X88734Y48866D01*
X87934Y48466D01*
X9800Y28100D02*
X10200Y28900D01*
X9800Y29700D01*
X10600Y29300D01*
X11400Y29700D01*
X11000Y28900D01*
X11400Y28100D01*
X10600Y28500D01*
X9800Y28100D01*
X36200Y46900D02*
X36600Y47700D01*
X36200Y48500D01*
X37000Y48100D01*
X37800Y48500D01*
X37400Y47700D01*
X37800Y46900D01*
X37000Y47300D01*
X36200Y46900D01*
X43688Y83600D02*
X44088Y84400D01*
X43688Y85200D01*
X44488Y84800D01*
X45288Y85200D01*
X44888Y84400D01*
X45288Y83600D01*
X44488Y84000D01*
X43688Y83600D01*
X53800Y81800D02*
X54200Y82600D01*
X53800Y83400D01*
X54600Y83000D01*
X55400Y83400D01*
X55000Y82600D01*
X55400Y81800D01*
X54600Y82200D01*
X53800Y81800D01*
X29600Y162586D02*
X30000Y163386D01*
X29600Y164186D01*
X30400Y163786D01*
X31200Y164186D01*
X30800Y163386D01*
X31200Y162586D01*
X30400Y162986D01*
X29600Y162586D01*
X48413Y129613D02*
X48813Y130413D01*
X48413Y131213D01*
X49213Y130813D01*
X50013Y131213D01*
X49613Y130413D01*
X50013Y129613D01*
X49213Y130013D01*
X48413Y129613D01*
X67310Y177290D02*
X67710Y178090D01*
X67310Y178890D01*
X68110Y178490D01*
X68910Y178890D01*
X68510Y178090D01*
X68910Y177290D01*
X68110Y177690D01*
X67310Y177290D01*
X181838Y126129D02*
Y127729D01*
X183438D01*
Y126129D01*
X181838D01*
Y106129D02*
Y107729D01*
X183438D01*
Y106129D01*
X181838D01*
Y66129D02*
Y67729D01*
X183438D01*
Y66129D01*
X181838D01*
Y76129D02*
Y77729D01*
X183438D01*
Y76129D01*
X181838D01*
Y86129D02*
Y87729D01*
X183438D01*
Y86129D01*
X181838D01*
Y96129D02*
Y97729D01*
X183438D01*
Y96129D01*
X181838D01*
Y116129D02*
Y117729D01*
X183438D01*
Y116129D01*
X181838D01*
Y136129D02*
Y137729D01*
X183438D01*
Y136129D01*
X181838D01*
X111838Y75657D02*
Y77257D01*
X113438D01*
Y75657D01*
X111838D01*
Y95657D02*
Y97257D01*
X113438D01*
Y95657D01*
X111838D01*
Y135657D02*
Y137257D01*
X113438D01*
Y135657D01*
X111838D01*
Y125657D02*
Y127257D01*
X113438D01*
Y125657D01*
X111838D01*
Y115657D02*
Y117257D01*
X113438D01*
Y115657D01*
X111838D01*
Y105657D02*
Y107257D01*
X113438D01*
Y105657D01*
X111838D01*
Y85657D02*
Y87257D01*
X113438D01*
Y85657D01*
X111838D01*
Y65657D02*
Y67257D01*
X113438D01*
Y65657D01*
X111838D01*
X138031Y58649D02*
X137232Y60249D01*
X138831D01*
X138031Y58649D01*
X157244D02*
X156444Y60249D01*
X158044D01*
X157244Y58649D01*
X155807Y178531D02*
X156207Y178931D01*
X156607D01*
X156207Y179331D01*
X156607Y179731D01*
X156207D01*
X155807Y180131D01*
X155407Y179731D01*
X155007D01*
X155407Y179331D01*
X155007Y178931D01*
X155407D01*
X155807Y178531D01*
X139469D02*
X139868Y178931D01*
X140269D01*
X139868Y179331D01*
X140269Y179731D01*
X139868D01*
X139469Y180131D01*
X139068Y179731D01*
X138669D01*
X139068Y179331D01*
X138669Y178931D01*
X139068D01*
X139469Y178531D01*
X127025Y73614D02*
X127425Y74414D01*
X127025Y75214D01*
X127825Y74814D01*
X128625Y75214D01*
X128225Y74414D01*
X128625Y73614D01*
X127825Y74014D01*
X127025Y73614D01*
X143325Y24700D02*
X143725Y25500D01*
X143325Y26300D01*
X144125Y25900D01*
X144925Y26300D01*
X144525Y25500D01*
X144925Y24700D01*
X144125Y25100D01*
X143325Y24700D01*
X182325Y58100D02*
X182725Y58900D01*
X182325Y59700D01*
X183125Y59300D01*
X183925Y59700D01*
X183525Y58900D01*
X183925Y58100D01*
X183125Y58500D01*
X182325Y58100D01*
X117034Y38400D02*
X117434Y39200D01*
X117034Y40000D01*
X117834Y39600D01*
X118634Y40000D01*
X118234Y39200D01*
X118634Y38400D01*
X117834Y38800D01*
X117034Y38400D01*
X186625Y131100D02*
X187025Y131900D01*
X186625Y132700D01*
X187425Y132300D01*
X188225Y132700D01*
X187825Y131900D01*
X188225Y131100D01*
X187425Y131500D01*
X186625Y131100D01*
X187025Y121200D02*
X187425Y122000D01*
X187025Y122800D01*
X187825Y122400D01*
X188625Y122800D01*
X188225Y122000D01*
X188625Y121200D01*
X187825Y121600D01*
X187025Y121200D01*
X187286Y111000D02*
X187686Y111800D01*
X187286Y112600D01*
X188086Y112200D01*
X188886Y112600D01*
X188486Y111800D01*
X188886Y111000D01*
X188086Y111400D01*
X187286Y111000D01*
Y91100D02*
X187686Y91900D01*
X187286Y92700D01*
X188086Y92300D01*
X188886Y92700D01*
X188486Y91900D01*
X188886Y91100D01*
X188086Y91500D01*
X187286Y91100D01*
X192625Y150000D02*
X193025Y150800D01*
X192625Y151600D01*
X193425Y151200D01*
X194225Y151600D01*
X193825Y150800D01*
X194225Y150000D01*
X193425Y150400D01*
X192625Y150000D01*
X171125Y47100D02*
X171525Y47900D01*
X171125Y48700D01*
X171925Y48300D01*
X172725Y48700D01*
X172325Y47900D01*
X172725Y47100D01*
X171925Y47500D01*
X171125Y47100D01*
X163880Y117700D02*
X164280Y118500D01*
X163880Y119300D01*
X164680Y118900D01*
X165480Y119300D01*
X165080Y118500D01*
X165480Y117700D01*
X164680Y118100D01*
X163880Y117700D01*
X158825Y47000D02*
X159225Y47800D01*
X158825Y48600D01*
X159625Y48200D01*
X160425Y48600D01*
X160025Y47800D01*
X160425Y47000D01*
X159625Y47400D01*
X158825Y47000D01*
X146653Y42600D02*
X147053Y43400D01*
X146653Y44200D01*
X147453Y43800D01*
X148253Y44200D01*
X147853Y43400D01*
X148253Y42600D01*
X147453Y43000D01*
X146653Y42600D01*
X133325Y69800D02*
X133725Y70600D01*
X133325Y71400D01*
X134125Y71000D01*
X134925Y71400D01*
X134525Y70600D01*
X134925Y69800D01*
X134125Y70200D01*
X133325Y69800D01*
X154125D02*
X154525Y70600D01*
X154125Y71400D01*
X154925Y71000D01*
X155725Y71400D01*
X155325Y70600D01*
X155725Y69800D01*
X154925Y70200D01*
X154125Y69800D01*
X145592D02*
X145992Y70600D01*
X145592Y71400D01*
X146392Y71000D01*
X147192Y71400D01*
X146792Y70600D01*
X147192Y69800D01*
X146392Y70200D01*
X145592Y69800D01*
X181838Y145200D02*
X182238Y146000D01*
X181838Y146800D01*
X182638Y146400D01*
X183438Y146800D01*
X183038Y146000D01*
X183438Y145200D01*
X182638Y145600D01*
X181838Y145200D01*
X111525Y145800D02*
X111925Y146600D01*
X111525Y147400D01*
X112325Y147000D01*
X113125Y147400D01*
X112725Y146600D01*
X113125Y145800D01*
X112325Y146200D01*
X111525Y145800D01*
X129225Y155000D02*
X129625Y155800D01*
X129225Y156600D01*
X130025Y156200D01*
X130825Y156600D01*
X130425Y155800D01*
X130825Y155000D01*
X130025Y155400D01*
X129225Y155000D01*
X129625Y177500D02*
X130025Y178300D01*
X129625Y179100D01*
X130425Y178700D01*
X131225Y179100D01*
X130825Y178300D01*
X131225Y177500D01*
X130425Y177900D01*
X129625Y177500D01*
X121925Y172400D02*
X122325Y173200D01*
X121925Y174000D01*
X122725Y173600D01*
X123525Y174000D01*
X123125Y173200D01*
X123525Y172400D01*
X122725Y172800D01*
X121925Y172400D01*
X185659Y187034D02*
X186059Y187834D01*
X185659Y188634D01*
X186459Y188234D01*
X187259Y188634D01*
X186859Y187834D01*
X187259Y187034D01*
X186459Y187434D01*
X185659Y187034D01*
X108765Y186860D02*
X109165Y187660D01*
X108765Y188460D01*
X109565Y188060D01*
X110365Y188460D01*
X109965Y187660D01*
X110365Y186860D01*
X109565Y187260D01*
X108765Y186860D01*
X137325Y137400D02*
X137725Y138200D01*
X137325Y139000D01*
X138125Y138600D01*
X138925Y139000D01*
X138525Y138200D01*
X138925Y137400D01*
X138125Y137800D01*
X137325Y137400D01*
X141825Y153100D02*
X142225Y153900D01*
X141825Y154700D01*
X142625Y154300D01*
X143425Y154700D01*
X143025Y153900D01*
X143425Y153100D01*
X142625Y153500D01*
X141825Y153100D01*
X158025Y175300D02*
X158425Y176100D01*
X158025Y176900D01*
X158825Y176500D01*
X159625Y176900D01*
X159225Y176100D01*
X159625Y175300D01*
X158825Y175700D01*
X158025Y175300D01*
X151225Y168400D02*
X151625Y169200D01*
X151225Y170000D01*
X152025Y169600D01*
X152825Y170000D01*
X152425Y169200D01*
X152825Y168400D01*
X152025Y168800D01*
X151225Y168400D01*
X142025Y169000D02*
X142425Y169800D01*
X142025Y170600D01*
X142825Y170200D01*
X143625Y170600D01*
X143225Y169800D01*
X143625Y169000D01*
X142825Y169400D01*
X142025Y169000D01*
X133475Y80088D02*
X133876Y80888D01*
X133475Y81688D01*
X134275Y81288D01*
X135075Y81688D01*
X134676Y80888D01*
X135075Y80088D01*
X134275Y80488D01*
X133475Y80088D01*
X155823Y23900D02*
X156223Y24700D01*
X155823Y25500D01*
X156623Y25100D01*
X157423Y25500D01*
X157023Y24700D01*
X157423Y23900D01*
X156623Y24300D01*
X155823Y23900D01*
X156825Y32900D02*
X157225Y33700D01*
X156825Y34500D01*
X157625Y34100D01*
X158425Y34500D01*
X158025Y33700D01*
X158425Y32900D01*
X157625Y33300D01*
X156825Y32900D01*
X163825Y80800D02*
X164225Y81600D01*
X163825Y82400D01*
X164625Y82000D01*
X165425Y82400D01*
X165025Y81600D01*
X165425Y80800D01*
X164625Y81200D01*
X163825Y80800D01*
X187125Y80400D02*
X187525Y81200D01*
X187125Y82000D01*
X187925Y81600D01*
X188725Y82000D01*
X188325Y81200D01*
X188725Y80400D01*
X187925Y80800D01*
X187125Y80400D01*
X175925D02*
X176325Y81200D01*
X175925Y82000D01*
X176725Y81600D01*
X177525Y82000D01*
X177125Y81200D01*
X177525Y80400D01*
X176725Y80800D01*
X175925Y80400D01*
Y91500D02*
X176325Y92300D01*
X175925Y93100D01*
X176725Y92700D01*
X177525Y93100D01*
X177125Y92300D01*
X177525Y91500D01*
X176725Y91900D01*
X175925Y91500D01*
X165923Y91700D02*
X166323Y92500D01*
X165923Y93300D01*
X166723Y92900D01*
X167523Y93300D01*
X167123Y92500D01*
X167523Y91700D01*
X166723Y92100D01*
X165923Y91700D01*
X165542Y69400D02*
X165942Y70200D01*
X165542Y71000D01*
X166342Y70600D01*
X167142Y71000D01*
X166742Y70200D01*
X167142Y69400D01*
X166342Y69800D01*
X165542Y69400D01*
X164625Y41200D02*
X165025Y42000D01*
X164625Y42800D01*
X165425Y42400D01*
X166225Y42800D01*
X165825Y42000D01*
X166225Y41200D01*
X165425Y41600D01*
X164625Y41200D01*
X146725Y34800D02*
X147125Y35600D01*
X146725Y36400D01*
X147525Y36000D01*
X148325Y36400D01*
X147925Y35600D01*
X148325Y34800D01*
X147525Y35200D01*
X146725Y34800D01*
X110125Y58581D02*
X110525Y59381D01*
X110125Y60181D01*
X110925Y59781D01*
X111725Y60181D01*
X111325Y59381D01*
X111725Y58581D01*
X110925Y58981D01*
X110125Y58581D01*
X132625Y168400D02*
X133025Y169200D01*
X132625Y170000D01*
X133425Y169600D01*
X134225Y170000D01*
X133825Y169200D01*
X134225Y168400D01*
X133425Y168800D01*
X132625Y168400D01*
X172025Y169700D02*
X172425Y170500D01*
X172025Y171300D01*
X172825Y170900D01*
X173625Y171300D01*
X173225Y170500D01*
X173625Y169700D01*
X172825Y170100D01*
X172025Y169700D01*
X158847Y159800D02*
X159247Y160600D01*
X158847Y161400D01*
X159647Y161000D01*
X160447Y161400D01*
X160047Y160600D01*
X160447Y159800D01*
X159647Y160200D01*
X158847Y159800D01*
X150625Y155853D02*
X151025Y156653D01*
X150625Y157453D01*
X151425Y157053D01*
X152225Y157453D01*
X151825Y156653D01*
X152225Y155853D01*
X151425Y156253D01*
X150625Y155853D01*
X153825Y129194D02*
X154225Y129994D01*
X153825Y130794D01*
X154625Y130394D01*
X155425Y130794D01*
X155025Y129994D01*
X155425Y129194D01*
X154625Y129594D01*
X153825Y129194D01*
X166825Y140100D02*
X167225Y140900D01*
X166825Y141700D01*
X167625Y141300D01*
X168425Y141700D01*
X168025Y140900D01*
X168425Y140100D01*
X167625Y140500D01*
X166825Y140100D01*
X164325Y128000D02*
X164725Y128800D01*
X164325Y129600D01*
X165125Y129200D01*
X165925Y129600D01*
X165525Y128800D01*
X165925Y128000D01*
X165125Y128400D01*
X164325Y128000D01*
X172225Y132600D02*
X172625Y133400D01*
X172225Y134200D01*
X173025Y133800D01*
X173825Y134200D01*
X173425Y133400D01*
X173825Y132600D01*
X173025Y133000D01*
X172225Y132600D01*
X108291Y48434D02*
X108691Y49234D01*
X108291Y50034D01*
X109091Y49634D01*
X109891Y50034D01*
X109491Y49234D01*
X109891Y48434D01*
X109091Y48834D01*
X108291Y48434D01*
X186359Y28566D02*
X186759Y29366D01*
X186359Y30166D01*
X187159Y29766D01*
X187959Y30166D01*
X187559Y29366D01*
X187959Y28566D01*
X187159Y28966D01*
X186359Y28566D01*
Y48466D02*
X186759Y49266D01*
X186359Y50066D01*
X187159Y49666D01*
X187959Y50066D01*
X187559Y49266D01*
X187959Y48466D01*
X187159Y48866D01*
X186359Y48466D01*
X108225Y28100D02*
X108625Y28900D01*
X108225Y29700D01*
X109025Y29300D01*
X109825Y29700D01*
X109425Y28900D01*
X109825Y28100D01*
X109025Y28500D01*
X108225Y28100D01*
X134625Y46900D02*
X135025Y47700D01*
X134625Y48500D01*
X135425Y48100D01*
X136225Y48500D01*
X135825Y47700D01*
X136225Y46900D01*
X135425Y47300D01*
X134625Y46900D01*
X142113Y83600D02*
X142513Y84400D01*
X142113Y85200D01*
X142913Y84800D01*
X143713Y85200D01*
X143313Y84400D01*
X143713Y83600D01*
X142913Y84000D01*
X142113Y83600D01*
X152225Y81800D02*
X152625Y82600D01*
X152225Y83400D01*
X153025Y83000D01*
X153825Y83400D01*
X153425Y82600D01*
X153825Y81800D01*
X153025Y82200D01*
X152225Y81800D01*
X128025Y162586D02*
X128425Y163386D01*
X128025Y164186D01*
X128825Y163786D01*
X129625Y164186D01*
X129225Y163386D01*
X129625Y162586D01*
X128825Y162986D01*
X128025Y162586D01*
X146838Y129613D02*
X147238Y130413D01*
X146838Y131213D01*
X147638Y130813D01*
X148438Y131213D01*
X148038Y130413D01*
X148438Y129613D01*
X147638Y130013D01*
X146838Y129613D01*
X165735Y177290D02*
X166135Y178090D01*
X165735Y178890D01*
X166535Y178490D01*
X167335Y178890D01*
X166935Y178090D01*
X167335Y177290D01*
X166535Y177690D01*
X165735Y177290D01*
X280263Y126129D02*
Y127729D01*
X281863D01*
Y126129D01*
X280263D01*
Y106129D02*
Y107729D01*
X281863D01*
Y106129D01*
X280263D01*
Y66129D02*
Y67729D01*
X281863D01*
Y66129D01*
X280263D01*
Y76129D02*
Y77729D01*
X281863D01*
Y76129D01*
X280263D01*
Y86129D02*
Y87729D01*
X281863D01*
Y86129D01*
X280263D01*
Y96129D02*
Y97729D01*
X281863D01*
Y96129D01*
X280263D01*
Y116129D02*
Y117729D01*
X281863D01*
Y116129D01*
X280263D01*
Y136129D02*
Y137729D01*
X281863D01*
Y136129D01*
X280263D01*
X210263Y75657D02*
Y77257D01*
X211863D01*
Y75657D01*
X210263D01*
Y95657D02*
Y97257D01*
X211863D01*
Y95657D01*
X210263D01*
Y135657D02*
Y137257D01*
X211863D01*
Y135657D01*
X210263D01*
Y125657D02*
Y127257D01*
X211863D01*
Y125657D01*
X210263D01*
Y115657D02*
Y117257D01*
X211863D01*
Y115657D01*
X210263D01*
Y105657D02*
Y107257D01*
X211863D01*
Y105657D01*
X210263D01*
Y85657D02*
Y87257D01*
X211863D01*
Y85657D01*
X210263D01*
Y65657D02*
Y67257D01*
X211863D01*
Y65657D01*
X210263D01*
X236457Y58649D02*
X235657Y60249D01*
X237257D01*
X236457Y58649D01*
X255669D02*
X254869Y60249D01*
X256469D01*
X255669Y58649D01*
X254232Y178531D02*
X254632Y178931D01*
X255032D01*
X254632Y179331D01*
X255032Y179731D01*
X254632D01*
X254232Y180131D01*
X253832Y179731D01*
X253432D01*
X253832Y179331D01*
X253432Y178931D01*
X253832D01*
X254232Y178531D01*
X237894D02*
X238294Y178931D01*
X238694D01*
X238294Y179331D01*
X238694Y179731D01*
X238294D01*
X237894Y180131D01*
X237494Y179731D01*
X237094D01*
X237494Y179331D01*
X237094Y178931D01*
X237494D01*
X237894Y178531D01*
X225450Y73614D02*
X225850Y74414D01*
X225450Y75214D01*
X226250Y74814D01*
X227050Y75214D01*
X226650Y74414D01*
X227050Y73614D01*
X226250Y74014D01*
X225450Y73614D01*
X241750Y24700D02*
X242150Y25500D01*
X241750Y26300D01*
X242550Y25900D01*
X243350Y26300D01*
X242950Y25500D01*
X243350Y24700D01*
X242550Y25100D01*
X241750Y24700D01*
X280750Y58100D02*
X281150Y58900D01*
X280750Y59700D01*
X281550Y59300D01*
X282350Y59700D01*
X281950Y58900D01*
X282350Y58100D01*
X281550Y58500D01*
X280750Y58100D01*
X215459Y38400D02*
X215859Y39200D01*
X215459Y40000D01*
X216259Y39600D01*
X217059Y40000D01*
X216659Y39200D01*
X217059Y38400D01*
X216259Y38800D01*
X215459Y38400D01*
X285050Y131100D02*
X285450Y131900D01*
X285050Y132700D01*
X285850Y132300D01*
X286650Y132700D01*
X286250Y131900D01*
X286650Y131100D01*
X285850Y131500D01*
X285050Y131100D01*
X285450Y121200D02*
X285850Y122000D01*
X285450Y122800D01*
X286250Y122400D01*
X287050Y122800D01*
X286650Y122000D01*
X287050Y121200D01*
X286250Y121600D01*
X285450Y121200D01*
X285711Y111000D02*
X286111Y111800D01*
X285711Y112600D01*
X286511Y112200D01*
X287311Y112600D01*
X286911Y111800D01*
X287311Y111000D01*
X286511Y111400D01*
X285711Y111000D01*
Y91100D02*
X286111Y91900D01*
X285711Y92700D01*
X286511Y92300D01*
X287311Y92700D01*
X286911Y91900D01*
X287311Y91100D01*
X286511Y91500D01*
X285711Y91100D01*
X291050Y150000D02*
X291450Y150800D01*
X291050Y151600D01*
X291850Y151200D01*
X292650Y151600D01*
X292250Y150800D01*
X292650Y150000D01*
X291850Y150400D01*
X291050Y150000D01*
X269550Y47100D02*
X269950Y47900D01*
X269550Y48700D01*
X270350Y48300D01*
X271150Y48700D01*
X270750Y47900D01*
X271150Y47100D01*
X270350Y47500D01*
X269550Y47100D01*
X262305Y117700D02*
X262705Y118500D01*
X262305Y119300D01*
X263106Y118900D01*
X263906Y119300D01*
X263506Y118500D01*
X263906Y117700D01*
X263106Y118100D01*
X262305Y117700D01*
X257250Y47000D02*
X257650Y47800D01*
X257250Y48600D01*
X258050Y48200D01*
X258850Y48600D01*
X258450Y47800D01*
X258850Y47000D01*
X258050Y47400D01*
X257250Y47000D01*
X245078Y42600D02*
X245478Y43400D01*
X245078Y44200D01*
X245878Y43800D01*
X246678Y44200D01*
X246278Y43400D01*
X246678Y42600D01*
X245878Y43000D01*
X245078Y42600D01*
X231750Y69800D02*
X232150Y70600D01*
X231750Y71400D01*
X232550Y71000D01*
X233350Y71400D01*
X232950Y70600D01*
X233350Y69800D01*
X232550Y70200D01*
X231750Y69800D01*
X252550D02*
X252950Y70600D01*
X252550Y71400D01*
X253350Y71000D01*
X254150Y71400D01*
X253750Y70600D01*
X254150Y69800D01*
X253350Y70200D01*
X252550Y69800D01*
X244017D02*
X244417Y70600D01*
X244017Y71400D01*
X244817Y71000D01*
X245617Y71400D01*
X245217Y70600D01*
X245617Y69800D01*
X244817Y70200D01*
X244017Y69800D01*
X280263Y145200D02*
X280663Y146000D01*
X280263Y146800D01*
X281063Y146400D01*
X281863Y146800D01*
X281463Y146000D01*
X281863Y145200D01*
X281063Y145600D01*
X280263Y145200D01*
X209950Y145800D02*
X210350Y146600D01*
X209950Y147400D01*
X210750Y147000D01*
X211550Y147400D01*
X211150Y146600D01*
X211550Y145800D01*
X210750Y146200D01*
X209950Y145800D01*
X227650Y155000D02*
X228050Y155800D01*
X227650Y156600D01*
X228450Y156200D01*
X229250Y156600D01*
X228850Y155800D01*
X229250Y155000D01*
X228450Y155400D01*
X227650Y155000D01*
X228050Y177500D02*
X228450Y178300D01*
X228050Y179100D01*
X228850Y178700D01*
X229650Y179100D01*
X229250Y178300D01*
X229650Y177500D01*
X228850Y177900D01*
X228050Y177500D01*
X220350Y172400D02*
X220750Y173200D01*
X220350Y174000D01*
X221150Y173600D01*
X221950Y174000D01*
X221550Y173200D01*
X221950Y172400D01*
X221150Y172800D01*
X220350Y172400D01*
X284084Y187034D02*
X284484Y187834D01*
X284084Y188634D01*
X284884Y188234D01*
X285684Y188634D01*
X285284Y187834D01*
X285684Y187034D01*
X284884Y187434D01*
X284084Y187034D01*
X207190Y186860D02*
X207590Y187660D01*
X207190Y188460D01*
X207990Y188060D01*
X208790Y188460D01*
X208390Y187660D01*
X208790Y186860D01*
X207990Y187260D01*
X207190Y186860D01*
X235750Y137400D02*
X236150Y138200D01*
X235750Y139000D01*
X236550Y138600D01*
X237350Y139000D01*
X236950Y138200D01*
X237350Y137400D01*
X236550Y137800D01*
X235750Y137400D01*
X240250Y153100D02*
X240650Y153900D01*
X240250Y154700D01*
X241050Y154300D01*
X241850Y154700D01*
X241450Y153900D01*
X241850Y153100D01*
X241050Y153500D01*
X240250Y153100D01*
X256450Y175300D02*
X256850Y176100D01*
X256450Y176900D01*
X257250Y176500D01*
X258050Y176900D01*
X257650Y176100D01*
X258050Y175300D01*
X257250Y175700D01*
X256450Y175300D01*
X249650Y168400D02*
X250050Y169200D01*
X249650Y170000D01*
X250450Y169600D01*
X251250Y170000D01*
X250850Y169200D01*
X251250Y168400D01*
X250450Y168800D01*
X249650Y168400D01*
X240450Y169000D02*
X240850Y169800D01*
X240450Y170600D01*
X241250Y170200D01*
X242050Y170600D01*
X241650Y169800D01*
X242050Y169000D01*
X241250Y169400D01*
X240450Y169000D01*
X231901Y80088D02*
X232301Y80888D01*
X231901Y81688D01*
X232701Y81288D01*
X233501Y81688D01*
X233101Y80888D01*
X233501Y80088D01*
X232701Y80488D01*
X231901Y80088D01*
X254248Y23900D02*
X254648Y24700D01*
X254248Y25500D01*
X255048Y25100D01*
X255848Y25500D01*
X255448Y24700D01*
X255848Y23900D01*
X255048Y24300D01*
X254248Y23900D01*
X255250Y32900D02*
X255650Y33700D01*
X255250Y34500D01*
X256050Y34100D01*
X256850Y34500D01*
X256450Y33700D01*
X256850Y32900D01*
X256050Y33300D01*
X255250Y32900D01*
X262250Y80800D02*
X262650Y81600D01*
X262250Y82400D01*
X263050Y82000D01*
X263850Y82400D01*
X263450Y81600D01*
X263850Y80800D01*
X263050Y81200D01*
X262250Y80800D01*
X285550Y80400D02*
X285950Y81200D01*
X285550Y82000D01*
X286350Y81600D01*
X287150Y82000D01*
X286750Y81200D01*
X287150Y80400D01*
X286350Y80800D01*
X285550Y80400D01*
X274350D02*
X274750Y81200D01*
X274350Y82000D01*
X275150Y81600D01*
X275950Y82000D01*
X275550Y81200D01*
X275950Y80400D01*
X275150Y80800D01*
X274350Y80400D01*
Y91500D02*
X274750Y92300D01*
X274350Y93100D01*
X275150Y92700D01*
X275950Y93100D01*
X275550Y92300D01*
X275950Y91500D01*
X275150Y91900D01*
X274350Y91500D01*
X264348Y91700D02*
X264748Y92500D01*
X264348Y93300D01*
X265148Y92900D01*
X265948Y93300D01*
X265548Y92500D01*
X265948Y91700D01*
X265148Y92100D01*
X264348Y91700D01*
X263967Y69400D02*
X264367Y70200D01*
X263967Y71000D01*
X264767Y70600D01*
X265567Y71000D01*
X265167Y70200D01*
X265567Y69400D01*
X264767Y69800D01*
X263967Y69400D01*
X263050Y41200D02*
X263450Y42000D01*
X263050Y42800D01*
X263850Y42400D01*
X264650Y42800D01*
X264250Y42000D01*
X264650Y41200D01*
X263850Y41600D01*
X263050Y41200D01*
X245150Y34800D02*
X245550Y35600D01*
X245150Y36400D01*
X245950Y36000D01*
X246750Y36400D01*
X246350Y35600D01*
X246750Y34800D01*
X245950Y35200D01*
X245150Y34800D01*
X208550Y58581D02*
X208950Y59381D01*
X208550Y60181D01*
X209350Y59781D01*
X210150Y60181D01*
X209750Y59381D01*
X210150Y58581D01*
X209350Y58981D01*
X208550Y58581D01*
X231050Y168400D02*
X231450Y169200D01*
X231050Y170000D01*
X231850Y169600D01*
X232650Y170000D01*
X232250Y169200D01*
X232650Y168400D01*
X231850Y168800D01*
X231050Y168400D01*
X270450Y169700D02*
X270850Y170500D01*
X270450Y171300D01*
X271250Y170900D01*
X272050Y171300D01*
X271650Y170500D01*
X272050Y169700D01*
X271250Y170100D01*
X270450Y169700D01*
X257272Y159800D02*
X257672Y160600D01*
X257272Y161400D01*
X258072Y161000D01*
X258872Y161400D01*
X258472Y160600D01*
X258872Y159800D01*
X258072Y160200D01*
X257272Y159800D01*
X249050Y155853D02*
X249450Y156653D01*
X249050Y157453D01*
X249850Y157053D01*
X250650Y157453D01*
X250250Y156653D01*
X250650Y155853D01*
X249850Y156253D01*
X249050Y155853D01*
X252250Y129194D02*
X252650Y129994D01*
X252250Y130794D01*
X253050Y130394D01*
X253850Y130794D01*
X253450Y129994D01*
X253850Y129194D01*
X253050Y129594D01*
X252250Y129194D01*
X265250Y140100D02*
X265650Y140900D01*
X265250Y141700D01*
X266050Y141300D01*
X266850Y141700D01*
X266450Y140900D01*
X266850Y140100D01*
X266050Y140500D01*
X265250Y140100D01*
X262750Y128000D02*
X263150Y128800D01*
X262750Y129600D01*
X263550Y129200D01*
X264350Y129600D01*
X263950Y128800D01*
X264350Y128000D01*
X263550Y128400D01*
X262750Y128000D01*
X270650Y132600D02*
X271050Y133400D01*
X270650Y134200D01*
X271450Y133800D01*
X272250Y134200D01*
X271850Y133400D01*
X272250Y132600D01*
X271450Y133000D01*
X270650Y132600D01*
X206716Y48434D02*
X207117Y49234D01*
X206716Y50034D01*
X207517Y49634D01*
X208316Y50034D01*
X207916Y49234D01*
X208316Y48434D01*
X207517Y48834D01*
X206716Y48434D01*
X284784Y28566D02*
X285184Y29366D01*
X284784Y30166D01*
X285584Y29766D01*
X286384Y30166D01*
X285984Y29366D01*
X286384Y28566D01*
X285584Y28966D01*
X284784Y28566D01*
Y48466D02*
X285184Y49266D01*
X284784Y50066D01*
X285584Y49666D01*
X286384Y50066D01*
X285984Y49266D01*
X286384Y48466D01*
X285584Y48866D01*
X284784Y48466D01*
X206650Y28100D02*
X207050Y28900D01*
X206650Y29700D01*
X207450Y29300D01*
X208250Y29700D01*
X207850Y28900D01*
X208250Y28100D01*
X207450Y28500D01*
X206650Y28100D01*
X233050Y46900D02*
X233450Y47700D01*
X233050Y48500D01*
X233850Y48100D01*
X234650Y48500D01*
X234250Y47700D01*
X234650Y46900D01*
X233850Y47300D01*
X233050Y46900D01*
X240539Y83600D02*
X240939Y84400D01*
X240539Y85200D01*
X241339Y84800D01*
X242139Y85200D01*
X241739Y84400D01*
X242139Y83600D01*
X241339Y84000D01*
X240539Y83600D01*
X250650Y81800D02*
X251050Y82600D01*
X250650Y83400D01*
X251450Y83000D01*
X252250Y83400D01*
X251850Y82600D01*
X252250Y81800D01*
X251450Y82200D01*
X250650Y81800D01*
X226450Y162586D02*
X226850Y163386D01*
X226450Y164186D01*
X227250Y163786D01*
X228050Y164186D01*
X227650Y163386D01*
X228050Y162586D01*
X227250Y162986D01*
X226450Y162586D01*
X245263Y129613D02*
X245663Y130413D01*
X245263Y131213D01*
X246063Y130813D01*
X246863Y131213D01*
X246463Y130413D01*
X246863Y129613D01*
X246063Y130013D01*
X245263Y129613D01*
X264161Y177290D02*
X264561Y178090D01*
X264161Y178890D01*
X264961Y178490D01*
X265761Y178890D01*
X265361Y178090D01*
X265761Y177290D01*
X264961Y177690D01*
X264161Y177290D01*
X378688Y126129D02*
Y127729D01*
X380288D01*
Y126129D01*
X378688D01*
Y106129D02*
Y107729D01*
X380288D01*
Y106129D01*
X378688D01*
Y66129D02*
Y67729D01*
X380288D01*
Y66129D01*
X378688D01*
Y76129D02*
Y77729D01*
X380288D01*
Y76129D01*
X378688D01*
Y86129D02*
Y87729D01*
X380288D01*
Y86129D01*
X378688D01*
Y96129D02*
Y97729D01*
X380288D01*
Y96129D01*
X378688D01*
Y116129D02*
Y117729D01*
X380288D01*
Y116129D01*
X378688D01*
Y136129D02*
Y137729D01*
X380288D01*
Y136129D01*
X378688D01*
X308688Y75657D02*
Y77257D01*
X310288D01*
Y75657D01*
X308688D01*
Y95657D02*
Y97257D01*
X310288D01*
Y95657D01*
X308688D01*
Y135657D02*
Y137257D01*
X310288D01*
Y135657D01*
X308688D01*
Y125657D02*
Y127257D01*
X310288D01*
Y125657D01*
X308688D01*
Y115657D02*
Y117257D01*
X310288D01*
Y115657D01*
X308688D01*
Y105657D02*
Y107257D01*
X310288D01*
Y105657D01*
X308688D01*
Y85657D02*
Y87257D01*
X310288D01*
Y85657D01*
X308688D01*
Y65657D02*
Y67257D01*
X310288D01*
Y65657D01*
X308688D01*
X334882Y58649D02*
X334082Y60249D01*
X335682D01*
X334882Y58649D01*
X354095D02*
X353294Y60249D01*
X354894D01*
X354095Y58649D01*
X352658Y178531D02*
X353058Y178931D01*
X353457D01*
X353058Y179331D01*
X353457Y179731D01*
X353058D01*
X352658Y180131D01*
X352257Y179731D01*
X351857D01*
X352257Y179331D01*
X351857Y178931D01*
X352257D01*
X352658Y178531D01*
X336319D02*
X336719Y178931D01*
X337119D01*
X336719Y179331D01*
X337119Y179731D01*
X336719D01*
X336319Y180131D01*
X335919Y179731D01*
X335519D01*
X335919Y179331D01*
X335519Y178931D01*
X335919D01*
X336319Y178531D01*
X323876Y73614D02*
X324276Y74414D01*
X323876Y75214D01*
X324676Y74814D01*
X325476Y75214D01*
X325076Y74414D01*
X325476Y73614D01*
X324676Y74014D01*
X323876Y73614D01*
X340176Y24700D02*
X340576Y25500D01*
X340176Y26300D01*
X340976Y25900D01*
X341776Y26300D01*
X341376Y25500D01*
X341776Y24700D01*
X340976Y25100D01*
X340176Y24700D01*
X379176Y58100D02*
X379576Y58900D01*
X379176Y59700D01*
X379976Y59300D01*
X380776Y59700D01*
X380376Y58900D01*
X380776Y58100D01*
X379976Y58500D01*
X379176Y58100D01*
X313884Y38400D02*
X314284Y39200D01*
X313884Y40000D01*
X314684Y39600D01*
X315484Y40000D01*
X315084Y39200D01*
X315484Y38400D01*
X314684Y38800D01*
X313884Y38400D01*
X383476Y131100D02*
X383876Y131900D01*
X383476Y132700D01*
X384276Y132300D01*
X385076Y132700D01*
X384676Y131900D01*
X385076Y131100D01*
X384276Y131500D01*
X383476Y131100D01*
X383876Y121200D02*
X384276Y122000D01*
X383876Y122800D01*
X384676Y122400D01*
X385476Y122800D01*
X385076Y122000D01*
X385476Y121200D01*
X384676Y121600D01*
X383876Y121200D01*
X384136Y111000D02*
X384536Y111800D01*
X384136Y112600D01*
X384936Y112200D01*
X385736Y112600D01*
X385336Y111800D01*
X385736Y111000D01*
X384936Y111400D01*
X384136Y111000D01*
Y91100D02*
X384536Y91900D01*
X384136Y92700D01*
X384936Y92300D01*
X385736Y92700D01*
X385336Y91900D01*
X385736Y91100D01*
X384936Y91500D01*
X384136Y91100D01*
X389476Y150000D02*
X389876Y150800D01*
X389476Y151600D01*
X390276Y151200D01*
X391076Y151600D01*
X390676Y150800D01*
X391076Y150000D01*
X390276Y150400D01*
X389476Y150000D01*
X367976Y47100D02*
X368376Y47900D01*
X367976Y48700D01*
X368776Y48300D01*
X369576Y48700D01*
X369176Y47900D01*
X369576Y47100D01*
X368776Y47500D01*
X367976Y47100D01*
X360731Y117700D02*
X361131Y118500D01*
X360731Y119300D01*
X361531Y118900D01*
X362331Y119300D01*
X361931Y118500D01*
X362331Y117700D01*
X361531Y118100D01*
X360731Y117700D01*
X355676Y47000D02*
X356076Y47800D01*
X355676Y48600D01*
X356476Y48200D01*
X357276Y48600D01*
X356876Y47800D01*
X357276Y47000D01*
X356476Y47400D01*
X355676Y47000D01*
X343503Y42600D02*
X343903Y43400D01*
X343503Y44200D01*
X344303Y43800D01*
X345103Y44200D01*
X344703Y43400D01*
X345103Y42600D01*
X344303Y43000D01*
X343503Y42600D01*
X330176Y69800D02*
X330576Y70600D01*
X330176Y71400D01*
X330976Y71000D01*
X331776Y71400D01*
X331376Y70600D01*
X331776Y69800D01*
X330976Y70200D01*
X330176Y69800D01*
X350976D02*
X351376Y70600D01*
X350976Y71400D01*
X351776Y71000D01*
X352576Y71400D01*
X352176Y70600D01*
X352576Y69800D01*
X351776Y70200D01*
X350976Y69800D01*
X342442D02*
X342842Y70600D01*
X342442Y71400D01*
X343242Y71000D01*
X344042Y71400D01*
X343642Y70600D01*
X344042Y69800D01*
X343242Y70200D01*
X342442Y69800D01*
X378688Y145200D02*
X379088Y146000D01*
X378688Y146800D01*
X379488Y146400D01*
X380288Y146800D01*
X379888Y146000D01*
X380288Y145200D01*
X379488Y145600D01*
X378688Y145200D01*
X308376Y145800D02*
X308776Y146600D01*
X308376Y147400D01*
X309176Y147000D01*
X309976Y147400D01*
X309576Y146600D01*
X309976Y145800D01*
X309176Y146200D01*
X308376Y145800D01*
X326076Y155000D02*
X326476Y155800D01*
X326076Y156600D01*
X326876Y156200D01*
X327676Y156600D01*
X327276Y155800D01*
X327676Y155000D01*
X326876Y155400D01*
X326076Y155000D01*
X326476Y177500D02*
X326876Y178300D01*
X326476Y179100D01*
X327276Y178700D01*
X328076Y179100D01*
X327676Y178300D01*
X328076Y177500D01*
X327276Y177900D01*
X326476Y177500D01*
X318776Y172400D02*
X319176Y173200D01*
X318776Y174000D01*
X319576Y173600D01*
X320376Y174000D01*
X319976Y173200D01*
X320376Y172400D01*
X319576Y172800D01*
X318776Y172400D01*
X382509Y187034D02*
X382909Y187834D01*
X382509Y188634D01*
X383310Y188234D01*
X384109Y188634D01*
X383710Y187834D01*
X384109Y187034D01*
X383310Y187434D01*
X382509Y187034D01*
X305615Y186860D02*
X306015Y187660D01*
X305615Y188460D01*
X306415Y188060D01*
X307215Y188460D01*
X306815Y187660D01*
X307215Y186860D01*
X306415Y187260D01*
X305615Y186860D01*
X334176Y137400D02*
X334576Y138200D01*
X334176Y139000D01*
X334976Y138600D01*
X335776Y139000D01*
X335376Y138200D01*
X335776Y137400D01*
X334976Y137800D01*
X334176Y137400D01*
X338676Y153100D02*
X339076Y153900D01*
X338676Y154700D01*
X339476Y154300D01*
X340276Y154700D01*
X339876Y153900D01*
X340276Y153100D01*
X339476Y153500D01*
X338676Y153100D01*
X354876Y175300D02*
X355276Y176100D01*
X354876Y176900D01*
X355676Y176500D01*
X356476Y176900D01*
X356076Y176100D01*
X356476Y175300D01*
X355676Y175700D01*
X354876Y175300D01*
X348076Y168400D02*
X348476Y169200D01*
X348076Y170000D01*
X348876Y169600D01*
X349676Y170000D01*
X349276Y169200D01*
X349676Y168400D01*
X348876Y168800D01*
X348076Y168400D01*
X338876Y169000D02*
X339276Y169800D01*
X338876Y170600D01*
X339676Y170200D01*
X340476Y170600D01*
X340076Y169800D01*
X340476Y169000D01*
X339676Y169400D01*
X338876Y169000D01*
X330326Y80088D02*
X330726Y80888D01*
X330326Y81688D01*
X331126Y81288D01*
X331926Y81688D01*
X331526Y80888D01*
X331926Y80088D01*
X331126Y80488D01*
X330326Y80088D01*
X352673Y23900D02*
X353073Y24700D01*
X352673Y25500D01*
X353473Y25100D01*
X354273Y25500D01*
X353873Y24700D01*
X354273Y23900D01*
X353473Y24300D01*
X352673Y23900D01*
X353676Y32900D02*
X354076Y33700D01*
X353676Y34500D01*
X354476Y34100D01*
X355276Y34500D01*
X354876Y33700D01*
X355276Y32900D01*
X354476Y33300D01*
X353676Y32900D01*
X360676Y80800D02*
X361076Y81600D01*
X360676Y82400D01*
X361476Y82000D01*
X362276Y82400D01*
X361876Y81600D01*
X362276Y80800D01*
X361476Y81200D01*
X360676Y80800D01*
X383976Y80400D02*
X384376Y81200D01*
X383976Y82000D01*
X384776Y81600D01*
X385576Y82000D01*
X385176Y81200D01*
X385576Y80400D01*
X384776Y80800D01*
X383976Y80400D01*
X372776D02*
X373176Y81200D01*
X372776Y82000D01*
X373576Y81600D01*
X374376Y82000D01*
X373976Y81200D01*
X374376Y80400D01*
X373576Y80800D01*
X372776Y80400D01*
Y91500D02*
X373176Y92300D01*
X372776Y93100D01*
X373576Y92700D01*
X374376Y93100D01*
X373976Y92300D01*
X374376Y91500D01*
X373576Y91900D01*
X372776Y91500D01*
X362773Y91700D02*
X363173Y92500D01*
X362773Y93300D01*
X363573Y92900D01*
X364373Y93300D01*
X363973Y92500D01*
X364373Y91700D01*
X363573Y92100D01*
X362773Y91700D01*
X362392Y69400D02*
X362792Y70200D01*
X362392Y71000D01*
X363192Y70600D01*
X363992Y71000D01*
X363592Y70200D01*
X363992Y69400D01*
X363192Y69800D01*
X362392Y69400D01*
X361476Y41200D02*
X361876Y42000D01*
X361476Y42800D01*
X362276Y42400D01*
X363076Y42800D01*
X362676Y42000D01*
X363076Y41200D01*
X362276Y41600D01*
X361476Y41200D01*
X343576Y34800D02*
X343976Y35600D01*
X343576Y36400D01*
X344376Y36000D01*
X345176Y36400D01*
X344776Y35600D01*
X345176Y34800D01*
X344376Y35200D01*
X343576Y34800D01*
X306976Y58581D02*
X307376Y59381D01*
X306976Y60181D01*
X307776Y59781D01*
X308576Y60181D01*
X308176Y59381D01*
X308576Y58581D01*
X307776Y58981D01*
X306976Y58581D01*
X329476Y168400D02*
X329876Y169200D01*
X329476Y170000D01*
X330276Y169600D01*
X331076Y170000D01*
X330676Y169200D01*
X331076Y168400D01*
X330276Y168800D01*
X329476Y168400D01*
X368876Y169700D02*
X369276Y170500D01*
X368876Y171300D01*
X369676Y170900D01*
X370476Y171300D01*
X370076Y170500D01*
X370476Y169700D01*
X369676Y170100D01*
X368876Y169700D01*
X355697Y159800D02*
X356097Y160600D01*
X355697Y161400D01*
X356497Y161000D01*
X357297Y161400D01*
X356897Y160600D01*
X357297Y159800D01*
X356497Y160200D01*
X355697Y159800D01*
X347476Y155853D02*
X347876Y156653D01*
X347476Y157453D01*
X348276Y157053D01*
X349076Y157453D01*
X348676Y156653D01*
X349076Y155853D01*
X348276Y156253D01*
X347476Y155853D01*
X350676Y129194D02*
X351076Y129994D01*
X350676Y130794D01*
X351476Y130394D01*
X352276Y130794D01*
X351876Y129994D01*
X352276Y129194D01*
X351476Y129594D01*
X350676Y129194D01*
X363676Y140100D02*
X364076Y140900D01*
X363676Y141700D01*
X364476Y141300D01*
X365276Y141700D01*
X364876Y140900D01*
X365276Y140100D01*
X364476Y140500D01*
X363676Y140100D01*
X361176Y128000D02*
X361576Y128800D01*
X361176Y129600D01*
X361976Y129200D01*
X362776Y129600D01*
X362376Y128800D01*
X362776Y128000D01*
X361976Y128400D01*
X361176Y128000D01*
X369076Y132600D02*
X369476Y133400D01*
X369076Y134200D01*
X369876Y133800D01*
X370676Y134200D01*
X370276Y133400D01*
X370676Y132600D01*
X369876Y133000D01*
X369076Y132600D01*
X305142Y48434D02*
X305542Y49234D01*
X305142Y50034D01*
X305942Y49634D01*
X306742Y50034D01*
X306342Y49234D01*
X306742Y48434D01*
X305942Y48834D01*
X305142Y48434D01*
X383209Y28566D02*
X383610Y29366D01*
X383209Y30166D01*
X384010Y29766D01*
X384809Y30166D01*
X384409Y29366D01*
X384809Y28566D01*
X384010Y28966D01*
X383209Y28566D01*
Y48466D02*
X383610Y49266D01*
X383209Y50066D01*
X384010Y49666D01*
X384809Y50066D01*
X384409Y49266D01*
X384809Y48466D01*
X384010Y48866D01*
X383209Y48466D01*
X305076Y28100D02*
X305476Y28900D01*
X305076Y29700D01*
X305876Y29300D01*
X306676Y29700D01*
X306276Y28900D01*
X306676Y28100D01*
X305876Y28500D01*
X305076Y28100D01*
X331476Y46900D02*
X331876Y47700D01*
X331476Y48500D01*
X332276Y48100D01*
X333076Y48500D01*
X332676Y47700D01*
X333076Y46900D01*
X332276Y47300D01*
X331476Y46900D01*
X338964Y83600D02*
X339364Y84400D01*
X338964Y85200D01*
X339764Y84800D01*
X340564Y85200D01*
X340164Y84400D01*
X340564Y83600D01*
X339764Y84000D01*
X338964Y83600D01*
X349076Y81800D02*
X349476Y82600D01*
X349076Y83400D01*
X349876Y83000D01*
X350676Y83400D01*
X350276Y82600D01*
X350676Y81800D01*
X349876Y82200D01*
X349076Y81800D01*
X324876Y162586D02*
X325276Y163386D01*
X324876Y164186D01*
X325676Y163786D01*
X326476Y164186D01*
X326076Y163386D01*
X326476Y162586D01*
X325676Y162986D01*
X324876Y162586D01*
X343688Y129613D02*
X344088Y130413D01*
X343688Y131213D01*
X344488Y130813D01*
X345288Y131213D01*
X344888Y130413D01*
X345288Y129613D01*
X344488Y130013D01*
X343688Y129613D01*
X362586Y177290D02*
X362986Y178090D01*
X362586Y178890D01*
X363386Y178490D01*
X364186Y178890D01*
X363786Y178090D01*
X364186Y177290D01*
X363386Y177690D01*
X362586Y177290D01*
X83413Y322979D02*
Y324580D01*
X85013D01*
Y322979D01*
X83413D01*
Y302979D02*
Y304579D01*
X85013D01*
Y302979D01*
X83413D01*
Y262980D02*
Y264580D01*
X85013D01*
Y262980D01*
X83413D01*
Y272979D02*
Y274580D01*
X85013D01*
Y272979D01*
X83413D01*
Y282979D02*
Y284579D01*
X85013D01*
Y282979D01*
X83413D01*
Y292980D02*
Y294580D01*
X85013D01*
Y292980D01*
X83413D01*
Y312980D02*
Y314580D01*
X85013D01*
Y312980D01*
X83413D01*
Y332979D02*
Y334579D01*
X85013D01*
Y332979D01*
X83413D01*
X13413Y272507D02*
Y274107D01*
X15013D01*
Y272507D01*
X13413D01*
Y292507D02*
Y294107D01*
X15013D01*
Y292507D01*
X13413D01*
Y332507D02*
Y334107D01*
X15013D01*
Y332507D01*
X13413D01*
Y322507D02*
Y324107D01*
X15013D01*
Y322507D01*
X13413D01*
Y312507D02*
Y314107D01*
X15013D01*
Y312507D01*
X13413D01*
Y302507D02*
Y304107D01*
X15013D01*
Y302507D01*
X13413D01*
Y282507D02*
Y284107D01*
X15013D01*
Y282507D01*
X13413D01*
Y262507D02*
Y264107D01*
X15013D01*
Y262507D01*
X13413D01*
X39606Y255499D02*
X38806Y257099D01*
X40406D01*
X39606Y255499D01*
X58819D02*
X58019Y257099D01*
X59619D01*
X58819Y255499D01*
X57382Y375381D02*
X57782Y375781D01*
X58182D01*
X57782Y376181D01*
X58182Y376581D01*
X57782D01*
X57382Y376981D01*
X56982Y376581D01*
X56582D01*
X56982Y376181D01*
X56582Y375781D01*
X56982D01*
X57382Y375381D01*
X41043D02*
X41443Y375781D01*
X41843D01*
X41443Y376181D01*
X41843Y376581D01*
X41443D01*
X41043Y376981D01*
X40643Y376581D01*
X40243D01*
X40643Y376181D01*
X40243Y375781D01*
X40643D01*
X41043Y375381D01*
X28600Y270465D02*
X29000Y271265D01*
X28600Y272065D01*
X29400Y271665D01*
X30200Y272065D01*
X29800Y271265D01*
X30200Y270465D01*
X29400Y270865D01*
X28600Y270465D01*
X44900Y221550D02*
X45300Y222350D01*
X44900Y223150D01*
X45700Y222750D01*
X46500Y223150D01*
X46100Y222350D01*
X46500Y221550D01*
X45700Y221950D01*
X44900Y221550D01*
X83900Y254950D02*
X84300Y255750D01*
X83900Y256550D01*
X84700Y256150D01*
X85500Y256550D01*
X85100Y255750D01*
X85500Y254950D01*
X84700Y255350D01*
X83900Y254950D01*
X18608Y235250D02*
X19008Y236050D01*
X18608Y236850D01*
X19408Y236450D01*
X20208Y236850D01*
X19808Y236050D01*
X20208Y235250D01*
X19408Y235650D01*
X18608Y235250D01*
X88200Y327950D02*
X88600Y328750D01*
X88200Y329550D01*
X89000Y329150D01*
X89800Y329550D01*
X89400Y328750D01*
X89800Y327950D01*
X89000Y328350D01*
X88200Y327950D01*
X88600Y318050D02*
X89000Y318850D01*
X88600Y319650D01*
X89400Y319250D01*
X90200Y319650D01*
X89800Y318850D01*
X90200Y318050D01*
X89400Y318450D01*
X88600Y318050D01*
X88860Y307850D02*
X89261Y308650D01*
X88860Y309450D01*
X89661Y309050D01*
X90460Y309450D01*
X90061Y308650D01*
X90460Y307850D01*
X89661Y308250D01*
X88860Y307850D01*
Y287950D02*
X89261Y288750D01*
X88860Y289550D01*
X89661Y289150D01*
X90460Y289550D01*
X90061Y288750D01*
X90460Y287950D01*
X89661Y288350D01*
X88860Y287950D01*
X94200Y346850D02*
X94600Y347650D01*
X94200Y348450D01*
X95000Y348050D01*
X95800Y348450D01*
X95400Y347650D01*
X95800Y346850D01*
X95000Y347250D01*
X94200Y346850D01*
X72700Y243950D02*
X73100Y244750D01*
X72700Y245550D01*
X73500Y245150D01*
X74300Y245550D01*
X73900Y244750D01*
X74300Y243950D01*
X73500Y244350D01*
X72700Y243950D01*
X65455Y314550D02*
X65855Y315350D01*
X65455Y316150D01*
X66255Y315750D01*
X67055Y316150D01*
X66655Y315350D01*
X67055Y314550D01*
X66255Y314950D01*
X65455Y314550D01*
X60400Y243850D02*
X60800Y244650D01*
X60400Y245450D01*
X61200Y245050D01*
X62000Y245450D01*
X61600Y244650D01*
X62000Y243850D01*
X61200Y244250D01*
X60400Y243850D01*
X48228Y239450D02*
X48628Y240250D01*
X48228Y241050D01*
X49028Y240650D01*
X49828Y241050D01*
X49428Y240250D01*
X49828Y239450D01*
X49028Y239850D01*
X48228Y239450D01*
X34900Y266650D02*
X35300Y267450D01*
X34900Y268250D01*
X35700Y267850D01*
X36500Y268250D01*
X36100Y267450D01*
X36500Y266650D01*
X35700Y267050D01*
X34900Y266650D01*
X55700D02*
X56100Y267450D01*
X55700Y268250D01*
X56500Y267850D01*
X57300Y268250D01*
X56900Y267450D01*
X57300Y266650D01*
X56500Y267050D01*
X55700Y266650D01*
X47167D02*
X47567Y267450D01*
X47167Y268250D01*
X47967Y267850D01*
X48767Y268250D01*
X48367Y267450D01*
X48767Y266650D01*
X47967Y267050D01*
X47167Y266650D01*
X83413Y342050D02*
X83813Y342850D01*
X83413Y343650D01*
X84213Y343250D01*
X85013Y343650D01*
X84613Y342850D01*
X85013Y342050D01*
X84213Y342450D01*
X83413Y342050D01*
X13100Y342650D02*
X13500Y343450D01*
X13100Y344250D01*
X13900Y343850D01*
X14700Y344250D01*
X14300Y343450D01*
X14700Y342650D01*
X13900Y343050D01*
X13100Y342650D01*
X30800Y351850D02*
X31200Y352650D01*
X30800Y353450D01*
X31600Y353050D01*
X32400Y353450D01*
X32000Y352650D01*
X32400Y351850D01*
X31600Y352250D01*
X30800Y351850D01*
X31200Y374350D02*
X31600Y375150D01*
X31200Y375950D01*
X32000Y375550D01*
X32800Y375950D01*
X32400Y375150D01*
X32800Y374350D01*
X32000Y374750D01*
X31200Y374350D01*
X23500Y369250D02*
X23900Y370050D01*
X23500Y370850D01*
X24300Y370450D01*
X25100Y370850D01*
X24700Y370050D01*
X25100Y369250D01*
X24300Y369650D01*
X23500Y369250D01*
X87234Y383884D02*
X87634Y384684D01*
X87234Y385484D01*
X88034Y385084D01*
X88834Y385484D01*
X88434Y384684D01*
X88834Y383884D01*
X88034Y384284D01*
X87234Y383884D01*
X10340Y383711D02*
X10740Y384511D01*
X10340Y385311D01*
X11140Y384911D01*
X11940Y385311D01*
X11540Y384511D01*
X11940Y383711D01*
X11140Y384111D01*
X10340Y383711D01*
X38900Y334250D02*
X39300Y335050D01*
X38900Y335850D01*
X39700Y335450D01*
X40500Y335850D01*
X40100Y335050D01*
X40500Y334250D01*
X39700Y334650D01*
X38900Y334250D01*
X43400Y349950D02*
X43800Y350750D01*
X43400Y351550D01*
X44200Y351150D01*
X45000Y351550D01*
X44600Y350750D01*
X45000Y349950D01*
X44200Y350350D01*
X43400Y349950D01*
X59600Y372150D02*
X60000Y372950D01*
X59600Y373750D01*
X60400Y373350D01*
X61200Y373750D01*
X60800Y372950D01*
X61200Y372150D01*
X60400Y372550D01*
X59600Y372150D01*
X52800Y365250D02*
X53200Y366050D01*
X52800Y366850D01*
X53600Y366450D01*
X54400Y366850D01*
X54000Y366050D01*
X54400Y365250D01*
X53600Y365650D01*
X52800Y365250D01*
X43600Y365850D02*
X44000Y366650D01*
X43600Y367450D01*
X44400Y367050D01*
X45200Y367450D01*
X44800Y366650D01*
X45200Y365850D01*
X44400Y366250D01*
X43600Y365850D01*
X35050Y276938D02*
X35450Y277738D01*
X35050Y278538D01*
X35850Y278138D01*
X36650Y278538D01*
X36250Y277738D01*
X36650Y276938D01*
X35850Y277338D01*
X35050Y276938D01*
X57398Y220750D02*
X57798Y221550D01*
X57398Y222350D01*
X58198Y221950D01*
X58998Y222350D01*
X58598Y221550D01*
X58998Y220750D01*
X58198Y221150D01*
X57398Y220750D01*
X58400Y229750D02*
X58800Y230550D01*
X58400Y231350D01*
X59200Y230950D01*
X60000Y231350D01*
X59600Y230550D01*
X60000Y229750D01*
X59200Y230150D01*
X58400Y229750D01*
X65400Y277650D02*
X65800Y278450D01*
X65400Y279250D01*
X66200Y278850D01*
X67000Y279250D01*
X66600Y278450D01*
X67000Y277650D01*
X66200Y278050D01*
X65400Y277650D01*
X88700Y277250D02*
X89100Y278050D01*
X88700Y278850D01*
X89500Y278450D01*
X90300Y278850D01*
X89900Y278050D01*
X90300Y277250D01*
X89500Y277650D01*
X88700Y277250D01*
X77500D02*
X77900Y278050D01*
X77500Y278850D01*
X78300Y278450D01*
X79100Y278850D01*
X78700Y278050D01*
X79100Y277250D01*
X78300Y277650D01*
X77500Y277250D01*
Y288350D02*
X77900Y289150D01*
X77500Y289950D01*
X78300Y289550D01*
X79100Y289950D01*
X78700Y289150D01*
X79100Y288350D01*
X78300Y288750D01*
X77500Y288350D01*
X67498Y288550D02*
X67898Y289350D01*
X67498Y290150D01*
X68298Y289750D01*
X69098Y290150D01*
X68698Y289350D01*
X69098Y288550D01*
X68298Y288950D01*
X67498Y288550D01*
X67116Y266250D02*
X67516Y267050D01*
X67116Y267850D01*
X67917Y267450D01*
X68717Y267850D01*
X68317Y267050D01*
X68717Y266250D01*
X67917Y266650D01*
X67116Y266250D01*
X66200Y238050D02*
X66600Y238850D01*
X66200Y239650D01*
X67000Y239250D01*
X67800Y239650D01*
X67400Y238850D01*
X67800Y238050D01*
X67000Y238450D01*
X66200Y238050D01*
X48300Y231650D02*
X48700Y232450D01*
X48300Y233250D01*
X49100Y232850D01*
X49900Y233250D01*
X49500Y232450D01*
X49900Y231650D01*
X49100Y232050D01*
X48300Y231650D01*
X11700Y255431D02*
X12100Y256231D01*
X11700Y257031D01*
X12500Y256631D01*
X13300Y257031D01*
X12900Y256231D01*
X13300Y255431D01*
X12500Y255831D01*
X11700Y255431D01*
X34200Y365250D02*
X34600Y366050D01*
X34200Y366850D01*
X35000Y366450D01*
X35800Y366850D01*
X35400Y366050D01*
X35800Y365250D01*
X35000Y365650D01*
X34200Y365250D01*
X73600Y366550D02*
X74000Y367350D01*
X73600Y368150D01*
X74400Y367750D01*
X75200Y368150D01*
X74800Y367350D01*
X75200Y366550D01*
X74400Y366950D01*
X73600Y366550D01*
X60422Y356650D02*
X60822Y357450D01*
X60422Y358250D01*
X61222Y357850D01*
X62022Y358250D01*
X61622Y357450D01*
X62022Y356650D01*
X61222Y357050D01*
X60422Y356650D01*
X52200Y352703D02*
X52600Y353503D01*
X52200Y354303D01*
X53000Y353903D01*
X53800Y354303D01*
X53400Y353503D01*
X53800Y352703D01*
X53000Y353103D01*
X52200Y352703D01*
X55400Y326045D02*
X55800Y326845D01*
X55400Y327645D01*
X56200Y327245D01*
X57000Y327645D01*
X56600Y326845D01*
X57000Y326045D01*
X56200Y326445D01*
X55400Y326045D01*
X68400Y336950D02*
X68800Y337750D01*
X68400Y338550D01*
X69200Y338150D01*
X70000Y338550D01*
X69600Y337750D01*
X70000Y336950D01*
X69200Y337350D01*
X68400Y336950D01*
X65900Y324850D02*
X66300Y325650D01*
X65900Y326450D01*
X66700Y326050D01*
X67500Y326450D01*
X67100Y325650D01*
X67500Y324850D01*
X66700Y325250D01*
X65900Y324850D01*
X73800Y329450D02*
X74200Y330250D01*
X73800Y331050D01*
X74600Y330650D01*
X75400Y331050D01*
X75000Y330250D01*
X75400Y329450D01*
X74600Y329850D01*
X73800Y329450D01*
X9866Y245284D02*
X10266Y246084D01*
X9866Y246884D01*
X10666Y246484D01*
X11466Y246884D01*
X11066Y246084D01*
X11466Y245284D01*
X10666Y245684D01*
X9866Y245284D01*
X87934Y225416D02*
X88334Y226217D01*
X87934Y227016D01*
X88734Y226617D01*
X89534Y227016D01*
X89134Y226217D01*
X89534Y225416D01*
X88734Y225816D01*
X87934Y225416D01*
Y245317D02*
X88334Y246116D01*
X87934Y246917D01*
X88734Y246516D01*
X89534Y246917D01*
X89134Y246116D01*
X89534Y245317D01*
X88734Y245717D01*
X87934Y245317D01*
X9800Y224950D02*
X10200Y225750D01*
X9800Y226550D01*
X10600Y226150D01*
X11400Y226550D01*
X11000Y225750D01*
X11400Y224950D01*
X10600Y225350D01*
X9800Y224950D01*
X36200Y243750D02*
X36600Y244550D01*
X36200Y245350D01*
X37000Y244950D01*
X37800Y245350D01*
X37400Y244550D01*
X37800Y243750D01*
X37000Y244150D01*
X36200Y243750D01*
X43688Y280450D02*
X44088Y281250D01*
X43688Y282050D01*
X44488Y281650D01*
X45288Y282050D01*
X44888Y281250D01*
X45288Y280450D01*
X44488Y280850D01*
X43688Y280450D01*
X53800Y278650D02*
X54200Y279450D01*
X53800Y280250D01*
X54600Y279850D01*
X55400Y280250D01*
X55000Y279450D01*
X55400Y278650D01*
X54600Y279050D01*
X53800Y278650D01*
X29600Y359436D02*
X30000Y360236D01*
X29600Y361036D01*
X30400Y360636D01*
X31200Y361036D01*
X30800Y360236D01*
X31200Y359436D01*
X30400Y359836D01*
X29600Y359436D01*
X48413Y326463D02*
X48813Y327263D01*
X48413Y328063D01*
X49213Y327663D01*
X50013Y328063D01*
X49613Y327263D01*
X50013Y326463D01*
X49213Y326863D01*
X48413Y326463D01*
X67310Y374140D02*
X67710Y374940D01*
X67310Y375740D01*
X68110Y375340D01*
X68910Y375740D01*
X68510Y374940D01*
X68910Y374140D01*
X68110Y374540D01*
X67310Y374140D01*
X181838Y322979D02*
Y324580D01*
X183438D01*
Y322979D01*
X181838D01*
Y302979D02*
Y304579D01*
X183438D01*
Y302979D01*
X181838D01*
Y262980D02*
Y264580D01*
X183438D01*
Y262980D01*
X181838D01*
Y272979D02*
Y274580D01*
X183438D01*
Y272979D01*
X181838D01*
Y282979D02*
Y284579D01*
X183438D01*
Y282979D01*
X181838D01*
Y292980D02*
Y294580D01*
X183438D01*
Y292980D01*
X181838D01*
Y312980D02*
Y314580D01*
X183438D01*
Y312980D01*
X181838D01*
Y332979D02*
Y334579D01*
X183438D01*
Y332979D01*
X181838D01*
X111838Y272507D02*
Y274107D01*
X113438D01*
Y272507D01*
X111838D01*
Y292507D02*
Y294107D01*
X113438D01*
Y292507D01*
X111838D01*
Y332507D02*
Y334107D01*
X113438D01*
Y332507D01*
X111838D01*
Y322507D02*
Y324107D01*
X113438D01*
Y322507D01*
X111838D01*
Y312507D02*
Y314107D01*
X113438D01*
Y312507D01*
X111838D01*
Y302507D02*
Y304107D01*
X113438D01*
Y302507D01*
X111838D01*
Y282507D02*
Y284107D01*
X113438D01*
Y282507D01*
X111838D01*
Y262507D02*
Y264107D01*
X113438D01*
Y262507D01*
X111838D01*
X138031Y255499D02*
X137232Y257099D01*
X138831D01*
X138031Y255499D01*
X157244D02*
X156444Y257099D01*
X158044D01*
X157244Y255499D01*
X155807Y375381D02*
X156207Y375781D01*
X156607D01*
X156207Y376181D01*
X156607Y376581D01*
X156207D01*
X155807Y376981D01*
X155407Y376581D01*
X155007D01*
X155407Y376181D01*
X155007Y375781D01*
X155407D01*
X155807Y375381D01*
X139469D02*
X139868Y375781D01*
X140269D01*
X139868Y376181D01*
X140269Y376581D01*
X139868D01*
X139469Y376981D01*
X139068Y376581D01*
X138669D01*
X139068Y376181D01*
X138669Y375781D01*
X139068D01*
X139469Y375381D01*
X127025Y270465D02*
X127425Y271265D01*
X127025Y272065D01*
X127825Y271665D01*
X128625Y272065D01*
X128225Y271265D01*
X128625Y270465D01*
X127825Y270865D01*
X127025Y270465D01*
X143325Y221550D02*
X143725Y222350D01*
X143325Y223150D01*
X144125Y222750D01*
X144925Y223150D01*
X144525Y222350D01*
X144925Y221550D01*
X144125Y221950D01*
X143325Y221550D01*
X182325Y254950D02*
X182725Y255750D01*
X182325Y256550D01*
X183125Y256150D01*
X183925Y256550D01*
X183525Y255750D01*
X183925Y254950D01*
X183125Y255350D01*
X182325Y254950D01*
X117034Y235250D02*
X117434Y236050D01*
X117034Y236850D01*
X117834Y236450D01*
X118634Y236850D01*
X118234Y236050D01*
X118634Y235250D01*
X117834Y235650D01*
X117034Y235250D01*
X186625Y327950D02*
X187025Y328750D01*
X186625Y329550D01*
X187425Y329150D01*
X188225Y329550D01*
X187825Y328750D01*
X188225Y327950D01*
X187425Y328350D01*
X186625Y327950D01*
X187025Y318050D02*
X187425Y318850D01*
X187025Y319650D01*
X187825Y319250D01*
X188625Y319650D01*
X188225Y318850D01*
X188625Y318050D01*
X187825Y318450D01*
X187025Y318050D01*
X187286Y307850D02*
X187686Y308650D01*
X187286Y309450D01*
X188086Y309050D01*
X188886Y309450D01*
X188486Y308650D01*
X188886Y307850D01*
X188086Y308250D01*
X187286Y307850D01*
Y287950D02*
X187686Y288750D01*
X187286Y289550D01*
X188086Y289150D01*
X188886Y289550D01*
X188486Y288750D01*
X188886Y287950D01*
X188086Y288350D01*
X187286Y287950D01*
X192625Y346850D02*
X193025Y347650D01*
X192625Y348450D01*
X193425Y348050D01*
X194225Y348450D01*
X193825Y347650D01*
X194225Y346850D01*
X193425Y347250D01*
X192625Y346850D01*
X171125Y243950D02*
X171525Y244750D01*
X171125Y245550D01*
X171925Y245150D01*
X172725Y245550D01*
X172325Y244750D01*
X172725Y243950D01*
X171925Y244350D01*
X171125Y243950D01*
X163880Y314550D02*
X164280Y315350D01*
X163880Y316150D01*
X164680Y315750D01*
X165480Y316150D01*
X165080Y315350D01*
X165480Y314550D01*
X164680Y314950D01*
X163880Y314550D01*
X158825Y243850D02*
X159225Y244650D01*
X158825Y245450D01*
X159625Y245050D01*
X160425Y245450D01*
X160025Y244650D01*
X160425Y243850D01*
X159625Y244250D01*
X158825Y243850D01*
X146653Y239450D02*
X147053Y240250D01*
X146653Y241050D01*
X147453Y240650D01*
X148253Y241050D01*
X147853Y240250D01*
X148253Y239450D01*
X147453Y239850D01*
X146653Y239450D01*
X133325Y266650D02*
X133725Y267450D01*
X133325Y268250D01*
X134125Y267850D01*
X134925Y268250D01*
X134525Y267450D01*
X134925Y266650D01*
X134125Y267050D01*
X133325Y266650D01*
X154125D02*
X154525Y267450D01*
X154125Y268250D01*
X154925Y267850D01*
X155725Y268250D01*
X155325Y267450D01*
X155725Y266650D01*
X154925Y267050D01*
X154125Y266650D01*
X145592D02*
X145992Y267450D01*
X145592Y268250D01*
X146392Y267850D01*
X147192Y268250D01*
X146792Y267450D01*
X147192Y266650D01*
X146392Y267050D01*
X145592Y266650D01*
X181838Y342050D02*
X182238Y342850D01*
X181838Y343650D01*
X182638Y343250D01*
X183438Y343650D01*
X183038Y342850D01*
X183438Y342050D01*
X182638Y342450D01*
X181838Y342050D01*
X111525Y342650D02*
X111925Y343450D01*
X111525Y344250D01*
X112325Y343850D01*
X113125Y344250D01*
X112725Y343450D01*
X113125Y342650D01*
X112325Y343050D01*
X111525Y342650D01*
X129225Y351850D02*
X129625Y352650D01*
X129225Y353450D01*
X130025Y353050D01*
X130825Y353450D01*
X130425Y352650D01*
X130825Y351850D01*
X130025Y352250D01*
X129225Y351850D01*
X129625Y374350D02*
X130025Y375150D01*
X129625Y375950D01*
X130425Y375550D01*
X131225Y375950D01*
X130825Y375150D01*
X131225Y374350D01*
X130425Y374750D01*
X129625Y374350D01*
X121925Y369250D02*
X122325Y370050D01*
X121925Y370850D01*
X122725Y370450D01*
X123525Y370850D01*
X123125Y370050D01*
X123525Y369250D01*
X122725Y369650D01*
X121925Y369250D01*
X185659Y383884D02*
X186059Y384684D01*
X185659Y385484D01*
X186459Y385084D01*
X187259Y385484D01*
X186859Y384684D01*
X187259Y383884D01*
X186459Y384284D01*
X185659Y383884D01*
X108765Y383711D02*
X109165Y384511D01*
X108765Y385311D01*
X109565Y384911D01*
X110365Y385311D01*
X109965Y384511D01*
X110365Y383711D01*
X109565Y384111D01*
X108765Y383711D01*
X137325Y334250D02*
X137725Y335050D01*
X137325Y335850D01*
X138125Y335450D01*
X138925Y335850D01*
X138525Y335050D01*
X138925Y334250D01*
X138125Y334650D01*
X137325Y334250D01*
X141825Y349950D02*
X142225Y350750D01*
X141825Y351550D01*
X142625Y351150D01*
X143425Y351550D01*
X143025Y350750D01*
X143425Y349950D01*
X142625Y350350D01*
X141825Y349950D01*
X158025Y372150D02*
X158425Y372950D01*
X158025Y373750D01*
X158825Y373350D01*
X159625Y373750D01*
X159225Y372950D01*
X159625Y372150D01*
X158825Y372550D01*
X158025Y372150D01*
X151225Y365250D02*
X151625Y366050D01*
X151225Y366850D01*
X152025Y366450D01*
X152825Y366850D01*
X152425Y366050D01*
X152825Y365250D01*
X152025Y365650D01*
X151225Y365250D01*
X142025Y365850D02*
X142425Y366650D01*
X142025Y367450D01*
X142825Y367050D01*
X143625Y367450D01*
X143225Y366650D01*
X143625Y365850D01*
X142825Y366250D01*
X142025Y365850D01*
X133475Y276938D02*
X133876Y277738D01*
X133475Y278538D01*
X134275Y278138D01*
X135075Y278538D01*
X134676Y277738D01*
X135075Y276938D01*
X134275Y277338D01*
X133475Y276938D01*
X155823Y220750D02*
X156223Y221550D01*
X155823Y222350D01*
X156623Y221950D01*
X157423Y222350D01*
X157023Y221550D01*
X157423Y220750D01*
X156623Y221150D01*
X155823Y220750D01*
X156825Y229750D02*
X157225Y230550D01*
X156825Y231350D01*
X157625Y230950D01*
X158425Y231350D01*
X158025Y230550D01*
X158425Y229750D01*
X157625Y230150D01*
X156825Y229750D01*
X163825Y277650D02*
X164225Y278450D01*
X163825Y279250D01*
X164625Y278850D01*
X165425Y279250D01*
X165025Y278450D01*
X165425Y277650D01*
X164625Y278050D01*
X163825Y277650D01*
X187125Y277250D02*
X187525Y278050D01*
X187125Y278850D01*
X187925Y278450D01*
X188725Y278850D01*
X188325Y278050D01*
X188725Y277250D01*
X187925Y277650D01*
X187125Y277250D01*
X175925D02*
X176325Y278050D01*
X175925Y278850D01*
X176725Y278450D01*
X177525Y278850D01*
X177125Y278050D01*
X177525Y277250D01*
X176725Y277650D01*
X175925Y277250D01*
Y288350D02*
X176325Y289150D01*
X175925Y289950D01*
X176725Y289550D01*
X177525Y289950D01*
X177125Y289150D01*
X177525Y288350D01*
X176725Y288750D01*
X175925Y288350D01*
X165923Y288550D02*
X166323Y289350D01*
X165923Y290150D01*
X166723Y289750D01*
X167523Y290150D01*
X167123Y289350D01*
X167523Y288550D01*
X166723Y288950D01*
X165923Y288550D01*
X165542Y266250D02*
X165942Y267050D01*
X165542Y267850D01*
X166342Y267450D01*
X167142Y267850D01*
X166742Y267050D01*
X167142Y266250D01*
X166342Y266650D01*
X165542Y266250D01*
X164625Y238050D02*
X165025Y238850D01*
X164625Y239650D01*
X165425Y239250D01*
X166225Y239650D01*
X165825Y238850D01*
X166225Y238050D01*
X165425Y238450D01*
X164625Y238050D01*
X146725Y231650D02*
X147125Y232450D01*
X146725Y233250D01*
X147525Y232850D01*
X148325Y233250D01*
X147925Y232450D01*
X148325Y231650D01*
X147525Y232050D01*
X146725Y231650D01*
X110125Y255431D02*
X110525Y256231D01*
X110125Y257031D01*
X110925Y256631D01*
X111725Y257031D01*
X111325Y256231D01*
X111725Y255431D01*
X110925Y255831D01*
X110125Y255431D01*
X132625Y365250D02*
X133025Y366050D01*
X132625Y366850D01*
X133425Y366450D01*
X134225Y366850D01*
X133825Y366050D01*
X134225Y365250D01*
X133425Y365650D01*
X132625Y365250D01*
X172025Y366550D02*
X172425Y367350D01*
X172025Y368150D01*
X172825Y367750D01*
X173625Y368150D01*
X173225Y367350D01*
X173625Y366550D01*
X172825Y366950D01*
X172025Y366550D01*
X158847Y356650D02*
X159247Y357450D01*
X158847Y358250D01*
X159647Y357850D01*
X160447Y358250D01*
X160047Y357450D01*
X160447Y356650D01*
X159647Y357050D01*
X158847Y356650D01*
X150625Y352703D02*
X151025Y353503D01*
X150625Y354303D01*
X151425Y353903D01*
X152225Y354303D01*
X151825Y353503D01*
X152225Y352703D01*
X151425Y353103D01*
X150625Y352703D01*
X153825Y326045D02*
X154225Y326845D01*
X153825Y327645D01*
X154625Y327245D01*
X155425Y327645D01*
X155025Y326845D01*
X155425Y326045D01*
X154625Y326445D01*
X153825Y326045D01*
X166825Y336950D02*
X167225Y337750D01*
X166825Y338550D01*
X167625Y338150D01*
X168425Y338550D01*
X168025Y337750D01*
X168425Y336950D01*
X167625Y337350D01*
X166825Y336950D01*
X164325Y324850D02*
X164725Y325650D01*
X164325Y326450D01*
X165125Y326050D01*
X165925Y326450D01*
X165525Y325650D01*
X165925Y324850D01*
X165125Y325250D01*
X164325Y324850D01*
X172225Y329450D02*
X172625Y330250D01*
X172225Y331050D01*
X173025Y330650D01*
X173825Y331050D01*
X173425Y330250D01*
X173825Y329450D01*
X173025Y329850D01*
X172225Y329450D01*
X108291Y245284D02*
X108691Y246084D01*
X108291Y246884D01*
X109091Y246484D01*
X109891Y246884D01*
X109491Y246084D01*
X109891Y245284D01*
X109091Y245684D01*
X108291Y245284D01*
X186359Y225416D02*
X186759Y226217D01*
X186359Y227016D01*
X187159Y226617D01*
X187959Y227016D01*
X187559Y226217D01*
X187959Y225416D01*
X187159Y225816D01*
X186359Y225416D01*
Y245317D02*
X186759Y246116D01*
X186359Y246917D01*
X187159Y246516D01*
X187959Y246917D01*
X187559Y246116D01*
X187959Y245317D01*
X187159Y245717D01*
X186359Y245317D01*
X108225Y224950D02*
X108625Y225750D01*
X108225Y226550D01*
X109025Y226150D01*
X109825Y226550D01*
X109425Y225750D01*
X109825Y224950D01*
X109025Y225350D01*
X108225Y224950D01*
X134625Y243750D02*
X135025Y244550D01*
X134625Y245350D01*
X135425Y244950D01*
X136225Y245350D01*
X135825Y244550D01*
X136225Y243750D01*
X135425Y244150D01*
X134625Y243750D01*
X142113Y280450D02*
X142513Y281250D01*
X142113Y282050D01*
X142913Y281650D01*
X143713Y282050D01*
X143313Y281250D01*
X143713Y280450D01*
X142913Y280850D01*
X142113Y280450D01*
X152225Y278650D02*
X152625Y279450D01*
X152225Y280250D01*
X153025Y279850D01*
X153825Y280250D01*
X153425Y279450D01*
X153825Y278650D01*
X153025Y279050D01*
X152225Y278650D01*
X128025Y359436D02*
X128425Y360236D01*
X128025Y361036D01*
X128825Y360636D01*
X129625Y361036D01*
X129225Y360236D01*
X129625Y359436D01*
X128825Y359836D01*
X128025Y359436D01*
X146838Y326463D02*
X147238Y327263D01*
X146838Y328063D01*
X147638Y327663D01*
X148438Y328063D01*
X148038Y327263D01*
X148438Y326463D01*
X147638Y326863D01*
X146838Y326463D01*
X165735Y374140D02*
X166135Y374940D01*
X165735Y375740D01*
X166535Y375340D01*
X167335Y375740D01*
X166935Y374940D01*
X167335Y374140D01*
X166535Y374540D01*
X165735Y374140D01*
X280263Y322979D02*
Y324580D01*
X281863D01*
Y322979D01*
X280263D01*
Y302979D02*
Y304579D01*
X281863D01*
Y302979D01*
X280263D01*
Y262980D02*
Y264580D01*
X281863D01*
Y262980D01*
X280263D01*
Y272979D02*
Y274580D01*
X281863D01*
Y272979D01*
X280263D01*
Y282979D02*
Y284579D01*
X281863D01*
Y282979D01*
X280263D01*
Y292980D02*
Y294580D01*
X281863D01*
Y292980D01*
X280263D01*
Y312980D02*
Y314580D01*
X281863D01*
Y312980D01*
X280263D01*
Y332979D02*
Y334579D01*
X281863D01*
Y332979D01*
X280263D01*
X210263Y272507D02*
Y274107D01*
X211863D01*
Y272507D01*
X210263D01*
Y292507D02*
Y294107D01*
X211863D01*
Y292507D01*
X210263D01*
Y332507D02*
Y334107D01*
X211863D01*
Y332507D01*
X210263D01*
Y322507D02*
Y324107D01*
X211863D01*
Y322507D01*
X210263D01*
Y312507D02*
Y314107D01*
X211863D01*
Y312507D01*
X210263D01*
Y302507D02*
Y304107D01*
X211863D01*
Y302507D01*
X210263D01*
Y282507D02*
Y284107D01*
X211863D01*
Y282507D01*
X210263D01*
Y262507D02*
Y264107D01*
X211863D01*
Y262507D01*
X210263D01*
X236457Y255499D02*
X235657Y257099D01*
X237257D01*
X236457Y255499D01*
X255669D02*
X254869Y257099D01*
X256469D01*
X255669Y255499D01*
X254232Y375381D02*
X254632Y375781D01*
X255032D01*
X254632Y376181D01*
X255032Y376581D01*
X254632D01*
X254232Y376981D01*
X253832Y376581D01*
X253432D01*
X253832Y376181D01*
X253432Y375781D01*
X253832D01*
X254232Y375381D01*
X237894D02*
X238294Y375781D01*
X238694D01*
X238294Y376181D01*
X238694Y376581D01*
X238294D01*
X237894Y376981D01*
X237494Y376581D01*
X237094D01*
X237494Y376181D01*
X237094Y375781D01*
X237494D01*
X237894Y375381D01*
X225450Y270465D02*
X225850Y271265D01*
X225450Y272065D01*
X226250Y271665D01*
X227050Y272065D01*
X226650Y271265D01*
X227050Y270465D01*
X226250Y270865D01*
X225450Y270465D01*
X241750Y221550D02*
X242150Y222350D01*
X241750Y223150D01*
X242550Y222750D01*
X243350Y223150D01*
X242950Y222350D01*
X243350Y221550D01*
X242550Y221950D01*
X241750Y221550D01*
X280750Y254950D02*
X281150Y255750D01*
X280750Y256550D01*
X281550Y256150D01*
X282350Y256550D01*
X281950Y255750D01*
X282350Y254950D01*
X281550Y255350D01*
X280750Y254950D01*
X215459Y235250D02*
X215859Y236050D01*
X215459Y236850D01*
X216259Y236450D01*
X217059Y236850D01*
X216659Y236050D01*
X217059Y235250D01*
X216259Y235650D01*
X215459Y235250D01*
X285050Y327950D02*
X285450Y328750D01*
X285050Y329550D01*
X285850Y329150D01*
X286650Y329550D01*
X286250Y328750D01*
X286650Y327950D01*
X285850Y328350D01*
X285050Y327950D01*
X285450Y318050D02*
X285850Y318850D01*
X285450Y319650D01*
X286250Y319250D01*
X287050Y319650D01*
X286650Y318850D01*
X287050Y318050D01*
X286250Y318450D01*
X285450Y318050D01*
X285711Y307850D02*
X286111Y308650D01*
X285711Y309450D01*
X286511Y309050D01*
X287311Y309450D01*
X286911Y308650D01*
X287311Y307850D01*
X286511Y308250D01*
X285711Y307850D01*
Y287950D02*
X286111Y288750D01*
X285711Y289550D01*
X286511Y289150D01*
X287311Y289550D01*
X286911Y288750D01*
X287311Y287950D01*
X286511Y288350D01*
X285711Y287950D01*
X291050Y346850D02*
X291450Y347650D01*
X291050Y348450D01*
X291850Y348050D01*
X292650Y348450D01*
X292250Y347650D01*
X292650Y346850D01*
X291850Y347250D01*
X291050Y346850D01*
X269550Y243950D02*
X269950Y244750D01*
X269550Y245550D01*
X270350Y245150D01*
X271150Y245550D01*
X270750Y244750D01*
X271150Y243950D01*
X270350Y244350D01*
X269550Y243950D01*
X262305Y314550D02*
X262705Y315350D01*
X262305Y316150D01*
X263106Y315750D01*
X263906Y316150D01*
X263506Y315350D01*
X263906Y314550D01*
X263106Y314950D01*
X262305Y314550D01*
X257250Y243850D02*
X257650Y244650D01*
X257250Y245450D01*
X258050Y245050D01*
X258850Y245450D01*
X258450Y244650D01*
X258850Y243850D01*
X258050Y244250D01*
X257250Y243850D01*
X245078Y239450D02*
X245478Y240250D01*
X245078Y241050D01*
X245878Y240650D01*
X246678Y241050D01*
X246278Y240250D01*
X246678Y239450D01*
X245878Y239850D01*
X245078Y239450D01*
X231750Y266650D02*
X232150Y267450D01*
X231750Y268250D01*
X232550Y267850D01*
X233350Y268250D01*
X232950Y267450D01*
X233350Y266650D01*
X232550Y267050D01*
X231750Y266650D01*
X252550D02*
X252950Y267450D01*
X252550Y268250D01*
X253350Y267850D01*
X254150Y268250D01*
X253750Y267450D01*
X254150Y266650D01*
X253350Y267050D01*
X252550Y266650D01*
X244017D02*
X244417Y267450D01*
X244017Y268250D01*
X244817Y267850D01*
X245617Y268250D01*
X245217Y267450D01*
X245617Y266650D01*
X244817Y267050D01*
X244017Y266650D01*
X280263Y342050D02*
X280663Y342850D01*
X280263Y343650D01*
X281063Y343250D01*
X281863Y343650D01*
X281463Y342850D01*
X281863Y342050D01*
X281063Y342450D01*
X280263Y342050D01*
X209950Y342650D02*
X210350Y343450D01*
X209950Y344250D01*
X210750Y343850D01*
X211550Y344250D01*
X211150Y343450D01*
X211550Y342650D01*
X210750Y343050D01*
X209950Y342650D01*
X227650Y351850D02*
X228050Y352650D01*
X227650Y353450D01*
X228450Y353050D01*
X229250Y353450D01*
X228850Y352650D01*
X229250Y351850D01*
X228450Y352250D01*
X227650Y351850D01*
X228050Y374350D02*
X228450Y375150D01*
X228050Y375950D01*
X228850Y375550D01*
X229650Y375950D01*
X229250Y375150D01*
X229650Y374350D01*
X228850Y374750D01*
X228050Y374350D01*
X220350Y369250D02*
X220750Y370050D01*
X220350Y370850D01*
X221150Y370450D01*
X221950Y370850D01*
X221550Y370050D01*
X221950Y369250D01*
X221150Y369650D01*
X220350Y369250D01*
X284084Y383884D02*
X284484Y384684D01*
X284084Y385484D01*
X284884Y385084D01*
X285684Y385484D01*
X285284Y384684D01*
X285684Y383884D01*
X284884Y384284D01*
X284084Y383884D01*
X207190Y383711D02*
X207590Y384511D01*
X207190Y385311D01*
X207990Y384911D01*
X208790Y385311D01*
X208390Y384511D01*
X208790Y383711D01*
X207990Y384111D01*
X207190Y383711D01*
X235750Y334250D02*
X236150Y335050D01*
X235750Y335850D01*
X236550Y335450D01*
X237350Y335850D01*
X236950Y335050D01*
X237350Y334250D01*
X236550Y334650D01*
X235750Y334250D01*
X240250Y349950D02*
X240650Y350750D01*
X240250Y351550D01*
X241050Y351150D01*
X241850Y351550D01*
X241450Y350750D01*
X241850Y349950D01*
X241050Y350350D01*
X240250Y349950D01*
X256450Y372150D02*
X256850Y372950D01*
X256450Y373750D01*
X257250Y373350D01*
X258050Y373750D01*
X257650Y372950D01*
X258050Y372150D01*
X257250Y372550D01*
X256450Y372150D01*
X249650Y365250D02*
X250050Y366050D01*
X249650Y366850D01*
X250450Y366450D01*
X251250Y366850D01*
X250850Y366050D01*
X251250Y365250D01*
X250450Y365650D01*
X249650Y365250D01*
X240450Y365850D02*
X240850Y366650D01*
X240450Y367450D01*
X241250Y367050D01*
X242050Y367450D01*
X241650Y366650D01*
X242050Y365850D01*
X241250Y366250D01*
X240450Y365850D01*
X231901Y276938D02*
X232301Y277738D01*
X231901Y278538D01*
X232701Y278138D01*
X233501Y278538D01*
X233101Y277738D01*
X233501Y276938D01*
X232701Y277338D01*
X231901Y276938D01*
X254248Y220750D02*
X254648Y221550D01*
X254248Y222350D01*
X255048Y221950D01*
X255848Y222350D01*
X255448Y221550D01*
X255848Y220750D01*
X255048Y221150D01*
X254248Y220750D01*
X255250Y229750D02*
X255650Y230550D01*
X255250Y231350D01*
X256050Y230950D01*
X256850Y231350D01*
X256450Y230550D01*
X256850Y229750D01*
X256050Y230150D01*
X255250Y229750D01*
X262250Y277650D02*
X262650Y278450D01*
X262250Y279250D01*
X263050Y278850D01*
X263850Y279250D01*
X263450Y278450D01*
X263850Y277650D01*
X263050Y278050D01*
X262250Y277650D01*
X285550Y277250D02*
X285950Y278050D01*
X285550Y278850D01*
X286350Y278450D01*
X287150Y278850D01*
X286750Y278050D01*
X287150Y277250D01*
X286350Y277650D01*
X285550Y277250D01*
X274350D02*
X274750Y278050D01*
X274350Y278850D01*
X275150Y278450D01*
X275950Y278850D01*
X275550Y278050D01*
X275950Y277250D01*
X275150Y277650D01*
X274350Y277250D01*
Y288350D02*
X274750Y289150D01*
X274350Y289950D01*
X275150Y289550D01*
X275950Y289950D01*
X275550Y289150D01*
X275950Y288350D01*
X275150Y288750D01*
X274350Y288350D01*
X264348Y288550D02*
X264748Y289350D01*
X264348Y290150D01*
X265148Y289750D01*
X265948Y290150D01*
X265548Y289350D01*
X265948Y288550D01*
X265148Y288950D01*
X264348Y288550D01*
X263967Y266250D02*
X264367Y267050D01*
X263967Y267850D01*
X264767Y267450D01*
X265567Y267850D01*
X265167Y267050D01*
X265567Y266250D01*
X264767Y266650D01*
X263967Y266250D01*
X263050Y238050D02*
X263450Y238850D01*
X263050Y239650D01*
X263850Y239250D01*
X264650Y239650D01*
X264250Y238850D01*
X264650Y238050D01*
X263850Y238450D01*
X263050Y238050D01*
X245150Y231650D02*
X245550Y232450D01*
X245150Y233250D01*
X245950Y232850D01*
X246750Y233250D01*
X246350Y232450D01*
X246750Y231650D01*
X245950Y232050D01*
X245150Y231650D01*
X208550Y255431D02*
X208950Y256231D01*
X208550Y257031D01*
X209350Y256631D01*
X210150Y257031D01*
X209750Y256231D01*
X210150Y255431D01*
X209350Y255831D01*
X208550Y255431D01*
X231050Y365250D02*
X231450Y366050D01*
X231050Y366850D01*
X231850Y366450D01*
X232650Y366850D01*
X232250Y366050D01*
X232650Y365250D01*
X231850Y365650D01*
X231050Y365250D01*
X270450Y366550D02*
X270850Y367350D01*
X270450Y368150D01*
X271250Y367750D01*
X272050Y368150D01*
X271650Y367350D01*
X272050Y366550D01*
X271250Y366950D01*
X270450Y366550D01*
X257272Y356650D02*
X257672Y357450D01*
X257272Y358250D01*
X258072Y357850D01*
X258872Y358250D01*
X258472Y357450D01*
X258872Y356650D01*
X258072Y357050D01*
X257272Y356650D01*
X249050Y352703D02*
X249450Y353503D01*
X249050Y354303D01*
X249850Y353903D01*
X250650Y354303D01*
X250250Y353503D01*
X250650Y352703D01*
X249850Y353103D01*
X249050Y352703D01*
X252250Y326045D02*
X252650Y326845D01*
X252250Y327645D01*
X253050Y327245D01*
X253850Y327645D01*
X253450Y326845D01*
X253850Y326045D01*
X253050Y326445D01*
X252250Y326045D01*
X265250Y336950D02*
X265650Y337750D01*
X265250Y338550D01*
X266050Y338150D01*
X266850Y338550D01*
X266450Y337750D01*
X266850Y336950D01*
X266050Y337350D01*
X265250Y336950D01*
X262750Y324850D02*
X263150Y325650D01*
X262750Y326450D01*
X263550Y326050D01*
X264350Y326450D01*
X263950Y325650D01*
X264350Y324850D01*
X263550Y325250D01*
X262750Y324850D01*
X270650Y329450D02*
X271050Y330250D01*
X270650Y331050D01*
X271450Y330650D01*
X272250Y331050D01*
X271850Y330250D01*
X272250Y329450D01*
X271450Y329850D01*
X270650Y329450D01*
X206716Y245284D02*
X207117Y246084D01*
X206716Y246884D01*
X207517Y246484D01*
X208316Y246884D01*
X207916Y246084D01*
X208316Y245284D01*
X207517Y245684D01*
X206716Y245284D01*
X284784Y225416D02*
X285184Y226217D01*
X284784Y227016D01*
X285584Y226617D01*
X286384Y227016D01*
X285984Y226217D01*
X286384Y225416D01*
X285584Y225816D01*
X284784Y225416D01*
Y245317D02*
X285184Y246116D01*
X284784Y246917D01*
X285584Y246516D01*
X286384Y246917D01*
X285984Y246116D01*
X286384Y245317D01*
X285584Y245717D01*
X284784Y245317D01*
X206650Y224950D02*
X207050Y225750D01*
X206650Y226550D01*
X207450Y226150D01*
X208250Y226550D01*
X207850Y225750D01*
X208250Y224950D01*
X207450Y225350D01*
X206650Y224950D01*
X233050Y243750D02*
X233450Y244550D01*
X233050Y245350D01*
X233850Y244950D01*
X234650Y245350D01*
X234250Y244550D01*
X234650Y243750D01*
X233850Y244150D01*
X233050Y243750D01*
X240539Y280450D02*
X240939Y281250D01*
X240539Y282050D01*
X241339Y281650D01*
X242139Y282050D01*
X241739Y281250D01*
X242139Y280450D01*
X241339Y280850D01*
X240539Y280450D01*
X250650Y278650D02*
X251050Y279450D01*
X250650Y280250D01*
X251450Y279850D01*
X252250Y280250D01*
X251850Y279450D01*
X252250Y278650D01*
X251450Y279050D01*
X250650Y278650D01*
X226450Y359436D02*
X226850Y360236D01*
X226450Y361036D01*
X227250Y360636D01*
X228050Y361036D01*
X227650Y360236D01*
X228050Y359436D01*
X227250Y359836D01*
X226450Y359436D01*
X245263Y326463D02*
X245663Y327263D01*
X245263Y328063D01*
X246063Y327663D01*
X246863Y328063D01*
X246463Y327263D01*
X246863Y326463D01*
X246063Y326863D01*
X245263Y326463D01*
X264161Y374140D02*
X264561Y374940D01*
X264161Y375740D01*
X264961Y375340D01*
X265761Y375740D01*
X265361Y374940D01*
X265761Y374140D01*
X264961Y374540D01*
X264161Y374140D01*
X378688Y322979D02*
Y324580D01*
X380288D01*
Y322979D01*
X378688D01*
Y302979D02*
Y304579D01*
X380288D01*
Y302979D01*
X378688D01*
Y262980D02*
Y264580D01*
X380288D01*
Y262980D01*
X378688D01*
Y272979D02*
Y274580D01*
X380288D01*
Y272979D01*
X378688D01*
Y282979D02*
Y284579D01*
X380288D01*
Y282979D01*
X378688D01*
Y292980D02*
Y294580D01*
X380288D01*
Y292980D01*
X378688D01*
Y312980D02*
Y314580D01*
X380288D01*
Y312980D01*
X378688D01*
Y332979D02*
Y334579D01*
X380288D01*
Y332979D01*
X378688D01*
X308688Y272507D02*
Y274107D01*
X310288D01*
Y272507D01*
X308688D01*
Y292507D02*
Y294107D01*
X310288D01*
Y292507D01*
X308688D01*
Y332507D02*
Y334107D01*
X310288D01*
Y332507D01*
X308688D01*
Y322507D02*
Y324107D01*
X310288D01*
Y322507D01*
X308688D01*
Y312507D02*
Y314107D01*
X310288D01*
Y312507D01*
X308688D01*
Y302507D02*
Y304107D01*
X310288D01*
Y302507D01*
X308688D01*
Y282507D02*
Y284107D01*
X310288D01*
Y282507D01*
X308688D01*
Y262507D02*
Y264107D01*
X310288D01*
Y262507D01*
X308688D01*
X334882Y255499D02*
X334082Y257099D01*
X335682D01*
X334882Y255499D01*
X354095D02*
X353294Y257099D01*
X354894D01*
X354095Y255499D01*
X352658Y375381D02*
X353058Y375781D01*
X353457D01*
X353058Y376181D01*
X353457Y376581D01*
X353058D01*
X352658Y376981D01*
X352257Y376581D01*
X351857D01*
X352257Y376181D01*
X351857Y375781D01*
X352257D01*
X352658Y375381D01*
X336319D02*
X336719Y375781D01*
X337119D01*
X336719Y376181D01*
X337119Y376581D01*
X336719D01*
X336319Y376981D01*
X335919Y376581D01*
X335519D01*
X335919Y376181D01*
X335519Y375781D01*
X335919D01*
X336319Y375381D01*
X323876Y270465D02*
X324276Y271265D01*
X323876Y272065D01*
X324676Y271665D01*
X325476Y272065D01*
X325076Y271265D01*
X325476Y270465D01*
X324676Y270865D01*
X323876Y270465D01*
X340176Y221550D02*
X340576Y222350D01*
X340176Y223150D01*
X340976Y222750D01*
X341776Y223150D01*
X341376Y222350D01*
X341776Y221550D01*
X340976Y221950D01*
X340176Y221550D01*
X379176Y254950D02*
X379576Y255750D01*
X379176Y256550D01*
X379976Y256150D01*
X380776Y256550D01*
X380376Y255750D01*
X380776Y254950D01*
X379976Y255350D01*
X379176Y254950D01*
X313884Y235250D02*
X314284Y236050D01*
X313884Y236850D01*
X314684Y236450D01*
X315484Y236850D01*
X315084Y236050D01*
X315484Y235250D01*
X314684Y235650D01*
X313884Y235250D01*
X383476Y327950D02*
X383876Y328750D01*
X383476Y329550D01*
X384276Y329150D01*
X385076Y329550D01*
X384676Y328750D01*
X385076Y327950D01*
X384276Y328350D01*
X383476Y327950D01*
X383876Y318050D02*
X384276Y318850D01*
X383876Y319650D01*
X384676Y319250D01*
X385476Y319650D01*
X385076Y318850D01*
X385476Y318050D01*
X384676Y318450D01*
X383876Y318050D01*
X384136Y307850D02*
X384536Y308650D01*
X384136Y309450D01*
X384936Y309050D01*
X385736Y309450D01*
X385336Y308650D01*
X385736Y307850D01*
X384936Y308250D01*
X384136Y307850D01*
Y287950D02*
X384536Y288750D01*
X384136Y289550D01*
X384936Y289150D01*
X385736Y289550D01*
X385336Y288750D01*
X385736Y287950D01*
X384936Y288350D01*
X384136Y287950D01*
X389476Y346850D02*
X389876Y347650D01*
X389476Y348450D01*
X390276Y348050D01*
X391076Y348450D01*
X390676Y347650D01*
X391076Y346850D01*
X390276Y347250D01*
X389476Y346850D01*
X367976Y243950D02*
X368376Y244750D01*
X367976Y245550D01*
X368776Y245150D01*
X369576Y245550D01*
X369176Y244750D01*
X369576Y243950D01*
X368776Y244350D01*
X367976Y243950D01*
X360731Y314550D02*
X361131Y315350D01*
X360731Y316150D01*
X361531Y315750D01*
X362331Y316150D01*
X361931Y315350D01*
X362331Y314550D01*
X361531Y314950D01*
X360731Y314550D01*
X355676Y243850D02*
X356076Y244650D01*
X355676Y245450D01*
X356476Y245050D01*
X357276Y245450D01*
X356876Y244650D01*
X357276Y243850D01*
X356476Y244250D01*
X355676Y243850D01*
X343503Y239450D02*
X343903Y240250D01*
X343503Y241050D01*
X344303Y240650D01*
X345103Y241050D01*
X344703Y240250D01*
X345103Y239450D01*
X344303Y239850D01*
X343503Y239450D01*
X330176Y266650D02*
X330576Y267450D01*
X330176Y268250D01*
X330976Y267850D01*
X331776Y268250D01*
X331376Y267450D01*
X331776Y266650D01*
X330976Y267050D01*
X330176Y266650D01*
X350976D02*
X351376Y267450D01*
X350976Y268250D01*
X351776Y267850D01*
X352576Y268250D01*
X352176Y267450D01*
X352576Y266650D01*
X351776Y267050D01*
X350976Y266650D01*
X342442D02*
X342842Y267450D01*
X342442Y268250D01*
X343242Y267850D01*
X344042Y268250D01*
X343642Y267450D01*
X344042Y266650D01*
X343242Y267050D01*
X342442Y266650D01*
X378688Y342050D02*
X379088Y342850D01*
X378688Y343650D01*
X379488Y343250D01*
X380288Y343650D01*
X379888Y342850D01*
X380288Y342050D01*
X379488Y342450D01*
X378688Y342050D01*
X308376Y342650D02*
X308776Y343450D01*
X308376Y344250D01*
X309176Y343850D01*
X309976Y344250D01*
X309576Y343450D01*
X309976Y342650D01*
X309176Y343050D01*
X308376Y342650D01*
X326076Y351850D02*
X326476Y352650D01*
X326076Y353450D01*
X326876Y353050D01*
X327676Y353450D01*
X327276Y352650D01*
X327676Y351850D01*
X326876Y352250D01*
X326076Y351850D01*
X326476Y374350D02*
X326876Y375150D01*
X326476Y375950D01*
X327276Y375550D01*
X328076Y375950D01*
X327676Y375150D01*
X328076Y374350D01*
X327276Y374750D01*
X326476Y374350D01*
X318776Y369250D02*
X319176Y370050D01*
X318776Y370850D01*
X319576Y370450D01*
X320376Y370850D01*
X319976Y370050D01*
X320376Y369250D01*
X319576Y369650D01*
X318776Y369250D01*
X382509Y383884D02*
X382909Y384684D01*
X382509Y385484D01*
X383310Y385084D01*
X384109Y385484D01*
X383710Y384684D01*
X384109Y383884D01*
X383310Y384284D01*
X382509Y383884D01*
X305615Y383711D02*
X306015Y384511D01*
X305615Y385311D01*
X306415Y384911D01*
X307215Y385311D01*
X306815Y384511D01*
X307215Y383711D01*
X306415Y384111D01*
X305615Y383711D01*
X334176Y334250D02*
X334576Y335050D01*
X334176Y335850D01*
X334976Y335450D01*
X335776Y335850D01*
X335376Y335050D01*
X335776Y334250D01*
X334976Y334650D01*
X334176Y334250D01*
X338676Y349950D02*
X339076Y350750D01*
X338676Y351550D01*
X339476Y351150D01*
X340276Y351550D01*
X339876Y350750D01*
X340276Y349950D01*
X339476Y350350D01*
X338676Y349950D01*
X354876Y372150D02*
X355276Y372950D01*
X354876Y373750D01*
X355676Y373350D01*
X356476Y373750D01*
X356076Y372950D01*
X356476Y372150D01*
X355676Y372550D01*
X354876Y372150D01*
X348076Y365250D02*
X348476Y366050D01*
X348076Y366850D01*
X348876Y366450D01*
X349676Y366850D01*
X349276Y366050D01*
X349676Y365250D01*
X348876Y365650D01*
X348076Y365250D01*
X338876Y365850D02*
X339276Y366650D01*
X338876Y367450D01*
X339676Y367050D01*
X340476Y367450D01*
X340076Y366650D01*
X340476Y365850D01*
X339676Y366250D01*
X338876Y365850D01*
X330326Y276938D02*
X330726Y277738D01*
X330326Y278538D01*
X331126Y278138D01*
X331926Y278538D01*
X331526Y277738D01*
X331926Y276938D01*
X331126Y277338D01*
X330326Y276938D01*
X352673Y220750D02*
X353073Y221550D01*
X352673Y222350D01*
X353473Y221950D01*
X354273Y222350D01*
X353873Y221550D01*
X354273Y220750D01*
X353473Y221150D01*
X352673Y220750D01*
X353676Y229750D02*
X354076Y230550D01*
X353676Y231350D01*
X354476Y230950D01*
X355276Y231350D01*
X354876Y230550D01*
X355276Y229750D01*
X354476Y230150D01*
X353676Y229750D01*
X360676Y277650D02*
X361076Y278450D01*
X360676Y279250D01*
X361476Y278850D01*
X362276Y279250D01*
X361876Y278450D01*
X362276Y277650D01*
X361476Y278050D01*
X360676Y277650D01*
X383976Y277250D02*
X384376Y278050D01*
X383976Y278850D01*
X384776Y278450D01*
X385576Y278850D01*
X385176Y278050D01*
X385576Y277250D01*
X384776Y277650D01*
X383976Y277250D01*
X372776D02*
X373176Y278050D01*
X372776Y278850D01*
X373576Y278450D01*
X374376Y278850D01*
X373976Y278050D01*
X374376Y277250D01*
X373576Y277650D01*
X372776Y277250D01*
Y288350D02*
X373176Y289150D01*
X372776Y289950D01*
X373576Y289550D01*
X374376Y289950D01*
X373976Y289150D01*
X374376Y288350D01*
X373576Y288750D01*
X372776Y288350D01*
X362773Y288550D02*
X363173Y289350D01*
X362773Y290150D01*
X363573Y289750D01*
X364373Y290150D01*
X363973Y289350D01*
X364373Y288550D01*
X363573Y288950D01*
X362773Y288550D01*
X362392Y266250D02*
X362792Y267050D01*
X362392Y267850D01*
X363192Y267450D01*
X363992Y267850D01*
X363592Y267050D01*
X363992Y266250D01*
X363192Y266650D01*
X362392Y266250D01*
X361476Y238050D02*
X361876Y238850D01*
X361476Y239650D01*
X362276Y239250D01*
X363076Y239650D01*
X362676Y238850D01*
X363076Y238050D01*
X362276Y238450D01*
X361476Y238050D01*
X343576Y231650D02*
X343976Y232450D01*
X343576Y233250D01*
X344376Y232850D01*
X345176Y233250D01*
X344776Y232450D01*
X345176Y231650D01*
X344376Y232050D01*
X343576Y231650D01*
X306976Y255431D02*
X307376Y256231D01*
X306976Y257031D01*
X307776Y256631D01*
X308576Y257031D01*
X308176Y256231D01*
X308576Y255431D01*
X307776Y255831D01*
X306976Y255431D01*
X329476Y365250D02*
X329876Y366050D01*
X329476Y366850D01*
X330276Y366450D01*
X331076Y366850D01*
X330676Y366050D01*
X331076Y365250D01*
X330276Y365650D01*
X329476Y365250D01*
X368876Y366550D02*
X369276Y367350D01*
X368876Y368150D01*
X369676Y367750D01*
X370476Y368150D01*
X370076Y367350D01*
X370476Y366550D01*
X369676Y366950D01*
X368876Y366550D01*
X355697Y356650D02*
X356097Y357450D01*
X355697Y358250D01*
X356497Y357850D01*
X357297Y358250D01*
X356897Y357450D01*
X357297Y356650D01*
X356497Y357050D01*
X355697Y356650D01*
X347476Y352703D02*
X347876Y353503D01*
X347476Y354303D01*
X348276Y353903D01*
X349076Y354303D01*
X348676Y353503D01*
X349076Y352703D01*
X348276Y353103D01*
X347476Y352703D01*
X350676Y326045D02*
X351076Y326845D01*
X350676Y327645D01*
X351476Y327245D01*
X352276Y327645D01*
X351876Y326845D01*
X352276Y326045D01*
X351476Y326445D01*
X350676Y326045D01*
X363676Y336950D02*
X364076Y337750D01*
X363676Y338550D01*
X364476Y338150D01*
X365276Y338550D01*
X364876Y337750D01*
X365276Y336950D01*
X364476Y337350D01*
X363676Y336950D01*
X361176Y324850D02*
X361576Y325650D01*
X361176Y326450D01*
X361976Y326050D01*
X362776Y326450D01*
X362376Y325650D01*
X362776Y324850D01*
X361976Y325250D01*
X361176Y324850D01*
X369076Y329450D02*
X369476Y330250D01*
X369076Y331050D01*
X369876Y330650D01*
X370676Y331050D01*
X370276Y330250D01*
X370676Y329450D01*
X369876Y329850D01*
X369076Y329450D01*
X305142Y245284D02*
X305542Y246084D01*
X305142Y246884D01*
X305942Y246484D01*
X306742Y246884D01*
X306342Y246084D01*
X306742Y245284D01*
X305942Y245684D01*
X305142Y245284D01*
X383209Y225416D02*
X383610Y226217D01*
X383209Y227016D01*
X384010Y226617D01*
X384809Y227016D01*
X384409Y226217D01*
X384809Y225416D01*
X384010Y225816D01*
X383209Y225416D01*
Y245317D02*
X383610Y246116D01*
X383209Y246917D01*
X384010Y246516D01*
X384809Y246917D01*
X384409Y246116D01*
X384809Y245317D01*
X384010Y245717D01*
X383209Y245317D01*
X305076Y224950D02*
X305476Y225750D01*
X305076Y226550D01*
X305876Y226150D01*
X306676Y226550D01*
X306276Y225750D01*
X306676Y224950D01*
X305876Y225350D01*
X305076Y224950D01*
X331476Y243750D02*
X331876Y244550D01*
X331476Y245350D01*
X332276Y244950D01*
X333076Y245350D01*
X332676Y244550D01*
X333076Y243750D01*
X332276Y244150D01*
X331476Y243750D01*
X338964Y280450D02*
X339364Y281250D01*
X338964Y282050D01*
X339764Y281650D01*
X340564Y282050D01*
X340164Y281250D01*
X340564Y280450D01*
X339764Y280850D01*
X338964Y280450D01*
X349076Y278650D02*
X349476Y279450D01*
X349076Y280250D01*
X349876Y279850D01*
X350676Y280250D01*
X350276Y279450D01*
X350676Y278650D01*
X349876Y279050D01*
X349076Y278650D01*
X324876Y359436D02*
X325276Y360236D01*
X324876Y361036D01*
X325676Y360636D01*
X326476Y361036D01*
X326076Y360236D01*
X326476Y359436D01*
X325676Y359836D01*
X324876Y359436D01*
X343688Y326463D02*
X344088Y327263D01*
X343688Y328063D01*
X344488Y327663D01*
X345288Y328063D01*
X344888Y327263D01*
X345288Y326463D01*
X344488Y326863D01*
X343688Y326463D01*
X362586Y374140D02*
X362986Y374940D01*
X362586Y375740D01*
X363386Y375340D01*
X364186Y375740D01*
X363786Y374940D01*
X364186Y374140D01*
X363386Y374540D01*
X362586Y374140D01*
D63*
X15013Y166557D02*
X14460Y167318D01*
X13565Y167027D01*
Y166086D01*
X14460Y165796D01*
X15013Y166557D01*
Y156457D02*
X14460Y157218D01*
X13565Y156927D01*
Y155986D01*
X14460Y155696D01*
X15013Y156457D01*
X85013Y166557D02*
X84460Y167318D01*
X83565Y167027D01*
Y166086D01*
X84460Y165796D01*
X85013Y166557D01*
Y156457D02*
X84460Y157218D01*
X83565Y156927D01*
Y155986D01*
X84460Y155696D01*
X85013Y156457D01*
X35013Y19291D02*
X34460Y20052D01*
X33565Y19762D01*
Y18821D01*
X34460Y18530D01*
X35013Y19291D01*
X45113D02*
X44560Y20052D01*
X43665Y19762D01*
Y18821D01*
X44560Y18530D01*
X45113Y19291D01*
X54913D02*
X54360Y20052D01*
X53465Y19762D01*
Y18821D01*
X54360Y18530D01*
X54913Y19291D01*
X65013D02*
X64460Y20052D01*
X63565Y19762D01*
Y18821D01*
X64460Y18530D01*
X65013Y19291D01*
X113438Y166557D02*
X112885Y167318D01*
X111991Y167027D01*
Y166086D01*
X112885Y165796D01*
X113438Y166557D01*
Y156457D02*
X112885Y157218D01*
X111991Y156927D01*
Y155986D01*
X112885Y155696D01*
X113438Y156457D01*
X183438Y166557D02*
X182885Y167318D01*
X181991Y167027D01*
Y166086D01*
X182885Y165796D01*
X183438Y166557D01*
Y156457D02*
X182885Y157218D01*
X181991Y156927D01*
Y155986D01*
X182885Y155696D01*
X183438Y156457D01*
X133438Y19291D02*
X132885Y20052D01*
X131991Y19762D01*
Y18821D01*
X132885Y18530D01*
X133438Y19291D01*
X143538D02*
X142985Y20052D01*
X142091Y19762D01*
Y18821D01*
X142985Y18530D01*
X143538Y19291D01*
X153338D02*
X152785Y20052D01*
X151891Y19762D01*
Y18821D01*
X152785Y18530D01*
X153338Y19291D01*
X163438D02*
X162885Y20052D01*
X161991Y19762D01*
Y18821D01*
X162885Y18530D01*
X163438Y19291D01*
X211863Y166557D02*
X211310Y167318D01*
X210416Y167027D01*
Y166086D01*
X211310Y165796D01*
X211863Y166557D01*
Y156457D02*
X211310Y157218D01*
X210416Y156927D01*
Y155986D01*
X211310Y155696D01*
X211863Y156457D01*
X281863Y166557D02*
X281310Y167318D01*
X280416Y167027D01*
Y166086D01*
X281310Y165796D01*
X281863Y166557D01*
Y156457D02*
X281310Y157218D01*
X280416Y156927D01*
Y155986D01*
X281310Y155696D01*
X281863Y156457D01*
X231863Y19291D02*
X231310Y20052D01*
X230416Y19762D01*
Y18821D01*
X231310Y18530D01*
X231863Y19291D01*
X241963D02*
X241410Y20052D01*
X240516Y19762D01*
Y18821D01*
X241410Y18530D01*
X241963Y19291D01*
X251763D02*
X251210Y20052D01*
X250316Y19762D01*
Y18821D01*
X251210Y18530D01*
X251763Y19291D01*
X261863D02*
X261310Y20052D01*
X260416Y19762D01*
Y18821D01*
X261310Y18530D01*
X261863Y19291D01*
X310288Y166557D02*
X309735Y167318D01*
X308841Y167027D01*
Y166086D01*
X309735Y165796D01*
X310288Y166557D01*
Y156457D02*
X309735Y157218D01*
X308841Y156927D01*
Y155986D01*
X309735Y155696D01*
X310288Y156457D01*
X380288Y166557D02*
X379735Y167318D01*
X378841Y167027D01*
Y166086D01*
X379735Y165796D01*
X380288Y166557D01*
Y156457D02*
X379735Y157218D01*
X378841Y156927D01*
Y155986D01*
X379735Y155696D01*
X380288Y156457D01*
X330288Y19291D02*
X329735Y20052D01*
X328841Y19762D01*
Y18821D01*
X329735Y18530D01*
X330288Y19291D01*
X340388D02*
X339835Y20052D01*
X338941Y19762D01*
Y18821D01*
X339835Y18530D01*
X340388Y19291D01*
X350188D02*
X349635Y20052D01*
X348741Y19762D01*
Y18821D01*
X349635Y18530D01*
X350188Y19291D01*
X360288D02*
X359735Y20052D01*
X358841Y19762D01*
Y18821D01*
X359735Y18530D01*
X360288Y19291D01*
X15013Y363407D02*
X14460Y364168D01*
X13565Y363877D01*
Y362937D01*
X14460Y362646D01*
X15013Y363407D01*
Y353307D02*
X14460Y354068D01*
X13565Y353777D01*
Y352837D01*
X14460Y352546D01*
X15013Y353307D01*
X85013Y363407D02*
X84460Y364168D01*
X83565Y363877D01*
Y362937D01*
X84460Y362646D01*
X85013Y363407D01*
Y353307D02*
X84460Y354068D01*
X83565Y353777D01*
Y352837D01*
X84460Y352546D01*
X85013Y353307D01*
X35013Y216142D02*
X34460Y216903D01*
X33565Y216612D01*
Y215671D01*
X34460Y215381D01*
X35013Y216142D01*
X45113D02*
X44560Y216903D01*
X43665Y216612D01*
Y215671D01*
X44560Y215381D01*
X45113Y216142D01*
X54913D02*
X54360Y216903D01*
X53465Y216612D01*
Y215671D01*
X54360Y215381D01*
X54913Y216142D01*
X65013D02*
X64460Y216903D01*
X63565Y216612D01*
Y215671D01*
X64460Y215381D01*
X65013Y216142D01*
X113438Y363407D02*
X112885Y364168D01*
X111991Y363877D01*
Y362937D01*
X112885Y362646D01*
X113438Y363407D01*
Y353307D02*
X112885Y354068D01*
X111991Y353777D01*
Y352837D01*
X112885Y352546D01*
X113438Y353307D01*
X183438Y363407D02*
X182885Y364168D01*
X181991Y363877D01*
Y362937D01*
X182885Y362646D01*
X183438Y363407D01*
Y353307D02*
X182885Y354068D01*
X181991Y353777D01*
Y352837D01*
X182885Y352546D01*
X183438Y353307D01*
X133438Y216142D02*
X132885Y216903D01*
X131991Y216612D01*
Y215671D01*
X132885Y215381D01*
X133438Y216142D01*
X143538D02*
X142985Y216903D01*
X142091Y216612D01*
Y215671D01*
X142985Y215381D01*
X143538Y216142D01*
X153338D02*
X152785Y216903D01*
X151891Y216612D01*
Y215671D01*
X152785Y215381D01*
X153338Y216142D01*
X163438D02*
X162885Y216903D01*
X161991Y216612D01*
Y215671D01*
X162885Y215381D01*
X163438Y216142D01*
X211863Y363407D02*
X211310Y364168D01*
X210416Y363877D01*
Y362937D01*
X211310Y362646D01*
X211863Y363407D01*
Y353307D02*
X211310Y354068D01*
X210416Y353777D01*
Y352837D01*
X211310Y352546D01*
X211863Y353307D01*
X281863Y363407D02*
X281310Y364168D01*
X280416Y363877D01*
Y362937D01*
X281310Y362646D01*
X281863Y363407D01*
Y353307D02*
X281310Y354068D01*
X280416Y353777D01*
Y352837D01*
X281310Y352546D01*
X281863Y353307D01*
X231863Y216142D02*
X231310Y216903D01*
X230416Y216612D01*
Y215671D01*
X231310Y215381D01*
X231863Y216142D01*
X241963D02*
X241410Y216903D01*
X240516Y216612D01*
Y215671D01*
X241410Y215381D01*
X241963Y216142D01*
X251763D02*
X251210Y216903D01*
X250316Y216612D01*
Y215671D01*
X251210Y215381D01*
X251763Y216142D01*
X261863D02*
X261310Y216903D01*
X260416Y216612D01*
Y215671D01*
X261310Y215381D01*
X261863Y216142D01*
X310288Y363407D02*
X309735Y364168D01*
X308841Y363877D01*
Y362937D01*
X309735Y362646D01*
X310288Y363407D01*
Y353307D02*
X309735Y354068D01*
X308841Y353777D01*
Y352837D01*
X309735Y352546D01*
X310288Y353307D01*
X380288Y363407D02*
X379735Y364168D01*
X378841Y363877D01*
Y362937D01*
X379735Y362646D01*
X380288Y363407D01*
Y353307D02*
X379735Y354068D01*
X378841Y353777D01*
Y352837D01*
X379735Y352546D01*
X380288Y353307D01*
X330288Y216142D02*
X329735Y216903D01*
X328841Y216612D01*
Y215671D01*
X329735Y215381D01*
X330288Y216142D01*
X340388D02*
X339835Y216903D01*
X338941Y216612D01*
Y215671D01*
X339835Y215381D01*
X340388Y216142D01*
X350188D02*
X349635Y216903D01*
X348741Y216612D01*
Y215671D01*
X349635Y215381D01*
X350188Y216142D01*
X360288D02*
X359735Y216903D01*
X358841Y216612D01*
Y215671D01*
X359735Y215381D01*
X360288Y216142D01*
M02*
