G04*
G04 #@! TF.GenerationSoftware,Altium Limited,Altium Designer,18.1.6 (161)*
G04*
G04 Layer_Color=128*
%FSLAX25Y25*%
%MOIN*%
G70*
G01*
G75*
%ADD62C,0.00200*%
D62*
X82113Y126929D02*
X86313D01*
X84213Y124829D02*
Y129029D01*
X82113Y106929D02*
X86313D01*
X84213Y104829D02*
Y109029D01*
X82113Y66929D02*
X86313D01*
X84213Y64829D02*
Y69029D01*
X82113Y76929D02*
X86313D01*
X84213Y74829D02*
Y79029D01*
X82113Y86929D02*
X86313D01*
X84213Y84829D02*
Y89029D01*
X82113Y96929D02*
X86313D01*
X84213Y94829D02*
Y99029D01*
X82113Y116929D02*
X86313D01*
X84213Y114829D02*
Y119029D01*
X82113Y136929D02*
X86313D01*
X84213Y134829D02*
Y139029D01*
X12413Y166557D02*
X16013D01*
X14213Y164757D02*
Y168357D01*
X12413Y156457D02*
X16013D01*
X14213Y154657D02*
Y158257D01*
X82413Y166557D02*
X86013D01*
X84213Y164757D02*
Y168357D01*
X82413Y156457D02*
X86013D01*
X84213Y154657D02*
Y158257D01*
X12113Y76457D02*
X16313D01*
X14213Y74357D02*
Y78557D01*
X12113Y96457D02*
X16313D01*
X14213Y94357D02*
Y98557D01*
X12113Y136457D02*
X16313D01*
X14213Y134357D02*
Y138557D01*
X12113Y126457D02*
X16313D01*
X14213Y124357D02*
Y128557D01*
X12113Y116457D02*
X16313D01*
X14213Y114357D02*
Y118557D01*
X12113Y106457D02*
X16313D01*
X14213Y104357D02*
Y108557D01*
X12113Y86457D02*
X16313D01*
X14213Y84357D02*
Y88557D01*
X12113Y66457D02*
X16313D01*
X14213Y64357D02*
Y68557D01*
X37906Y59449D02*
X41306D01*
X39606Y57749D02*
Y61149D01*
X57119Y59449D02*
X60519D01*
X58819Y57749D02*
Y61149D01*
X32413Y19291D02*
X36013D01*
X34213Y17491D02*
Y21091D01*
X42513Y19291D02*
X46113D01*
X44313Y17491D02*
Y21091D01*
X52313Y19291D02*
X55913D01*
X54113Y17491D02*
Y21091D01*
X62413Y19291D02*
X66013D01*
X64213Y17491D02*
Y21091D01*
X56004Y179331D02*
X58760D01*
X57382Y177953D02*
Y180709D01*
X39665Y179331D02*
X42421D01*
X41043Y177953D02*
Y180709D01*
X28613Y74414D02*
X30187D01*
X29400Y73627D02*
Y75202D01*
X44913Y25500D02*
X46487D01*
X45700Y24713D02*
Y26287D01*
X83913Y58900D02*
X85487D01*
X84700Y58113D02*
Y59687D01*
X18621Y39200D02*
X20196D01*
X19408Y38413D02*
Y39987D01*
X88213Y131900D02*
X89787D01*
X89000Y131113D02*
Y132687D01*
X88613Y122000D02*
X90187D01*
X89400Y121213D02*
Y122787D01*
X88873Y111800D02*
X90448D01*
X89661Y111013D02*
Y112587D01*
X88873Y91900D02*
X90448D01*
X89661Y91113D02*
Y92687D01*
X94213Y150800D02*
X95787D01*
X95000Y150013D02*
Y151587D01*
X72713Y47900D02*
X74287D01*
X73500Y47113D02*
Y48687D01*
X65468Y118500D02*
X67042D01*
X66255Y117713D02*
Y119287D01*
X60413Y47800D02*
X61987D01*
X61200Y47013D02*
Y48587D01*
X48240Y43400D02*
X49815D01*
X49028Y42613D02*
Y44187D01*
X34913Y70600D02*
X36487D01*
X35700Y69813D02*
Y71387D01*
X55713Y70600D02*
X57287D01*
X56500Y69813D02*
Y71387D01*
X47179Y70600D02*
X48754D01*
X47967Y69813D02*
Y71387D01*
X83425Y146000D02*
X85000D01*
X84213Y145213D02*
Y146787D01*
X13113Y146600D02*
X14687D01*
X13900Y145813D02*
Y147387D01*
X30813Y155800D02*
X32387D01*
X31600Y155013D02*
Y156587D01*
X31213Y178300D02*
X32787D01*
X32000Y177513D02*
Y179087D01*
X23513Y173200D02*
X25087D01*
X24300Y172413D02*
Y173987D01*
X87247Y187834D02*
X88821D01*
X88034Y187047D02*
Y188621D01*
X10352Y187660D02*
X11927D01*
X11140Y186873D02*
Y188448D01*
X38913Y138200D02*
X40487D01*
X39700Y137413D02*
Y138987D01*
X43413Y153900D02*
X44987D01*
X44200Y153113D02*
Y154687D01*
X59613Y176100D02*
X61187D01*
X60400Y175313D02*
Y176887D01*
X52813Y169200D02*
X54387D01*
X53600Y168413D02*
Y169987D01*
X43613Y169800D02*
X45187D01*
X44400Y169013D02*
Y170587D01*
X35063Y80888D02*
X36638D01*
X35850Y80101D02*
Y81675D01*
X57410Y24700D02*
X58985D01*
X58198Y23913D02*
Y25487D01*
X58413Y33700D02*
X59987D01*
X59200Y32913D02*
Y34487D01*
X65413Y81600D02*
X66987D01*
X66200Y80813D02*
Y82387D01*
X88713Y81200D02*
X90287D01*
X89500Y80413D02*
Y81987D01*
X77513Y81200D02*
X79087D01*
X78300Y80413D02*
Y81987D01*
X77513Y92300D02*
X79087D01*
X78300Y91513D02*
Y93087D01*
X67510Y92500D02*
X69085D01*
X68298Y91713D02*
Y93287D01*
X67129Y70200D02*
X68704D01*
X67917Y69413D02*
Y70987D01*
X66213Y42000D02*
X67787D01*
X67000Y41213D02*
Y42787D01*
X48313Y35600D02*
X49887D01*
X49100Y34813D02*
Y36387D01*
X11713Y59381D02*
X13287D01*
X12500Y58593D02*
Y60168D01*
X34213Y169200D02*
X35787D01*
X35000Y168413D02*
Y169987D01*
X73613Y170500D02*
X75187D01*
X74400Y169713D02*
Y171287D01*
X60434Y160600D02*
X62009D01*
X61222Y159813D02*
Y161387D01*
X52213Y156653D02*
X53787D01*
X53000Y155865D02*
Y157440D01*
X55413Y129994D02*
X56987D01*
X56200Y129207D02*
Y130782D01*
X68413Y140900D02*
X69987D01*
X69200Y140113D02*
Y141687D01*
X65913Y128800D02*
X67487D01*
X66700Y128013D02*
Y129587D01*
X73813Y133400D02*
X75387D01*
X74600Y132613D02*
Y134187D01*
X9879Y49234D02*
X11453D01*
X10666Y48447D02*
Y50021D01*
X87946Y29366D02*
X89521D01*
X88734Y28579D02*
Y30154D01*
X87946Y49266D02*
X89521D01*
X88734Y48479D02*
Y50054D01*
X9813Y28900D02*
X11387D01*
X10600Y28113D02*
Y29687D01*
X36213Y47700D02*
X37787D01*
X37000Y46913D02*
Y48487D01*
X43701Y84400D02*
X45276D01*
X44488Y83613D02*
Y85187D01*
X53813Y82600D02*
X55387D01*
X54600Y81813D02*
Y83387D01*
X29613Y163386D02*
X31187D01*
X30400Y162598D02*
Y164173D01*
X48425Y130413D02*
X50000D01*
X49213Y129625D02*
Y131200D01*
X67323Y178090D02*
X68898D01*
X68110Y177302D02*
Y178877D01*
X180538Y126929D02*
X184738D01*
X182638Y124829D02*
Y129029D01*
X180538Y106929D02*
X184738D01*
X182638Y104829D02*
Y109029D01*
X180538Y66929D02*
X184738D01*
X182638Y64829D02*
Y69029D01*
X180538Y76929D02*
X184738D01*
X182638Y74829D02*
Y79029D01*
X180538Y86929D02*
X184738D01*
X182638Y84829D02*
Y89029D01*
X180538Y96929D02*
X184738D01*
X182638Y94829D02*
Y99029D01*
X180538Y116929D02*
X184738D01*
X182638Y114829D02*
Y119029D01*
X180538Y136929D02*
X184738D01*
X182638Y134829D02*
Y139029D01*
X110838Y166557D02*
X114438D01*
X112638Y164757D02*
Y168357D01*
X110838Y156457D02*
X114438D01*
X112638Y154657D02*
Y158257D01*
X180838Y166557D02*
X184438D01*
X182638Y164757D02*
Y168357D01*
X180838Y156457D02*
X184438D01*
X182638Y154657D02*
Y158257D01*
X110538Y76457D02*
X114738D01*
X112638Y74357D02*
Y78557D01*
X110538Y96457D02*
X114738D01*
X112638Y94357D02*
Y98557D01*
X110538Y136457D02*
X114738D01*
X112638Y134357D02*
Y138557D01*
X110538Y126457D02*
X114738D01*
X112638Y124357D02*
Y128557D01*
X110538Y116457D02*
X114738D01*
X112638Y114357D02*
Y118557D01*
X110538Y106457D02*
X114738D01*
X112638Y104357D02*
Y108557D01*
X110538Y86457D02*
X114738D01*
X112638Y84357D02*
Y88557D01*
X110538Y66457D02*
X114738D01*
X112638Y64357D02*
Y68557D01*
X136331Y59449D02*
X139732D01*
X138031Y57749D02*
Y61149D01*
X155544Y59449D02*
X158944D01*
X157244Y57749D02*
Y61149D01*
X130838Y19291D02*
X134438D01*
X132638Y17491D02*
Y21091D01*
X140938Y19291D02*
X144538D01*
X142738Y17491D02*
Y21091D01*
X150738Y19291D02*
X154338D01*
X152538Y17491D02*
Y21091D01*
X160838Y19291D02*
X164438D01*
X162638Y17491D02*
Y21091D01*
X154429Y179331D02*
X157185D01*
X155807Y177953D02*
Y180709D01*
X138091Y179331D02*
X140847D01*
X139469Y177953D02*
Y180709D01*
X127038Y74414D02*
X128613D01*
X127825Y73627D02*
Y75202D01*
X143338Y25500D02*
X144913D01*
X144125Y24713D02*
Y26287D01*
X182338Y58900D02*
X183913D01*
X183125Y58113D02*
Y59687D01*
X117046Y39200D02*
X118621D01*
X117834Y38413D02*
Y39987D01*
X186638Y131900D02*
X188213D01*
X187425Y131113D02*
Y132687D01*
X187038Y122000D02*
X188613D01*
X187825Y121213D02*
Y122787D01*
X187298Y111800D02*
X188873D01*
X188086Y111013D02*
Y112587D01*
X187298Y91900D02*
X188873D01*
X188086Y91113D02*
Y92687D01*
X192638Y150800D02*
X194213D01*
X193425Y150013D02*
Y151587D01*
X171138Y47900D02*
X172713D01*
X171925Y47113D02*
Y48687D01*
X163893Y118500D02*
X165468D01*
X164680Y117713D02*
Y119287D01*
X158838Y47800D02*
X160413D01*
X159625Y47013D02*
Y48587D01*
X146666Y43400D02*
X148240D01*
X147453Y42613D02*
Y44187D01*
X133338Y70600D02*
X134913D01*
X134125Y69813D02*
Y71387D01*
X154138Y70600D02*
X155713D01*
X154925Y69813D02*
Y71387D01*
X145605Y70600D02*
X147179D01*
X146392Y69813D02*
Y71387D01*
X181850Y146000D02*
X183425D01*
X182638Y145213D02*
Y146787D01*
X111538Y146600D02*
X113113D01*
X112325Y145813D02*
Y147387D01*
X129238Y155800D02*
X130813D01*
X130025Y155013D02*
Y156587D01*
X129638Y178300D02*
X131213D01*
X130425Y177513D02*
Y179087D01*
X121938Y173200D02*
X123513D01*
X122725Y172413D02*
Y173987D01*
X185672Y187834D02*
X187247D01*
X186459Y187047D02*
Y188621D01*
X108778Y187660D02*
X110352D01*
X109565Y186873D02*
Y188448D01*
X137338Y138200D02*
X138913D01*
X138125Y137413D02*
Y138987D01*
X141838Y153900D02*
X143413D01*
X142625Y153113D02*
Y154687D01*
X158038Y176100D02*
X159613D01*
X158825Y175313D02*
Y176887D01*
X151238Y169200D02*
X152813D01*
X152025Y168413D02*
Y169987D01*
X142038Y169800D02*
X143613D01*
X142825Y169013D02*
Y170587D01*
X133488Y80888D02*
X135063D01*
X134275Y80101D02*
Y81675D01*
X155835Y24700D02*
X157410D01*
X156623Y23913D02*
Y25487D01*
X156838Y33700D02*
X158413D01*
X157625Y32913D02*
Y34487D01*
X163838Y81600D02*
X165413D01*
X164625Y80813D02*
Y82387D01*
X187138Y81200D02*
X188713D01*
X187925Y80413D02*
Y81987D01*
X175938Y81200D02*
X177513D01*
X176725Y80413D02*
Y81987D01*
X175938Y92300D02*
X177513D01*
X176725Y91513D02*
Y93087D01*
X165935Y92500D02*
X167510D01*
X166723Y91713D02*
Y93287D01*
X165554Y70200D02*
X167129D01*
X166342Y69413D02*
Y70987D01*
X164638Y42000D02*
X166213D01*
X165425Y41213D02*
Y42787D01*
X146738Y35600D02*
X148313D01*
X147525Y34813D02*
Y36387D01*
X110138Y59381D02*
X111713D01*
X110925Y58593D02*
Y60168D01*
X132638Y169200D02*
X134213D01*
X133425Y168413D02*
Y169987D01*
X172038Y170500D02*
X173613D01*
X172825Y169713D02*
Y171287D01*
X158859Y160600D02*
X160434D01*
X159647Y159813D02*
Y161387D01*
X150638Y156653D02*
X152213D01*
X151425Y155865D02*
Y157440D01*
X153838Y129994D02*
X155413D01*
X154625Y129207D02*
Y130782D01*
X166838Y140900D02*
X168413D01*
X167625Y140113D02*
Y141687D01*
X164338Y128800D02*
X165913D01*
X165125Y128013D02*
Y129587D01*
X172238Y133400D02*
X173813D01*
X173025Y132613D02*
Y134187D01*
X108304Y49234D02*
X109879D01*
X109091Y48447D02*
Y50021D01*
X186372Y29366D02*
X187946D01*
X187159Y28579D02*
Y30154D01*
X186372Y49266D02*
X187946D01*
X187159Y48479D02*
Y50054D01*
X108238Y28900D02*
X109813D01*
X109025Y28113D02*
Y29687D01*
X134638Y47700D02*
X136213D01*
X135425Y46913D02*
Y48487D01*
X142126Y84400D02*
X143701D01*
X142913Y83613D02*
Y85187D01*
X152238Y82600D02*
X153813D01*
X153025Y81813D02*
Y83387D01*
X128038Y163386D02*
X129613D01*
X128825Y162598D02*
Y164173D01*
X146850Y130413D02*
X148425D01*
X147638Y129625D02*
Y131200D01*
X165748Y178090D02*
X167323D01*
X166535Y177302D02*
Y178877D01*
X278963Y126929D02*
X283163D01*
X281063Y124829D02*
Y129029D01*
X278963Y106929D02*
X283163D01*
X281063Y104829D02*
Y109029D01*
X278963Y66929D02*
X283163D01*
X281063Y64829D02*
Y69029D01*
X278963Y76929D02*
X283163D01*
X281063Y74829D02*
Y79029D01*
X278963Y86929D02*
X283163D01*
X281063Y84829D02*
Y89029D01*
X278963Y96929D02*
X283163D01*
X281063Y94829D02*
Y99029D01*
X278963Y116929D02*
X283163D01*
X281063Y114829D02*
Y119029D01*
X278963Y136929D02*
X283163D01*
X281063Y134829D02*
Y139029D01*
X209263Y166557D02*
X212863D01*
X211063Y164757D02*
Y168357D01*
X209263Y156457D02*
X212863D01*
X211063Y154657D02*
Y158257D01*
X279263Y166557D02*
X282863D01*
X281063Y164757D02*
Y168357D01*
X279263Y156457D02*
X282863D01*
X281063Y154657D02*
Y158257D01*
X208963Y76457D02*
X213163D01*
X211063Y74357D02*
Y78557D01*
X208963Y96457D02*
X213163D01*
X211063Y94357D02*
Y98557D01*
X208963Y136457D02*
X213163D01*
X211063Y134357D02*
Y138557D01*
X208963Y126457D02*
X213163D01*
X211063Y124357D02*
Y128557D01*
X208963Y116457D02*
X213163D01*
X211063Y114357D02*
Y118557D01*
X208963Y106457D02*
X213163D01*
X211063Y104357D02*
Y108557D01*
X208963Y86457D02*
X213163D01*
X211063Y84357D02*
Y88557D01*
X208963Y66457D02*
X213163D01*
X211063Y64357D02*
Y68557D01*
X234757Y59449D02*
X238157D01*
X236457Y57749D02*
Y61149D01*
X253969Y59449D02*
X257369D01*
X255669Y57749D02*
Y61149D01*
X229263Y19291D02*
X232863D01*
X231063Y17491D02*
Y21091D01*
X239363Y19291D02*
X242963D01*
X241163Y17491D02*
Y21091D01*
X249163Y19291D02*
X252763D01*
X250963Y17491D02*
Y21091D01*
X259263Y19291D02*
X262863D01*
X261063Y17491D02*
Y21091D01*
X252854Y179331D02*
X255610D01*
X254232Y177953D02*
Y180709D01*
X236516Y179331D02*
X239272D01*
X237894Y177953D02*
Y180709D01*
X225463Y74414D02*
X227038D01*
X226250Y73627D02*
Y75202D01*
X241763Y25500D02*
X243338D01*
X242550Y24713D02*
Y26287D01*
X280763Y58900D02*
X282338D01*
X281550Y58113D02*
Y59687D01*
X215471Y39200D02*
X217046D01*
X216259Y38413D02*
Y39987D01*
X285063Y131900D02*
X286638D01*
X285850Y131113D02*
Y132687D01*
X285463Y122000D02*
X287038D01*
X286250Y121213D02*
Y122787D01*
X285723Y111800D02*
X287298D01*
X286511Y111013D02*
Y112587D01*
X285723Y91900D02*
X287298D01*
X286511Y91113D02*
Y92687D01*
X291063Y150800D02*
X292638D01*
X291850Y150013D02*
Y151587D01*
X269563Y47900D02*
X271138D01*
X270350Y47113D02*
Y48687D01*
X262318Y118500D02*
X263893D01*
X263106Y117713D02*
Y119287D01*
X257263Y47800D02*
X258838D01*
X258050Y47013D02*
Y48587D01*
X245091Y43400D02*
X246666D01*
X245878Y42613D02*
Y44187D01*
X231763Y70600D02*
X233338D01*
X232550Y69813D02*
Y71387D01*
X252563Y70600D02*
X254138D01*
X253350Y69813D02*
Y71387D01*
X244030Y70600D02*
X245604D01*
X244817Y69813D02*
Y71387D01*
X280276Y146000D02*
X281850D01*
X281063Y145213D02*
Y146787D01*
X209963Y146600D02*
X211538D01*
X210750Y145813D02*
Y147387D01*
X227663Y155800D02*
X229238D01*
X228450Y155013D02*
Y156587D01*
X228063Y178300D02*
X229638D01*
X228850Y177513D02*
Y179087D01*
X220363Y173200D02*
X221938D01*
X221150Y172413D02*
Y173987D01*
X284097Y187834D02*
X285672D01*
X284884Y187047D02*
Y188621D01*
X207203Y187660D02*
X208778D01*
X207990Y186873D02*
Y188448D01*
X235763Y138200D02*
X237338D01*
X236550Y137413D02*
Y138987D01*
X240263Y153900D02*
X241838D01*
X241050Y153113D02*
Y154687D01*
X256463Y176100D02*
X258038D01*
X257250Y175313D02*
Y176887D01*
X249663Y169200D02*
X251238D01*
X250450Y168413D02*
Y169987D01*
X240463Y169800D02*
X242038D01*
X241250Y169013D02*
Y170587D01*
X231913Y80888D02*
X233488D01*
X232701Y80101D02*
Y81675D01*
X254261Y24700D02*
X255835D01*
X255048Y23913D02*
Y25487D01*
X255263Y33700D02*
X256838D01*
X256050Y32913D02*
Y34487D01*
X262263Y81600D02*
X263838D01*
X263050Y80813D02*
Y82387D01*
X285563Y81200D02*
X287138D01*
X286350Y80413D02*
Y81987D01*
X274363Y81200D02*
X275938D01*
X275150Y80413D02*
Y81987D01*
X274363Y92300D02*
X275938D01*
X275150Y91513D02*
Y93087D01*
X264361Y92500D02*
X265935D01*
X265148Y91713D02*
Y93287D01*
X263980Y70200D02*
X265554D01*
X264767Y69413D02*
Y70987D01*
X263063Y42000D02*
X264638D01*
X263850Y41213D02*
Y42787D01*
X245163Y35600D02*
X246738D01*
X245950Y34813D02*
Y36387D01*
X208563Y59381D02*
X210138D01*
X209350Y58593D02*
Y60168D01*
X231063Y169200D02*
X232638D01*
X231850Y168413D02*
Y169987D01*
X270463Y170500D02*
X272038D01*
X271250Y169713D02*
Y171287D01*
X257285Y160600D02*
X258859D01*
X258072Y159813D02*
Y161387D01*
X249063Y156653D02*
X250638D01*
X249850Y155865D02*
Y157440D01*
X252263Y129994D02*
X253838D01*
X253050Y129207D02*
Y130782D01*
X265263Y140900D02*
X266838D01*
X266050Y140113D02*
Y141687D01*
X262763Y128800D02*
X264338D01*
X263550Y128013D02*
Y129587D01*
X270663Y133400D02*
X272238D01*
X271450Y132613D02*
Y134187D01*
X206729Y49234D02*
X208304D01*
X207517Y48447D02*
Y50021D01*
X284797Y29366D02*
X286372D01*
X285584Y28579D02*
Y30154D01*
X284797Y49266D02*
X286372D01*
X285584Y48479D02*
Y50054D01*
X206663Y28900D02*
X208238D01*
X207450Y28113D02*
Y29687D01*
X233063Y47700D02*
X234638D01*
X233850Y46913D02*
Y48487D01*
X240551Y84400D02*
X242126D01*
X241339Y83613D02*
Y85187D01*
X250663Y82600D02*
X252238D01*
X251450Y81813D02*
Y83387D01*
X226463Y163386D02*
X228038D01*
X227250Y162598D02*
Y164173D01*
X245276Y130413D02*
X246850D01*
X246063Y129625D02*
Y131200D01*
X264173Y178090D02*
X265748D01*
X264961Y177302D02*
Y178877D01*
X377388Y126929D02*
X381588D01*
X379488Y124829D02*
Y129029D01*
X377388Y106929D02*
X381588D01*
X379488Y104829D02*
Y109029D01*
X377388Y66929D02*
X381588D01*
X379488Y64829D02*
Y69029D01*
X377388Y76929D02*
X381588D01*
X379488Y74829D02*
Y79029D01*
X377388Y86929D02*
X381588D01*
X379488Y84829D02*
Y89029D01*
X377388Y96929D02*
X381588D01*
X379488Y94829D02*
Y99029D01*
X377388Y116929D02*
X381588D01*
X379488Y114829D02*
Y119029D01*
X377388Y136929D02*
X381588D01*
X379488Y134829D02*
Y139029D01*
X307688Y166557D02*
X311288D01*
X309488Y164757D02*
Y168357D01*
X307688Y156457D02*
X311288D01*
X309488Y154657D02*
Y158257D01*
X377688Y166557D02*
X381288D01*
X379488Y164757D02*
Y168357D01*
X377688Y156457D02*
X381288D01*
X379488Y154657D02*
Y158257D01*
X307388Y76457D02*
X311588D01*
X309488Y74357D02*
Y78557D01*
X307388Y96457D02*
X311588D01*
X309488Y94357D02*
Y98557D01*
X307388Y136457D02*
X311588D01*
X309488Y134357D02*
Y138557D01*
X307388Y126457D02*
X311588D01*
X309488Y124357D02*
Y128557D01*
X307388Y116457D02*
X311588D01*
X309488Y114357D02*
Y118557D01*
X307388Y106457D02*
X311588D01*
X309488Y104357D02*
Y108557D01*
X307388Y86457D02*
X311588D01*
X309488Y84357D02*
Y88557D01*
X307388Y66457D02*
X311588D01*
X309488Y64357D02*
Y68557D01*
X333182Y59449D02*
X336582D01*
X334882Y57749D02*
Y61149D01*
X352395Y59449D02*
X355795D01*
X354095Y57749D02*
Y61149D01*
X327688Y19291D02*
X331288D01*
X329488Y17491D02*
Y21091D01*
X337788Y19291D02*
X341388D01*
X339588Y17491D02*
Y21091D01*
X347588Y19291D02*
X351188D01*
X349388Y17491D02*
Y21091D01*
X357688Y19291D02*
X361288D01*
X359488Y17491D02*
Y21091D01*
X351279Y179331D02*
X354035D01*
X352658Y177953D02*
Y180709D01*
X334941Y179331D02*
X337697D01*
X336319Y177953D02*
Y180709D01*
X323888Y74414D02*
X325463D01*
X324676Y73627D02*
Y75202D01*
X340188Y25500D02*
X341763D01*
X340976Y24713D02*
Y26287D01*
X379188Y58900D02*
X380763D01*
X379976Y58113D02*
Y59687D01*
X313897Y39200D02*
X315471D01*
X314684Y38413D02*
Y39987D01*
X383488Y131900D02*
X385063D01*
X384276Y131113D02*
Y132687D01*
X383888Y122000D02*
X385463D01*
X384676Y121213D02*
Y122787D01*
X384149Y111800D02*
X385723D01*
X384936Y111013D02*
Y112587D01*
X384149Y91900D02*
X385723D01*
X384936Y91113D02*
Y92687D01*
X389488Y150800D02*
X391063D01*
X390276Y150013D02*
Y151587D01*
X367988Y47900D02*
X369563D01*
X368776Y47113D02*
Y48687D01*
X360743Y118500D02*
X362318D01*
X361531Y117713D02*
Y119287D01*
X355688Y47800D02*
X357263D01*
X356476Y47013D02*
Y48587D01*
X343516Y43400D02*
X345091D01*
X344303Y42613D02*
Y44187D01*
X330188Y70600D02*
X331763D01*
X330976Y69813D02*
Y71387D01*
X350988Y70600D02*
X352563D01*
X351776Y69813D02*
Y71387D01*
X342455Y70600D02*
X344030D01*
X343242Y69813D02*
Y71387D01*
X378701Y146000D02*
X380276D01*
X379488Y145213D02*
Y146787D01*
X308388Y146600D02*
X309963D01*
X309176Y145813D02*
Y147387D01*
X326088Y155800D02*
X327663D01*
X326876Y155013D02*
Y156587D01*
X326488Y178300D02*
X328063D01*
X327276Y177513D02*
Y179087D01*
X318788Y173200D02*
X320363D01*
X319576Y172413D02*
Y173987D01*
X382522Y187834D02*
X384097D01*
X383310Y187047D02*
Y188621D01*
X305628Y187660D02*
X307203D01*
X306415Y186873D02*
Y188448D01*
X334188Y138200D02*
X335763D01*
X334976Y137413D02*
Y138987D01*
X338688Y153900D02*
X340263D01*
X339476Y153113D02*
Y154687D01*
X354888Y176100D02*
X356463D01*
X355676Y175313D02*
Y176887D01*
X348088Y169200D02*
X349663D01*
X348876Y168413D02*
Y169987D01*
X338888Y169800D02*
X340463D01*
X339676Y169013D02*
Y170587D01*
X330339Y80888D02*
X331913D01*
X331126Y80101D02*
Y81675D01*
X352686Y24700D02*
X354261D01*
X353473Y23913D02*
Y25487D01*
X353688Y33700D02*
X355263D01*
X354476Y32913D02*
Y34487D01*
X360688Y81600D02*
X362263D01*
X361476Y80813D02*
Y82387D01*
X383988Y81200D02*
X385563D01*
X384776Y80413D02*
Y81987D01*
X372788Y81200D02*
X374363D01*
X373576Y80413D02*
Y81987D01*
X372788Y92300D02*
X374363D01*
X373576Y91513D02*
Y93087D01*
X362786Y92500D02*
X364361D01*
X363573Y91713D02*
Y93287D01*
X362405Y70200D02*
X363980D01*
X363192Y69413D02*
Y70987D01*
X361488Y42000D02*
X363063D01*
X362276Y41213D02*
Y42787D01*
X343588Y35600D02*
X345163D01*
X344376Y34813D02*
Y36387D01*
X306988Y59381D02*
X308563D01*
X307776Y58593D02*
Y60168D01*
X329488Y169200D02*
X331063D01*
X330276Y168413D02*
Y169987D01*
X368888Y170500D02*
X370463D01*
X369676Y169713D02*
Y171287D01*
X355710Y160600D02*
X357285D01*
X356497Y159813D02*
Y161387D01*
X347488Y156653D02*
X349063D01*
X348276Y155865D02*
Y157440D01*
X350688Y129994D02*
X352263D01*
X351476Y129207D02*
Y130782D01*
X363688Y140900D02*
X365263D01*
X364476Y140113D02*
Y141687D01*
X361188Y128800D02*
X362763D01*
X361976Y128013D02*
Y129587D01*
X369088Y133400D02*
X370663D01*
X369876Y132613D02*
Y134187D01*
X305154Y49234D02*
X306729D01*
X305942Y48447D02*
Y50021D01*
X383222Y29366D02*
X384797D01*
X384010Y28579D02*
Y30154D01*
X383222Y49266D02*
X384797D01*
X384010Y48479D02*
Y50054D01*
X305088Y28900D02*
X306663D01*
X305876Y28113D02*
Y29687D01*
X331488Y47700D02*
X333063D01*
X332276Y46913D02*
Y48487D01*
X338976Y84400D02*
X340551D01*
X339764Y83613D02*
Y85187D01*
X349088Y82600D02*
X350663D01*
X349876Y81813D02*
Y83387D01*
X324888Y163386D02*
X326463D01*
X325676Y162598D02*
Y164173D01*
X343701Y130413D02*
X345276D01*
X344488Y129625D02*
Y131200D01*
X362598Y178090D02*
X364173D01*
X363386Y177302D02*
Y178877D01*
X82113Y323780D02*
X86313D01*
X84213Y321679D02*
Y325880D01*
X82113Y303780D02*
X86313D01*
X84213Y301679D02*
Y305879D01*
X82113Y263779D02*
X86313D01*
X84213Y261680D02*
Y265880D01*
X82113Y273780D02*
X86313D01*
X84213Y271679D02*
Y275880D01*
X82113Y283780D02*
X86313D01*
X84213Y281680D02*
Y285879D01*
X82113Y293779D02*
X86313D01*
X84213Y291680D02*
Y295880D01*
X82113Y313779D02*
X86313D01*
X84213Y311680D02*
Y315880D01*
X82113Y333780D02*
X86313D01*
X84213Y331680D02*
Y335879D01*
X12413Y363407D02*
X16013D01*
X14213Y361607D02*
Y365207D01*
X12413Y353307D02*
X16013D01*
X14213Y351507D02*
Y355107D01*
X82413Y363407D02*
X86013D01*
X84213Y361607D02*
Y365207D01*
X82413Y353307D02*
X86013D01*
X84213Y351507D02*
Y355107D01*
X12113Y273307D02*
X16313D01*
X14213Y271207D02*
Y275407D01*
X12113Y293307D02*
X16313D01*
X14213Y291207D02*
Y295407D01*
X12113Y333307D02*
X16313D01*
X14213Y331207D02*
Y335407D01*
X12113Y323307D02*
X16313D01*
X14213Y321207D02*
Y325407D01*
X12113Y313307D02*
X16313D01*
X14213Y311207D02*
Y315407D01*
X12113Y303307D02*
X16313D01*
X14213Y301207D02*
Y305407D01*
X12113Y283307D02*
X16313D01*
X14213Y281207D02*
Y285407D01*
X12113Y263307D02*
X16313D01*
X14213Y261207D02*
Y265407D01*
X37906Y256299D02*
X41306D01*
X39606Y254599D02*
Y257999D01*
X57119Y256299D02*
X60519D01*
X58819Y254599D02*
Y257999D01*
X32413Y216142D02*
X36013D01*
X34213Y214342D02*
Y217942D01*
X42513Y216142D02*
X46113D01*
X44313Y214342D02*
Y217942D01*
X52313Y216142D02*
X55913D01*
X54113Y214342D02*
Y217942D01*
X62413Y216142D02*
X66013D01*
X64213Y214342D02*
Y217942D01*
X56004Y376181D02*
X58760D01*
X57382Y374803D02*
Y377559D01*
X39665Y376181D02*
X42421D01*
X41043Y374803D02*
Y377559D01*
X28613Y271265D02*
X30187D01*
X29400Y270477D02*
Y272052D01*
X44913Y222350D02*
X46487D01*
X45700Y221563D02*
Y223138D01*
X83913Y255750D02*
X85487D01*
X84700Y254963D02*
Y256538D01*
X18621Y236050D02*
X20196D01*
X19408Y235263D02*
Y236838D01*
X88213Y328750D02*
X89787D01*
X89000Y327963D02*
Y329538D01*
X88613Y318850D02*
X90187D01*
X89400Y318063D02*
Y319638D01*
X88873Y308650D02*
X90448D01*
X89661Y307863D02*
Y309438D01*
X88873Y288750D02*
X90448D01*
X89661Y287963D02*
Y289538D01*
X94213Y347650D02*
X95787D01*
X95000Y346863D02*
Y348438D01*
X72713Y244750D02*
X74287D01*
X73500Y243963D02*
Y245538D01*
X65468Y315350D02*
X67042D01*
X66255Y314563D02*
Y316138D01*
X60413Y244650D02*
X61987D01*
X61200Y243863D02*
Y245438D01*
X48240Y240250D02*
X49815D01*
X49028Y239463D02*
Y241038D01*
X34913Y267450D02*
X36487D01*
X35700Y266663D02*
Y268238D01*
X55713Y267450D02*
X57287D01*
X56500Y266663D02*
Y268238D01*
X47179Y267450D02*
X48754D01*
X47967Y266663D02*
Y268238D01*
X83425Y342850D02*
X85000D01*
X84213Y342063D02*
Y343638D01*
X13113Y343450D02*
X14687D01*
X13900Y342663D02*
Y344238D01*
X30813Y352650D02*
X32387D01*
X31600Y351863D02*
Y353438D01*
X31213Y375150D02*
X32787D01*
X32000Y374363D02*
Y375938D01*
X23513Y370050D02*
X25087D01*
X24300Y369263D02*
Y370838D01*
X87247Y384684D02*
X88821D01*
X88034Y383897D02*
Y385472D01*
X10352Y384511D02*
X11927D01*
X11140Y383723D02*
Y385298D01*
X38913Y335050D02*
X40487D01*
X39700Y334263D02*
Y335838D01*
X43413Y350750D02*
X44987D01*
X44200Y349963D02*
Y351538D01*
X59613Y372950D02*
X61187D01*
X60400Y372163D02*
Y373738D01*
X52813Y366050D02*
X54387D01*
X53600Y365263D02*
Y366838D01*
X43613Y366650D02*
X45187D01*
X44400Y365863D02*
Y367438D01*
X35063Y277738D02*
X36638D01*
X35850Y276951D02*
Y278526D01*
X57410Y221550D02*
X58985D01*
X58198Y220763D02*
Y222338D01*
X58413Y230550D02*
X59987D01*
X59200Y229763D02*
Y231338D01*
X65413Y278450D02*
X66987D01*
X66200Y277663D02*
Y279238D01*
X88713Y278050D02*
X90287D01*
X89500Y277263D02*
Y278838D01*
X77513Y278050D02*
X79087D01*
X78300Y277263D02*
Y278838D01*
X77513Y289150D02*
X79087D01*
X78300Y288363D02*
Y289938D01*
X67510Y289350D02*
X69085D01*
X68298Y288563D02*
Y290138D01*
X67129Y267050D02*
X68704D01*
X67917Y266263D02*
Y267838D01*
X66213Y238850D02*
X67787D01*
X67000Y238063D02*
Y239638D01*
X48313Y232450D02*
X49887D01*
X49100Y231663D02*
Y233238D01*
X11713Y256231D02*
X13287D01*
X12500Y255444D02*
Y257019D01*
X34213Y366050D02*
X35787D01*
X35000Y365263D02*
Y366838D01*
X73613Y367350D02*
X75187D01*
X74400Y366563D02*
Y368138D01*
X60434Y357450D02*
X62009D01*
X61222Y356663D02*
Y358238D01*
X52213Y353503D02*
X53787D01*
X53000Y352716D02*
Y354291D01*
X55413Y326845D02*
X56987D01*
X56200Y326057D02*
Y327632D01*
X68413Y337750D02*
X69987D01*
X69200Y336963D02*
Y338538D01*
X65913Y325650D02*
X67487D01*
X66700Y324863D02*
Y326438D01*
X73813Y330250D02*
X75387D01*
X74600Y329463D02*
Y331038D01*
X9879Y246084D02*
X11453D01*
X10666Y245297D02*
Y246872D01*
X87946Y226217D02*
X89521D01*
X88734Y225429D02*
Y227004D01*
X87946Y246116D02*
X89521D01*
X88734Y245329D02*
Y246904D01*
X9813Y225750D02*
X11387D01*
X10600Y224963D02*
Y226538D01*
X36213Y244550D02*
X37787D01*
X37000Y243763D02*
Y245338D01*
X43701Y281250D02*
X45276D01*
X44488Y280463D02*
Y282038D01*
X53813Y279450D02*
X55387D01*
X54600Y278663D02*
Y280238D01*
X29613Y360236D02*
X31187D01*
X30400Y359449D02*
Y361024D01*
X48425Y327263D02*
X50000D01*
X49213Y326476D02*
Y328050D01*
X67323Y374940D02*
X68898D01*
X68110Y374153D02*
Y375728D01*
X180538Y323780D02*
X184738D01*
X182638Y321679D02*
Y325880D01*
X180538Y303780D02*
X184738D01*
X182638Y301679D02*
Y305879D01*
X180538Y263779D02*
X184738D01*
X182638Y261680D02*
Y265880D01*
X180538Y273780D02*
X184738D01*
X182638Y271679D02*
Y275880D01*
X180538Y283780D02*
X184738D01*
X182638Y281680D02*
Y285879D01*
X180538Y293779D02*
X184738D01*
X182638Y291680D02*
Y295880D01*
X180538Y313779D02*
X184738D01*
X182638Y311680D02*
Y315880D01*
X180538Y333780D02*
X184738D01*
X182638Y331680D02*
Y335879D01*
X110838Y363407D02*
X114438D01*
X112638Y361607D02*
Y365207D01*
X110838Y353307D02*
X114438D01*
X112638Y351507D02*
Y355107D01*
X180838Y363407D02*
X184438D01*
X182638Y361607D02*
Y365207D01*
X180838Y353307D02*
X184438D01*
X182638Y351507D02*
Y355107D01*
X110538Y273307D02*
X114738D01*
X112638Y271207D02*
Y275407D01*
X110538Y293307D02*
X114738D01*
X112638Y291207D02*
Y295407D01*
X110538Y333307D02*
X114738D01*
X112638Y331207D02*
Y335407D01*
X110538Y323307D02*
X114738D01*
X112638Y321207D02*
Y325407D01*
X110538Y313307D02*
X114738D01*
X112638Y311207D02*
Y315407D01*
X110538Y303307D02*
X114738D01*
X112638Y301207D02*
Y305407D01*
X110538Y283307D02*
X114738D01*
X112638Y281207D02*
Y285407D01*
X110538Y263307D02*
X114738D01*
X112638Y261207D02*
Y265407D01*
X136331Y256299D02*
X139732D01*
X138031Y254599D02*
Y257999D01*
X155544Y256299D02*
X158944D01*
X157244Y254599D02*
Y257999D01*
X130838Y216142D02*
X134438D01*
X132638Y214342D02*
Y217942D01*
X140938Y216142D02*
X144538D01*
X142738Y214342D02*
Y217942D01*
X150738Y216142D02*
X154338D01*
X152538Y214342D02*
Y217942D01*
X160838Y216142D02*
X164438D01*
X162638Y214342D02*
Y217942D01*
X154429Y376181D02*
X157185D01*
X155807Y374803D02*
Y377559D01*
X138091Y376181D02*
X140847D01*
X139469Y374803D02*
Y377559D01*
X127038Y271265D02*
X128613D01*
X127825Y270477D02*
Y272052D01*
X143338Y222350D02*
X144913D01*
X144125Y221563D02*
Y223138D01*
X182338Y255750D02*
X183913D01*
X183125Y254963D02*
Y256538D01*
X117046Y236050D02*
X118621D01*
X117834Y235263D02*
Y236838D01*
X186638Y328750D02*
X188213D01*
X187425Y327963D02*
Y329538D01*
X187038Y318850D02*
X188613D01*
X187825Y318063D02*
Y319638D01*
X187298Y308650D02*
X188873D01*
X188086Y307863D02*
Y309438D01*
X187298Y288750D02*
X188873D01*
X188086Y287963D02*
Y289538D01*
X192638Y347650D02*
X194213D01*
X193425Y346863D02*
Y348438D01*
X171138Y244750D02*
X172713D01*
X171925Y243963D02*
Y245538D01*
X163893Y315350D02*
X165468D01*
X164680Y314563D02*
Y316138D01*
X158838Y244650D02*
X160413D01*
X159625Y243863D02*
Y245438D01*
X146666Y240250D02*
X148240D01*
X147453Y239463D02*
Y241038D01*
X133338Y267450D02*
X134913D01*
X134125Y266663D02*
Y268238D01*
X154138Y267450D02*
X155713D01*
X154925Y266663D02*
Y268238D01*
X145605Y267450D02*
X147179D01*
X146392Y266663D02*
Y268238D01*
X181850Y342850D02*
X183425D01*
X182638Y342063D02*
Y343638D01*
X111538Y343450D02*
X113113D01*
X112325Y342663D02*
Y344238D01*
X129238Y352650D02*
X130813D01*
X130025Y351863D02*
Y353438D01*
X129638Y375150D02*
X131213D01*
X130425Y374363D02*
Y375938D01*
X121938Y370050D02*
X123513D01*
X122725Y369263D02*
Y370838D01*
X185672Y384684D02*
X187247D01*
X186459Y383897D02*
Y385472D01*
X108778Y384511D02*
X110352D01*
X109565Y383723D02*
Y385298D01*
X137338Y335050D02*
X138913D01*
X138125Y334263D02*
Y335838D01*
X141838Y350750D02*
X143413D01*
X142625Y349963D02*
Y351538D01*
X158038Y372950D02*
X159613D01*
X158825Y372163D02*
Y373738D01*
X151238Y366050D02*
X152813D01*
X152025Y365263D02*
Y366838D01*
X142038Y366650D02*
X143613D01*
X142825Y365863D02*
Y367438D01*
X133488Y277738D02*
X135063D01*
X134275Y276951D02*
Y278526D01*
X155835Y221550D02*
X157410D01*
X156623Y220763D02*
Y222338D01*
X156838Y230550D02*
X158413D01*
X157625Y229763D02*
Y231338D01*
X163838Y278450D02*
X165413D01*
X164625Y277663D02*
Y279238D01*
X187138Y278050D02*
X188713D01*
X187925Y277263D02*
Y278838D01*
X175938Y278050D02*
X177513D01*
X176725Y277263D02*
Y278838D01*
X175938Y289150D02*
X177513D01*
X176725Y288363D02*
Y289938D01*
X165935Y289350D02*
X167510D01*
X166723Y288563D02*
Y290138D01*
X165554Y267050D02*
X167129D01*
X166342Y266263D02*
Y267838D01*
X164638Y238850D02*
X166213D01*
X165425Y238063D02*
Y239638D01*
X146738Y232450D02*
X148313D01*
X147525Y231663D02*
Y233238D01*
X110138Y256231D02*
X111713D01*
X110925Y255444D02*
Y257019D01*
X132638Y366050D02*
X134213D01*
X133425Y365263D02*
Y366838D01*
X172038Y367350D02*
X173613D01*
X172825Y366563D02*
Y368138D01*
X158859Y357450D02*
X160434D01*
X159647Y356663D02*
Y358238D01*
X150638Y353503D02*
X152213D01*
X151425Y352716D02*
Y354291D01*
X153838Y326845D02*
X155413D01*
X154625Y326057D02*
Y327632D01*
X166838Y337750D02*
X168413D01*
X167625Y336963D02*
Y338538D01*
X164338Y325650D02*
X165913D01*
X165125Y324863D02*
Y326438D01*
X172238Y330250D02*
X173813D01*
X173025Y329463D02*
Y331038D01*
X108304Y246084D02*
X109879D01*
X109091Y245297D02*
Y246872D01*
X186372Y226217D02*
X187946D01*
X187159Y225429D02*
Y227004D01*
X186372Y246116D02*
X187946D01*
X187159Y245329D02*
Y246904D01*
X108238Y225750D02*
X109813D01*
X109025Y224963D02*
Y226538D01*
X134638Y244550D02*
X136213D01*
X135425Y243763D02*
Y245338D01*
X142126Y281250D02*
X143701D01*
X142913Y280463D02*
Y282038D01*
X152238Y279450D02*
X153813D01*
X153025Y278663D02*
Y280238D01*
X128038Y360236D02*
X129613D01*
X128825Y359449D02*
Y361024D01*
X146850Y327263D02*
X148425D01*
X147638Y326476D02*
Y328050D01*
X165748Y374940D02*
X167323D01*
X166535Y374153D02*
Y375728D01*
X278963Y323780D02*
X283163D01*
X281063Y321679D02*
Y325880D01*
X278963Y303780D02*
X283163D01*
X281063Y301679D02*
Y305879D01*
X278963Y263779D02*
X283163D01*
X281063Y261680D02*
Y265880D01*
X278963Y273780D02*
X283163D01*
X281063Y271679D02*
Y275880D01*
X278963Y283780D02*
X283163D01*
X281063Y281680D02*
Y285879D01*
X278963Y293779D02*
X283163D01*
X281063Y291680D02*
Y295880D01*
X278963Y313779D02*
X283163D01*
X281063Y311680D02*
Y315880D01*
X278963Y333780D02*
X283163D01*
X281063Y331680D02*
Y335879D01*
X209263Y363407D02*
X212863D01*
X211063Y361607D02*
Y365207D01*
X209263Y353307D02*
X212863D01*
X211063Y351507D02*
Y355107D01*
X279263Y363407D02*
X282863D01*
X281063Y361607D02*
Y365207D01*
X279263Y353307D02*
X282863D01*
X281063Y351507D02*
Y355107D01*
X208963Y273307D02*
X213163D01*
X211063Y271207D02*
Y275407D01*
X208963Y293307D02*
X213163D01*
X211063Y291207D02*
Y295407D01*
X208963Y333307D02*
X213163D01*
X211063Y331207D02*
Y335407D01*
X208963Y323307D02*
X213163D01*
X211063Y321207D02*
Y325407D01*
X208963Y313307D02*
X213163D01*
X211063Y311207D02*
Y315407D01*
X208963Y303307D02*
X213163D01*
X211063Y301207D02*
Y305407D01*
X208963Y283307D02*
X213163D01*
X211063Y281207D02*
Y285407D01*
X208963Y263307D02*
X213163D01*
X211063Y261207D02*
Y265407D01*
X234757Y256299D02*
X238157D01*
X236457Y254599D02*
Y257999D01*
X253969Y256299D02*
X257369D01*
X255669Y254599D02*
Y257999D01*
X229263Y216142D02*
X232863D01*
X231063Y214342D02*
Y217942D01*
X239363Y216142D02*
X242963D01*
X241163Y214342D02*
Y217942D01*
X249163Y216142D02*
X252763D01*
X250963Y214342D02*
Y217942D01*
X259263Y216142D02*
X262863D01*
X261063Y214342D02*
Y217942D01*
X252854Y376181D02*
X255610D01*
X254232Y374803D02*
Y377559D01*
X236516Y376181D02*
X239272D01*
X237894Y374803D02*
Y377559D01*
X225463Y271265D02*
X227038D01*
X226250Y270477D02*
Y272052D01*
X241763Y222350D02*
X243338D01*
X242550Y221563D02*
Y223138D01*
X280763Y255750D02*
X282338D01*
X281550Y254963D02*
Y256538D01*
X215471Y236050D02*
X217046D01*
X216259Y235263D02*
Y236838D01*
X285063Y328750D02*
X286638D01*
X285850Y327963D02*
Y329538D01*
X285463Y318850D02*
X287038D01*
X286250Y318063D02*
Y319638D01*
X285723Y308650D02*
X287298D01*
X286511Y307863D02*
Y309438D01*
X285723Y288750D02*
X287298D01*
X286511Y287963D02*
Y289538D01*
X291063Y347650D02*
X292638D01*
X291850Y346863D02*
Y348438D01*
X269563Y244750D02*
X271138D01*
X270350Y243963D02*
Y245538D01*
X262318Y315350D02*
X263893D01*
X263106Y314563D02*
Y316138D01*
X257263Y244650D02*
X258838D01*
X258050Y243863D02*
Y245438D01*
X245091Y240250D02*
X246666D01*
X245878Y239463D02*
Y241038D01*
X231763Y267450D02*
X233338D01*
X232550Y266663D02*
Y268238D01*
X252563Y267450D02*
X254138D01*
X253350Y266663D02*
Y268238D01*
X244030Y267450D02*
X245604D01*
X244817Y266663D02*
Y268238D01*
X280276Y342850D02*
X281850D01*
X281063Y342063D02*
Y343638D01*
X209963Y343450D02*
X211538D01*
X210750Y342663D02*
Y344238D01*
X227663Y352650D02*
X229238D01*
X228450Y351863D02*
Y353438D01*
X228063Y375150D02*
X229638D01*
X228850Y374363D02*
Y375938D01*
X220363Y370050D02*
X221938D01*
X221150Y369263D02*
Y370838D01*
X284097Y384684D02*
X285672D01*
X284884Y383897D02*
Y385472D01*
X207203Y384511D02*
X208778D01*
X207990Y383723D02*
Y385298D01*
X235763Y335050D02*
X237338D01*
X236550Y334263D02*
Y335838D01*
X240263Y350750D02*
X241838D01*
X241050Y349963D02*
Y351538D01*
X256463Y372950D02*
X258038D01*
X257250Y372163D02*
Y373738D01*
X249663Y366050D02*
X251238D01*
X250450Y365263D02*
Y366838D01*
X240463Y366650D02*
X242038D01*
X241250Y365863D02*
Y367438D01*
X231913Y277738D02*
X233488D01*
X232701Y276951D02*
Y278526D01*
X254261Y221550D02*
X255835D01*
X255048Y220763D02*
Y222338D01*
X255263Y230550D02*
X256838D01*
X256050Y229763D02*
Y231338D01*
X262263Y278450D02*
X263838D01*
X263050Y277663D02*
Y279238D01*
X285563Y278050D02*
X287138D01*
X286350Y277263D02*
Y278838D01*
X274363Y278050D02*
X275938D01*
X275150Y277263D02*
Y278838D01*
X274363Y289150D02*
X275938D01*
X275150Y288363D02*
Y289938D01*
X264361Y289350D02*
X265935D01*
X265148Y288563D02*
Y290138D01*
X263980Y267050D02*
X265554D01*
X264767Y266263D02*
Y267838D01*
X263063Y238850D02*
X264638D01*
X263850Y238063D02*
Y239638D01*
X245163Y232450D02*
X246738D01*
X245950Y231663D02*
Y233238D01*
X208563Y256231D02*
X210138D01*
X209350Y255444D02*
Y257019D01*
X231063Y366050D02*
X232638D01*
X231850Y365263D02*
Y366838D01*
X270463Y367350D02*
X272038D01*
X271250Y366563D02*
Y368138D01*
X257285Y357450D02*
X258859D01*
X258072Y356663D02*
Y358238D01*
X249063Y353503D02*
X250638D01*
X249850Y352716D02*
Y354291D01*
X252263Y326845D02*
X253838D01*
X253050Y326057D02*
Y327632D01*
X265263Y337750D02*
X266838D01*
X266050Y336963D02*
Y338538D01*
X262763Y325650D02*
X264338D01*
X263550Y324863D02*
Y326438D01*
X270663Y330250D02*
X272238D01*
X271450Y329463D02*
Y331038D01*
X206729Y246084D02*
X208304D01*
X207517Y245297D02*
Y246872D01*
X284797Y226217D02*
X286372D01*
X285584Y225429D02*
Y227004D01*
X284797Y246116D02*
X286372D01*
X285584Y245329D02*
Y246904D01*
X206663Y225750D02*
X208238D01*
X207450Y224963D02*
Y226538D01*
X233063Y244550D02*
X234638D01*
X233850Y243763D02*
Y245338D01*
X240551Y281250D02*
X242126D01*
X241339Y280463D02*
Y282038D01*
X250663Y279450D02*
X252238D01*
X251450Y278663D02*
Y280238D01*
X226463Y360236D02*
X228038D01*
X227250Y359449D02*
Y361024D01*
X245276Y327263D02*
X246850D01*
X246063Y326476D02*
Y328050D01*
X264173Y374940D02*
X265748D01*
X264961Y374153D02*
Y375728D01*
X377388Y323780D02*
X381588D01*
X379488Y321679D02*
Y325880D01*
X377388Y303780D02*
X381588D01*
X379488Y301679D02*
Y305879D01*
X377388Y263779D02*
X381588D01*
X379488Y261680D02*
Y265880D01*
X377388Y273780D02*
X381588D01*
X379488Y271679D02*
Y275880D01*
X377388Y283780D02*
X381588D01*
X379488Y281680D02*
Y285879D01*
X377388Y293779D02*
X381588D01*
X379488Y291680D02*
Y295880D01*
X377388Y313779D02*
X381588D01*
X379488Y311680D02*
Y315880D01*
X377388Y333780D02*
X381588D01*
X379488Y331680D02*
Y335879D01*
X307688Y363407D02*
X311288D01*
X309488Y361607D02*
Y365207D01*
X307688Y353307D02*
X311288D01*
X309488Y351507D02*
Y355107D01*
X377688Y363407D02*
X381288D01*
X379488Y361607D02*
Y365207D01*
X377688Y353307D02*
X381288D01*
X379488Y351507D02*
Y355107D01*
X307388Y273307D02*
X311588D01*
X309488Y271207D02*
Y275407D01*
X307388Y293307D02*
X311588D01*
X309488Y291207D02*
Y295407D01*
X307388Y333307D02*
X311588D01*
X309488Y331207D02*
Y335407D01*
X307388Y323307D02*
X311588D01*
X309488Y321207D02*
Y325407D01*
X307388Y313307D02*
X311588D01*
X309488Y311207D02*
Y315407D01*
X307388Y303307D02*
X311588D01*
X309488Y301207D02*
Y305407D01*
X307388Y283307D02*
X311588D01*
X309488Y281207D02*
Y285407D01*
X307388Y263307D02*
X311588D01*
X309488Y261207D02*
Y265407D01*
X333182Y256299D02*
X336582D01*
X334882Y254599D02*
Y257999D01*
X352395Y256299D02*
X355795D01*
X354095Y254599D02*
Y257999D01*
X327688Y216142D02*
X331288D01*
X329488Y214342D02*
Y217942D01*
X337788Y216142D02*
X341388D01*
X339588Y214342D02*
Y217942D01*
X347588Y216142D02*
X351188D01*
X349388Y214342D02*
Y217942D01*
X357688Y216142D02*
X361288D01*
X359488Y214342D02*
Y217942D01*
X351279Y376181D02*
X354035D01*
X352658Y374803D02*
Y377559D01*
X334941Y376181D02*
X337697D01*
X336319Y374803D02*
Y377559D01*
X323888Y271265D02*
X325463D01*
X324676Y270477D02*
Y272052D01*
X340188Y222350D02*
X341763D01*
X340976Y221563D02*
Y223138D01*
X379188Y255750D02*
X380763D01*
X379976Y254963D02*
Y256538D01*
X313897Y236050D02*
X315471D01*
X314684Y235263D02*
Y236838D01*
X383488Y328750D02*
X385063D01*
X384276Y327963D02*
Y329538D01*
X383888Y318850D02*
X385463D01*
X384676Y318063D02*
Y319638D01*
X384149Y308650D02*
X385723D01*
X384936Y307863D02*
Y309438D01*
X384149Y288750D02*
X385723D01*
X384936Y287963D02*
Y289538D01*
X389488Y347650D02*
X391063D01*
X390276Y346863D02*
Y348438D01*
X367988Y244750D02*
X369563D01*
X368776Y243963D02*
Y245538D01*
X360743Y315350D02*
X362318D01*
X361531Y314563D02*
Y316138D01*
X355688Y244650D02*
X357263D01*
X356476Y243863D02*
Y245438D01*
X343516Y240250D02*
X345091D01*
X344303Y239463D02*
Y241038D01*
X330188Y267450D02*
X331763D01*
X330976Y266663D02*
Y268238D01*
X350988Y267450D02*
X352563D01*
X351776Y266663D02*
Y268238D01*
X342455Y267450D02*
X344030D01*
X343242Y266663D02*
Y268238D01*
X378701Y342850D02*
X380276D01*
X379488Y342063D02*
Y343638D01*
X308388Y343450D02*
X309963D01*
X309176Y342663D02*
Y344238D01*
X326088Y352650D02*
X327663D01*
X326876Y351863D02*
Y353438D01*
X326488Y375150D02*
X328063D01*
X327276Y374363D02*
Y375938D01*
X318788Y370050D02*
X320363D01*
X319576Y369263D02*
Y370838D01*
X382522Y384684D02*
X384097D01*
X383310Y383897D02*
Y385472D01*
X305628Y384511D02*
X307203D01*
X306415Y383723D02*
Y385298D01*
X334188Y335050D02*
X335763D01*
X334976Y334263D02*
Y335838D01*
X338688Y350750D02*
X340263D01*
X339476Y349963D02*
Y351538D01*
X354888Y372950D02*
X356463D01*
X355676Y372163D02*
Y373738D01*
X348088Y366050D02*
X349663D01*
X348876Y365263D02*
Y366838D01*
X338888Y366650D02*
X340463D01*
X339676Y365863D02*
Y367438D01*
X330339Y277738D02*
X331913D01*
X331126Y276951D02*
Y278526D01*
X352686Y221550D02*
X354261D01*
X353473Y220763D02*
Y222338D01*
X353688Y230550D02*
X355263D01*
X354476Y229763D02*
Y231338D01*
X360688Y278450D02*
X362263D01*
X361476Y277663D02*
Y279238D01*
X383988Y278050D02*
X385563D01*
X384776Y277263D02*
Y278838D01*
X372788Y278050D02*
X374363D01*
X373576Y277263D02*
Y278838D01*
X372788Y289150D02*
X374363D01*
X373576Y288363D02*
Y289938D01*
X362786Y289350D02*
X364361D01*
X363573Y288563D02*
Y290138D01*
X362405Y267050D02*
X363980D01*
X363192Y266263D02*
Y267838D01*
X361488Y238850D02*
X363063D01*
X362276Y238063D02*
Y239638D01*
X343588Y232450D02*
X345163D01*
X344376Y231663D02*
Y233238D01*
X306988Y256231D02*
X308563D01*
X307776Y255444D02*
Y257019D01*
X329488Y366050D02*
X331063D01*
X330276Y365263D02*
Y366838D01*
X368888Y367350D02*
X370463D01*
X369676Y366563D02*
Y368138D01*
X355710Y357450D02*
X357285D01*
X356497Y356663D02*
Y358238D01*
X347488Y353503D02*
X349063D01*
X348276Y352716D02*
Y354291D01*
X350688Y326845D02*
X352263D01*
X351476Y326057D02*
Y327632D01*
X363688Y337750D02*
X365263D01*
X364476Y336963D02*
Y338538D01*
X361188Y325650D02*
X362763D01*
X361976Y324863D02*
Y326438D01*
X369088Y330250D02*
X370663D01*
X369876Y329463D02*
Y331038D01*
X305154Y246084D02*
X306729D01*
X305942Y245297D02*
Y246872D01*
X383222Y226217D02*
X384797D01*
X384010Y225429D02*
Y227004D01*
X383222Y246116D02*
X384797D01*
X384010Y245329D02*
Y246904D01*
X305088Y225750D02*
X306663D01*
X305876Y224963D02*
Y226538D01*
X331488Y244550D02*
X333063D01*
X332276Y243763D02*
Y245338D01*
X338976Y281250D02*
X340551D01*
X339764Y280463D02*
Y282038D01*
X349088Y279450D02*
X350663D01*
X349876Y278663D02*
Y280238D01*
X324888Y360236D02*
X326463D01*
X325676Y359449D02*
Y361024D01*
X343701Y327263D02*
X345276D01*
X344488Y326476D02*
Y328050D01*
X362598Y374940D02*
X364173D01*
X363386Y374153D02*
Y375728D01*
M02*
