G04*
G04 #@! TF.GenerationSoftware,Altium Limited,Altium Designer,18.1.6 (161)*
G04*
G04 Layer_Color=8388736*
%FSLAX25Y25*%
%MOIN*%
G70*
G01*
G75*
%ADD12R,0.05800X0.01400*%
%ADD39R,0.06300X0.05800*%
%ADD40R,0.05800X0.06300*%
%ADD41R,0.05131X0.05524*%
%ADD42R,0.08674X0.06706*%
%ADD43R,0.08280X0.08280*%
%ADD44R,0.07887X0.08280*%
%ADD45R,0.02375X0.06115*%
%ADD46O,0.09800X0.07300*%
%ADD47R,0.09800X0.07300*%
%ADD48O,0.08300X0.07300*%
%ADD49R,0.08300X0.07300*%
%ADD50C,0.07800*%
%ADD51O,0.07300X0.08300*%
%ADD52C,0.03556*%
D12*
X60569Y84547D02*
D03*
Y87106D02*
D03*
Y89665D02*
D03*
Y92224D02*
D03*
Y94784D02*
D03*
Y97342D02*
D03*
Y99902D02*
D03*
Y102461D02*
D03*
Y105020D02*
D03*
Y107579D02*
D03*
X37569Y107579D02*
D03*
Y105020D02*
D03*
Y102461D02*
D03*
Y99902D02*
D03*
Y97342D02*
D03*
Y94784D02*
D03*
Y92224D02*
D03*
Y89665D02*
D03*
Y87106D02*
D03*
Y84547D02*
D03*
X158994Y84547D02*
D03*
Y87106D02*
D03*
Y89665D02*
D03*
Y92224D02*
D03*
Y94784D02*
D03*
Y97342D02*
D03*
Y99902D02*
D03*
Y102461D02*
D03*
Y105020D02*
D03*
Y107579D02*
D03*
X135994Y107579D02*
D03*
Y105020D02*
D03*
Y102461D02*
D03*
Y99902D02*
D03*
Y97342D02*
D03*
Y94784D02*
D03*
Y92224D02*
D03*
Y89665D02*
D03*
Y87106D02*
D03*
Y84547D02*
D03*
X257419Y84547D02*
D03*
Y87106D02*
D03*
Y89665D02*
D03*
Y92224D02*
D03*
Y94784D02*
D03*
Y97342D02*
D03*
Y99902D02*
D03*
Y102461D02*
D03*
Y105020D02*
D03*
Y107579D02*
D03*
X234419Y107579D02*
D03*
Y105020D02*
D03*
Y102461D02*
D03*
Y99902D02*
D03*
Y97342D02*
D03*
Y94784D02*
D03*
Y92224D02*
D03*
Y89665D02*
D03*
Y87106D02*
D03*
Y84547D02*
D03*
X355844Y84547D02*
D03*
Y87106D02*
D03*
Y89665D02*
D03*
Y92224D02*
D03*
Y94784D02*
D03*
Y97342D02*
D03*
Y99902D02*
D03*
Y102461D02*
D03*
Y105020D02*
D03*
Y107579D02*
D03*
X332844Y107579D02*
D03*
Y105020D02*
D03*
Y102461D02*
D03*
Y99902D02*
D03*
Y97342D02*
D03*
Y94784D02*
D03*
Y92224D02*
D03*
Y89665D02*
D03*
Y87106D02*
D03*
Y84547D02*
D03*
X60569Y281398D02*
D03*
Y283957D02*
D03*
Y286516D02*
D03*
Y289075D02*
D03*
Y291634D02*
D03*
Y294193D02*
D03*
Y296752D02*
D03*
Y299311D02*
D03*
Y301870D02*
D03*
Y304429D02*
D03*
X37569Y304429D02*
D03*
Y301870D02*
D03*
Y299311D02*
D03*
Y296752D02*
D03*
Y294193D02*
D03*
Y291634D02*
D03*
Y289075D02*
D03*
Y286516D02*
D03*
Y283957D02*
D03*
Y281398D02*
D03*
X158994Y281398D02*
D03*
Y283957D02*
D03*
Y286516D02*
D03*
Y289075D02*
D03*
Y291634D02*
D03*
Y294193D02*
D03*
Y296752D02*
D03*
Y299311D02*
D03*
Y301870D02*
D03*
Y304429D02*
D03*
X135994Y304429D02*
D03*
Y301870D02*
D03*
Y299311D02*
D03*
Y296752D02*
D03*
Y294193D02*
D03*
Y291634D02*
D03*
Y289075D02*
D03*
Y286516D02*
D03*
Y283957D02*
D03*
Y281398D02*
D03*
X257419Y281398D02*
D03*
Y283957D02*
D03*
Y286516D02*
D03*
Y289075D02*
D03*
Y291634D02*
D03*
Y294193D02*
D03*
Y296752D02*
D03*
Y299311D02*
D03*
Y301870D02*
D03*
Y304429D02*
D03*
X234419Y304429D02*
D03*
Y301870D02*
D03*
Y299311D02*
D03*
Y296752D02*
D03*
Y294193D02*
D03*
Y291634D02*
D03*
Y289075D02*
D03*
Y286516D02*
D03*
Y283957D02*
D03*
Y281398D02*
D03*
X355844Y281398D02*
D03*
Y283957D02*
D03*
Y286516D02*
D03*
Y289075D02*
D03*
Y291634D02*
D03*
Y294193D02*
D03*
Y296752D02*
D03*
Y299311D02*
D03*
Y301870D02*
D03*
Y304429D02*
D03*
X332844Y304429D02*
D03*
Y301870D02*
D03*
Y299311D02*
D03*
Y296752D02*
D03*
Y294193D02*
D03*
Y291634D02*
D03*
Y289075D02*
D03*
Y286516D02*
D03*
Y283957D02*
D03*
Y281398D02*
D03*
D39*
X24900Y156400D02*
D03*
Y165400D02*
D03*
X73300Y156400D02*
D03*
Y165400D02*
D03*
X123325Y156400D02*
D03*
Y165400D02*
D03*
X171725Y156400D02*
D03*
Y165400D02*
D03*
X221750Y156400D02*
D03*
Y165400D02*
D03*
X270150Y156400D02*
D03*
Y165400D02*
D03*
X320176Y156400D02*
D03*
Y165400D02*
D03*
X368576Y156400D02*
D03*
Y165400D02*
D03*
X24900Y353250D02*
D03*
Y362250D02*
D03*
X73300Y353250D02*
D03*
Y362250D02*
D03*
X123325Y353250D02*
D03*
Y362250D02*
D03*
X171725Y353250D02*
D03*
Y362250D02*
D03*
X221750Y353250D02*
D03*
Y362250D02*
D03*
X270150Y353250D02*
D03*
Y362250D02*
D03*
X320176Y353250D02*
D03*
Y362250D02*
D03*
X368576Y353250D02*
D03*
Y362250D02*
D03*
D40*
X44400Y140300D02*
D03*
X53400D02*
D03*
X62500Y122861D02*
D03*
X53500D02*
D03*
X62500Y114200D02*
D03*
X53500D02*
D03*
X35783Y122861D02*
D03*
X44783D02*
D03*
X35783Y114200D02*
D03*
X44783D02*
D03*
X62800Y75700D02*
D03*
X53800D02*
D03*
X35600D02*
D03*
X44600D02*
D03*
X53269Y163386D02*
D03*
X44269D02*
D03*
X142825Y140300D02*
D03*
X151825D02*
D03*
X160925Y122861D02*
D03*
X151925D02*
D03*
X160925Y114200D02*
D03*
X151925D02*
D03*
X134209Y122861D02*
D03*
X143209D02*
D03*
X134209Y114200D02*
D03*
X143209D02*
D03*
X161225Y75700D02*
D03*
X152225D02*
D03*
X134025D02*
D03*
X143025D02*
D03*
X151694Y163386D02*
D03*
X142694D02*
D03*
X241250Y140300D02*
D03*
X250250D02*
D03*
X259350Y122861D02*
D03*
X250350D02*
D03*
X259350Y114200D02*
D03*
X250350D02*
D03*
X232634Y122861D02*
D03*
X241634D02*
D03*
X232634Y114200D02*
D03*
X241634D02*
D03*
X259650Y75700D02*
D03*
X250650D02*
D03*
X232450D02*
D03*
X241450D02*
D03*
X250119Y163386D02*
D03*
X241119D02*
D03*
X339676Y140300D02*
D03*
X348676D02*
D03*
X357776Y122861D02*
D03*
X348776D02*
D03*
X357776Y114200D02*
D03*
X348776D02*
D03*
X331059Y122861D02*
D03*
X340059D02*
D03*
X331059Y114200D02*
D03*
X340059D02*
D03*
X358076Y75700D02*
D03*
X349076D02*
D03*
X330876D02*
D03*
X339876D02*
D03*
X348545Y163386D02*
D03*
X339545D02*
D03*
X44400Y337150D02*
D03*
X53400D02*
D03*
X62500Y319712D02*
D03*
X53500D02*
D03*
X62500Y311050D02*
D03*
X53500D02*
D03*
X35783Y319712D02*
D03*
X44783D02*
D03*
X35783Y311050D02*
D03*
X44783D02*
D03*
X62800Y272550D02*
D03*
X53800D02*
D03*
X35600D02*
D03*
X44600D02*
D03*
X53269Y360236D02*
D03*
X44269D02*
D03*
X142825Y337150D02*
D03*
X151825D02*
D03*
X160925Y319712D02*
D03*
X151925D02*
D03*
X160925Y311050D02*
D03*
X151925D02*
D03*
X134209Y319712D02*
D03*
X143209D02*
D03*
X134209Y311050D02*
D03*
X143209D02*
D03*
X161225Y272550D02*
D03*
X152225D02*
D03*
X134025D02*
D03*
X143025D02*
D03*
X151694Y360236D02*
D03*
X142694D02*
D03*
X241250Y337150D02*
D03*
X250250D02*
D03*
X259350Y319712D02*
D03*
X250350D02*
D03*
X259350Y311050D02*
D03*
X250350D02*
D03*
X232634Y319712D02*
D03*
X241634D02*
D03*
X232634Y311050D02*
D03*
X241634D02*
D03*
X259650Y272550D02*
D03*
X250650D02*
D03*
X232450D02*
D03*
X241450D02*
D03*
X250119Y360236D02*
D03*
X241119D02*
D03*
X339676Y337150D02*
D03*
X348676D02*
D03*
X357776Y319712D02*
D03*
X348776D02*
D03*
X357776Y311050D02*
D03*
X348776D02*
D03*
X331059Y319712D02*
D03*
X340059D02*
D03*
X331059Y311050D02*
D03*
X340059D02*
D03*
X358076Y272550D02*
D03*
X349076D02*
D03*
X330876D02*
D03*
X339876D02*
D03*
X348545Y360236D02*
D03*
X339545D02*
D03*
D41*
X80466Y53500D02*
D03*
X88734D02*
D03*
X80466Y33800D02*
D03*
X88734D02*
D03*
X18934Y53500D02*
D03*
X10666D02*
D03*
X18934Y33400D02*
D03*
X10666D02*
D03*
X79766Y182100D02*
D03*
X88034D02*
D03*
X19408Y182059D02*
D03*
X11140D02*
D03*
X178891Y53500D02*
D03*
X187159D02*
D03*
X178891Y33800D02*
D03*
X187159D02*
D03*
X117359Y53500D02*
D03*
X109091D02*
D03*
X117359Y33400D02*
D03*
X109091D02*
D03*
X178191Y182100D02*
D03*
X186459D02*
D03*
X117833Y182059D02*
D03*
X109565D02*
D03*
X277316Y53500D02*
D03*
X285584D02*
D03*
X277316Y33800D02*
D03*
X285584D02*
D03*
X215784Y53500D02*
D03*
X207517D02*
D03*
X215784Y33400D02*
D03*
X207517D02*
D03*
X276617Y182100D02*
D03*
X284884D02*
D03*
X216258Y182059D02*
D03*
X207990D02*
D03*
X375742Y53500D02*
D03*
X384010D02*
D03*
X375742Y33800D02*
D03*
X384010D02*
D03*
X314210Y53500D02*
D03*
X305942D02*
D03*
X314210Y33400D02*
D03*
X305942D02*
D03*
X375042Y182100D02*
D03*
X383310D02*
D03*
X314683Y182059D02*
D03*
X306415D02*
D03*
X80466Y250350D02*
D03*
X88734D02*
D03*
X80466Y230650D02*
D03*
X88734D02*
D03*
X18934Y250350D02*
D03*
X10666D02*
D03*
X18934Y230250D02*
D03*
X10666D02*
D03*
X79766Y378950D02*
D03*
X88034D02*
D03*
X19408Y378909D02*
D03*
X11140D02*
D03*
X178891Y250350D02*
D03*
X187159D02*
D03*
X178891Y230650D02*
D03*
X187159D02*
D03*
X117359Y250350D02*
D03*
X109091D02*
D03*
X117359Y230250D02*
D03*
X109091D02*
D03*
X178191Y378950D02*
D03*
X186459D02*
D03*
X117833Y378909D02*
D03*
X109565D02*
D03*
X277316Y250350D02*
D03*
X285584D02*
D03*
X277316Y230650D02*
D03*
X285584D02*
D03*
X215784Y250350D02*
D03*
X207517D02*
D03*
X215784Y230250D02*
D03*
X207517D02*
D03*
X276617Y378950D02*
D03*
X284884D02*
D03*
X216258Y378909D02*
D03*
X207990D02*
D03*
X375742Y250350D02*
D03*
X384010D02*
D03*
X375742Y230650D02*
D03*
X384010D02*
D03*
X314210Y250350D02*
D03*
X305942D02*
D03*
X314210Y230250D02*
D03*
X305942D02*
D03*
X375042Y378950D02*
D03*
X383310D02*
D03*
X314683Y378909D02*
D03*
X306415D02*
D03*
D42*
X59842Y39764D02*
D03*
X38583D02*
D03*
X38170Y151900D02*
D03*
X59430D02*
D03*
X158268Y39764D02*
D03*
X137008D02*
D03*
X136595Y151900D02*
D03*
X157855D02*
D03*
X256693Y39764D02*
D03*
X235433D02*
D03*
X235020Y151900D02*
D03*
X256280D02*
D03*
X355118Y39764D02*
D03*
X333858D02*
D03*
X333446Y151900D02*
D03*
X354706D02*
D03*
X59842Y236614D02*
D03*
X38583D02*
D03*
X38170Y348750D02*
D03*
X59430D02*
D03*
X158268Y236614D02*
D03*
X137008D02*
D03*
X136595Y348750D02*
D03*
X157855D02*
D03*
X256693Y236614D02*
D03*
X235433D02*
D03*
X235020Y348750D02*
D03*
X256280D02*
D03*
X355118Y236614D02*
D03*
X333858D02*
D03*
X333446Y348750D02*
D03*
X354706D02*
D03*
D43*
X53937Y188976D02*
D03*
X44488D02*
D03*
X152362D02*
D03*
X142913D02*
D03*
X250787D02*
D03*
X241339D02*
D03*
X349213D02*
D03*
X339764D02*
D03*
X53937Y385827D02*
D03*
X44488D02*
D03*
X152362D02*
D03*
X142913D02*
D03*
X250787D02*
D03*
X241339D02*
D03*
X349213D02*
D03*
X339764D02*
D03*
D44*
X64961Y188976D02*
D03*
X33465D02*
D03*
X163386D02*
D03*
X131890D02*
D03*
X261811D02*
D03*
X230315D02*
D03*
X360236D02*
D03*
X328740D02*
D03*
X64961Y385827D02*
D03*
X33465D02*
D03*
X163386D02*
D03*
X131890D02*
D03*
X261811D02*
D03*
X230315D02*
D03*
X360236D02*
D03*
X328740D02*
D03*
D45*
X54331Y178445D02*
D03*
X44094D02*
D03*
X51772D02*
D03*
X49213D02*
D03*
X46654D02*
D03*
X152756D02*
D03*
X142520D02*
D03*
X150197D02*
D03*
X147638D02*
D03*
X145079D02*
D03*
X251181D02*
D03*
X240945D02*
D03*
X248622D02*
D03*
X246063D02*
D03*
X243504D02*
D03*
X349606D02*
D03*
X339370D02*
D03*
X347047D02*
D03*
X344488D02*
D03*
X341929D02*
D03*
X54331Y375295D02*
D03*
X44094D02*
D03*
X51772D02*
D03*
X49213D02*
D03*
X46654D02*
D03*
X152756D02*
D03*
X142520D02*
D03*
X150197D02*
D03*
X147638D02*
D03*
X145079D02*
D03*
X251181D02*
D03*
X240945D02*
D03*
X248622D02*
D03*
X246063D02*
D03*
X243504D02*
D03*
X349606D02*
D03*
X339370D02*
D03*
X347047D02*
D03*
X344488D02*
D03*
X341929D02*
D03*
D46*
X84213Y126929D02*
D03*
Y106929D02*
D03*
Y76929D02*
D03*
Y86929D02*
D03*
Y96929D02*
D03*
Y116929D02*
D03*
Y136929D02*
D03*
X14213Y76457D02*
D03*
Y96457D02*
D03*
Y126457D02*
D03*
Y116457D02*
D03*
Y106457D02*
D03*
Y86457D02*
D03*
Y66457D02*
D03*
X182638Y126929D02*
D03*
Y106929D02*
D03*
Y76929D02*
D03*
Y86929D02*
D03*
Y96929D02*
D03*
Y116929D02*
D03*
Y136929D02*
D03*
X112638Y76457D02*
D03*
Y96457D02*
D03*
Y126457D02*
D03*
Y116457D02*
D03*
Y106457D02*
D03*
Y86457D02*
D03*
Y66457D02*
D03*
X281063Y126929D02*
D03*
Y106929D02*
D03*
Y76929D02*
D03*
Y86929D02*
D03*
Y96929D02*
D03*
Y116929D02*
D03*
Y136929D02*
D03*
X211063Y76457D02*
D03*
Y96457D02*
D03*
Y126457D02*
D03*
Y116457D02*
D03*
Y106457D02*
D03*
Y86457D02*
D03*
Y66457D02*
D03*
X379488Y126929D02*
D03*
Y106929D02*
D03*
Y76929D02*
D03*
Y86929D02*
D03*
Y96929D02*
D03*
Y116929D02*
D03*
Y136929D02*
D03*
X309488Y76457D02*
D03*
Y96457D02*
D03*
Y126457D02*
D03*
Y116457D02*
D03*
Y106457D02*
D03*
Y86457D02*
D03*
Y66457D02*
D03*
X84213Y323780D02*
D03*
Y303780D02*
D03*
Y273780D02*
D03*
Y283780D02*
D03*
Y293779D02*
D03*
Y313779D02*
D03*
Y333780D02*
D03*
X14213Y273307D02*
D03*
Y293307D02*
D03*
Y323307D02*
D03*
Y313307D02*
D03*
Y303307D02*
D03*
Y283307D02*
D03*
Y263307D02*
D03*
X182638Y323780D02*
D03*
Y303780D02*
D03*
Y273780D02*
D03*
Y283780D02*
D03*
Y293779D02*
D03*
Y313779D02*
D03*
Y333780D02*
D03*
X112638Y273307D02*
D03*
Y293307D02*
D03*
Y323307D02*
D03*
Y313307D02*
D03*
Y303307D02*
D03*
Y283307D02*
D03*
Y263307D02*
D03*
X281063Y323780D02*
D03*
Y303780D02*
D03*
Y273780D02*
D03*
Y283780D02*
D03*
Y293779D02*
D03*
Y313779D02*
D03*
Y333780D02*
D03*
X211063Y273307D02*
D03*
Y293307D02*
D03*
Y323307D02*
D03*
Y313307D02*
D03*
Y303307D02*
D03*
Y283307D02*
D03*
Y263307D02*
D03*
X379488Y323780D02*
D03*
Y303780D02*
D03*
Y273780D02*
D03*
Y283780D02*
D03*
Y293779D02*
D03*
Y313779D02*
D03*
Y333780D02*
D03*
X309488Y273307D02*
D03*
Y293307D02*
D03*
Y323307D02*
D03*
Y313307D02*
D03*
Y303307D02*
D03*
Y283307D02*
D03*
Y263307D02*
D03*
D47*
X84213Y66929D02*
D03*
X14213Y136457D02*
D03*
X182638Y66929D02*
D03*
X112638Y136457D02*
D03*
X281063Y66929D02*
D03*
X211063Y136457D02*
D03*
X379488Y66929D02*
D03*
X309488Y136457D02*
D03*
X84213Y263779D02*
D03*
X14213Y333307D02*
D03*
X182638Y263779D02*
D03*
X112638Y333307D02*
D03*
X281063Y263779D02*
D03*
X211063Y333307D02*
D03*
X379488Y263779D02*
D03*
X309488Y333307D02*
D03*
D48*
X14213Y166557D02*
D03*
X84213D02*
D03*
X112638D02*
D03*
X182638D02*
D03*
X211063D02*
D03*
X281063D02*
D03*
X309488D02*
D03*
X379488D02*
D03*
X14213Y363407D02*
D03*
X84213D02*
D03*
X112638D02*
D03*
X182638D02*
D03*
X211063D02*
D03*
X281063D02*
D03*
X309488D02*
D03*
X379488D02*
D03*
D49*
X14213Y156457D02*
D03*
X84213D02*
D03*
X112638D02*
D03*
X182638D02*
D03*
X211063D02*
D03*
X281063D02*
D03*
X309488D02*
D03*
X379488D02*
D03*
X14213Y353307D02*
D03*
X84213D02*
D03*
X112638D02*
D03*
X182638D02*
D03*
X211063D02*
D03*
X281063D02*
D03*
X309488D02*
D03*
X379488D02*
D03*
D50*
X39606Y59449D02*
D03*
X58819D02*
D03*
X138031D02*
D03*
X157244D02*
D03*
X236457D02*
D03*
X255669D02*
D03*
X334882D02*
D03*
X354095D02*
D03*
X39606Y256299D02*
D03*
X58819D02*
D03*
X138031D02*
D03*
X157244D02*
D03*
X236457D02*
D03*
X255669D02*
D03*
X334882D02*
D03*
X354095D02*
D03*
D51*
X34213Y19291D02*
D03*
X44313D02*
D03*
X54113D02*
D03*
X64213D02*
D03*
X132638D02*
D03*
X142738D02*
D03*
X152538D02*
D03*
X162638D02*
D03*
X231063D02*
D03*
X241163D02*
D03*
X250963D02*
D03*
X261063D02*
D03*
X329488D02*
D03*
X339588D02*
D03*
X349388D02*
D03*
X359488D02*
D03*
X34213Y216142D02*
D03*
X44313D02*
D03*
X54113D02*
D03*
X64213D02*
D03*
X132638D02*
D03*
X142738D02*
D03*
X152538D02*
D03*
X162638D02*
D03*
X231063D02*
D03*
X241163D02*
D03*
X250963D02*
D03*
X261063D02*
D03*
X329488D02*
D03*
X339588D02*
D03*
X349388D02*
D03*
X359488D02*
D03*
D52*
X57382Y179331D02*
D03*
X41043D02*
D03*
X155807D02*
D03*
X139469D02*
D03*
X254232D02*
D03*
X237894D02*
D03*
X352658D02*
D03*
X336319D02*
D03*
X57382Y376181D02*
D03*
X41043D02*
D03*
X155807D02*
D03*
X139469D02*
D03*
X254232D02*
D03*
X237894D02*
D03*
X352658D02*
D03*
X336319D02*
D03*
M02*
