G04*
G04 #@! TF.GenerationSoftware,Altium Limited,Altium Designer,18.1.6 (161)*
G04*
G04 Layer_Color=32768*
%FSLAX25Y25*%
%MOIN*%
G70*
G01*
G75*
%ADD32C,0.00700*%
%ADD58C,0.00394*%
D32*
X56102Y39718D02*
Y42717D01*
X54603D01*
X54103Y42217D01*
Y41717D01*
X54603Y41217D01*
X56102D01*
X54603D01*
X54103Y40717D01*
Y40217D01*
X54603Y39718D01*
X56102D01*
X53103D02*
X51104D01*
X52104D01*
Y42717D01*
X50104D02*
Y39718D01*
X48105Y42717D01*
Y39718D01*
X47105Y42717D02*
X46106D01*
X46605D01*
Y39718D01*
X47105Y40217D01*
X41910Y151946D02*
Y148947D01*
X43410D01*
X43910Y149447D01*
Y149947D01*
X43410Y150447D01*
X41910D01*
X43410D01*
X43910Y150947D01*
Y151446D01*
X43410Y151946D01*
X41910D01*
X44909D02*
X46909D01*
X45909D01*
Y148947D01*
X47908D02*
Y151946D01*
X49908Y148947D01*
Y151946D01*
X52907Y148947D02*
X50907D01*
X52907Y150947D01*
Y151446D01*
X52407Y151946D01*
X51407D01*
X50907Y151446D01*
X54103Y188930D02*
X55103D01*
X54603D01*
Y191429D01*
X55103Y191929D01*
X55603D01*
X56102Y191429D01*
X53103Y191929D02*
X52104D01*
X52604D01*
Y188930D01*
X53103Y189430D01*
X154528Y39718D02*
Y42717D01*
X153028D01*
X152528Y42217D01*
Y41717D01*
X153028Y41217D01*
X154528D01*
X153028D01*
X152528Y40717D01*
Y40217D01*
X153028Y39718D01*
X154528D01*
X151529D02*
X149529D01*
X150529D01*
Y42717D01*
X148530D02*
Y39718D01*
X146530Y42717D01*
Y39718D01*
X145530Y42717D02*
X144531D01*
X145031D01*
Y39718D01*
X145530Y40217D01*
X140335Y151946D02*
Y148947D01*
X141835D01*
X142335Y149447D01*
Y149947D01*
X141835Y150447D01*
X140335D01*
X141835D01*
X142335Y150947D01*
Y151446D01*
X141835Y151946D01*
X140335D01*
X143334D02*
X145334D01*
X144334D01*
Y148947D01*
X146334D02*
Y151946D01*
X148333Y148947D01*
Y151946D01*
X151332Y148947D02*
X149332D01*
X151332Y150947D01*
Y151446D01*
X150832Y151946D01*
X149832D01*
X149332Y151446D01*
X152528Y188930D02*
X153528D01*
X153028D01*
Y191429D01*
X153528Y191929D01*
X154028D01*
X154528Y191429D01*
X151529Y191929D02*
X150529D01*
X151029D01*
Y188930D01*
X151529Y189430D01*
X252953Y39718D02*
Y42717D01*
X251453D01*
X250953Y42217D01*
Y41717D01*
X251453Y41217D01*
X252953D01*
X251453D01*
X250953Y40717D01*
Y40217D01*
X251453Y39718D01*
X252953D01*
X249954D02*
X247954D01*
X248954D01*
Y42717D01*
X246955D02*
Y39718D01*
X244955Y42717D01*
Y39718D01*
X243956Y42717D02*
X242956D01*
X243456D01*
Y39718D01*
X243956Y40217D01*
X238761Y151946D02*
Y148947D01*
X240260D01*
X240760Y149447D01*
Y149947D01*
X240260Y150447D01*
X238761D01*
X240260D01*
X240760Y150947D01*
Y151446D01*
X240260Y151946D01*
X238761D01*
X241760D02*
X243759D01*
X242759D01*
Y148947D01*
X244759D02*
Y151946D01*
X246758Y148947D01*
Y151946D01*
X249757Y148947D02*
X247758D01*
X249757Y150947D01*
Y151446D01*
X249257Y151946D01*
X248258D01*
X247758Y151446D01*
X250953Y188930D02*
X251953D01*
X251453D01*
Y191429D01*
X251953Y191929D01*
X252453D01*
X252953Y191429D01*
X249954Y191929D02*
X248954D01*
X249454D01*
Y188930D01*
X249954Y189430D01*
X351378Y39718D02*
Y42717D01*
X349878D01*
X349379Y42217D01*
Y41717D01*
X349878Y41217D01*
X351378D01*
X349878D01*
X349379Y40717D01*
Y40217D01*
X349878Y39718D01*
X351378D01*
X348379D02*
X346380D01*
X347379D01*
Y42717D01*
X345380D02*
Y39718D01*
X343380Y42717D01*
Y39718D01*
X342381Y42717D02*
X341381D01*
X341881D01*
Y39718D01*
X342381Y40217D01*
X337186Y151946D02*
Y148947D01*
X338685D01*
X339185Y149447D01*
Y149947D01*
X338685Y150447D01*
X337186D01*
X338685D01*
X339185Y150947D01*
Y151446D01*
X338685Y151946D01*
X337186D01*
X340185D02*
X342184D01*
X341184D01*
Y148947D01*
X343184D02*
Y151946D01*
X345183Y148947D01*
Y151946D01*
X348182Y148947D02*
X346183D01*
X348182Y150947D01*
Y151446D01*
X347682Y151946D01*
X346683D01*
X346183Y151446D01*
X349379Y188930D02*
X350378D01*
X349878D01*
Y191429D01*
X350378Y191929D01*
X350878D01*
X351378Y191429D01*
X348379Y191929D02*
X347379D01*
X347879D01*
Y188930D01*
X348379Y189430D01*
X56102Y236568D02*
Y239567D01*
X54603D01*
X54103Y239067D01*
Y238567D01*
X54603Y238067D01*
X56102D01*
X54603D01*
X54103Y237568D01*
Y237068D01*
X54603Y236568D01*
X56102D01*
X53103D02*
X51104D01*
X52104D01*
Y239567D01*
X50104D02*
Y236568D01*
X48105Y239567D01*
Y236568D01*
X47105Y239567D02*
X46106D01*
X46605D01*
Y236568D01*
X47105Y237068D01*
X41910Y348797D02*
Y345798D01*
X43410D01*
X43910Y346298D01*
Y346797D01*
X43410Y347297D01*
X41910D01*
X43410D01*
X43910Y347797D01*
Y348297D01*
X43410Y348797D01*
X41910D01*
X44909D02*
X46909D01*
X45909D01*
Y345798D01*
X47908D02*
Y348797D01*
X49908Y345798D01*
Y348797D01*
X52907Y345798D02*
X50907D01*
X52907Y347797D01*
Y348297D01*
X52407Y348797D01*
X51407D01*
X50907Y348297D01*
X54103Y385781D02*
X55103D01*
X54603D01*
Y388280D01*
X55103Y388779D01*
X55603D01*
X56102Y388280D01*
X53103Y388779D02*
X52104D01*
X52604D01*
Y385781D01*
X53103Y386280D01*
X154528Y236568D02*
Y239567D01*
X153028D01*
X152528Y239067D01*
Y238567D01*
X153028Y238067D01*
X154528D01*
X153028D01*
X152528Y237568D01*
Y237068D01*
X153028Y236568D01*
X154528D01*
X151529D02*
X149529D01*
X150529D01*
Y239567D01*
X148530D02*
Y236568D01*
X146530Y239567D01*
Y236568D01*
X145530Y239567D02*
X144531D01*
X145031D01*
Y236568D01*
X145530Y237068D01*
X140335Y348797D02*
Y345798D01*
X141835D01*
X142335Y346298D01*
Y346797D01*
X141835Y347297D01*
X140335D01*
X141835D01*
X142335Y347797D01*
Y348297D01*
X141835Y348797D01*
X140335D01*
X143334D02*
X145334D01*
X144334D01*
Y345798D01*
X146334D02*
Y348797D01*
X148333Y345798D01*
Y348797D01*
X151332Y345798D02*
X149332D01*
X151332Y347797D01*
Y348297D01*
X150832Y348797D01*
X149832D01*
X149332Y348297D01*
X152528Y385781D02*
X153528D01*
X153028D01*
Y388280D01*
X153528Y388779D01*
X154028D01*
X154528Y388280D01*
X151529Y388779D02*
X150529D01*
X151029D01*
Y385781D01*
X151529Y386280D01*
X252953Y236568D02*
Y239567D01*
X251453D01*
X250953Y239067D01*
Y238567D01*
X251453Y238067D01*
X252953D01*
X251453D01*
X250953Y237568D01*
Y237068D01*
X251453Y236568D01*
X252953D01*
X249954D02*
X247954D01*
X248954D01*
Y239567D01*
X246955D02*
Y236568D01*
X244955Y239567D01*
Y236568D01*
X243956Y239567D02*
X242956D01*
X243456D01*
Y236568D01*
X243956Y237068D01*
X238761Y348797D02*
Y345798D01*
X240260D01*
X240760Y346298D01*
Y346797D01*
X240260Y347297D01*
X238761D01*
X240260D01*
X240760Y347797D01*
Y348297D01*
X240260Y348797D01*
X238761D01*
X241760D02*
X243759D01*
X242759D01*
Y345798D01*
X244759D02*
Y348797D01*
X246758Y345798D01*
Y348797D01*
X249757Y345798D02*
X247758D01*
X249757Y347797D01*
Y348297D01*
X249257Y348797D01*
X248258D01*
X247758Y348297D01*
X250953Y385781D02*
X251953D01*
X251453D01*
Y388280D01*
X251953Y388779D01*
X252453D01*
X252953Y388280D01*
X249954Y388779D02*
X248954D01*
X249454D01*
Y385781D01*
X249954Y386280D01*
X351378Y236568D02*
Y239567D01*
X349878D01*
X349379Y239067D01*
Y238567D01*
X349878Y238067D01*
X351378D01*
X349878D01*
X349379Y237568D01*
Y237068D01*
X349878Y236568D01*
X351378D01*
X348379D02*
X346380D01*
X347379D01*
Y239567D01*
X345380D02*
Y236568D01*
X343380Y239567D01*
Y236568D01*
X342381Y239567D02*
X341381D01*
X341881D01*
Y236568D01*
X342381Y237068D01*
X337186Y348797D02*
Y345798D01*
X338685D01*
X339185Y346298D01*
Y346797D01*
X338685Y347297D01*
X337186D01*
X338685D01*
X339185Y347797D01*
Y348297D01*
X338685Y348797D01*
X337186D01*
X340185D02*
X342184D01*
X341184D01*
Y345798D01*
X343184D02*
Y348797D01*
X345183Y345798D01*
Y348797D01*
X348182Y345798D02*
X346183D01*
X348182Y347797D01*
Y348297D01*
X347682Y348797D01*
X346683D01*
X346183Y348297D01*
X349379Y385781D02*
X350378D01*
X349878D01*
Y388280D01*
X350378Y388779D01*
X350878D01*
X351378Y388280D01*
X348379Y388779D02*
X347379D01*
X347879D01*
Y385781D01*
X348379Y386280D01*
D58*
X37402Y32874D02*
X61024D01*
X37402D02*
Y46654D01*
X61024D01*
Y32874D02*
Y46654D01*
X36989Y158790D02*
X60611D01*
Y145010D02*
Y158790D01*
X36989Y145010D02*
X60611D01*
X36989D02*
Y158790D01*
X61417Y197441D02*
X62795D01*
X61417D02*
Y199803D01*
X35630Y197441D02*
X37008D01*
Y199803D01*
X61417D01*
X64272D02*
X64961Y199311D01*
X62795Y197441D02*
X64272Y199803D01*
X63779Y197441D02*
X64961Y199311D01*
X63779Y177756D02*
Y197441D01*
X34646Y177756D02*
X63779D01*
X34646D02*
Y197441D01*
X33465Y199311D02*
X34646Y197441D01*
X34154Y199803D02*
X35630Y197441D01*
X33465Y199311D02*
X34154Y199803D01*
X49705Y176575D02*
Y177756D01*
X48720Y176575D02*
X49705D01*
X48720D02*
Y177756D01*
X51279Y176575D02*
Y177756D01*
Y176575D02*
X52264D01*
Y177756D01*
X53839Y176575D02*
Y177756D01*
Y176575D02*
X54823D01*
Y177756D01*
X46161Y176575D02*
Y177756D01*
Y176575D02*
X47146D01*
Y177756D01*
X43602Y176575D02*
Y177756D01*
Y176575D02*
X44587D01*
Y177756D01*
X135827Y32874D02*
X159449D01*
X135827D02*
Y46654D01*
X159449D01*
Y32874D02*
Y46654D01*
X135414Y158790D02*
X159036D01*
Y145010D02*
Y158790D01*
X135414Y145010D02*
X159036D01*
X135414D02*
Y158790D01*
X159843Y197441D02*
X161221D01*
X159843D02*
Y199803D01*
X134055Y197441D02*
X135433D01*
Y199803D01*
X159843D01*
X162697D02*
X163386Y199311D01*
X161221Y197441D02*
X162697Y199803D01*
X162205Y197441D02*
X163386Y199311D01*
X162205Y177756D02*
Y197441D01*
X133071Y177756D02*
X162205D01*
X133071D02*
Y197441D01*
X131890Y199311D02*
X133071Y197441D01*
X132579Y199803D02*
X134055Y197441D01*
X131890Y199311D02*
X132579Y199803D01*
X148130Y176575D02*
Y177756D01*
X147146Y176575D02*
X148130D01*
X147146D02*
Y177756D01*
X149705Y176575D02*
Y177756D01*
Y176575D02*
X150689D01*
Y177756D01*
X152264Y176575D02*
Y177756D01*
Y176575D02*
X153248D01*
Y177756D01*
X144587Y176575D02*
Y177756D01*
Y176575D02*
X145571D01*
Y177756D01*
X142028Y176575D02*
Y177756D01*
Y176575D02*
X143012D01*
Y177756D01*
X234252Y32874D02*
X257874D01*
X234252D02*
Y46654D01*
X257874D01*
Y32874D02*
Y46654D01*
X233839Y158790D02*
X257461D01*
Y145010D02*
Y158790D01*
X233839Y145010D02*
X257461D01*
X233839D02*
Y158790D01*
X258268Y197441D02*
X259646D01*
X258268D02*
Y199803D01*
X232480Y197441D02*
X233858D01*
Y199803D01*
X258268D01*
X261122D02*
X261811Y199311D01*
X259646Y197441D02*
X261122Y199803D01*
X260630Y197441D02*
X261811Y199311D01*
X260630Y177756D02*
Y197441D01*
X231496Y177756D02*
X260630D01*
X231496D02*
Y197441D01*
X230315Y199311D02*
X231496Y197441D01*
X231004Y199803D02*
X232480Y197441D01*
X230315Y199311D02*
X231004Y199803D01*
X246555Y176575D02*
Y177756D01*
X245571Y176575D02*
X246555D01*
X245571D02*
Y177756D01*
X248130Y176575D02*
Y177756D01*
Y176575D02*
X249114D01*
Y177756D01*
X250689Y176575D02*
Y177756D01*
Y176575D02*
X251673D01*
Y177756D01*
X243012Y176575D02*
Y177756D01*
Y176575D02*
X243996D01*
Y177756D01*
X240453Y176575D02*
Y177756D01*
Y176575D02*
X241437D01*
Y177756D01*
X332677Y32874D02*
X356299D01*
X332677D02*
Y46654D01*
X356299D01*
Y32874D02*
Y46654D01*
X332265Y158790D02*
X355887D01*
Y145010D02*
Y158790D01*
X332265Y145010D02*
X355887D01*
X332265D02*
Y158790D01*
X356693Y197441D02*
X358071D01*
X356693D02*
Y199803D01*
X330906Y197441D02*
X332283D01*
Y199803D01*
X356693D01*
X359547D02*
X360236Y199311D01*
X358071Y197441D02*
X359547Y199803D01*
X359055Y197441D02*
X360236Y199311D01*
X359055Y177756D02*
Y197441D01*
X329921Y177756D02*
X359055D01*
X329921D02*
Y197441D01*
X328740Y199311D02*
X329921Y197441D01*
X329429Y199803D02*
X330906Y197441D01*
X328740Y199311D02*
X329429Y199803D01*
X344980Y176575D02*
Y177756D01*
X343996Y176575D02*
X344980D01*
X343996D02*
Y177756D01*
X346555Y176575D02*
Y177756D01*
Y176575D02*
X347539D01*
Y177756D01*
X349114Y176575D02*
Y177756D01*
Y176575D02*
X350098D01*
Y177756D01*
X341437Y176575D02*
Y177756D01*
Y176575D02*
X342421D01*
Y177756D01*
X338878Y176575D02*
Y177756D01*
Y176575D02*
X339862D01*
Y177756D01*
X37402Y229724D02*
X61024D01*
X37402D02*
Y243504D01*
X61024D01*
Y229724D02*
Y243504D01*
X36989Y355640D02*
X60611D01*
Y341861D02*
Y355640D01*
X36989Y341861D02*
X60611D01*
X36989D02*
Y355640D01*
X61417Y394291D02*
X62795D01*
X61417D02*
Y396654D01*
X35630Y394291D02*
X37008D01*
Y396654D01*
X61417D01*
X64272D02*
X64961Y396161D01*
X62795Y394291D02*
X64272Y396654D01*
X63779Y394291D02*
X64961Y396161D01*
X63779Y374606D02*
Y394291D01*
X34646Y374606D02*
X63779D01*
X34646D02*
Y394291D01*
X33465Y396161D02*
X34646Y394291D01*
X34154Y396654D02*
X35630Y394291D01*
X33465Y396161D02*
X34154Y396654D01*
X49705Y373425D02*
Y374606D01*
X48720Y373425D02*
X49705D01*
X48720D02*
Y374606D01*
X51279Y373425D02*
Y374606D01*
Y373425D02*
X52264D01*
Y374606D01*
X53839Y373425D02*
Y374606D01*
Y373425D02*
X54823D01*
Y374606D01*
X46161Y373425D02*
Y374606D01*
Y373425D02*
X47146D01*
Y374606D01*
X43602Y373425D02*
Y374606D01*
Y373425D02*
X44587D01*
Y374606D01*
X135827Y229724D02*
X159449D01*
X135827D02*
Y243504D01*
X159449D01*
Y229724D02*
Y243504D01*
X135414Y355640D02*
X159036D01*
Y341861D02*
Y355640D01*
X135414Y341861D02*
X159036D01*
X135414D02*
Y355640D01*
X159843Y394291D02*
X161221D01*
X159843D02*
Y396654D01*
X134055Y394291D02*
X135433D01*
Y396654D01*
X159843D01*
X162697D02*
X163386Y396161D01*
X161221Y394291D02*
X162697Y396654D01*
X162205Y394291D02*
X163386Y396161D01*
X162205Y374606D02*
Y394291D01*
X133071Y374606D02*
X162205D01*
X133071D02*
Y394291D01*
X131890Y396161D02*
X133071Y394291D01*
X132579Y396654D02*
X134055Y394291D01*
X131890Y396161D02*
X132579Y396654D01*
X148130Y373425D02*
Y374606D01*
X147146Y373425D02*
X148130D01*
X147146D02*
Y374606D01*
X149705Y373425D02*
Y374606D01*
Y373425D02*
X150689D01*
Y374606D01*
X152264Y373425D02*
Y374606D01*
Y373425D02*
X153248D01*
Y374606D01*
X144587Y373425D02*
Y374606D01*
Y373425D02*
X145571D01*
Y374606D01*
X142028Y373425D02*
Y374606D01*
Y373425D02*
X143012D01*
Y374606D01*
X234252Y229724D02*
X257874D01*
X234252D02*
Y243504D01*
X257874D01*
Y229724D02*
Y243504D01*
X233839Y355640D02*
X257461D01*
Y341861D02*
Y355640D01*
X233839Y341861D02*
X257461D01*
X233839D02*
Y355640D01*
X258268Y394291D02*
X259646D01*
X258268D02*
Y396654D01*
X232480Y394291D02*
X233858D01*
Y396654D01*
X258268D01*
X261122D02*
X261811Y396161D01*
X259646Y394291D02*
X261122Y396654D01*
X260630Y394291D02*
X261811Y396161D01*
X260630Y374606D02*
Y394291D01*
X231496Y374606D02*
X260630D01*
X231496D02*
Y394291D01*
X230315Y396161D02*
X231496Y394291D01*
X231004Y396654D02*
X232480Y394291D01*
X230315Y396161D02*
X231004Y396654D01*
X246555Y373425D02*
Y374606D01*
X245571Y373425D02*
X246555D01*
X245571D02*
Y374606D01*
X248130Y373425D02*
Y374606D01*
Y373425D02*
X249114D01*
Y374606D01*
X250689Y373425D02*
Y374606D01*
Y373425D02*
X251673D01*
Y374606D01*
X243012Y373425D02*
Y374606D01*
Y373425D02*
X243996D01*
Y374606D01*
X240453Y373425D02*
Y374606D01*
Y373425D02*
X241437D01*
Y374606D01*
X332677Y229724D02*
X356299D01*
X332677D02*
Y243504D01*
X356299D01*
Y229724D02*
Y243504D01*
X332265Y355640D02*
X355887D01*
Y341861D02*
Y355640D01*
X332265Y341861D02*
X355887D01*
X332265D02*
Y355640D01*
X356693Y394291D02*
X358071D01*
X356693D02*
Y396654D01*
X330906Y394291D02*
X332283D01*
Y396654D01*
X356693D01*
X359547D02*
X360236Y396161D01*
X358071Y394291D02*
X359547Y396654D01*
X359055Y394291D02*
X360236Y396161D01*
X359055Y374606D02*
Y394291D01*
X329921Y374606D02*
X359055D01*
X329921D02*
Y394291D01*
X328740Y396161D02*
X329921Y394291D01*
X329429Y396654D02*
X330906Y394291D01*
X328740Y396161D02*
X329429Y396654D01*
X344980Y373425D02*
Y374606D01*
X343996Y373425D02*
X344980D01*
X343996D02*
Y374606D01*
X346555Y373425D02*
Y374606D01*
Y373425D02*
X347539D01*
Y374606D01*
X349114Y373425D02*
Y374606D01*
Y373425D02*
X350098D01*
Y374606D01*
X341437Y373425D02*
Y374606D01*
Y373425D02*
X342421D01*
Y374606D01*
X338878Y373425D02*
Y374606D01*
Y373425D02*
X339862D01*
Y374606D01*
M02*
