M48
;Layer_Color=9474304
;FILE_FORMAT=2:4
INCH,TZ
;TYPE=PLATED
T1F00S00C0.0157
T2F00S00C0.0340
T3F00S00C0.0360
T4F00S00C0.0420
;TYPE=NON_PLATED
T5F00S00C0.0276
%
T01
X1060Y2890
X1941Y3920
X1067Y4923
X3700Y4770
X4903Y4340
X4910Y3560
X4570Y2550
X5820Y2470
X5920Y3370
X6120Y4780
X6700Y4200
X7350Y4790
X8873Y4927
Y2937
X10903Y2890
X11783Y3920
X10909Y4923
X13543Y4770
X14745Y4340
X14753Y3560
X15763Y3370
X15662Y2470
X14413Y2550
X15963Y4780
X16543Y4200
X17193Y4790
X18716Y4927
Y2937
X20745Y2890
X20752Y4923
X21626Y3920
X23385Y4770
X24588Y4340
X24595Y3560
X25605Y3370
X25505Y2470
X24255Y2550
X25805Y4780
X26385Y4200
X27035Y4790
X28558Y4927
Y2937
X30588Y2890
X31468Y3920
X30594Y4923
X33228Y4770
X34430Y4340
X34438Y3560
X35448Y3370
X35347Y2470
X34098Y2550
X35648Y4780
X36228Y4200
X36878Y4790
X38401Y4927
Y2937
X37998Y5890
X38478Y8120
X38494Y9190
X37358Y9230
Y8120
X38494Y11180
X38468Y12200
X38428Y13190
X36988Y13340
X37949Y14600
X39028Y15080
X36968Y17050
X38331Y18783
X36339Y17809
X35568Y17610
X34888Y16920
X33968Y16980
X33028Y16920
X32568Y16339
X32688Y15580
X33948Y15390
X34828Y15665
X35650Y16060
X36448Y14090
X36198Y12880
X36153Y11850
X35148Y12999
X34449Y13041
X33498Y13820
X30918Y14660
X29185Y15080
X28106Y14600
X28585Y13190
X28625Y12200
X28651Y11180
Y9190
X28635Y8120
X27515
Y9230
X26515Y9250
X26305Y8160
X25145Y8260
X24134Y8440
X23270Y8089
X23255Y7060
X22625Y7441
X24482Y7060
X25335
X26477Y7020
X28155Y5890
X30778Y5938
X32468Y7441
X33098Y7060
X33113Y8089
X33976Y8440
X34988Y8260
X36148Y8160
X36357Y9250
X36319Y7020
X35178Y7060
X34324
X32728Y17830
X31958Y17320
X30642Y18766
X28488Y18783
X26496Y17809
X25725Y17610
X25045Y16920
X24125Y16980
X23185Y16920
X22725Y16339
X22845Y15580
X24105Y15390
X24985Y15665
X25807Y16060
X27125Y17050
X26605Y14090
X27145Y13340
X26355Y12880
X26311Y11850
X25305Y12999
X24606Y13041
X23655Y13820
X22885Y17830
X22115Y17320
X20799Y18766
X18646Y18783
X16654Y17809
X15883Y17610
X15203Y16920
X14283Y16980
X13343Y16920
X12883Y16339
X13003Y15580
X14263Y15390
X15143Y15665
X15965Y16060
X17283Y17050
X18264Y14600
X19343Y15080
X21075Y14660
X18743Y13190
X18783Y12200
X18809Y11180
Y9190
X18793Y8120
X17673
Y9230
X16672Y9250
X16463Y8160
X15303Y8260
X14291Y8440
X13428Y8089
X13413Y7060
X12783Y7441
X14639Y7060
X15493
X16634Y7020
X18313Y5890
X20935Y5938
X11093
X8470Y5890
X8950Y8120
X8966Y9190
X7830Y9230
X6830Y9250
X6620Y8160
X7830Y8120
X6792Y7020
X5650Y7060
X6626Y11850
X6670Y12880
X7460Y13340
X6920Y14090
X8421Y14600
X9500Y15080
X11233Y14660
X13813Y13820
X14764Y13041
X15463Y12999
X16513Y12880
X16468Y11850
X17303Y13340
X16763Y14090
X13043Y17830
X12273Y17320
X10956Y18766
X8803Y18783
X6811Y17809
X6040Y17610
X6122Y16060
X7440Y17050
X8900Y13190
X8940Y12200
X8966Y11180
X5620Y12999
X4921Y13041
X3970Y13820
X4420Y15390
X5300Y15665
X5360Y16920
X4440Y16980
X3500Y16920
X3040Y16339
X3160Y15580
X3200Y17830
X2430Y17320
X1114Y18766
X1390Y14660
X3585Y8089
X3570Y7060
X2940Y7441
X4797Y7060
X4449Y8440
X5460Y8260
X1250Y5938
X1060Y22575
X1941Y23605
X1067Y24608
X1250Y25623
X2940Y27126
X3570Y26745
X3585Y27774
X4449Y28125
X5460Y27945
X4797Y26745
X4903Y24025
X4910Y23245
X4570Y22235
X3700Y24455
X3970Y33505
X4921Y32726
X5620Y32684
X5300Y35350
X4420Y35075
X3160Y35265
X3040Y36024
X3500Y36605
X4440Y36665
X5360Y36605
X1390Y34345
X6920Y33775
X7460Y33025
X6670Y32565
X6626Y31535
X8940Y31885
X8900Y32875
X8421Y34285
X9500Y34765
X11233Y34345
X13003Y35265
X12883Y36024
X13343Y36605
X14283Y36665
X15203Y36605
X15143Y35350
X14263Y35075
X13813Y33505
X14764Y32726
X15463Y32684
X16513Y32565
X16468Y31535
X17303Y33025
X16763Y33775
X18264Y34285
X19343Y34765
X21075Y34345
X18743Y32875
X18783Y31885
X18809Y30865
Y28875
X18793Y27805
X17673
Y28915
X16672Y28935
X16463Y27845
X15303Y27945
X14291Y28125
X13428Y27774
X13413Y26745
X12783Y27126
X14639Y26745
X15493
X16634Y26705
X17193Y24475
X15963Y24465
X16543Y23885
X15763Y23055
X15662Y22155
X14413Y22235
X14753Y23245
X14745Y24025
X13543Y24455
X11783Y23605
X10909Y24608
X11093Y25623
X8470Y25575
X8873Y24612
X7350Y24475
X6120Y24465
X6700Y23885
X5920Y23055
X5820Y22155
X8873Y22622
X10903Y22575
X8950Y27805
X8966Y28875
X7830Y28915
X6830Y28935
X6620Y27845
X7830Y27805
X6792Y26705
X5650Y26745
X8966Y30865
X7440Y36735
X6122Y35745
X15965
X17283Y36735
X18313Y25575
X18716Y24612
Y22622
X20745Y22575
X20752Y24608
X20935Y25623
X21626Y23605
X23385Y24455
X24588Y24025
X24595Y23245
X25605Y23055
X25505Y22155
X24255Y22235
X25805Y24465
X26385Y23885
X27035Y24475
X28558Y24612
X28155Y25575
X30778Y25623
X30594Y24608
X31468Y23605
X30588Y22575
X28558Y22622
X28635Y27805
X28651Y28875
X27515Y28915
X26515Y28935
X26305Y27845
X27515Y27805
X26477Y26705
X25335Y26745
X24482
X23255
X22625Y27126
X23270Y27774
X24134Y28125
X25145Y27945
X26311Y31535
X26355Y32565
X25305Y32684
X24606Y32726
X23655Y33505
X24105Y35075
X24985Y35350
X25807Y35745
X25045Y36605
X24125Y36665
X23185Y36605
X22725Y36024
X22845Y35265
X26605Y33775
X27145Y33025
X28585Y32875
X28625Y31885
X28651Y30865
X28106Y34285
X29185Y34765
X30918Y34345
X32688Y35265
X32568Y36024
X33028Y36605
X33968Y36665
X34888Y36605
X34828Y35350
X33948Y35075
X33498Y33505
X34449Y32726
X35148Y32684
X36198Y32565
X36153Y31535
X36448Y33775
X35650Y35745
X36357Y28935
X36148Y27845
X34988Y27945
X33976Y28125
X33113Y27774
X33098Y26745
X32468Y27126
X34324Y26745
X35178
X36319Y26705
X35648Y24465
X36228Y23885
X35448Y23055
X35347Y22155
X34098Y22235
X34438Y23245
X34430Y24025
X33228Y24455
X27125Y36735
X36968
X37949Y34285
X39028Y34765
X38428Y32875
X38468Y31885
X38494Y30865
Y28875
X38478Y27805
X37358
Y28915
X37998Y25575
X38401Y24612
X36878Y24475
X38401Y22622
X36988Y33025
X38331Y38468
X36339Y37494
X35568Y37295
X32728Y37515
X31958Y37005
X30642Y38451
X28488Y38468
X26496Y37494
X25725Y37295
X22885Y37515
X22115Y37005
X20799Y38451
X18646Y38468
X16654Y37494
X15883Y37295
X13043Y37515
X12273Y37005
X10956Y38451
X8803Y38468
X6811Y37494
X6040Y37295
X3200Y37515
X2430Y37005
X1114Y38451
T02
X23646Y5945
X25567
X33488
X35409
X15724
X13803
X5882
X3961
Y25630
X5882
X13803
X15724
X23646
X25567
X33488
X35409
T03
X3421Y1929
X4431
X5411
X6421
X13264
X14274
X15254
X16264
X23106
X24116
X25096
X26106
X32949
X33959
X34939
X35949
X37949Y15646
Y16656
X30949
Y15646
X28106
Y16656
X21106
Y15646
X18264
Y16656
X11264
Y15646
X8421
Y16656
X1421
Y15646
X3421Y21614
X4431
X5411
X1421Y35331
Y36341
X8421
Y35331
X11264
Y36341
X18264
Y35331
X21106
Y36341
X16264Y21614
X15254
X14274
X13264
X6421
X23106
X24116
X25096
X26106
X32949
X33959
X34939
X35949
X30949Y35331
Y36341
X28106
Y35331
X37949
Y36341
T04
X37949Y6693
Y7693
Y8693
Y9693
Y10693
Y11693
Y12693
Y13693
X30949Y13646
Y12646
Y11646
Y10646
Y9646
Y8646
Y7646
Y6646
X28106Y6693
Y7693
Y8693
Y9693
Y10693
Y11693
Y12693
Y13693
X21106Y13646
Y12646
Y11646
Y10646
Y9646
Y8646
Y7646
Y6646
X18264Y6693
Y7693
Y8693
Y9693
Y10693
Y11693
Y12693
Y13693
X11264Y13646
Y12646
Y11646
Y10646
Y9646
Y8646
Y7646
Y6646
X8421Y6693
Y7693
Y8693
Y9693
Y10693
Y11693
Y12693
Y13693
X1421Y13646
Y12646
Y11646
Y10646
Y9646
Y8646
Y7646
Y6646
Y26331
Y27331
Y28331
Y29331
Y30331
Y31331
Y32331
Y33331
X8421Y33378
Y32378
Y31378
Y30378
Y29378
Y28378
Y27378
Y26378
X11264Y26331
Y27331
Y28331
Y29331
Y30331
Y31331
Y32331
Y33331
X18264Y33378
Y32378
Y31378
Y30378
Y29378
Y28378
Y27378
Y26378
X21106Y26331
Y27331
Y28331
Y29331
Y30331
Y31331
Y32331
Y33331
X28106Y33378
Y32378
Y31378
Y30378
Y29378
Y28378
Y27378
Y26378
X30949Y26331
Y27331
Y28331
Y29331
Y30331
Y31331
Y32331
Y33331
X37949Y33378
Y32378
Y31378
Y30378
Y29378
Y28378
Y27378
Y26378
T05
X23789Y17933
X25423
X33632
X35266
X15581
X13947
X5738
X4104
X23789Y37618
X25423
X33632
X35266
X15581
X13947
X5738
X4104
M30
