G04*
G04 #@! TF.GenerationSoftware,Altium Limited,Altium Designer,18.1.6 (161)*
G04*
G04 Layer_Color=128*
%FSLAX25Y25*%
%MOIN*%
G70*
G01*
G75*
%ADD10R,0.05500X0.05000*%
%ADD11R,0.05000X0.05500*%
%ADD29R,0.03937X0.09449*%
%ADD30R,0.12992X0.09449*%
D10*
X54724Y47583D02*
D03*
Y38583D02*
D03*
X42913D02*
D03*
Y47583D02*
D03*
X68110Y159898D02*
D03*
Y168898D02*
D03*
X153150Y47583D02*
D03*
Y38583D02*
D03*
X141339D02*
D03*
Y47583D02*
D03*
X166535Y159898D02*
D03*
Y168898D02*
D03*
X251575Y47583D02*
D03*
Y38583D02*
D03*
X239764D02*
D03*
Y47583D02*
D03*
X264961Y159898D02*
D03*
Y168898D02*
D03*
X350000Y47583D02*
D03*
Y38583D02*
D03*
X338189D02*
D03*
Y47583D02*
D03*
X363386Y159898D02*
D03*
Y168898D02*
D03*
X54724Y244433D02*
D03*
Y235433D02*
D03*
X42913D02*
D03*
Y244433D02*
D03*
X68110Y356748D02*
D03*
Y365748D02*
D03*
X153150Y244433D02*
D03*
Y235433D02*
D03*
X141339D02*
D03*
Y244433D02*
D03*
X166535Y356748D02*
D03*
Y365748D02*
D03*
X251575Y244433D02*
D03*
Y235433D02*
D03*
X239764D02*
D03*
Y244433D02*
D03*
X264961Y356748D02*
D03*
Y365748D02*
D03*
X350000Y244433D02*
D03*
Y235433D02*
D03*
X338189D02*
D03*
Y244433D02*
D03*
X363386Y356748D02*
D03*
Y365748D02*
D03*
D11*
X79700Y182100D02*
D03*
X88700D02*
D03*
X52800Y90400D02*
D03*
X61800D02*
D03*
X35200D02*
D03*
X44200D02*
D03*
X10600Y44600D02*
D03*
X19600D02*
D03*
X10600Y24100D02*
D03*
X19600D02*
D03*
X44763Y30315D02*
D03*
X53763D02*
D03*
X88900Y24400D02*
D03*
X79900D02*
D03*
X88800Y44600D02*
D03*
X79800D02*
D03*
X19474Y182059D02*
D03*
X10474D02*
D03*
X58213Y136221D02*
D03*
X49213D02*
D03*
X178125Y182100D02*
D03*
X187125D02*
D03*
X151225Y90400D02*
D03*
X160225D02*
D03*
X133625D02*
D03*
X142625D02*
D03*
X109025Y44600D02*
D03*
X118025D02*
D03*
X109025Y24100D02*
D03*
X118025D02*
D03*
X143188Y30315D02*
D03*
X152188D02*
D03*
X187325Y24400D02*
D03*
X178325D02*
D03*
X187225Y44600D02*
D03*
X178225D02*
D03*
X117899Y182059D02*
D03*
X108899D02*
D03*
X156638Y136221D02*
D03*
X147638D02*
D03*
X276550Y182100D02*
D03*
X285550D02*
D03*
X249650Y90400D02*
D03*
X258650D02*
D03*
X232050D02*
D03*
X241050D02*
D03*
X207450Y44600D02*
D03*
X216450D02*
D03*
X207450Y24100D02*
D03*
X216450D02*
D03*
X241613Y30315D02*
D03*
X250613D02*
D03*
X285750Y24400D02*
D03*
X276750D02*
D03*
X285650Y44600D02*
D03*
X276650D02*
D03*
X216324Y182059D02*
D03*
X207324D02*
D03*
X255063Y136221D02*
D03*
X246063D02*
D03*
X374976Y182100D02*
D03*
X383976D02*
D03*
X348076Y90400D02*
D03*
X357076D02*
D03*
X330476D02*
D03*
X339476D02*
D03*
X305876Y44600D02*
D03*
X314876D02*
D03*
X305876Y24100D02*
D03*
X314876D02*
D03*
X340038Y30315D02*
D03*
X349038D02*
D03*
X384176Y24400D02*
D03*
X375176D02*
D03*
X384076Y44600D02*
D03*
X375076D02*
D03*
X314749Y182059D02*
D03*
X305749D02*
D03*
X353488Y136221D02*
D03*
X344488D02*
D03*
X79700Y378950D02*
D03*
X88700D02*
D03*
X52800Y287250D02*
D03*
X61800D02*
D03*
X35200D02*
D03*
X44200D02*
D03*
X10600Y241450D02*
D03*
X19600D02*
D03*
X10600Y220950D02*
D03*
X19600D02*
D03*
X44763Y227165D02*
D03*
X53763D02*
D03*
X88900Y221250D02*
D03*
X79900D02*
D03*
X88800Y241450D02*
D03*
X79800D02*
D03*
X19474Y378909D02*
D03*
X10474D02*
D03*
X58213Y333071D02*
D03*
X49213D02*
D03*
X178125Y378950D02*
D03*
X187125D02*
D03*
X151225Y287250D02*
D03*
X160225D02*
D03*
X133625D02*
D03*
X142625D02*
D03*
X109025Y241450D02*
D03*
X118025D02*
D03*
X109025Y220950D02*
D03*
X118025D02*
D03*
X143188Y227165D02*
D03*
X152188D02*
D03*
X187325Y221250D02*
D03*
X178325D02*
D03*
X187225Y241450D02*
D03*
X178225D02*
D03*
X117899Y378909D02*
D03*
X108899D02*
D03*
X156638Y333071D02*
D03*
X147638D02*
D03*
X276550Y378950D02*
D03*
X285550D02*
D03*
X249650Y287250D02*
D03*
X258650D02*
D03*
X232050D02*
D03*
X241050D02*
D03*
X207450Y241450D02*
D03*
X216450D02*
D03*
X207450Y220950D02*
D03*
X216450D02*
D03*
X241613Y227165D02*
D03*
X250613D02*
D03*
X285750Y221250D02*
D03*
X276750D02*
D03*
X285650Y241450D02*
D03*
X276650D02*
D03*
X216324Y378909D02*
D03*
X207324D02*
D03*
X255063Y333071D02*
D03*
X246063D02*
D03*
X374976Y378950D02*
D03*
X383976D02*
D03*
X348076Y287250D02*
D03*
X357076D02*
D03*
X330476D02*
D03*
X339476D02*
D03*
X305876Y241450D02*
D03*
X314876D02*
D03*
X305876Y220950D02*
D03*
X314876D02*
D03*
X340038Y227165D02*
D03*
X349038D02*
D03*
X384176Y221250D02*
D03*
X375176D02*
D03*
X384076Y241450D02*
D03*
X375076D02*
D03*
X314749Y378909D02*
D03*
X305749D02*
D03*
X353488Y333071D02*
D03*
X344488D02*
D03*
D29*
X40157Y168898D02*
D03*
X49213D02*
D03*
X58268D02*
D03*
X138583D02*
D03*
X147638D02*
D03*
X156693D02*
D03*
X237008D02*
D03*
X246063D02*
D03*
X255118D02*
D03*
X335433D02*
D03*
X344488D02*
D03*
X353543D02*
D03*
X40157Y365748D02*
D03*
X49213D02*
D03*
X58268D02*
D03*
X138583D02*
D03*
X147638D02*
D03*
X156693D02*
D03*
X237008D02*
D03*
X246063D02*
D03*
X255118D02*
D03*
X335433D02*
D03*
X344488D02*
D03*
X353543D02*
D03*
D30*
X49213Y146063D02*
D03*
X147638D02*
D03*
X246063D02*
D03*
X344488D02*
D03*
X49213Y342913D02*
D03*
X147638D02*
D03*
X246063D02*
D03*
X344488D02*
D03*
M02*
