G04*
G04 #@! TF.GenerationSoftware,Altium Limited,Altium Designer,18.1.6 (161)*
G04*
G04 Layer_Color=8388736*
%FSLAX25Y25*%
%MOIN*%
G70*
G01*
G75*
%ADD32C,0.00700*%
%ADD38C,0.01000*%
%ADD57C,0.01100*%
%ADD58C,0.00394*%
D32*
X53937Y195816D02*
X52652D01*
X52223Y195673D01*
X52080Y195530D01*
X51937Y195245D01*
Y194816D01*
X52080Y194530D01*
X52223Y194388D01*
X52652Y194245D01*
X53937D01*
Y197244D01*
X49124Y194959D02*
X49267Y194673D01*
X49552Y194388D01*
X49838Y194245D01*
X50409D01*
X50695Y194388D01*
X50981Y194673D01*
X51123Y194959D01*
X51266Y195387D01*
Y196101D01*
X51123Y196530D01*
X50981Y196816D01*
X50695Y197101D01*
X50409Y197244D01*
X49838D01*
X49552Y197101D01*
X49267Y196816D01*
X49124Y196530D01*
X48281Y194245D02*
Y197244D01*
Y194245D02*
X46996D01*
X46567Y194388D01*
X46424Y194530D01*
X46281Y194816D01*
Y195102D01*
X46424Y195387D01*
X46567Y195530D01*
X46996Y195673D01*
X48281D02*
X46996D01*
X46567Y195816D01*
X46424Y195959D01*
X46281Y196244D01*
Y196673D01*
X46424Y196958D01*
X46567Y197101D01*
X46996Y197244D01*
X48281D01*
X41397Y194245D02*
X43254D01*
Y197244D01*
X41397D01*
X43254Y195673D02*
X42111D01*
X39183Y194245D02*
Y197244D01*
Y195673D02*
X39469Y195387D01*
X39754Y195245D01*
X40183D01*
X40468Y195387D01*
X40754Y195673D01*
X40897Y196101D01*
Y196387D01*
X40754Y196816D01*
X40468Y197101D01*
X40183Y197244D01*
X39754D01*
X39469Y197101D01*
X39183Y196816D01*
X36669Y195245D02*
Y197530D01*
X36812Y197958D01*
X36955Y198101D01*
X37241Y198244D01*
X37669D01*
X37955Y198101D01*
X36669Y195673D02*
X36955Y195387D01*
X37241Y195245D01*
X37669D01*
X37955Y195387D01*
X38240Y195673D01*
X38383Y196101D01*
Y196387D01*
X38240Y196816D01*
X37955Y197101D01*
X37669Y197244D01*
X37241D01*
X36955Y197101D01*
X36669Y196816D01*
X35869Y196101D02*
X34155D01*
Y195816D01*
X34298Y195530D01*
X34441Y195387D01*
X34727Y195245D01*
X35155D01*
X35441Y195387D01*
X35727Y195673D01*
X35869Y196101D01*
Y196387D01*
X35727Y196816D01*
X35441Y197101D01*
X35155Y197244D01*
X34727D01*
X34441Y197101D01*
X34155Y196816D01*
X152362Y195816D02*
X151077D01*
X150648Y195673D01*
X150505Y195530D01*
X150363Y195245D01*
Y194816D01*
X150505Y194530D01*
X150648Y194388D01*
X151077Y194245D01*
X152362D01*
Y197244D01*
X147549Y194959D02*
X147692Y194673D01*
X147977Y194388D01*
X148263Y194245D01*
X148834D01*
X149120Y194388D01*
X149406Y194673D01*
X149548Y194959D01*
X149691Y195387D01*
Y196101D01*
X149548Y196530D01*
X149406Y196816D01*
X149120Y197101D01*
X148834Y197244D01*
X148263D01*
X147977Y197101D01*
X147692Y196816D01*
X147549Y196530D01*
X146706Y194245D02*
Y197244D01*
Y194245D02*
X145421D01*
X144992Y194388D01*
X144850Y194530D01*
X144707Y194816D01*
Y195102D01*
X144850Y195387D01*
X144992Y195530D01*
X145421Y195673D01*
X146706D02*
X145421D01*
X144992Y195816D01*
X144850Y195959D01*
X144707Y196244D01*
Y196673D01*
X144850Y196958D01*
X144992Y197101D01*
X145421Y197244D01*
X146706D01*
X139822Y194245D02*
X141679D01*
Y197244D01*
X139822D01*
X141679Y195673D02*
X140536D01*
X137608Y194245D02*
Y197244D01*
Y195673D02*
X137894Y195387D01*
X138180Y195245D01*
X138608D01*
X138894Y195387D01*
X139179Y195673D01*
X139322Y196101D01*
Y196387D01*
X139179Y196816D01*
X138894Y197101D01*
X138608Y197244D01*
X138180D01*
X137894Y197101D01*
X137608Y196816D01*
X135094Y195245D02*
Y197530D01*
X135237Y197958D01*
X135380Y198101D01*
X135666Y198244D01*
X136094D01*
X136380Y198101D01*
X135094Y195673D02*
X135380Y195387D01*
X135666Y195245D01*
X136094D01*
X136380Y195387D01*
X136666Y195673D01*
X136808Y196101D01*
Y196387D01*
X136666Y196816D01*
X136380Y197101D01*
X136094Y197244D01*
X135666D01*
X135380Y197101D01*
X135094Y196816D01*
X134295Y196101D02*
X132581D01*
Y195816D01*
X132724Y195530D01*
X132866Y195387D01*
X133152Y195245D01*
X133581D01*
X133866Y195387D01*
X134152Y195673D01*
X134295Y196101D01*
Y196387D01*
X134152Y196816D01*
X133866Y197101D01*
X133581Y197244D01*
X133152D01*
X132866Y197101D01*
X132581Y196816D01*
X250787Y195816D02*
X249502D01*
X249074Y195673D01*
X248931Y195530D01*
X248788Y195245D01*
Y194816D01*
X248931Y194530D01*
X249074Y194388D01*
X249502Y194245D01*
X250787D01*
Y197244D01*
X245974Y194959D02*
X246117Y194673D01*
X246403Y194388D01*
X246688Y194245D01*
X247260D01*
X247545Y194388D01*
X247831Y194673D01*
X247974Y194959D01*
X248117Y195387D01*
Y196101D01*
X247974Y196530D01*
X247831Y196816D01*
X247545Y197101D01*
X247260Y197244D01*
X246688D01*
X246403Y197101D01*
X246117Y196816D01*
X245974Y196530D01*
X245131Y194245D02*
Y197244D01*
Y194245D02*
X243846D01*
X243418Y194388D01*
X243275Y194530D01*
X243132Y194816D01*
Y195102D01*
X243275Y195387D01*
X243418Y195530D01*
X243846Y195673D01*
X245131D02*
X243846D01*
X243418Y195816D01*
X243275Y195959D01*
X243132Y196244D01*
Y196673D01*
X243275Y196958D01*
X243418Y197101D01*
X243846Y197244D01*
X245131D01*
X238247Y194245D02*
X240104D01*
Y197244D01*
X238247D01*
X240104Y195673D02*
X238961D01*
X236033Y194245D02*
Y197244D01*
Y195673D02*
X236319Y195387D01*
X236605Y195245D01*
X237033D01*
X237319Y195387D01*
X237604Y195673D01*
X237747Y196101D01*
Y196387D01*
X237604Y196816D01*
X237319Y197101D01*
X237033Y197244D01*
X236605D01*
X236319Y197101D01*
X236033Y196816D01*
X233520Y195245D02*
Y197530D01*
X233663Y197958D01*
X233805Y198101D01*
X234091Y198244D01*
X234520D01*
X234805Y198101D01*
X233520Y195673D02*
X233805Y195387D01*
X234091Y195245D01*
X234520D01*
X234805Y195387D01*
X235091Y195673D01*
X235234Y196101D01*
Y196387D01*
X235091Y196816D01*
X234805Y197101D01*
X234520Y197244D01*
X234091D01*
X233805Y197101D01*
X233520Y196816D01*
X232720Y196101D02*
X231006D01*
Y195816D01*
X231149Y195530D01*
X231292Y195387D01*
X231577Y195245D01*
X232006D01*
X232291Y195387D01*
X232577Y195673D01*
X232720Y196101D01*
Y196387D01*
X232577Y196816D01*
X232291Y197101D01*
X232006Y197244D01*
X231577D01*
X231292Y197101D01*
X231006Y196816D01*
X349213Y195816D02*
X347927D01*
X347499Y195673D01*
X347356Y195530D01*
X347213Y195245D01*
Y194816D01*
X347356Y194530D01*
X347499Y194388D01*
X347927Y194245D01*
X349213D01*
Y197244D01*
X344399Y194959D02*
X344542Y194673D01*
X344828Y194388D01*
X345113Y194245D01*
X345685D01*
X345970Y194388D01*
X346256Y194673D01*
X346399Y194959D01*
X346542Y195387D01*
Y196101D01*
X346399Y196530D01*
X346256Y196816D01*
X345970Y197101D01*
X345685Y197244D01*
X345113D01*
X344828Y197101D01*
X344542Y196816D01*
X344399Y196530D01*
X343557Y194245D02*
Y197244D01*
Y194245D02*
X342271D01*
X341843Y194388D01*
X341700Y194530D01*
X341557Y194816D01*
Y195102D01*
X341700Y195387D01*
X341843Y195530D01*
X342271Y195673D01*
X343557D02*
X342271D01*
X341843Y195816D01*
X341700Y195959D01*
X341557Y196244D01*
Y196673D01*
X341700Y196958D01*
X341843Y197101D01*
X342271Y197244D01*
X343557D01*
X336672Y194245D02*
X338529D01*
Y197244D01*
X336672D01*
X338529Y195673D02*
X337387D01*
X334459Y194245D02*
Y197244D01*
Y195673D02*
X334744Y195387D01*
X335030Y195245D01*
X335458D01*
X335744Y195387D01*
X336030Y195673D01*
X336173Y196101D01*
Y196387D01*
X336030Y196816D01*
X335744Y197101D01*
X335458Y197244D01*
X335030D01*
X334744Y197101D01*
X334459Y196816D01*
X331945Y195245D02*
Y197530D01*
X332088Y197958D01*
X332230Y198101D01*
X332516Y198244D01*
X332945D01*
X333230Y198101D01*
X331945Y195673D02*
X332230Y195387D01*
X332516Y195245D01*
X332945D01*
X333230Y195387D01*
X333516Y195673D01*
X333659Y196101D01*
Y196387D01*
X333516Y196816D01*
X333230Y197101D01*
X332945Y197244D01*
X332516D01*
X332230Y197101D01*
X331945Y196816D01*
X331145Y196101D02*
X329431D01*
Y195816D01*
X329574Y195530D01*
X329717Y195387D01*
X330002Y195245D01*
X330431D01*
X330717Y195387D01*
X331002Y195673D01*
X331145Y196101D01*
Y196387D01*
X331002Y196816D01*
X330717Y197101D01*
X330431Y197244D01*
X330002D01*
X329717Y197101D01*
X329431Y196816D01*
X53937Y392666D02*
X52652D01*
X52223Y392523D01*
X52080Y392381D01*
X51937Y392095D01*
Y391666D01*
X52080Y391381D01*
X52223Y391238D01*
X52652Y391095D01*
X53937D01*
Y394094D01*
X49124Y391809D02*
X49267Y391524D01*
X49552Y391238D01*
X49838Y391095D01*
X50409D01*
X50695Y391238D01*
X50981Y391524D01*
X51123Y391809D01*
X51266Y392238D01*
Y392952D01*
X51123Y393380D01*
X50981Y393666D01*
X50695Y393952D01*
X50409Y394094D01*
X49838D01*
X49552Y393952D01*
X49267Y393666D01*
X49124Y393380D01*
X48281Y391095D02*
Y394094D01*
Y391095D02*
X46996D01*
X46567Y391238D01*
X46424Y391381D01*
X46281Y391666D01*
Y391952D01*
X46424Y392238D01*
X46567Y392381D01*
X46996Y392523D01*
X48281D02*
X46996D01*
X46567Y392666D01*
X46424Y392809D01*
X46281Y393095D01*
Y393523D01*
X46424Y393809D01*
X46567Y393952D01*
X46996Y394094D01*
X48281D01*
X41397Y391095D02*
X43254D01*
Y394094D01*
X41397D01*
X43254Y392523D02*
X42111D01*
X39183Y391095D02*
Y394094D01*
Y392523D02*
X39469Y392238D01*
X39754Y392095D01*
X40183D01*
X40468Y392238D01*
X40754Y392523D01*
X40897Y392952D01*
Y393237D01*
X40754Y393666D01*
X40468Y393952D01*
X40183Y394094D01*
X39754D01*
X39469Y393952D01*
X39183Y393666D01*
X36669Y392095D02*
Y394380D01*
X36812Y394809D01*
X36955Y394952D01*
X37241Y395094D01*
X37669D01*
X37955Y394952D01*
X36669Y392523D02*
X36955Y392238D01*
X37241Y392095D01*
X37669D01*
X37955Y392238D01*
X38240Y392523D01*
X38383Y392952D01*
Y393237D01*
X38240Y393666D01*
X37955Y393952D01*
X37669Y394094D01*
X37241D01*
X36955Y393952D01*
X36669Y393666D01*
X35869Y392952D02*
X34155D01*
Y392666D01*
X34298Y392381D01*
X34441Y392238D01*
X34727Y392095D01*
X35155D01*
X35441Y392238D01*
X35727Y392523D01*
X35869Y392952D01*
Y393237D01*
X35727Y393666D01*
X35441Y393952D01*
X35155Y394094D01*
X34727D01*
X34441Y393952D01*
X34155Y393666D01*
X152362Y392666D02*
X151077D01*
X150648Y392523D01*
X150505Y392381D01*
X150363Y392095D01*
Y391666D01*
X150505Y391381D01*
X150648Y391238D01*
X151077Y391095D01*
X152362D01*
Y394094D01*
X147549Y391809D02*
X147692Y391524D01*
X147977Y391238D01*
X148263Y391095D01*
X148834D01*
X149120Y391238D01*
X149406Y391524D01*
X149548Y391809D01*
X149691Y392238D01*
Y392952D01*
X149548Y393380D01*
X149406Y393666D01*
X149120Y393952D01*
X148834Y394094D01*
X148263D01*
X147977Y393952D01*
X147692Y393666D01*
X147549Y393380D01*
X146706Y391095D02*
Y394094D01*
Y391095D02*
X145421D01*
X144992Y391238D01*
X144850Y391381D01*
X144707Y391666D01*
Y391952D01*
X144850Y392238D01*
X144992Y392381D01*
X145421Y392523D01*
X146706D02*
X145421D01*
X144992Y392666D01*
X144850Y392809D01*
X144707Y393095D01*
Y393523D01*
X144850Y393809D01*
X144992Y393952D01*
X145421Y394094D01*
X146706D01*
X139822Y391095D02*
X141679D01*
Y394094D01*
X139822D01*
X141679Y392523D02*
X140536D01*
X137608Y391095D02*
Y394094D01*
Y392523D02*
X137894Y392238D01*
X138180Y392095D01*
X138608D01*
X138894Y392238D01*
X139179Y392523D01*
X139322Y392952D01*
Y393237D01*
X139179Y393666D01*
X138894Y393952D01*
X138608Y394094D01*
X138180D01*
X137894Y393952D01*
X137608Y393666D01*
X135094Y392095D02*
Y394380D01*
X135237Y394809D01*
X135380Y394952D01*
X135666Y395094D01*
X136094D01*
X136380Y394952D01*
X135094Y392523D02*
X135380Y392238D01*
X135666Y392095D01*
X136094D01*
X136380Y392238D01*
X136666Y392523D01*
X136808Y392952D01*
Y393237D01*
X136666Y393666D01*
X136380Y393952D01*
X136094Y394094D01*
X135666D01*
X135380Y393952D01*
X135094Y393666D01*
X134295Y392952D02*
X132581D01*
Y392666D01*
X132724Y392381D01*
X132866Y392238D01*
X133152Y392095D01*
X133581D01*
X133866Y392238D01*
X134152Y392523D01*
X134295Y392952D01*
Y393237D01*
X134152Y393666D01*
X133866Y393952D01*
X133581Y394094D01*
X133152D01*
X132866Y393952D01*
X132581Y393666D01*
X250787Y392666D02*
X249502D01*
X249074Y392523D01*
X248931Y392381D01*
X248788Y392095D01*
Y391666D01*
X248931Y391381D01*
X249074Y391238D01*
X249502Y391095D01*
X250787D01*
Y394094D01*
X245974Y391809D02*
X246117Y391524D01*
X246403Y391238D01*
X246688Y391095D01*
X247260D01*
X247545Y391238D01*
X247831Y391524D01*
X247974Y391809D01*
X248117Y392238D01*
Y392952D01*
X247974Y393380D01*
X247831Y393666D01*
X247545Y393952D01*
X247260Y394094D01*
X246688D01*
X246403Y393952D01*
X246117Y393666D01*
X245974Y393380D01*
X245131Y391095D02*
Y394094D01*
Y391095D02*
X243846D01*
X243418Y391238D01*
X243275Y391381D01*
X243132Y391666D01*
Y391952D01*
X243275Y392238D01*
X243418Y392381D01*
X243846Y392523D01*
X245131D02*
X243846D01*
X243418Y392666D01*
X243275Y392809D01*
X243132Y393095D01*
Y393523D01*
X243275Y393809D01*
X243418Y393952D01*
X243846Y394094D01*
X245131D01*
X238247Y391095D02*
X240104D01*
Y394094D01*
X238247D01*
X240104Y392523D02*
X238961D01*
X236033Y391095D02*
Y394094D01*
Y392523D02*
X236319Y392238D01*
X236605Y392095D01*
X237033D01*
X237319Y392238D01*
X237604Y392523D01*
X237747Y392952D01*
Y393237D01*
X237604Y393666D01*
X237319Y393952D01*
X237033Y394094D01*
X236605D01*
X236319Y393952D01*
X236033Y393666D01*
X233520Y392095D02*
Y394380D01*
X233663Y394809D01*
X233805Y394952D01*
X234091Y395094D01*
X234520D01*
X234805Y394952D01*
X233520Y392523D02*
X233805Y392238D01*
X234091Y392095D01*
X234520D01*
X234805Y392238D01*
X235091Y392523D01*
X235234Y392952D01*
Y393237D01*
X235091Y393666D01*
X234805Y393952D01*
X234520Y394094D01*
X234091D01*
X233805Y393952D01*
X233520Y393666D01*
X232720Y392952D02*
X231006D01*
Y392666D01*
X231149Y392381D01*
X231292Y392238D01*
X231577Y392095D01*
X232006D01*
X232291Y392238D01*
X232577Y392523D01*
X232720Y392952D01*
Y393237D01*
X232577Y393666D01*
X232291Y393952D01*
X232006Y394094D01*
X231577D01*
X231292Y393952D01*
X231006Y393666D01*
X349213Y392666D02*
X347927D01*
X347499Y392523D01*
X347356Y392381D01*
X347213Y392095D01*
Y391666D01*
X347356Y391381D01*
X347499Y391238D01*
X347927Y391095D01*
X349213D01*
Y394094D01*
X344399Y391809D02*
X344542Y391524D01*
X344828Y391238D01*
X345113Y391095D01*
X345685D01*
X345970Y391238D01*
X346256Y391524D01*
X346399Y391809D01*
X346542Y392238D01*
Y392952D01*
X346399Y393380D01*
X346256Y393666D01*
X345970Y393952D01*
X345685Y394094D01*
X345113D01*
X344828Y393952D01*
X344542Y393666D01*
X344399Y393380D01*
X343557Y391095D02*
Y394094D01*
Y391095D02*
X342271D01*
X341843Y391238D01*
X341700Y391381D01*
X341557Y391666D01*
Y391952D01*
X341700Y392238D01*
X341843Y392381D01*
X342271Y392523D01*
X343557D02*
X342271D01*
X341843Y392666D01*
X341700Y392809D01*
X341557Y393095D01*
Y393523D01*
X341700Y393809D01*
X341843Y393952D01*
X342271Y394094D01*
X343557D01*
X336672Y391095D02*
X338529D01*
Y394094D01*
X336672D01*
X338529Y392523D02*
X337387D01*
X334459Y391095D02*
Y394094D01*
Y392523D02*
X334744Y392238D01*
X335030Y392095D01*
X335458D01*
X335744Y392238D01*
X336030Y392523D01*
X336173Y392952D01*
Y393237D01*
X336030Y393666D01*
X335744Y393952D01*
X335458Y394094D01*
X335030D01*
X334744Y393952D01*
X334459Y393666D01*
X331945Y392095D02*
Y394380D01*
X332088Y394809D01*
X332230Y394952D01*
X332516Y395094D01*
X332945D01*
X333230Y394952D01*
X331945Y392523D02*
X332230Y392238D01*
X332516Y392095D01*
X332945D01*
X333230Y392238D01*
X333516Y392523D01*
X333659Y392952D01*
Y393237D01*
X333516Y393666D01*
X333230Y393952D01*
X332945Y394094D01*
X332516D01*
X332230Y393952D01*
X331945Y393666D01*
X331145Y392952D02*
X329431D01*
Y392666D01*
X329574Y392381D01*
X329717Y392238D01*
X330002Y392095D01*
X330431D01*
X330717Y392238D01*
X331002Y392523D01*
X331145Y392952D01*
Y393237D01*
X331002Y393666D01*
X330717Y393952D01*
X330431Y394094D01*
X330002D01*
X329717Y393952D01*
X329431Y393666D01*
D38*
X0Y196850D02*
X433071D01*
X295276Y-31496D02*
X295276Y393701D01*
X196850Y-31496D02*
X196850Y393701D01*
X98425Y-31496D02*
X98425Y393701D01*
D57*
X409449Y205786D02*
Y202453D01*
X411115Y200787D01*
X412781Y202453D01*
Y205786D01*
X414447Y203287D02*
X417779D01*
X422778Y204120D02*
X420279D01*
X419446Y203287D01*
Y201621D01*
X420279Y200787D01*
X422778D01*
X424444Y204120D02*
Y201621D01*
X425277Y200787D01*
X427776D01*
Y204120D01*
X430275Y204953D02*
Y204120D01*
X429442D01*
X431109D01*
X430275D01*
Y201621D01*
X431109Y200787D01*
X299213Y-26498D02*
Y-29830D01*
X300879Y-31496D01*
X302545Y-29830D01*
Y-26498D01*
X304211Y-28997D02*
X307543D01*
X312542Y-28164D02*
X310042D01*
X309209Y-28997D01*
Y-30663D01*
X310042Y-31496D01*
X312542D01*
X314208Y-28164D02*
Y-30663D01*
X315041Y-31496D01*
X317540D01*
Y-28164D01*
X320039Y-27331D02*
Y-28164D01*
X319206D01*
X320872D01*
X320039D01*
Y-30663D01*
X320872Y-31496D01*
X200787Y-26498D02*
Y-29830D01*
X202453Y-31496D01*
X204120Y-29830D01*
Y-26498D01*
X205786Y-28997D02*
X209118D01*
X214116Y-28164D02*
X211617D01*
X210784Y-28997D01*
Y-30663D01*
X211617Y-31496D01*
X214116D01*
X215782Y-28164D02*
Y-30663D01*
X216616Y-31496D01*
X219115D01*
Y-28164D01*
X221614Y-27331D02*
Y-28164D01*
X220781D01*
X222447D01*
X221614D01*
Y-30663D01*
X222447Y-31496D01*
X102362Y-26498D02*
Y-29830D01*
X104028Y-31496D01*
X105694Y-29830D01*
Y-26498D01*
X107361Y-28997D02*
X110693D01*
X115691Y-28164D02*
X113192D01*
X112359Y-28997D01*
Y-30663D01*
X113192Y-31496D01*
X115691D01*
X117357Y-28164D02*
Y-30663D01*
X118190Y-31496D01*
X120690D01*
Y-28164D01*
X123189Y-27331D02*
Y-28164D01*
X122356D01*
X124022D01*
X123189D01*
Y-30663D01*
X124022Y-31496D01*
D58*
X34646Y194685D02*
X63779D01*
X133071D02*
X162205D01*
X231496D02*
X260630D01*
X329921D02*
X359055D01*
X34646Y391535D02*
X63779D01*
X133071D02*
X162205D01*
X231496D02*
X260630D01*
X329921D02*
X359055D01*
M02*
