G04*
G04 #@! TF.GenerationSoftware,Altium Limited,Altium Designer,18.1.6 (161)*
G04*
G04 Layer_Physical_Order=1*
G04 Layer_Color=255*
%FSLAX25Y25*%
%MOIN*%
G70*
G01*
G75*
%ADD10R,0.05500X0.05000*%
%ADD11R,0.05000X0.05500*%
%ADD12R,0.05800X0.01400*%
%ADD13R,0.04331X0.04724*%
%ADD14R,0.07874X0.05906*%
%ADD15R,0.07480X0.07480*%
%ADD16R,0.07087X0.07480*%
%ADD17R,0.01575X0.05315*%
%ADD18C,0.01400*%
%ADD19C,0.01500*%
%ADD20C,0.02000*%
%ADD21O,0.09000X0.06500*%
%ADD22R,0.09000X0.06500*%
%ADD23O,0.07500X0.06500*%
%ADD24R,0.07500X0.06500*%
%ADD25C,0.07000*%
%ADD26O,0.06500X0.07500*%
%ADD27C,0.02756*%
%ADD28C,0.03150*%
G36*
X392375Y198176D02*
X296601D01*
Y392375D01*
X392375D01*
Y198176D01*
D02*
G37*
G36*
X293950D02*
X198176D01*
Y392375D01*
X293950D01*
Y198176D01*
D02*
G37*
G36*
X195525D02*
X99751D01*
Y392375D01*
X195525D01*
Y198176D01*
D02*
G37*
G36*
X97100D02*
X1326D01*
Y392375D01*
X97100D01*
Y198176D01*
D02*
G37*
G36*
X392375Y1326D02*
X296601D01*
Y195525D01*
X392375D01*
Y1326D01*
D02*
G37*
G36*
X293950D02*
X198176D01*
Y195525D01*
X293950D01*
Y1326D01*
D02*
G37*
G36*
X195525D02*
X99751D01*
Y195525D01*
X195525D01*
Y1326D01*
D02*
G37*
G36*
X97100D02*
X1326D01*
Y195525D01*
X97100D01*
Y1326D01*
D02*
G37*
%LPC*%
G36*
X364580Y390367D02*
X355893D01*
Y381287D01*
X364580D01*
Y390367D01*
D02*
G37*
G36*
X333084D02*
X324397D01*
Y381287D01*
X333084D01*
Y390367D01*
D02*
G37*
G36*
X344672Y390367D02*
X343672Y390367D01*
X335224D01*
Y381287D01*
X343672D01*
X344304Y381287D01*
X345304Y381287D01*
X353753D01*
Y390367D01*
X345304D01*
X344672Y390367D01*
D02*
G37*
G36*
X378007Y382113D02*
X372076D01*
Y380531D01*
X367396D01*
X366791Y380411D01*
X366279Y380068D01*
X363541Y377331D01*
X363386Y377361D01*
X362459Y377177D01*
X361674Y376652D01*
X361149Y375867D01*
X360964Y374940D01*
X360995Y374785D01*
X354586Y368375D01*
X354480Y368301D01*
X354385Y368253D01*
X354315Y368232D01*
X354262Y368227D01*
X354209Y368232D01*
X354140Y368253D01*
X354044Y368301D01*
X353939Y368375D01*
X351393Y370920D01*
X351194Y371838D01*
X351194Y371838D01*
X351194Y371838D01*
Y373429D01*
X352194Y374053D01*
X352658Y373960D01*
X353507Y374130D01*
X354228Y374611D01*
X354709Y375331D01*
X354878Y376181D01*
X354709Y377031D01*
X354228Y377751D01*
X353507Y378233D01*
X352658Y378402D01*
X352194Y378309D01*
X351194Y378753D01*
Y378753D01*
X340342D01*
Y371838D01*
X348026D01*
Y370472D01*
X348146Y369868D01*
X348489Y369355D01*
X353145Y364699D01*
X353145Y364699D01*
X353145Y364699D01*
X365026Y352818D01*
Y349950D01*
X372126D01*
Y351727D01*
X374938D01*
Y349257D01*
X384038D01*
Y357357D01*
X374938D01*
Y354888D01*
X372126D01*
Y356550D01*
X365763D01*
X356821Y365493D01*
X356747Y365599D01*
X356699Y365694D01*
X356678Y365764D01*
X356673Y365816D01*
X356678Y365869D01*
X356699Y365939D01*
X356747Y366034D01*
X356821Y366140D01*
X363230Y372550D01*
X363386Y372519D01*
X364312Y372703D01*
X365098Y373228D01*
X365623Y374013D01*
X365807Y374940D01*
X365776Y375096D01*
X368051Y377370D01*
X372076D01*
Y375788D01*
X378007D01*
Y382113D01*
D02*
G37*
G36*
X383310Y387106D02*
X382383Y386921D01*
X381597Y386396D01*
X381072Y385611D01*
X380888Y384684D01*
X381072Y383758D01*
X381504Y383113D01*
X381344Y382548D01*
X381084Y382113D01*
X380344D01*
Y375788D01*
X386275D01*
Y382113D01*
X385535D01*
X385275Y382548D01*
X385116Y383113D01*
X385546Y383758D01*
X385731Y384684D01*
X385546Y385611D01*
X385022Y386396D01*
X384236Y386921D01*
X383310Y387106D01*
D02*
G37*
G36*
X306415Y386932D02*
X305489Y386748D01*
X304703Y386223D01*
X304178Y385437D01*
X303994Y384511D01*
X304178Y383584D01*
X304521Y383072D01*
X304170Y382179D01*
X304078Y382072D01*
X303450D01*
Y375747D01*
X309381D01*
Y382072D01*
X308753D01*
X308660Y382179D01*
X308310Y383072D01*
X308652Y383584D01*
X308837Y384511D01*
X308652Y385437D01*
X308127Y386223D01*
X307342Y386748D01*
X306415Y386932D01*
D02*
G37*
G36*
X336319Y378402D02*
X335469Y378233D01*
X334749Y377751D01*
X334267Y377031D01*
X334098Y376181D01*
X334267Y375331D01*
X334749Y374611D01*
X335469Y374130D01*
X336319Y373960D01*
X337169Y374130D01*
X337889Y374611D01*
X338370Y375331D01*
X338540Y376181D01*
X338370Y377031D01*
X337889Y377751D01*
X337169Y378233D01*
X336319Y378402D01*
D02*
G37*
G36*
X317648Y382072D02*
X311718D01*
Y375747D01*
X317648D01*
Y375747D01*
X318097Y375933D01*
X323840Y370190D01*
Y361764D01*
X323439Y361163D01*
X323254Y360236D01*
X323439Y359310D01*
X323474Y359257D01*
X320767Y356550D01*
X316626D01*
Y355142D01*
X314038D01*
Y357357D01*
X304938D01*
Y349257D01*
X314038D01*
Y351472D01*
X316626D01*
Y349950D01*
X323726D01*
Y354318D01*
X326973Y357566D01*
X327371Y358161D01*
X327419Y358401D01*
X336245D01*
Y356686D01*
X342845D01*
Y363786D01*
X336245D01*
Y362071D01*
X327511D01*
Y370950D01*
X327371Y371653D01*
X326973Y372248D01*
X319014Y380207D01*
X318419Y380605D01*
X317717Y380745D01*
X317648D01*
Y382072D01*
D02*
G37*
G36*
X351845Y363786D02*
X345245D01*
Y356686D01*
X349859D01*
X353043Y353503D01*
X352899Y352503D01*
X349969D01*
Y344998D01*
X353125D01*
Y343835D01*
X349991Y340700D01*
X345376D01*
Y333600D01*
X351976D01*
Y337913D01*
X352088Y338037D01*
X353214Y338177D01*
X366859Y324532D01*
X366859Y323386D01*
X363558Y320084D01*
X363215Y319572D01*
X363095Y318967D01*
Y310333D01*
X358721Y305959D01*
X355844D01*
X355697Y305929D01*
X352145D01*
Y302929D01*
Y300370D01*
Y297811D01*
Y294559D01*
X351145Y294144D01*
X350305Y294984D01*
Y307500D01*
X352076D01*
Y314600D01*
X350611D01*
Y316162D01*
X352076D01*
Y323262D01*
X350554D01*
X350471Y323678D01*
X350073Y324273D01*
X346866Y327480D01*
X346725Y328190D01*
X346200Y328975D01*
X345415Y329500D01*
X344488Y329684D01*
X343562Y329500D01*
X342776Y328975D01*
X342251Y328190D01*
X342110Y327480D01*
X338761Y324132D01*
X338364Y323536D01*
X338309Y323262D01*
X336759D01*
Y316162D01*
X338224D01*
Y314600D01*
X336759D01*
Y307500D01*
X338530D01*
Y294232D01*
X337461Y293163D01*
X317815D01*
X317230Y293047D01*
X316734Y292715D01*
X311332Y287314D01*
X310738Y287392D01*
X308238D01*
X307181Y287253D01*
X306196Y286845D01*
X305350Y286196D01*
X304700Y285350D01*
X304292Y284364D01*
X304153Y283307D01*
X304292Y282250D01*
X304700Y281265D01*
X305350Y280419D01*
X306196Y279769D01*
X307181Y279361D01*
X308238Y279222D01*
X310738D01*
X311795Y279361D01*
X312086Y279481D01*
X312652Y278634D01*
X311332Y277314D01*
X310738Y277392D01*
X308238D01*
X307181Y277253D01*
X306196Y276845D01*
X305350Y276196D01*
X304700Y275350D01*
X304292Y274364D01*
X304153Y273307D01*
X304292Y272250D01*
X304700Y271265D01*
X304922Y270976D01*
X300158Y266212D01*
X299816Y265699D01*
X299695Y265094D01*
Y243184D01*
X299816Y242580D01*
X300158Y242067D01*
X307888Y234336D01*
X307506Y233413D01*
X302976D01*
Y227088D01*
X302976D01*
X303521Y226088D01*
X303454Y225750D01*
X303639Y224824D01*
X304164Y224038D01*
X304949Y223513D01*
X305876Y223329D01*
X306802Y223513D01*
X307588Y224038D01*
X308113Y224824D01*
X308297Y225750D01*
X308230Y226088D01*
X308907Y227088D01*
X308907D01*
Y232011D01*
X309831Y232394D01*
X311244Y230981D01*
Y227088D01*
X317175D01*
Y233413D01*
X313282D01*
X302957Y243738D01*
X303035Y244359D01*
X304075Y244604D01*
X304230Y244372D01*
X305015Y243847D01*
X305942Y243663D01*
X306868Y243847D01*
X307654Y244372D01*
X308179Y245158D01*
X308363Y246084D01*
X308342Y246188D01*
X308907Y247188D01*
X308907D01*
Y253513D01*
X302976Y253513D01*
X302856Y254463D01*
Y264419D01*
X303425Y264882D01*
X304292Y264364D01*
X304153Y263307D01*
X304292Y262250D01*
X304700Y261265D01*
X305350Y260419D01*
X306196Y259769D01*
X307181Y259361D01*
X308238Y259222D01*
X310738D01*
X311268Y259292D01*
X312629Y257931D01*
Y253513D01*
X311244D01*
Y247188D01*
X317175D01*
X317346Y246259D01*
Y236854D01*
X317463Y236269D01*
X317794Y235773D01*
X335708Y217859D01*
X335642Y217699D01*
X335503Y216642D01*
Y215642D01*
X335642Y214584D01*
X336051Y213599D01*
X336700Y212753D01*
X337546Y212104D01*
X338531Y211696D01*
X339588Y211557D01*
X340646Y211696D01*
X341631Y212104D01*
X342477Y212753D01*
X343126Y213599D01*
X343534Y214584D01*
X343673Y215642D01*
Y216642D01*
X343534Y217699D01*
X343126Y218684D01*
X342477Y219530D01*
X341631Y220179D01*
X340646Y220587D01*
X339588Y220727D01*
X338531Y220587D01*
X337664Y220229D01*
X334872Y223021D01*
X335286Y224021D01*
X341742D01*
X346384Y219379D01*
X345850Y218684D01*
X345442Y217699D01*
X345303Y216642D01*
Y215642D01*
X345442Y214584D01*
X345850Y213599D01*
X346500Y212753D01*
X347346Y212104D01*
X348331Y211696D01*
X349388Y211557D01*
X350446Y211696D01*
X351431Y212104D01*
X352277Y212753D01*
X352926Y213599D01*
X353334Y214584D01*
X353473Y215642D01*
Y216642D01*
X353334Y217699D01*
X352926Y218684D01*
X352277Y219530D01*
X351431Y220179D01*
X350446Y220587D01*
X349388Y220727D01*
X349365Y220724D01*
X343457Y226632D01*
X342961Y226963D01*
X342376Y227080D01*
X334809D01*
X330028Y231861D01*
X330442Y232861D01*
X338595D01*
Y240367D01*
X335439D01*
Y242968D01*
X335318Y243572D01*
X334976Y244085D01*
X334666Y244395D01*
X334697Y244550D01*
X334513Y245477D01*
X333988Y246263D01*
X334309Y247250D01*
X359176D01*
X360726Y247800D01*
X362076Y248450D01*
X364126Y250300D01*
X364926Y251100D01*
X365476Y252050D01*
X366476Y254675D01*
Y258450D01*
X365626Y260100D01*
X364776Y261750D01*
X362476Y263779D01*
X359656Y264887D01*
Y269000D01*
X361376D01*
Y271021D01*
X362176D01*
X362761Y271137D01*
X363257Y271469D01*
X366101Y274313D01*
X366433Y274809D01*
X366549Y275395D01*
Y281206D01*
X366433Y281792D01*
X366101Y282288D01*
X363351Y285038D01*
X362855Y285370D01*
X362269Y285486D01*
X359544D01*
Y290134D01*
Y292664D01*
X368208D01*
X368315Y292643D01*
X368396Y292615D01*
X368444Y292587D01*
X368477Y292558D01*
X368507Y292518D01*
X368541Y292452D01*
X368574Y292345D01*
X368595Y292215D01*
Y255917D01*
X368716Y255312D01*
X369058Y254799D01*
X372776Y251081D01*
Y247188D01*
X378707D01*
Y253513D01*
X374815D01*
X371756Y256571D01*
Y292215D01*
X371777Y292345D01*
X371811Y292452D01*
X371844Y292518D01*
X371874Y292558D01*
X371907Y292586D01*
X371955Y292615D01*
X372036Y292643D01*
X372143Y292664D01*
X374317D01*
X374700Y291737D01*
X375350Y290891D01*
X376196Y290242D01*
X377181Y289834D01*
X378238Y289695D01*
X380738D01*
X381796Y289834D01*
X382781Y290242D01*
X383627Y290891D01*
X384276Y291737D01*
X384684Y292722D01*
X384823Y293779D01*
X384684Y294837D01*
X384615Y295004D01*
X385463Y295570D01*
X387595Y293438D01*
Y254256D01*
X386975Y253513D01*
X386595Y253513D01*
X381044D01*
Y247188D01*
X381044D01*
X381602Y246188D01*
X381588Y246116D01*
X381772Y245190D01*
X382297Y244404D01*
X383083Y243880D01*
X384010Y243695D01*
X384936Y243880D01*
X385722Y244404D01*
X386246Y245190D01*
X386392Y245921D01*
X386950Y246200D01*
X387595Y245670D01*
Y244739D01*
X376669Y233813D01*
X372776D01*
Y227488D01*
X378707D01*
Y231381D01*
X380120Y232794D01*
X381044Y232411D01*
Y227488D01*
X381044D01*
X381642Y226488D01*
X381588Y226217D01*
X381772Y225290D01*
X382297Y224504D01*
X383083Y223979D01*
X384010Y223795D01*
X384936Y223979D01*
X385722Y224504D01*
X386246Y225290D01*
X386431Y226217D01*
X386377Y226488D01*
X386975Y227488D01*
X386975D01*
Y233813D01*
X382446D01*
X382063Y234736D01*
X390293Y242967D01*
X390636Y243479D01*
X390756Y244084D01*
Y294092D01*
X390636Y294697D01*
X390293Y295210D01*
X384054Y301448D01*
X384276Y301737D01*
X384684Y302722D01*
X384823Y303780D01*
X384684Y304837D01*
X384276Y305822D01*
X383627Y306668D01*
X382781Y307317D01*
X381796Y307725D01*
X380738Y307864D01*
X378238D01*
X377181Y307725D01*
X376891Y307605D01*
X376325Y308453D01*
X377644Y309773D01*
X378238Y309695D01*
X380738D01*
X381796Y309834D01*
X382781Y310242D01*
X383627Y310891D01*
X384276Y311737D01*
X384684Y312722D01*
X384823Y313779D01*
X384684Y314837D01*
X384276Y315822D01*
X383627Y316668D01*
X382781Y317317D01*
X381796Y317725D01*
X380738Y317864D01*
X378238D01*
X377181Y317725D01*
X376891Y317605D01*
X376325Y318453D01*
X377644Y319773D01*
X378238Y319695D01*
X380738D01*
X381796Y319834D01*
X382781Y320242D01*
X383627Y320891D01*
X384276Y321737D01*
X384684Y322722D01*
X384823Y323780D01*
X384684Y324837D01*
X384276Y325822D01*
X383627Y326668D01*
X382781Y327317D01*
X381796Y327725D01*
X380738Y327865D01*
X378238D01*
X377181Y327725D01*
X377014Y327656D01*
X376448Y328504D01*
X377708Y329764D01*
X378238Y329695D01*
X380738D01*
X381796Y329834D01*
X382781Y330242D01*
X383627Y330891D01*
X384276Y331737D01*
X384684Y332722D01*
X384823Y333780D01*
X384684Y334837D01*
X384276Y335822D01*
X383627Y336668D01*
X382781Y337317D01*
X381796Y337725D01*
X380738Y337864D01*
X378238D01*
X377181Y337725D01*
X376196Y337317D01*
X375350Y336668D01*
X374700Y335822D01*
X374292Y334837D01*
X374153Y333780D01*
X374292Y332722D01*
X374700Y331737D01*
X374922Y331448D01*
X369991Y326517D01*
X369885Y326443D01*
X369790Y326396D01*
X369720Y326375D01*
X369667Y326369D01*
X369614Y326375D01*
X369545Y326396D01*
X369449Y326443D01*
X369344Y326517D01*
X355384Y340477D01*
X355384Y341623D01*
X355823Y342063D01*
X356166Y342576D01*
X356286Y343180D01*
Y344998D01*
X359442D01*
Y352503D01*
X356305D01*
Y354056D01*
X356185Y354661D01*
X355842Y355174D01*
X351845Y359171D01*
Y363786D01*
D02*
G37*
G36*
X314788Y337357D02*
X304188D01*
Y329257D01*
X311375D01*
X312652Y327980D01*
X312086Y327133D01*
X311795Y327253D01*
X310738Y327392D01*
X308238D01*
X307181Y327253D01*
X306196Y326845D01*
X305350Y326196D01*
X304700Y325350D01*
X304292Y324364D01*
X304153Y323307D01*
X304292Y322250D01*
X304700Y321265D01*
X305350Y320419D01*
X306196Y319769D01*
X307181Y319361D01*
X308238Y319222D01*
X310738D01*
X311795Y319361D01*
X312781Y319769D01*
X312788Y319775D01*
X317846Y314717D01*
Y308850D01*
X317927Y308446D01*
X317426Y308010D01*
X317102Y307856D01*
X314023Y310935D01*
X314276Y311265D01*
X314684Y312250D01*
X314823Y313307D01*
X314684Y314364D01*
X314276Y315350D01*
X313627Y316196D01*
X312781Y316845D01*
X311795Y317253D01*
X310738Y317392D01*
X308238D01*
X307181Y317253D01*
X306196Y316845D01*
X305350Y316196D01*
X304700Y315350D01*
X304292Y314364D01*
X304153Y313307D01*
X304292Y312250D01*
X304700Y311265D01*
X305350Y310419D01*
X306196Y309769D01*
X307181Y309361D01*
X308238Y309222D01*
X310738D01*
X311332Y309300D01*
X312652Y307980D01*
X312086Y307133D01*
X311795Y307253D01*
X310738Y307392D01*
X308238D01*
X307181Y307253D01*
X306196Y306845D01*
X305350Y306196D01*
X304700Y305350D01*
X304292Y304364D01*
X304153Y303307D01*
X304292Y302250D01*
X304700Y301265D01*
X305350Y300419D01*
X306196Y299769D01*
X307181Y299361D01*
X308238Y299222D01*
X310738D01*
X311795Y299361D01*
X312781Y299769D01*
X313467Y300296D01*
X318093Y295671D01*
X318589Y295339D01*
X319174Y295223D01*
X332844D01*
X332992Y295252D01*
X336544D01*
Y297811D01*
Y300370D01*
Y302929D01*
Y305929D01*
X332992D01*
X332844Y305959D01*
X329430D01*
X326405Y308984D01*
Y317920D01*
X326289Y318505D01*
X325957Y319001D01*
X314788Y330170D01*
Y337357D01*
D02*
G37*
G36*
X380738Y287864D02*
X378238D01*
X377181Y287725D01*
X376196Y287317D01*
X375350Y286668D01*
X374700Y285822D01*
X374292Y284837D01*
X374153Y283780D01*
X374292Y282722D01*
X374700Y281737D01*
X375350Y280891D01*
X376196Y280242D01*
X377181Y279834D01*
X378238Y279695D01*
X380738D01*
X381796Y279834D01*
X382781Y280242D01*
X383627Y280891D01*
X384276Y281737D01*
X384684Y282722D01*
X384823Y283780D01*
X384684Y284837D01*
X384276Y285822D01*
X383627Y286668D01*
X382781Y287317D01*
X381796Y287725D01*
X380738Y287864D01*
D02*
G37*
G36*
X384788Y267829D02*
X374188D01*
Y259730D01*
X384788D01*
Y267829D01*
D02*
G37*
G36*
X359488Y220727D02*
X358431Y220587D01*
X357446Y220179D01*
X356600Y219530D01*
X355950Y218684D01*
X355542Y217699D01*
X355403Y216642D01*
Y215642D01*
X355542Y214584D01*
X355950Y213599D01*
X356600Y212753D01*
X357446Y212104D01*
X358431Y211696D01*
X359488Y211557D01*
X360545Y211696D01*
X361531Y212104D01*
X362377Y212753D01*
X363026Y213599D01*
X363434Y214584D01*
X363573Y215642D01*
Y216642D01*
X363434Y217699D01*
X363026Y218684D01*
X362377Y219530D01*
X361531Y220179D01*
X360545Y220587D01*
X359488Y220727D01*
D02*
G37*
%LPD*%
G36*
X356383Y366877D02*
X356193Y366665D01*
X356044Y366453D01*
X355938Y366241D01*
X355874Y366029D01*
X355853Y365816D01*
X355874Y365604D01*
X355938Y365392D01*
X356044Y365180D01*
X356193Y364968D01*
X356383Y364756D01*
X356383Y364756D01*
X356383Y364756D01*
X354792Y364226D01*
X353732Y365286D01*
X353202Y367938D01*
X353202Y367938D01*
X353202Y367938D01*
X353414Y367747D01*
X353626Y367598D01*
X353838Y367492D01*
X354050Y367429D01*
X354262Y367407D01*
X354474Y367429D01*
X354686Y367492D01*
X354899Y367598D01*
X355111Y367747D01*
X355323Y367938D01*
D01*
X355323D01*
X356383Y366877D01*
D02*
G37*
G36*
X354506Y341899D02*
X354358Y341687D01*
X354251Y341475D01*
X354188Y341263D01*
X354167Y341050D01*
X354188Y340838D01*
X354251Y340626D01*
X354358Y340414D01*
X354506Y340202D01*
X354697Y339990D01*
X353636Y338929D01*
X353424Y339120D01*
X353212Y339268D01*
X353000Y339374D01*
X352788Y339438D01*
X352576Y339459D01*
X352363Y339438D01*
X352151Y339374D01*
X351939Y339268D01*
X351727Y339120D01*
X351515Y338929D01*
X352576Y341050D01*
X354697Y342111D01*
X354506Y341899D01*
D02*
G37*
G36*
X370198Y323428D02*
X367546Y322898D01*
X367737Y323110D01*
X367885Y323322D01*
X367991Y323534D01*
X368055Y323746D01*
X368076Y323959D01*
X368055Y324171D01*
X367991Y324383D01*
X367885Y324595D01*
X367737Y324807D01*
X367546Y325019D01*
X368607Y326080D01*
X368819Y325889D01*
X369031Y325741D01*
X369243Y325635D01*
X369455Y325571D01*
X369667Y325550D01*
X369880Y325571D01*
X370092Y325635D01*
X370304Y325741D01*
X370516Y325889D01*
X370728Y326080D01*
X370198Y323428D01*
D02*
G37*
G36*
X372326Y293493D02*
X372060Y293478D01*
X371822Y293433D01*
X371612Y293358D01*
X371430Y293253D01*
X371276Y293118D01*
X371150Y292953D01*
X371052Y292758D01*
X370982Y292533D01*
X370940Y292278D01*
X370926Y291993D01*
X369426D01*
X369412Y292278D01*
X369370Y292533D01*
X369300Y292758D01*
X369202Y292953D01*
X369076Y293118D01*
X368922Y293253D01*
X368740Y293358D01*
X368530Y293433D01*
X368292Y293478D01*
X368026Y293493D01*
X370176Y294893D01*
X372326Y293493D01*
D02*
G37*
G36*
X363490Y280573D02*
Y276028D01*
X362376Y274913D01*
X361376Y275327D01*
Y276100D01*
X354776D01*
Y269000D01*
X356495D01*
Y265350D01*
X341456D01*
Y269000D01*
X343176D01*
Y276100D01*
X343176D01*
X342828Y276940D01*
X346716Y280828D01*
X347586Y280389D01*
X347628Y280326D01*
X347454Y279450D01*
X347639Y278524D01*
X348164Y277738D01*
X348949Y277213D01*
X349876Y277029D01*
X350802Y277213D01*
X351588Y277738D01*
X352113Y278524D01*
X352297Y279450D01*
X353230Y279868D01*
X355844D01*
X355992Y279898D01*
X359544D01*
Y282427D01*
X361636D01*
X363490Y280573D01*
D02*
G37*
G36*
X338052Y279538D02*
X338837Y279013D01*
X339108Y278960D01*
X339437Y277874D01*
X338794Y277232D01*
X338463Y276736D01*
X338346Y276150D01*
Y276100D01*
X336576D01*
Y269000D01*
X338295D01*
Y265350D01*
X330976D01*
X329776Y265094D01*
X327367Y264280D01*
X325299Y262708D01*
X323805Y260984D01*
X323705Y260982D01*
X322805Y261312D01*
Y272517D01*
X330156Y279868D01*
X332844D01*
X332992Y279898D01*
X336544D01*
Y280136D01*
X337527Y280324D01*
X338052Y279538D01*
D02*
G37*
%LPC*%
G36*
X266154Y390367D02*
X257468D01*
Y381287D01*
X266154D01*
Y390367D01*
D02*
G37*
G36*
X234658D02*
X225972D01*
Y381287D01*
X234658D01*
Y390367D01*
D02*
G37*
G36*
X246247Y390367D02*
X245247Y390367D01*
X236798D01*
Y381287D01*
X245247D01*
X245879Y381287D01*
X246879Y381287D01*
X255328D01*
Y390367D01*
X246879D01*
X246247Y390367D01*
D02*
G37*
G36*
X279582Y382113D02*
X273651D01*
Y380531D01*
X268971D01*
X268366Y380411D01*
X267853Y380068D01*
X265116Y377331D01*
X264961Y377361D01*
X264034Y377177D01*
X263248Y376652D01*
X262724Y375867D01*
X262539Y374940D01*
X262570Y374785D01*
X256161Y368375D01*
X256055Y368301D01*
X255959Y368253D01*
X255890Y368232D01*
X255837Y368227D01*
X255784Y368232D01*
X255715Y368253D01*
X255619Y368301D01*
X255513Y368375D01*
X252968Y370920D01*
X252768Y371838D01*
X252768Y371838D01*
X252768Y371838D01*
Y373429D01*
X253768Y374053D01*
X254232Y373960D01*
X255082Y374130D01*
X255802Y374611D01*
X256284Y375331D01*
X256453Y376181D01*
X256284Y377031D01*
X255802Y377751D01*
X255082Y378233D01*
X254232Y378402D01*
X253768Y378309D01*
X252768Y378753D01*
Y378753D01*
X241916D01*
Y371838D01*
X249601D01*
Y370472D01*
X249721Y369868D01*
X250064Y369355D01*
X254719Y364699D01*
X254719Y364699D01*
X254719Y364699D01*
X266600Y352818D01*
Y349950D01*
X273700D01*
Y351727D01*
X276513D01*
Y349257D01*
X285613D01*
Y357357D01*
X276513D01*
Y354888D01*
X273700D01*
Y356550D01*
X267338D01*
X258396Y365493D01*
X258322Y365599D01*
X258274Y365694D01*
X258253Y365764D01*
X258248Y365816D01*
X258253Y365869D01*
X258274Y365939D01*
X258322Y366034D01*
X258396Y366140D01*
X264805Y372550D01*
X264961Y372519D01*
X265887Y372703D01*
X266673Y373228D01*
X267198Y374013D01*
X267382Y374940D01*
X267351Y375096D01*
X269625Y377370D01*
X273651D01*
Y375788D01*
X279582D01*
Y382113D01*
D02*
G37*
G36*
X284884Y387106D02*
X283958Y386921D01*
X283172Y386396D01*
X282647Y385611D01*
X282463Y384684D01*
X282647Y383758D01*
X283078Y383113D01*
X282919Y382548D01*
X282659Y382113D01*
X281919D01*
Y375788D01*
X287850D01*
Y382113D01*
X287110D01*
X286850Y382548D01*
X286690Y383113D01*
X287121Y383758D01*
X287306Y384684D01*
X287121Y385611D01*
X286596Y386396D01*
X285811Y386921D01*
X284884Y387106D01*
D02*
G37*
G36*
X207990Y386932D02*
X207064Y386748D01*
X206278Y386223D01*
X205753Y385437D01*
X205569Y384511D01*
X205753Y383584D01*
X206096Y383072D01*
X205745Y382179D01*
X205652Y382072D01*
X205025D01*
Y375747D01*
X210956D01*
Y382072D01*
X210328D01*
X210235Y382179D01*
X209885Y383072D01*
X210227Y383584D01*
X210412Y384511D01*
X210227Y385437D01*
X209702Y386223D01*
X208917Y386748D01*
X207990Y386932D01*
D02*
G37*
G36*
X237894Y378402D02*
X237044Y378233D01*
X236323Y377751D01*
X235842Y377031D01*
X235673Y376181D01*
X235842Y375331D01*
X236323Y374611D01*
X237044Y374130D01*
X237894Y373960D01*
X238743Y374130D01*
X239464Y374611D01*
X239945Y375331D01*
X240114Y376181D01*
X239945Y377031D01*
X239464Y377751D01*
X238743Y378233D01*
X237894Y378402D01*
D02*
G37*
G36*
X219223Y382072D02*
X213293D01*
Y375747D01*
X219223D01*
Y375747D01*
X219672Y375933D01*
X225415Y370190D01*
Y361764D01*
X225013Y361163D01*
X224829Y360236D01*
X225013Y359310D01*
X225048Y359257D01*
X222342Y356550D01*
X218200D01*
Y355142D01*
X215613D01*
Y357357D01*
X206513D01*
Y349257D01*
X215613D01*
Y351472D01*
X218200D01*
Y349950D01*
X225300D01*
Y354318D01*
X228548Y357566D01*
X228946Y358161D01*
X228994Y358401D01*
X237819D01*
Y356686D01*
X244419D01*
Y363786D01*
X237819D01*
Y362071D01*
X229086D01*
Y370950D01*
X228946Y371653D01*
X228548Y372248D01*
X220589Y380207D01*
X219994Y380605D01*
X219291Y380745D01*
X219223D01*
Y382072D01*
D02*
G37*
G36*
X253419Y363786D02*
X246819D01*
Y356686D01*
X251434D01*
X254617Y353503D01*
X254474Y352503D01*
X251543D01*
Y344998D01*
X254700D01*
Y343835D01*
X251565Y340700D01*
X246950D01*
Y333600D01*
X253550D01*
Y337913D01*
X253662Y338037D01*
X254789Y338177D01*
X268434Y324532D01*
X268434Y323386D01*
X265133Y320084D01*
X264790Y319572D01*
X264670Y318967D01*
Y310333D01*
X260296Y305959D01*
X257419D01*
X257272Y305929D01*
X253719D01*
Y302929D01*
Y300370D01*
Y297811D01*
Y294559D01*
X252719Y294144D01*
X251880Y294984D01*
Y307500D01*
X253650D01*
Y314600D01*
X252186D01*
Y316162D01*
X253650D01*
Y323262D01*
X252129D01*
X252046Y323678D01*
X251648Y324273D01*
X248441Y327480D01*
X248300Y328190D01*
X247775Y328975D01*
X246990Y329500D01*
X246063Y329684D01*
X245136Y329500D01*
X244351Y328975D01*
X243826Y328190D01*
X243685Y327480D01*
X240336Y324132D01*
X239938Y323536D01*
X239884Y323262D01*
X238334D01*
Y316162D01*
X239799D01*
Y314600D01*
X238334D01*
Y307500D01*
X240105D01*
Y294232D01*
X239036Y293163D01*
X219390D01*
X218805Y293047D01*
X218308Y292715D01*
X212907Y287314D01*
X212313Y287392D01*
X209813D01*
X208756Y287253D01*
X207770Y286845D01*
X206925Y286196D01*
X206275Y285350D01*
X205867Y284364D01*
X205728Y283307D01*
X205867Y282250D01*
X206275Y281265D01*
X206925Y280419D01*
X207770Y279769D01*
X208756Y279361D01*
X209813Y279222D01*
X212313D01*
X213370Y279361D01*
X213660Y279481D01*
X214227Y278634D01*
X212907Y277314D01*
X212313Y277392D01*
X209813D01*
X208756Y277253D01*
X207770Y276845D01*
X206925Y276196D01*
X206275Y275350D01*
X205867Y274364D01*
X205728Y273307D01*
X205867Y272250D01*
X206275Y271265D01*
X206497Y270976D01*
X201733Y266212D01*
X201390Y265699D01*
X201270Y265094D01*
Y243184D01*
X201390Y242580D01*
X201733Y242067D01*
X209463Y234336D01*
X209081Y233413D01*
X204551D01*
Y227088D01*
X204551D01*
X205096Y226088D01*
X205029Y225750D01*
X205213Y224824D01*
X205738Y224038D01*
X206524Y223513D01*
X207450Y223329D01*
X208377Y223513D01*
X209162Y224038D01*
X209687Y224824D01*
X209872Y225750D01*
X209805Y226088D01*
X210482Y227088D01*
X210482D01*
Y232011D01*
X211406Y232394D01*
X212819Y230981D01*
Y227088D01*
X218750D01*
Y233413D01*
X214857D01*
X204532Y243738D01*
X204610Y244359D01*
X205649Y244604D01*
X205804Y244372D01*
X206590Y243847D01*
X207517Y243663D01*
X208443Y243847D01*
X209229Y244372D01*
X209754Y245158D01*
X209938Y246084D01*
X209917Y246188D01*
X210482Y247188D01*
X210482D01*
Y253513D01*
X204551Y253513D01*
X204431Y254463D01*
Y264419D01*
X204999Y264882D01*
X205867Y264364D01*
X205728Y263307D01*
X205867Y262250D01*
X206275Y261265D01*
X206925Y260419D01*
X207770Y259769D01*
X208756Y259361D01*
X209813Y259222D01*
X212313D01*
X212843Y259292D01*
X214204Y257931D01*
Y253513D01*
X212819D01*
Y247188D01*
X218750D01*
X218921Y246259D01*
Y236854D01*
X219037Y236269D01*
X219369Y235773D01*
X237283Y217859D01*
X237217Y217699D01*
X237078Y216642D01*
Y215642D01*
X237217Y214584D01*
X237625Y213599D01*
X238275Y212753D01*
X239121Y212104D01*
X240106Y211696D01*
X241163Y211557D01*
X242220Y211696D01*
X243205Y212104D01*
X244052Y212753D01*
X244701Y213599D01*
X245109Y214584D01*
X245248Y215642D01*
Y216642D01*
X245109Y217699D01*
X244701Y218684D01*
X244052Y219530D01*
X243205Y220179D01*
X242220Y220587D01*
X241163Y220727D01*
X240106Y220587D01*
X239239Y220229D01*
X236447Y223021D01*
X236861Y224021D01*
X243317D01*
X247959Y219379D01*
X247425Y218684D01*
X247017Y217699D01*
X246878Y216642D01*
Y215642D01*
X247017Y214584D01*
X247425Y213599D01*
X248075Y212753D01*
X248920Y212104D01*
X249906Y211696D01*
X250963Y211557D01*
X252020Y211696D01*
X253006Y212104D01*
X253852Y212753D01*
X254501Y213599D01*
X254909Y214584D01*
X255048Y215642D01*
Y216642D01*
X254909Y217699D01*
X254501Y218684D01*
X253852Y219530D01*
X253006Y220179D01*
X252020Y220587D01*
X250963Y220727D01*
X250940Y220724D01*
X245032Y226632D01*
X244536Y226963D01*
X243950Y227080D01*
X236384D01*
X231602Y231861D01*
X232016Y232861D01*
X240170D01*
Y240367D01*
X237014D01*
Y242968D01*
X236893Y243572D01*
X236551Y244085D01*
X236241Y244395D01*
X236272Y244550D01*
X236087Y245477D01*
X235562Y246263D01*
X235884Y247250D01*
X260750D01*
X262300Y247800D01*
X263650Y248450D01*
X265700Y250300D01*
X266500Y251100D01*
X267050Y252050D01*
X268050Y254675D01*
Y258450D01*
X267200Y260100D01*
X266350Y261750D01*
X264050Y263779D01*
X261231Y264887D01*
Y269000D01*
X262950D01*
Y271021D01*
X263750D01*
X264336Y271137D01*
X264832Y271469D01*
X267676Y274313D01*
X268007Y274809D01*
X268124Y275395D01*
Y281206D01*
X268007Y281792D01*
X267676Y282288D01*
X264926Y285038D01*
X264429Y285370D01*
X263844Y285486D01*
X261119D01*
Y290134D01*
Y292664D01*
X269783D01*
X269890Y292643D01*
X269971Y292615D01*
X270019Y292587D01*
X270052Y292558D01*
X270082Y292518D01*
X270115Y292452D01*
X270149Y292345D01*
X270170Y292215D01*
Y255917D01*
X270290Y255312D01*
X270633Y254799D01*
X274351Y251081D01*
Y247188D01*
X280282D01*
Y253513D01*
X276389D01*
X273331Y256571D01*
Y292215D01*
X273352Y292345D01*
X273385Y292452D01*
X273419Y292518D01*
X273449Y292558D01*
X273482Y292586D01*
X273530Y292615D01*
X273611Y292643D01*
X273718Y292664D01*
X275892D01*
X276275Y291737D01*
X276924Y290891D01*
X277770Y290242D01*
X278756Y289834D01*
X279813Y289695D01*
X282313D01*
X283370Y289834D01*
X284355Y290242D01*
X285202Y290891D01*
X285851Y291737D01*
X286259Y292722D01*
X286398Y293779D01*
X286259Y294837D01*
X286190Y295004D01*
X287037Y295570D01*
X289170Y293438D01*
Y254256D01*
X288550Y253513D01*
X288170Y253513D01*
X282619D01*
Y247188D01*
X282619D01*
X283177Y246188D01*
X283163Y246116D01*
X283347Y245190D01*
X283872Y244404D01*
X284658Y243880D01*
X285584Y243695D01*
X286511Y243880D01*
X287296Y244404D01*
X287821Y245190D01*
X287967Y245921D01*
X288525Y246200D01*
X289170Y245670D01*
Y244739D01*
X278244Y233813D01*
X274351D01*
Y227488D01*
X280282D01*
Y231381D01*
X281695Y232794D01*
X282619Y232411D01*
Y227488D01*
X282619D01*
X283217Y226488D01*
X283163Y226217D01*
X283347Y225290D01*
X283872Y224504D01*
X284658Y223979D01*
X285584Y223795D01*
X286511Y223979D01*
X287296Y224504D01*
X287821Y225290D01*
X288006Y226217D01*
X287952Y226488D01*
X288550Y227488D01*
X288550D01*
Y233813D01*
X284020D01*
X283638Y234736D01*
X291868Y242967D01*
X292211Y243479D01*
X292331Y244084D01*
Y294092D01*
X292211Y294697D01*
X291868Y295210D01*
X285629Y301448D01*
X285851Y301737D01*
X286259Y302722D01*
X286398Y303780D01*
X286259Y304837D01*
X285851Y305822D01*
X285202Y306668D01*
X284355Y307317D01*
X283370Y307725D01*
X282313Y307864D01*
X279813D01*
X278756Y307725D01*
X278466Y307605D01*
X277899Y308453D01*
X279219Y309773D01*
X279813Y309695D01*
X282313D01*
X283370Y309834D01*
X284355Y310242D01*
X285202Y310891D01*
X285851Y311737D01*
X286259Y312722D01*
X286398Y313779D01*
X286259Y314837D01*
X285851Y315822D01*
X285202Y316668D01*
X284355Y317317D01*
X283370Y317725D01*
X282313Y317864D01*
X279813D01*
X278756Y317725D01*
X278466Y317605D01*
X277899Y318453D01*
X279219Y319773D01*
X279813Y319695D01*
X282313D01*
X283370Y319834D01*
X284355Y320242D01*
X285202Y320891D01*
X285851Y321737D01*
X286259Y322722D01*
X286398Y323780D01*
X286259Y324837D01*
X285851Y325822D01*
X285202Y326668D01*
X284355Y327317D01*
X283370Y327725D01*
X282313Y327865D01*
X279813D01*
X278756Y327725D01*
X278589Y327656D01*
X278022Y328504D01*
X279283Y329764D01*
X279813Y329695D01*
X282313D01*
X283370Y329834D01*
X284355Y330242D01*
X285202Y330891D01*
X285851Y331737D01*
X286259Y332722D01*
X286398Y333780D01*
X286259Y334837D01*
X285851Y335822D01*
X285202Y336668D01*
X284355Y337317D01*
X283370Y337725D01*
X282313Y337864D01*
X279813D01*
X278756Y337725D01*
X277770Y337317D01*
X276924Y336668D01*
X276275Y335822D01*
X275867Y334837D01*
X275728Y333780D01*
X275867Y332722D01*
X276275Y331737D01*
X276497Y331448D01*
X271566Y326517D01*
X271460Y326443D01*
X271365Y326396D01*
X271295Y326375D01*
X271242Y326369D01*
X271189Y326375D01*
X271120Y326396D01*
X271024Y326443D01*
X270918Y326517D01*
X256958Y340477D01*
X256958Y341623D01*
X257398Y342063D01*
X257740Y342576D01*
X257861Y343180D01*
Y344998D01*
X261017D01*
Y352503D01*
X257880D01*
Y354056D01*
X257759Y354661D01*
X257417Y355174D01*
X253419Y359171D01*
Y363786D01*
D02*
G37*
G36*
X216363Y337357D02*
X205763D01*
Y329257D01*
X212950D01*
X214227Y327980D01*
X213660Y327133D01*
X213370Y327253D01*
X212313Y327392D01*
X209813D01*
X208756Y327253D01*
X207770Y326845D01*
X206925Y326196D01*
X206275Y325350D01*
X205867Y324364D01*
X205728Y323307D01*
X205867Y322250D01*
X206275Y321265D01*
X206925Y320419D01*
X207770Y319769D01*
X208756Y319361D01*
X209813Y319222D01*
X212313D01*
X213370Y319361D01*
X214355Y319769D01*
X214363Y319775D01*
X219421Y314717D01*
Y308850D01*
X219501Y308446D01*
X219001Y308010D01*
X218677Y307856D01*
X215598Y310935D01*
X215851Y311265D01*
X216259Y312250D01*
X216398Y313307D01*
X216259Y314364D01*
X215851Y315350D01*
X215201Y316196D01*
X214355Y316845D01*
X213370Y317253D01*
X212313Y317392D01*
X209813D01*
X208756Y317253D01*
X207770Y316845D01*
X206925Y316196D01*
X206275Y315350D01*
X205867Y314364D01*
X205728Y313307D01*
X205867Y312250D01*
X206275Y311265D01*
X206925Y310419D01*
X207770Y309769D01*
X208756Y309361D01*
X209813Y309222D01*
X212313D01*
X212907Y309300D01*
X214227Y307980D01*
X213660Y307133D01*
X213370Y307253D01*
X212313Y307392D01*
X209813D01*
X208756Y307253D01*
X207770Y306845D01*
X206925Y306196D01*
X206275Y305350D01*
X205867Y304364D01*
X205728Y303307D01*
X205867Y302250D01*
X206275Y301265D01*
X206925Y300419D01*
X207770Y299769D01*
X208756Y299361D01*
X209813Y299222D01*
X212313D01*
X213370Y299361D01*
X214355Y299769D01*
X215042Y300296D01*
X219667Y295671D01*
X220163Y295339D01*
X220749Y295223D01*
X234419D01*
X234567Y295252D01*
X238119D01*
Y297811D01*
Y300370D01*
Y302929D01*
Y305929D01*
X234567D01*
X234419Y305959D01*
X231005D01*
X227980Y308984D01*
Y317920D01*
X227863Y318505D01*
X227532Y319001D01*
X216363Y330170D01*
Y337357D01*
D02*
G37*
G36*
X282313Y287864D02*
X279813D01*
X278756Y287725D01*
X277770Y287317D01*
X276924Y286668D01*
X276275Y285822D01*
X275867Y284837D01*
X275728Y283780D01*
X275867Y282722D01*
X276275Y281737D01*
X276924Y280891D01*
X277770Y280242D01*
X278756Y279834D01*
X279813Y279695D01*
X282313D01*
X283370Y279834D01*
X284355Y280242D01*
X285202Y280891D01*
X285851Y281737D01*
X286259Y282722D01*
X286398Y283780D01*
X286259Y284837D01*
X285851Y285822D01*
X285202Y286668D01*
X284355Y287317D01*
X283370Y287725D01*
X282313Y287864D01*
D02*
G37*
G36*
X286363Y267829D02*
X275763D01*
Y259730D01*
X286363D01*
Y267829D01*
D02*
G37*
G36*
X261063Y220727D02*
X260006Y220587D01*
X259020Y220179D01*
X258174Y219530D01*
X257525Y218684D01*
X257117Y217699D01*
X256978Y216642D01*
Y215642D01*
X257117Y214584D01*
X257525Y213599D01*
X258174Y212753D01*
X259020Y212104D01*
X260006Y211696D01*
X261063Y211557D01*
X262120Y211696D01*
X263106Y212104D01*
X263951Y212753D01*
X264601Y213599D01*
X265009Y214584D01*
X265148Y215642D01*
Y216642D01*
X265009Y217699D01*
X264601Y218684D01*
X263951Y219530D01*
X263106Y220179D01*
X262120Y220587D01*
X261063Y220727D01*
D02*
G37*
%LPD*%
G36*
X257958Y366877D02*
X257767Y366665D01*
X257619Y366453D01*
X257513Y366241D01*
X257449Y366029D01*
X257428Y365816D01*
X257449Y365604D01*
X257513Y365392D01*
X257619Y365180D01*
X257767Y364968D01*
X257958Y364756D01*
X257958Y364756D01*
X257958Y364756D01*
X256367Y364226D01*
X255307Y365286D01*
X254776Y367938D01*
X254776Y367938D01*
X254776Y367938D01*
X254989Y367747D01*
X255201Y367598D01*
X255413Y367492D01*
X255625Y367429D01*
X255837Y367407D01*
X256049Y367429D01*
X256261Y367492D01*
X256473Y367598D01*
X256685Y367747D01*
X256898Y367938D01*
D01*
X256898D01*
X257958Y366877D01*
D02*
G37*
G36*
X256081Y341899D02*
X255932Y341687D01*
X255826Y341475D01*
X255763Y341263D01*
X255741Y341050D01*
X255763Y340838D01*
X255826Y340626D01*
X255932Y340414D01*
X256081Y340202D01*
X256272Y339990D01*
X255211Y338929D01*
X254999Y339120D01*
X254787Y339268D01*
X254575Y339374D01*
X254363Y339438D01*
X254150Y339459D01*
X253938Y339438D01*
X253726Y339374D01*
X253514Y339268D01*
X253302Y339120D01*
X253090Y338929D01*
X254150Y341050D01*
X256272Y342111D01*
X256081Y341899D01*
D02*
G37*
G36*
X271773Y323428D02*
X269121Y322898D01*
X269312Y323110D01*
X269460Y323322D01*
X269566Y323534D01*
X269630Y323746D01*
X269651Y323959D01*
X269630Y324171D01*
X269566Y324383D01*
X269460Y324595D01*
X269312Y324807D01*
X269121Y325019D01*
X270181Y326080D01*
X270394Y325889D01*
X270606Y325741D01*
X270818Y325635D01*
X271030Y325571D01*
X271242Y325550D01*
X271454Y325571D01*
X271666Y325635D01*
X271879Y325741D01*
X272091Y325889D01*
X272303Y326080D01*
X271773Y323428D01*
D02*
G37*
G36*
X273900Y293493D02*
X273634Y293478D01*
X273396Y293433D01*
X273186Y293358D01*
X273004Y293253D01*
X272850Y293118D01*
X272724Y292953D01*
X272626Y292758D01*
X272556Y292533D01*
X272514Y292278D01*
X272500Y291993D01*
X271000D01*
X270986Y292278D01*
X270944Y292533D01*
X270874Y292758D01*
X270776Y292953D01*
X270650Y293118D01*
X270496Y293253D01*
X270314Y293358D01*
X270104Y293433D01*
X269866Y293478D01*
X269600Y293493D01*
X271750Y294893D01*
X273900Y293493D01*
D02*
G37*
G36*
X265065Y280573D02*
Y276028D01*
X263950Y274913D01*
X262950Y275327D01*
Y276100D01*
X256350D01*
Y269000D01*
X258070D01*
Y265350D01*
X243031D01*
Y269000D01*
X244750D01*
Y276100D01*
X244750D01*
X244403Y276940D01*
X248291Y280828D01*
X249160Y280389D01*
X249203Y280326D01*
X249029Y279450D01*
X249213Y278524D01*
X249738Y277738D01*
X250524Y277213D01*
X251450Y277029D01*
X252377Y277213D01*
X253163Y277738D01*
X253687Y278524D01*
X253872Y279450D01*
X254805Y279868D01*
X257419D01*
X257567Y279898D01*
X261119D01*
Y282427D01*
X263211D01*
X265065Y280573D01*
D02*
G37*
G36*
X239627Y279538D02*
X240412Y279013D01*
X240683Y278960D01*
X241012Y277874D01*
X240369Y277232D01*
X240037Y276736D01*
X239921Y276150D01*
Y276100D01*
X238150D01*
Y269000D01*
X239870D01*
Y265350D01*
X232550D01*
X231350Y265094D01*
X228942Y264280D01*
X226874Y262708D01*
X225380Y260984D01*
X225279Y260982D01*
X224380Y261312D01*
Y272517D01*
X231731Y279868D01*
X234419D01*
X234567Y279898D01*
X238119D01*
Y280136D01*
X239102Y280324D01*
X239627Y279538D01*
D02*
G37*
%LPC*%
G36*
X167729Y390367D02*
X159043D01*
Y381287D01*
X167729D01*
Y390367D01*
D02*
G37*
G36*
X136233D02*
X127547D01*
Y381287D01*
X136233D01*
Y390367D01*
D02*
G37*
G36*
X147822Y390367D02*
X146822Y390367D01*
X138373D01*
Y381287D01*
X146822D01*
X147453Y381287D01*
X148453Y381287D01*
X156902D01*
Y390367D01*
X148453D01*
X147822Y390367D01*
D02*
G37*
G36*
X181157Y382113D02*
X175226D01*
Y380531D01*
X170546D01*
X169941Y380411D01*
X169428Y380068D01*
X166691Y377331D01*
X166535Y377361D01*
X165609Y377177D01*
X164823Y376652D01*
X164298Y375867D01*
X164114Y374940D01*
X164145Y374785D01*
X157736Y368375D01*
X157630Y368301D01*
X157534Y368253D01*
X157465Y368232D01*
X157412Y368227D01*
X157359Y368232D01*
X157289Y368253D01*
X157194Y368301D01*
X157088Y368375D01*
X154543Y370920D01*
X154343Y371838D01*
X154343Y371838D01*
X154343Y371838D01*
Y373429D01*
X155343Y374053D01*
X155807Y373960D01*
X156657Y374130D01*
X157377Y374611D01*
X157859Y375331D01*
X158028Y376181D01*
X157859Y377031D01*
X157377Y377751D01*
X156657Y378233D01*
X155807Y378402D01*
X155343Y378309D01*
X154343Y378753D01*
Y378753D01*
X143491D01*
Y371838D01*
X151175D01*
Y370472D01*
X151296Y369868D01*
X151638Y369355D01*
X156294Y364699D01*
X156294Y364699D01*
X156294Y364699D01*
X168175Y352818D01*
Y349950D01*
X175275D01*
Y351727D01*
X178088D01*
Y349257D01*
X187188D01*
Y357357D01*
X178088D01*
Y354888D01*
X175275D01*
Y356550D01*
X168913D01*
X159970Y365493D01*
X159896Y365599D01*
X159849Y365694D01*
X159828Y365764D01*
X159822Y365816D01*
X159828Y365869D01*
X159849Y365939D01*
X159896Y366034D01*
X159970Y366140D01*
X166380Y372550D01*
X166535Y372519D01*
X167462Y372703D01*
X168248Y373228D01*
X168772Y374013D01*
X168957Y374940D01*
X168926Y375096D01*
X171200Y377370D01*
X175226D01*
Y375788D01*
X181157D01*
Y382113D01*
D02*
G37*
G36*
X186459Y387106D02*
X185532Y386921D01*
X184747Y386396D01*
X184222Y385611D01*
X184038Y384684D01*
X184222Y383758D01*
X184653Y383113D01*
X184493Y382548D01*
X184233Y382113D01*
X183494D01*
Y375788D01*
X189424D01*
Y382113D01*
X188685D01*
X188425Y382548D01*
X188265Y383113D01*
X188696Y383758D01*
X188880Y384684D01*
X188696Y385611D01*
X188171Y386396D01*
X187386Y386921D01*
X186459Y387106D01*
D02*
G37*
G36*
X109565Y386932D02*
X108638Y386748D01*
X107853Y386223D01*
X107328Y385437D01*
X107144Y384511D01*
X107328Y383584D01*
X107670Y383072D01*
X107320Y382179D01*
X107227Y382072D01*
X106600D01*
Y375747D01*
X112530D01*
Y382072D01*
X111903D01*
X111810Y382179D01*
X111460Y383072D01*
X111802Y383584D01*
X111986Y384511D01*
X111802Y385437D01*
X111277Y386223D01*
X110492Y386748D01*
X109565Y386932D01*
D02*
G37*
G36*
X139469Y378402D02*
X138619Y378233D01*
X137898Y377751D01*
X137417Y377031D01*
X137248Y376181D01*
X137417Y375331D01*
X137898Y374611D01*
X138619Y374130D01*
X139469Y373960D01*
X140318Y374130D01*
X141039Y374611D01*
X141520Y375331D01*
X141689Y376181D01*
X141520Y377031D01*
X141039Y377751D01*
X140318Y378233D01*
X139469Y378402D01*
D02*
G37*
G36*
X120798Y382072D02*
X114867D01*
Y375747D01*
X120798D01*
Y375747D01*
X121247Y375933D01*
X126990Y370190D01*
Y361764D01*
X126588Y361163D01*
X126404Y360236D01*
X126588Y359310D01*
X126623Y359257D01*
X123916Y356550D01*
X119775D01*
Y355142D01*
X117188D01*
Y357357D01*
X108088D01*
Y349257D01*
X117188D01*
Y351472D01*
X119775D01*
Y349950D01*
X126875D01*
Y354318D01*
X130123Y357566D01*
X130521Y358161D01*
X130568Y358401D01*
X139394D01*
Y356686D01*
X145994D01*
Y363786D01*
X139394D01*
Y362071D01*
X130660D01*
Y370950D01*
X130521Y371653D01*
X130123Y372248D01*
X122164Y380207D01*
X121569Y380605D01*
X120866Y380745D01*
X120798D01*
Y382072D01*
D02*
G37*
G36*
X154994Y363786D02*
X148394D01*
Y356686D01*
X153009D01*
X156192Y353503D01*
X156049Y352503D01*
X153118D01*
Y344998D01*
X156275D01*
Y343835D01*
X153140Y340700D01*
X148525D01*
Y333600D01*
X155125D01*
Y337913D01*
X155237Y338037D01*
X156364Y338177D01*
X170009Y324532D01*
X170009Y323386D01*
X166708Y320084D01*
X166365Y319572D01*
X166245Y318967D01*
Y310333D01*
X161870Y305959D01*
X158994D01*
X158846Y305929D01*
X155294D01*
Y302929D01*
Y300370D01*
Y297811D01*
Y294559D01*
X154294Y294144D01*
X153455Y294984D01*
Y307500D01*
X155225D01*
Y314600D01*
X153761D01*
Y316162D01*
X155225D01*
Y323262D01*
X153703D01*
X153621Y323678D01*
X153223Y324273D01*
X150016Y327480D01*
X149875Y328190D01*
X149350Y328975D01*
X148564Y329500D01*
X147638Y329684D01*
X146711Y329500D01*
X145926Y328975D01*
X145401Y328190D01*
X145260Y327480D01*
X141911Y324132D01*
X141513Y323536D01*
X141458Y323262D01*
X139909D01*
Y316162D01*
X141373D01*
Y314600D01*
X139909D01*
Y307500D01*
X141679D01*
Y294232D01*
X140611Y293163D01*
X120965D01*
X120379Y293047D01*
X119883Y292715D01*
X114482Y287314D01*
X113888Y287392D01*
X111388D01*
X110330Y287253D01*
X109345Y286845D01*
X108499Y286196D01*
X107850Y285350D01*
X107442Y284364D01*
X107303Y283307D01*
X107442Y282250D01*
X107850Y281265D01*
X108499Y280419D01*
X109345Y279769D01*
X110330Y279361D01*
X111388Y279222D01*
X113888D01*
X114945Y279361D01*
X115235Y279481D01*
X115802Y278634D01*
X114482Y277314D01*
X113888Y277392D01*
X111388D01*
X110330Y277253D01*
X109345Y276845D01*
X108499Y276196D01*
X107850Y275350D01*
X107442Y274364D01*
X107303Y273307D01*
X107442Y272250D01*
X107850Y271265D01*
X108072Y270976D01*
X103308Y266212D01*
X102965Y265699D01*
X102845Y265094D01*
Y243184D01*
X102965Y242580D01*
X103308Y242067D01*
X111038Y234336D01*
X110655Y233413D01*
X106126D01*
Y227088D01*
X106126D01*
X106671Y226088D01*
X106604Y225750D01*
X106788Y224824D01*
X107313Y224038D01*
X108099Y223513D01*
X109025Y223329D01*
X109952Y223513D01*
X110737Y224038D01*
X111262Y224824D01*
X111446Y225750D01*
X111379Y226088D01*
X112057Y227088D01*
X112057D01*
Y232011D01*
X112981Y232394D01*
X114394Y230981D01*
Y227088D01*
X120324D01*
Y233413D01*
X116432D01*
X106106Y243738D01*
X106185Y244359D01*
X107224Y244604D01*
X107379Y244372D01*
X108165Y243847D01*
X109091Y243663D01*
X110018Y243847D01*
X110803Y244372D01*
X111328Y245158D01*
X111513Y246084D01*
X111492Y246188D01*
X112057Y247188D01*
X112057D01*
Y253513D01*
X106126Y253513D01*
X106006Y254463D01*
Y264419D01*
X106574Y264882D01*
X107442Y264364D01*
X107303Y263307D01*
X107442Y262250D01*
X107850Y261265D01*
X108499Y260419D01*
X109345Y259769D01*
X110330Y259361D01*
X111388Y259222D01*
X113888D01*
X114418Y259292D01*
X115779Y257931D01*
Y253513D01*
X114394D01*
Y247188D01*
X120324D01*
X120496Y246259D01*
Y236854D01*
X120612Y236269D01*
X120944Y235773D01*
X138858Y217859D01*
X138792Y217699D01*
X138653Y216642D01*
Y215642D01*
X138792Y214584D01*
X139200Y213599D01*
X139849Y212753D01*
X140695Y212104D01*
X141681Y211696D01*
X142738Y211557D01*
X143795Y211696D01*
X144780Y212104D01*
X145626Y212753D01*
X146275Y213599D01*
X146684Y214584D01*
X146823Y215642D01*
Y216642D01*
X146684Y217699D01*
X146275Y218684D01*
X145626Y219530D01*
X144780Y220179D01*
X143795Y220587D01*
X142738Y220727D01*
X141681Y220587D01*
X140814Y220229D01*
X138021Y223021D01*
X138436Y224021D01*
X144892D01*
X149533Y219379D01*
X149000Y218684D01*
X148592Y217699D01*
X148453Y216642D01*
Y215642D01*
X148592Y214584D01*
X149000Y213599D01*
X149649Y212753D01*
X150495Y212104D01*
X151480Y211696D01*
X152538Y211557D01*
X153595Y211696D01*
X154580Y212104D01*
X155426Y212753D01*
X156076Y213599D01*
X156484Y214584D01*
X156623Y215642D01*
Y216642D01*
X156484Y217699D01*
X156076Y218684D01*
X155426Y219530D01*
X154580Y220179D01*
X153595Y220587D01*
X152538Y220727D01*
X152515Y220724D01*
X146607Y226632D01*
X146110Y226963D01*
X145525Y227080D01*
X137959D01*
X133177Y231861D01*
X133591Y232861D01*
X141745D01*
Y240367D01*
X138588D01*
Y242968D01*
X138468Y243572D01*
X138125Y244085D01*
X137816Y244395D01*
X137847Y244550D01*
X137662Y245477D01*
X137137Y246263D01*
X137459Y247250D01*
X162325D01*
X163875Y247800D01*
X165225Y248450D01*
X167275Y250300D01*
X168075Y251100D01*
X168625Y252050D01*
X169625Y254675D01*
Y258450D01*
X168775Y260100D01*
X167925Y261750D01*
X165625Y263779D01*
X162806Y264887D01*
Y269000D01*
X164525D01*
Y271021D01*
X165325D01*
X165910Y271137D01*
X166407Y271469D01*
X169251Y274313D01*
X169582Y274809D01*
X169699Y275395D01*
Y281206D01*
X169582Y281792D01*
X169251Y282288D01*
X166500Y285038D01*
X166004Y285370D01*
X165419Y285486D01*
X162694D01*
Y290134D01*
Y292664D01*
X171358D01*
X171465Y292643D01*
X171545Y292615D01*
X171594Y292587D01*
X171626Y292558D01*
X171657Y292518D01*
X171690Y292452D01*
X171724Y292345D01*
X171745Y292215D01*
Y255917D01*
X171865Y255312D01*
X172208Y254799D01*
X175926Y251081D01*
Y247188D01*
X181857D01*
Y253513D01*
X177964D01*
X174906Y256571D01*
Y292215D01*
X174927Y292345D01*
X174960Y292452D01*
X174994Y292518D01*
X175024Y292558D01*
X175056Y292586D01*
X175105Y292615D01*
X175185Y292643D01*
X175292Y292664D01*
X177466D01*
X177850Y291737D01*
X178499Y290891D01*
X179345Y290242D01*
X180331Y289834D01*
X181388Y289695D01*
X183888D01*
X184945Y289834D01*
X185930Y290242D01*
X186776Y290891D01*
X187425Y291737D01*
X187834Y292722D01*
X187973Y293779D01*
X187834Y294837D01*
X187764Y295004D01*
X188612Y295570D01*
X190745Y293438D01*
Y254256D01*
X190124Y253513D01*
X189745Y253513D01*
X184194D01*
Y247188D01*
X184194D01*
X184752Y246188D01*
X184738Y246116D01*
X184922Y245190D01*
X185447Y244404D01*
X186232Y243880D01*
X187159Y243695D01*
X188086Y243880D01*
X188871Y244404D01*
X189396Y245190D01*
X189542Y245921D01*
X190100Y246200D01*
X190745Y245670D01*
Y244739D01*
X179819Y233813D01*
X175926D01*
Y227488D01*
X181857D01*
Y231381D01*
X183270Y232794D01*
X184194Y232411D01*
Y227488D01*
X184194D01*
X184792Y226488D01*
X184738Y226217D01*
X184922Y225290D01*
X185447Y224504D01*
X186232Y223979D01*
X187159Y223795D01*
X188086Y223979D01*
X188871Y224504D01*
X189396Y225290D01*
X189580Y226217D01*
X189526Y226488D01*
X190124Y227488D01*
X190124D01*
Y233813D01*
X185595D01*
X185212Y234736D01*
X193443Y242967D01*
X193785Y243479D01*
X193906Y244084D01*
Y294092D01*
X193785Y294697D01*
X193443Y295210D01*
X187204Y301448D01*
X187425Y301737D01*
X187834Y302722D01*
X187973Y303780D01*
X187834Y304837D01*
X187425Y305822D01*
X186776Y306668D01*
X185930Y307317D01*
X184945Y307725D01*
X183888Y307864D01*
X181388D01*
X180331Y307725D01*
X180041Y307605D01*
X179474Y308453D01*
X180794Y309773D01*
X181388Y309695D01*
X183888D01*
X184945Y309834D01*
X185930Y310242D01*
X186776Y310891D01*
X187425Y311737D01*
X187834Y312722D01*
X187973Y313779D01*
X187834Y314837D01*
X187425Y315822D01*
X186776Y316668D01*
X185930Y317317D01*
X184945Y317725D01*
X183888Y317864D01*
X181388D01*
X180331Y317725D01*
X180041Y317605D01*
X179474Y318453D01*
X180794Y319773D01*
X181388Y319695D01*
X183888D01*
X184945Y319834D01*
X185930Y320242D01*
X186776Y320891D01*
X187425Y321737D01*
X187834Y322722D01*
X187973Y323780D01*
X187834Y324837D01*
X187425Y325822D01*
X186776Y326668D01*
X185930Y327317D01*
X184945Y327725D01*
X183888Y327865D01*
X181388D01*
X180331Y327725D01*
X180164Y327656D01*
X179597Y328504D01*
X180858Y329764D01*
X181388Y329695D01*
X183888D01*
X184945Y329834D01*
X185930Y330242D01*
X186776Y330891D01*
X187425Y331737D01*
X187834Y332722D01*
X187973Y333780D01*
X187834Y334837D01*
X187425Y335822D01*
X186776Y336668D01*
X185930Y337317D01*
X184945Y337725D01*
X183888Y337864D01*
X181388D01*
X180331Y337725D01*
X179345Y337317D01*
X178499Y336668D01*
X177850Y335822D01*
X177442Y334837D01*
X177303Y333780D01*
X177442Y332722D01*
X177850Y331737D01*
X178072Y331448D01*
X173141Y326517D01*
X173035Y326443D01*
X172939Y326396D01*
X172870Y326375D01*
X172817Y326369D01*
X172764Y326375D01*
X172695Y326396D01*
X172599Y326443D01*
X172493Y326517D01*
X158533Y340477D01*
X158533Y341623D01*
X158973Y342063D01*
X159315Y342576D01*
X159435Y343180D01*
Y344998D01*
X162592D01*
Y352503D01*
X159454D01*
Y354056D01*
X159334Y354661D01*
X158992Y355174D01*
X154994Y359171D01*
Y363786D01*
D02*
G37*
G36*
X117938Y337357D02*
X107338D01*
Y329257D01*
X114525D01*
X115802Y327980D01*
X115235Y327133D01*
X114945Y327253D01*
X113888Y327392D01*
X111388D01*
X110330Y327253D01*
X109345Y326845D01*
X108499Y326196D01*
X107850Y325350D01*
X107442Y324364D01*
X107303Y323307D01*
X107442Y322250D01*
X107850Y321265D01*
X108499Y320419D01*
X109345Y319769D01*
X110330Y319361D01*
X111388Y319222D01*
X113888D01*
X114945Y319361D01*
X115930Y319769D01*
X115938Y319775D01*
X120996Y314717D01*
Y308850D01*
X121076Y308446D01*
X120576Y308010D01*
X120252Y307856D01*
X117173Y310935D01*
X117426Y311265D01*
X117834Y312250D01*
X117973Y313307D01*
X117834Y314364D01*
X117426Y315350D01*
X116776Y316196D01*
X115930Y316845D01*
X114945Y317253D01*
X113888Y317392D01*
X111388D01*
X110330Y317253D01*
X109345Y316845D01*
X108499Y316196D01*
X107850Y315350D01*
X107442Y314364D01*
X107303Y313307D01*
X107442Y312250D01*
X107850Y311265D01*
X108499Y310419D01*
X109345Y309769D01*
X110330Y309361D01*
X111388Y309222D01*
X113888D01*
X114482Y309300D01*
X115802Y307980D01*
X115235Y307133D01*
X114945Y307253D01*
X113888Y307392D01*
X111388D01*
X110330Y307253D01*
X109345Y306845D01*
X108499Y306196D01*
X107850Y305350D01*
X107442Y304364D01*
X107303Y303307D01*
X107442Y302250D01*
X107850Y301265D01*
X108499Y300419D01*
X109345Y299769D01*
X110330Y299361D01*
X111388Y299222D01*
X113888D01*
X114945Y299361D01*
X115930Y299769D01*
X116617Y300296D01*
X121242Y295671D01*
X121738Y295339D01*
X122324Y295223D01*
X135994D01*
X136142Y295252D01*
X139694D01*
Y297811D01*
Y300370D01*
Y302929D01*
Y305929D01*
X136142D01*
X135994Y305959D01*
X132580D01*
X129555Y308984D01*
Y317920D01*
X129438Y318505D01*
X129107Y319001D01*
X117938Y330170D01*
Y337357D01*
D02*
G37*
G36*
X183888Y287864D02*
X181388D01*
X180331Y287725D01*
X179345Y287317D01*
X178499Y286668D01*
X177850Y285822D01*
X177442Y284837D01*
X177303Y283780D01*
X177442Y282722D01*
X177850Y281737D01*
X178499Y280891D01*
X179345Y280242D01*
X180331Y279834D01*
X181388Y279695D01*
X183888D01*
X184945Y279834D01*
X185930Y280242D01*
X186776Y280891D01*
X187425Y281737D01*
X187834Y282722D01*
X187973Y283780D01*
X187834Y284837D01*
X187425Y285822D01*
X186776Y286668D01*
X185930Y287317D01*
X184945Y287725D01*
X183888Y287864D01*
D02*
G37*
G36*
X187938Y267829D02*
X177338D01*
Y259730D01*
X187938D01*
Y267829D01*
D02*
G37*
G36*
X162638Y220727D02*
X161581Y220587D01*
X160595Y220179D01*
X159749Y219530D01*
X159100Y218684D01*
X158692Y217699D01*
X158553Y216642D01*
Y215642D01*
X158692Y214584D01*
X159100Y213599D01*
X159749Y212753D01*
X160595Y212104D01*
X161581Y211696D01*
X162638Y211557D01*
X163695Y211696D01*
X164680Y212104D01*
X165526Y212753D01*
X166175Y213599D01*
X166584Y214584D01*
X166723Y215642D01*
Y216642D01*
X166584Y217699D01*
X166175Y218684D01*
X165526Y219530D01*
X164680Y220179D01*
X163695Y220587D01*
X162638Y220727D01*
D02*
G37*
%LPD*%
G36*
X159533Y366877D02*
X159342Y366665D01*
X159194Y366453D01*
X159088Y366241D01*
X159024Y366029D01*
X159003Y365816D01*
X159024Y365604D01*
X159088Y365392D01*
X159194Y365180D01*
X159342Y364968D01*
X159533Y364756D01*
X159533Y364756D01*
X159533Y364756D01*
X157942Y364226D01*
X156881Y365286D01*
X156351Y367938D01*
X156351Y367938D01*
X156351Y367938D01*
X156563Y367747D01*
X156775Y367598D01*
X156988Y367492D01*
X157200Y367429D01*
X157412Y367407D01*
X157624Y367429D01*
X157836Y367492D01*
X158048Y367598D01*
X158260Y367747D01*
X158473Y367938D01*
D01*
X158473D01*
X159533Y366877D01*
D02*
G37*
G36*
X157656Y341899D02*
X157507Y341687D01*
X157401Y341475D01*
X157337Y341263D01*
X157316Y341050D01*
X157337Y340838D01*
X157401Y340626D01*
X157507Y340414D01*
X157656Y340202D01*
X157846Y339990D01*
X156786Y338929D01*
X156574Y339120D01*
X156362Y339268D01*
X156149Y339374D01*
X155937Y339438D01*
X155725Y339459D01*
X155513Y339438D01*
X155301Y339374D01*
X155089Y339268D01*
X154877Y339120D01*
X154665Y338929D01*
X155725Y341050D01*
X157846Y342111D01*
X157656Y341899D01*
D02*
G37*
G36*
X173347Y323428D02*
X170696Y322898D01*
X170887Y323110D01*
X171035Y323322D01*
X171141Y323534D01*
X171205Y323746D01*
X171226Y323959D01*
X171205Y324171D01*
X171141Y324383D01*
X171035Y324595D01*
X170887Y324807D01*
X170696Y325019D01*
X171756Y326080D01*
X171968Y325889D01*
X172180Y325741D01*
X172393Y325635D01*
X172605Y325571D01*
X172817Y325550D01*
X173029Y325571D01*
X173241Y325635D01*
X173453Y325741D01*
X173665Y325889D01*
X173878Y326080D01*
X173347Y323428D01*
D02*
G37*
G36*
X175475Y293493D02*
X175209Y293478D01*
X174971Y293433D01*
X174761Y293358D01*
X174579Y293253D01*
X174425Y293118D01*
X174299Y292953D01*
X174201Y292758D01*
X174131Y292533D01*
X174089Y292278D01*
X174075Y291993D01*
X172575D01*
X172561Y292278D01*
X172519Y292533D01*
X172449Y292758D01*
X172351Y292953D01*
X172225Y293118D01*
X172071Y293253D01*
X171889Y293358D01*
X171679Y293433D01*
X171441Y293478D01*
X171175Y293493D01*
X173325Y294893D01*
X175475Y293493D01*
D02*
G37*
G36*
X166640Y280573D02*
Y276028D01*
X165525Y274913D01*
X164525Y275327D01*
Y276100D01*
X157925D01*
Y269000D01*
X159645D01*
Y265350D01*
X144606D01*
Y269000D01*
X146325D01*
Y276100D01*
X146325D01*
X145977Y276940D01*
X149866Y280828D01*
X150735Y280389D01*
X150778Y280326D01*
X150604Y279450D01*
X150788Y278524D01*
X151313Y277738D01*
X152099Y277213D01*
X153025Y277029D01*
X153952Y277213D01*
X154737Y277738D01*
X155262Y278524D01*
X155447Y279450D01*
X156380Y279868D01*
X158994D01*
X159142Y279898D01*
X162694D01*
Y282427D01*
X164785D01*
X166640Y280573D01*
D02*
G37*
G36*
X141201Y279538D02*
X141987Y279013D01*
X142257Y278960D01*
X142586Y277874D01*
X141944Y277232D01*
X141612Y276736D01*
X141496Y276150D01*
Y276100D01*
X139725D01*
Y269000D01*
X141445D01*
Y265350D01*
X134125D01*
X132925Y265094D01*
X130517Y264280D01*
X128449Y262708D01*
X126955Y260984D01*
X126854Y260982D01*
X125955Y261312D01*
Y272517D01*
X133306Y279868D01*
X135994D01*
X136142Y279898D01*
X139694D01*
Y280136D01*
X140676Y280324D01*
X141201Y279538D01*
D02*
G37*
%LPC*%
G36*
X69304Y390367D02*
X60617D01*
Y381287D01*
X69304D01*
Y390367D01*
D02*
G37*
G36*
X37808D02*
X29121D01*
Y381287D01*
X37808D01*
Y390367D01*
D02*
G37*
G36*
X49397Y390367D02*
X48397Y390367D01*
X39948D01*
Y381287D01*
X48397D01*
X49028Y381287D01*
X50028Y381287D01*
X58477D01*
Y390367D01*
X50028D01*
X49397Y390367D01*
D02*
G37*
G36*
X82731Y382113D02*
X76801D01*
Y380531D01*
X72120D01*
X71516Y380411D01*
X71003Y380068D01*
X68266Y377331D01*
X68110Y377361D01*
X67184Y377177D01*
X66398Y376652D01*
X65873Y375867D01*
X65689Y374940D01*
X65720Y374785D01*
X59310Y368375D01*
X59205Y368301D01*
X59109Y368253D01*
X59039Y368232D01*
X58987Y368227D01*
X58934Y368232D01*
X58864Y368253D01*
X58769Y368301D01*
X58663Y368375D01*
X56118Y370920D01*
X55918Y371838D01*
X55918Y371838D01*
X55918Y371838D01*
Y373429D01*
X56918Y374053D01*
X57382Y373960D01*
X58232Y374130D01*
X58952Y374611D01*
X59434Y375331D01*
X59602Y376181D01*
X59434Y377031D01*
X58952Y377751D01*
X58232Y378233D01*
X57382Y378402D01*
X56918Y378309D01*
X55918Y378753D01*
Y378753D01*
X45066D01*
Y371838D01*
X52750D01*
Y370472D01*
X52871Y369868D01*
X53213Y369355D01*
X57869Y364699D01*
X57869Y364699D01*
X57869Y364699D01*
X69750Y352818D01*
Y349950D01*
X76850D01*
Y351727D01*
X79663D01*
Y349257D01*
X88763D01*
Y357357D01*
X79663D01*
Y354888D01*
X76850D01*
Y356550D01*
X70488D01*
X61545Y365493D01*
X61471Y365599D01*
X61423Y365694D01*
X61403Y365764D01*
X61397Y365816D01*
X61403Y365869D01*
X61423Y365939D01*
X61471Y366034D01*
X61545Y366140D01*
X67955Y372550D01*
X68110Y372519D01*
X69037Y372703D01*
X69822Y373228D01*
X70347Y374013D01*
X70532Y374940D01*
X70501Y375096D01*
X72775Y377370D01*
X76801D01*
Y375788D01*
X82731D01*
Y382113D01*
D02*
G37*
G36*
X88034Y387106D02*
X87107Y386921D01*
X86322Y386396D01*
X85797Y385611D01*
X85612Y384684D01*
X85797Y383758D01*
X86228Y383113D01*
X86068Y382548D01*
X85808Y382113D01*
X85069D01*
Y375788D01*
X90999D01*
Y382113D01*
X90260D01*
X90000Y382548D01*
X89840Y383113D01*
X90271Y383758D01*
X90455Y384684D01*
X90271Y385611D01*
X89746Y386396D01*
X88960Y386921D01*
X88034Y387106D01*
D02*
G37*
G36*
X11140Y386932D02*
X10213Y386748D01*
X9428Y386223D01*
X8903Y385437D01*
X8718Y384511D01*
X8903Y383584D01*
X9245Y383072D01*
X8895Y382179D01*
X8802Y382072D01*
X8174D01*
Y375747D01*
X14105D01*
Y382072D01*
X13477D01*
X13385Y382179D01*
X13034Y383072D01*
X13377Y383584D01*
X13561Y384511D01*
X13377Y385437D01*
X12852Y386223D01*
X12066Y386748D01*
X11140Y386932D01*
D02*
G37*
G36*
X41043Y378402D02*
X40194Y378233D01*
X39473Y377751D01*
X38992Y377031D01*
X38823Y376181D01*
X38992Y375331D01*
X39473Y374611D01*
X40194Y374130D01*
X41043Y373960D01*
X41893Y374130D01*
X42614Y374611D01*
X43095Y375331D01*
X43264Y376181D01*
X43095Y377031D01*
X42614Y377751D01*
X41893Y378233D01*
X41043Y378402D01*
D02*
G37*
G36*
X22373Y382072D02*
X16442D01*
Y375747D01*
X22373D01*
Y375747D01*
X22822Y375933D01*
X28565Y370190D01*
Y361764D01*
X28163Y361163D01*
X27979Y360236D01*
X28163Y359310D01*
X28198Y359257D01*
X25491Y356550D01*
X21350D01*
Y355142D01*
X18763D01*
Y357357D01*
X9663D01*
Y349257D01*
X18763D01*
Y351472D01*
X21350D01*
Y349950D01*
X28450D01*
Y354318D01*
X31698Y357566D01*
X32096Y358161D01*
X32143Y358401D01*
X40969D01*
Y356686D01*
X47569D01*
Y363786D01*
X40969D01*
Y362071D01*
X32235D01*
Y370950D01*
X32096Y371653D01*
X31698Y372248D01*
X23739Y380207D01*
X23143Y380605D01*
X22441Y380745D01*
X22373D01*
Y382072D01*
D02*
G37*
G36*
X56569Y363786D02*
X49969D01*
Y356686D01*
X54584D01*
X57767Y353503D01*
X57623Y352503D01*
X54693D01*
Y344998D01*
X57850D01*
Y343835D01*
X54715Y340700D01*
X50100D01*
Y333600D01*
X56700D01*
Y337913D01*
X56812Y338037D01*
X57938Y338177D01*
X71584Y324532D01*
X71584Y323386D01*
X68283Y320084D01*
X67940Y319572D01*
X67820Y318967D01*
Y310333D01*
X63445Y305959D01*
X60569D01*
X60421Y305929D01*
X56869D01*
Y302929D01*
Y300370D01*
Y297811D01*
Y294559D01*
X55869Y294144D01*
X55029Y294984D01*
Y307500D01*
X56800D01*
Y314600D01*
X55335D01*
Y316162D01*
X56800D01*
Y323262D01*
X55278D01*
X55196Y323678D01*
X54798Y324273D01*
X51591Y327480D01*
X51450Y328190D01*
X50925Y328975D01*
X50139Y329500D01*
X49213Y329684D01*
X48286Y329500D01*
X47501Y328975D01*
X46976Y328190D01*
X46834Y327480D01*
X43486Y324132D01*
X43088Y323536D01*
X43033Y323262D01*
X41484D01*
Y316162D01*
X42948D01*
Y314600D01*
X41484D01*
Y307500D01*
X43254D01*
Y294232D01*
X42186Y293163D01*
X22539D01*
X21954Y293047D01*
X21458Y292715D01*
X16057Y287314D01*
X15463Y287392D01*
X12963D01*
X11905Y287253D01*
X10920Y286845D01*
X10074Y286196D01*
X9425Y285350D01*
X9017Y284364D01*
X8878Y283307D01*
X9017Y282250D01*
X9425Y281265D01*
X10074Y280419D01*
X10920Y279769D01*
X11905Y279361D01*
X12963Y279222D01*
X15463D01*
X16520Y279361D01*
X16810Y279481D01*
X17376Y278634D01*
X16057Y277314D01*
X15463Y277392D01*
X12963D01*
X11905Y277253D01*
X10920Y276845D01*
X10074Y276196D01*
X9425Y275350D01*
X9017Y274364D01*
X8878Y273307D01*
X9017Y272250D01*
X9425Y271265D01*
X9646Y270976D01*
X4882Y266212D01*
X4540Y265699D01*
X4420Y265094D01*
Y243184D01*
X4540Y242580D01*
X4882Y242067D01*
X12613Y234336D01*
X12230Y233413D01*
X7701D01*
Y227088D01*
X7701D01*
X8246Y226088D01*
X8179Y225750D01*
X8363Y224824D01*
X8888Y224038D01*
X9673Y223513D01*
X10600Y223329D01*
X11527Y223513D01*
X12312Y224038D01*
X12837Y224824D01*
X13021Y225750D01*
X12954Y226088D01*
X13632Y227088D01*
X13632D01*
Y232011D01*
X14555Y232394D01*
X15969Y230981D01*
Y227088D01*
X21899D01*
Y233413D01*
X18007D01*
X7681Y243738D01*
X7760Y244359D01*
X8799Y244604D01*
X8954Y244372D01*
X9740Y243847D01*
X10666Y243663D01*
X11593Y243847D01*
X12378Y244372D01*
X12903Y245158D01*
X13088Y246084D01*
X13067Y246188D01*
X13632Y247188D01*
X13632D01*
Y253513D01*
X7701Y253513D01*
X7580Y254463D01*
Y264419D01*
X8149Y264882D01*
X9017Y264364D01*
X8878Y263307D01*
X9017Y262250D01*
X9425Y261265D01*
X10074Y260419D01*
X10920Y259769D01*
X11905Y259361D01*
X12963Y259222D01*
X15463D01*
X15993Y259292D01*
X17354Y257931D01*
Y253513D01*
X15969D01*
Y247188D01*
X21899D01*
X22071Y246259D01*
Y236854D01*
X22187Y236269D01*
X22519Y235773D01*
X40433Y217859D01*
X40367Y217699D01*
X40228Y216642D01*
Y215642D01*
X40367Y214584D01*
X40775Y213599D01*
X41424Y212753D01*
X42270Y212104D01*
X43255Y211696D01*
X44313Y211557D01*
X45370Y211696D01*
X46355Y212104D01*
X47201Y212753D01*
X47850Y213599D01*
X48258Y214584D01*
X48398Y215642D01*
Y216642D01*
X48258Y217699D01*
X47850Y218684D01*
X47201Y219530D01*
X46355Y220179D01*
X45370Y220587D01*
X44313Y220727D01*
X43255Y220587D01*
X42389Y220229D01*
X39596Y223021D01*
X40010Y224021D01*
X46466D01*
X51108Y219379D01*
X50575Y218684D01*
X50167Y217699D01*
X50028Y216642D01*
Y215642D01*
X50167Y214584D01*
X50575Y213599D01*
X51224Y212753D01*
X52070Y212104D01*
X53055Y211696D01*
X54113Y211557D01*
X55170Y211696D01*
X56155Y212104D01*
X57001Y212753D01*
X57650Y213599D01*
X58058Y214584D01*
X58198Y215642D01*
Y216642D01*
X58058Y217699D01*
X57650Y218684D01*
X57001Y219530D01*
X56155Y220179D01*
X55170Y220587D01*
X54113Y220727D01*
X54090Y220724D01*
X48181Y226632D01*
X47685Y226963D01*
X47100Y227080D01*
X39533D01*
X34752Y231861D01*
X35166Y232861D01*
X43320D01*
Y240367D01*
X40163D01*
Y242968D01*
X40043Y243572D01*
X39700Y244085D01*
X39390Y244395D01*
X39421Y244550D01*
X39237Y245477D01*
X38712Y246263D01*
X39034Y247250D01*
X63900D01*
X65450Y247800D01*
X66800Y248450D01*
X68850Y250300D01*
X69650Y251100D01*
X70200Y252050D01*
X71200Y254675D01*
Y258450D01*
X70350Y260100D01*
X69500Y261750D01*
X67200Y263779D01*
X64380Y264887D01*
Y269000D01*
X66100D01*
Y271021D01*
X66900D01*
X67485Y271137D01*
X67981Y271469D01*
X70825Y274313D01*
X71157Y274809D01*
X71273Y275395D01*
Y281206D01*
X71157Y281792D01*
X70825Y282288D01*
X68075Y285038D01*
X67579Y285370D01*
X66994Y285486D01*
X64269D01*
Y290134D01*
Y292664D01*
X72933D01*
X73040Y292643D01*
X73120Y292615D01*
X73169Y292587D01*
X73201Y292558D01*
X73231Y292518D01*
X73265Y292452D01*
X73298Y292345D01*
X73320Y292215D01*
Y255917D01*
X73440Y255312D01*
X73782Y254799D01*
X77501Y251081D01*
Y247188D01*
X83432D01*
Y253513D01*
X79539D01*
X76480Y256571D01*
Y292215D01*
X76502Y292345D01*
X76535Y292452D01*
X76569Y292518D01*
X76599Y292558D01*
X76631Y292586D01*
X76680Y292615D01*
X76760Y292643D01*
X76867Y292664D01*
X79041D01*
X79425Y291737D01*
X80074Y290891D01*
X80920Y290242D01*
X81905Y289834D01*
X82963Y289695D01*
X85463D01*
X86520Y289834D01*
X87505Y290242D01*
X88351Y290891D01*
X89000Y291737D01*
X89408Y292722D01*
X89548Y293779D01*
X89408Y294837D01*
X89339Y295004D01*
X90187Y295570D01*
X92320Y293438D01*
Y254256D01*
X91699Y253513D01*
X91320Y253513D01*
X85769D01*
Y247188D01*
X85769D01*
X86327Y246188D01*
X86313Y246116D01*
X86497Y245190D01*
X87022Y244404D01*
X87807Y243880D01*
X88734Y243695D01*
X89661Y243880D01*
X90446Y244404D01*
X90971Y245190D01*
X91116Y245921D01*
X91675Y246200D01*
X92320Y245670D01*
Y244739D01*
X81393Y233813D01*
X77501D01*
Y227488D01*
X83432D01*
Y231381D01*
X84845Y232794D01*
X85769Y232411D01*
Y227488D01*
X85769D01*
X86367Y226488D01*
X86313Y226217D01*
X86497Y225290D01*
X87022Y224504D01*
X87807Y223979D01*
X88734Y223795D01*
X89661Y223979D01*
X90446Y224504D01*
X90971Y225290D01*
X91155Y226217D01*
X91101Y226488D01*
X91699Y227488D01*
X91699D01*
Y233813D01*
X87170D01*
X86787Y234736D01*
X95017Y242967D01*
X95360Y243479D01*
X95480Y244084D01*
Y294092D01*
X95360Y294697D01*
X95017Y295210D01*
X88779Y301448D01*
X89000Y301737D01*
X89408Y302722D01*
X89548Y303780D01*
X89408Y304837D01*
X89000Y305822D01*
X88351Y306668D01*
X87505Y307317D01*
X86520Y307725D01*
X85463Y307864D01*
X82963D01*
X81905Y307725D01*
X81615Y307605D01*
X81049Y308453D01*
X82369Y309773D01*
X82963Y309695D01*
X85463D01*
X86520Y309834D01*
X87505Y310242D01*
X88351Y310891D01*
X89000Y311737D01*
X89408Y312722D01*
X89548Y313779D01*
X89408Y314837D01*
X89000Y315822D01*
X88351Y316668D01*
X87505Y317317D01*
X86520Y317725D01*
X85463Y317864D01*
X82963D01*
X81905Y317725D01*
X81615Y317605D01*
X81049Y318453D01*
X82369Y319773D01*
X82963Y319695D01*
X85463D01*
X86520Y319834D01*
X87505Y320242D01*
X88351Y320891D01*
X89000Y321737D01*
X89408Y322722D01*
X89548Y323780D01*
X89408Y324837D01*
X89000Y325822D01*
X88351Y326668D01*
X87505Y327317D01*
X86520Y327725D01*
X85463Y327865D01*
X82963D01*
X81905Y327725D01*
X81738Y327656D01*
X81172Y328504D01*
X82432Y329764D01*
X82963Y329695D01*
X85463D01*
X86520Y329834D01*
X87505Y330242D01*
X88351Y330891D01*
X89000Y331737D01*
X89408Y332722D01*
X89548Y333780D01*
X89408Y334837D01*
X89000Y335822D01*
X88351Y336668D01*
X87505Y337317D01*
X86520Y337725D01*
X85463Y337864D01*
X82963D01*
X81905Y337725D01*
X80920Y337317D01*
X80074Y336668D01*
X79425Y335822D01*
X79017Y334837D01*
X78878Y333780D01*
X79017Y332722D01*
X79425Y331737D01*
X79646Y331448D01*
X74715Y326517D01*
X74610Y326443D01*
X74514Y326396D01*
X74445Y326375D01*
X74392Y326369D01*
X74339Y326375D01*
X74269Y326396D01*
X74174Y326443D01*
X74068Y326517D01*
X60108Y340477D01*
X60108Y341623D01*
X60547Y342063D01*
X60890Y342576D01*
X61010Y343180D01*
Y344998D01*
X64167D01*
Y352503D01*
X61029D01*
Y354056D01*
X60909Y354661D01*
X60566Y355174D01*
X56569Y359171D01*
Y363786D01*
D02*
G37*
G36*
X19513Y337357D02*
X8913D01*
Y329257D01*
X16100D01*
X17376Y327980D01*
X16810Y327133D01*
X16520Y327253D01*
X15463Y327392D01*
X12963D01*
X11905Y327253D01*
X10920Y326845D01*
X10074Y326196D01*
X9425Y325350D01*
X9017Y324364D01*
X8878Y323307D01*
X9017Y322250D01*
X9425Y321265D01*
X10074Y320419D01*
X10920Y319769D01*
X11905Y319361D01*
X12963Y319222D01*
X15463D01*
X16520Y319361D01*
X17505Y319769D01*
X17512Y319775D01*
X22571Y314717D01*
Y308850D01*
X22651Y308446D01*
X22151Y308010D01*
X21826Y307856D01*
X18747Y310935D01*
X19000Y311265D01*
X19408Y312250D01*
X19548Y313307D01*
X19408Y314364D01*
X19000Y315350D01*
X18351Y316196D01*
X17505Y316845D01*
X16520Y317253D01*
X15463Y317392D01*
X12963D01*
X11905Y317253D01*
X10920Y316845D01*
X10074Y316196D01*
X9425Y315350D01*
X9017Y314364D01*
X8878Y313307D01*
X9017Y312250D01*
X9425Y311265D01*
X10074Y310419D01*
X10920Y309769D01*
X11905Y309361D01*
X12963Y309222D01*
X15463D01*
X16057Y309300D01*
X17376Y307980D01*
X16810Y307133D01*
X16520Y307253D01*
X15463Y307392D01*
X12963D01*
X11905Y307253D01*
X10920Y306845D01*
X10074Y306196D01*
X9425Y305350D01*
X9017Y304364D01*
X8878Y303307D01*
X9017Y302250D01*
X9425Y301265D01*
X10074Y300419D01*
X10920Y299769D01*
X11905Y299361D01*
X12963Y299222D01*
X15463D01*
X16520Y299361D01*
X17505Y299769D01*
X18191Y300296D01*
X22817Y295671D01*
X23313Y295339D01*
X23898Y295223D01*
X37569D01*
X37717Y295252D01*
X41269D01*
Y297811D01*
Y300370D01*
Y302929D01*
Y305929D01*
X37717D01*
X37569Y305959D01*
X34155D01*
X31129Y308984D01*
Y317920D01*
X31013Y318505D01*
X30681Y319001D01*
X19513Y330170D01*
Y337357D01*
D02*
G37*
G36*
X85463Y287864D02*
X82963D01*
X81905Y287725D01*
X80920Y287317D01*
X80074Y286668D01*
X79425Y285822D01*
X79017Y284837D01*
X78878Y283780D01*
X79017Y282722D01*
X79425Y281737D01*
X80074Y280891D01*
X80920Y280242D01*
X81905Y279834D01*
X82963Y279695D01*
X85463D01*
X86520Y279834D01*
X87505Y280242D01*
X88351Y280891D01*
X89000Y281737D01*
X89408Y282722D01*
X89548Y283780D01*
X89408Y284837D01*
X89000Y285822D01*
X88351Y286668D01*
X87505Y287317D01*
X86520Y287725D01*
X85463Y287864D01*
D02*
G37*
G36*
X89513Y267829D02*
X78913D01*
Y259730D01*
X89513D01*
Y267829D01*
D02*
G37*
G36*
X64213Y220727D02*
X63155Y220587D01*
X62170Y220179D01*
X61324Y219530D01*
X60675Y218684D01*
X60267Y217699D01*
X60128Y216642D01*
Y215642D01*
X60267Y214584D01*
X60675Y213599D01*
X61324Y212753D01*
X62170Y212104D01*
X63155Y211696D01*
X64213Y211557D01*
X65270Y211696D01*
X66255Y212104D01*
X67101Y212753D01*
X67750Y213599D01*
X68158Y214584D01*
X68298Y215642D01*
Y216642D01*
X68158Y217699D01*
X67750Y218684D01*
X67101Y219530D01*
X66255Y220179D01*
X65270Y220587D01*
X64213Y220727D01*
D02*
G37*
%LPD*%
G36*
X61108Y366877D02*
X60917Y366665D01*
X60769Y366453D01*
X60663Y366241D01*
X60599Y366029D01*
X60578Y365816D01*
X60599Y365604D01*
X60663Y365392D01*
X60769Y365180D01*
X60917Y364968D01*
X61108Y364756D01*
X61108Y364756D01*
X61108Y364756D01*
X59517Y364226D01*
X58456Y365286D01*
X57926Y367938D01*
X57926Y367938D01*
X57926Y367938D01*
X58138Y367747D01*
X58350Y367598D01*
X58562Y367492D01*
X58775Y367429D01*
X58987Y367407D01*
X59199Y367429D01*
X59411Y367492D01*
X59623Y367598D01*
X59835Y367747D01*
X60047Y367938D01*
D01*
X60047D01*
X61108Y366877D01*
D02*
G37*
G36*
X59230Y341899D02*
X59082Y341687D01*
X58976Y341475D01*
X58912Y341263D01*
X58891Y341050D01*
X58912Y340838D01*
X58976Y340626D01*
X59082Y340414D01*
X59230Y340202D01*
X59421Y339990D01*
X58361Y338929D01*
X58148Y339120D01*
X57936Y339268D01*
X57724Y339374D01*
X57512Y339438D01*
X57300Y339459D01*
X57088Y339438D01*
X56876Y339374D01*
X56664Y339268D01*
X56451Y339120D01*
X56239Y338929D01*
X57300Y341050D01*
X59421Y342111D01*
X59230Y341899D01*
D02*
G37*
G36*
X74922Y323428D02*
X72270Y322898D01*
X72461Y323110D01*
X72610Y323322D01*
X72716Y323534D01*
X72780Y323746D01*
X72801Y323959D01*
X72780Y324171D01*
X72716Y324383D01*
X72610Y324595D01*
X72461Y324807D01*
X72270Y325019D01*
X73331Y326080D01*
X73543Y325889D01*
X73755Y325741D01*
X73967Y325635D01*
X74180Y325571D01*
X74392Y325550D01*
X74604Y325571D01*
X74816Y325635D01*
X75028Y325741D01*
X75240Y325889D01*
X75452Y326080D01*
X74922Y323428D01*
D02*
G37*
G36*
X77050Y293493D02*
X76784Y293478D01*
X76546Y293433D01*
X76336Y293358D01*
X76154Y293253D01*
X76000Y293118D01*
X75874Y292953D01*
X75776Y292758D01*
X75706Y292533D01*
X75664Y292278D01*
X75650Y291993D01*
X74150D01*
X74136Y292278D01*
X74094Y292533D01*
X74024Y292758D01*
X73926Y292953D01*
X73800Y293118D01*
X73646Y293253D01*
X73464Y293358D01*
X73254Y293433D01*
X73016Y293478D01*
X72750Y293493D01*
X74900Y294893D01*
X77050Y293493D01*
D02*
G37*
G36*
X68215Y280573D02*
Y276028D01*
X67100Y274913D01*
X66100Y275327D01*
Y276100D01*
X59500D01*
Y269000D01*
X61220D01*
Y265350D01*
X46180D01*
Y269000D01*
X47900D01*
Y276100D01*
X47900D01*
X47552Y276940D01*
X51441Y280828D01*
X52310Y280389D01*
X52353Y280326D01*
X52179Y279450D01*
X52363Y278524D01*
X52888Y277738D01*
X53673Y277213D01*
X54600Y277029D01*
X55527Y277213D01*
X56312Y277738D01*
X56837Y278524D01*
X57021Y279450D01*
X57954Y279868D01*
X60569D01*
X60717Y279898D01*
X64269D01*
Y282427D01*
X66360D01*
X68215Y280573D01*
D02*
G37*
G36*
X42776Y279538D02*
X43562Y279013D01*
X43832Y278960D01*
X44161Y277874D01*
X43519Y277232D01*
X43187Y276736D01*
X43071Y276150D01*
Y276100D01*
X41300D01*
Y269000D01*
X43020D01*
Y265350D01*
X35700D01*
X34500Y265094D01*
X32091Y264280D01*
X30023Y262708D01*
X28529Y260984D01*
X28429Y260982D01*
X27529Y261312D01*
Y272517D01*
X34881Y279868D01*
X37569D01*
X37717Y279898D01*
X41269D01*
Y280136D01*
X42251Y280324D01*
X42776Y279538D01*
D02*
G37*
%LPC*%
G36*
X364580Y193517D02*
X355893D01*
Y184436D01*
X364580D01*
Y193517D01*
D02*
G37*
G36*
X333084D02*
X324397D01*
Y184436D01*
X333084D01*
Y193517D01*
D02*
G37*
G36*
X344672Y193517D02*
X343672Y193517D01*
X335224D01*
Y184436D01*
X343672D01*
X344304Y184436D01*
X345304Y184436D01*
X353753D01*
Y193517D01*
X345304D01*
X344672Y193517D01*
D02*
G37*
G36*
X378007Y185262D02*
X372076D01*
Y183680D01*
X367396D01*
X366791Y183560D01*
X366279Y183218D01*
X363541Y180480D01*
X363386Y180511D01*
X362459Y180327D01*
X361674Y179802D01*
X361149Y179016D01*
X360964Y178090D01*
X360995Y177934D01*
X354586Y171525D01*
X354480Y171451D01*
X354385Y171403D01*
X354315Y171382D01*
X354262Y171377D01*
X354209Y171382D01*
X354140Y171403D01*
X354044Y171451D01*
X353939Y171525D01*
X351393Y174070D01*
X351194Y174987D01*
X351194Y174987D01*
X351194Y174987D01*
Y176578D01*
X352194Y177202D01*
X352658Y177110D01*
X353507Y177279D01*
X354228Y177761D01*
X354709Y178481D01*
X354878Y179331D01*
X354709Y180181D01*
X354228Y180901D01*
X353507Y181382D01*
X352658Y181551D01*
X352194Y181459D01*
X351194Y181902D01*
Y181902D01*
X340342D01*
Y174987D01*
X348026D01*
Y173622D01*
X348146Y173017D01*
X348489Y172504D01*
X353145Y167849D01*
X353145Y167849D01*
X353145Y167849D01*
X365026Y155968D01*
Y153100D01*
X372126D01*
Y154876D01*
X374938D01*
Y152407D01*
X384038D01*
Y160507D01*
X374938D01*
Y158037D01*
X372126D01*
Y159700D01*
X365763D01*
X356821Y168642D01*
X356747Y168748D01*
X356699Y168844D01*
X356678Y168913D01*
X356673Y168966D01*
X356678Y169019D01*
X356699Y169089D01*
X356747Y169184D01*
X356821Y169290D01*
X363230Y175699D01*
X363386Y175668D01*
X364312Y175853D01*
X365098Y176378D01*
X365623Y177163D01*
X365807Y178090D01*
X365776Y178245D01*
X368051Y180520D01*
X372076D01*
Y178938D01*
X378007D01*
Y185262D01*
D02*
G37*
G36*
X383310Y190255D02*
X382383Y190071D01*
X381597Y189546D01*
X381072Y188760D01*
X380888Y187834D01*
X381072Y186907D01*
X381504Y186262D01*
X381344Y185697D01*
X381084Y185262D01*
X380344D01*
Y178938D01*
X386275D01*
Y185262D01*
X385535D01*
X385275Y185697D01*
X385116Y186262D01*
X385546Y186907D01*
X385731Y187834D01*
X385546Y188760D01*
X385022Y189546D01*
X384236Y190071D01*
X383310Y190255D01*
D02*
G37*
G36*
X306415Y190082D02*
X305489Y189897D01*
X304703Y189372D01*
X304178Y188587D01*
X303994Y187660D01*
X304178Y186734D01*
X304521Y186221D01*
X304170Y185329D01*
X304078Y185221D01*
X303450D01*
Y178897D01*
X309381D01*
Y185221D01*
X308753D01*
X308660Y185329D01*
X308310Y186221D01*
X308652Y186734D01*
X308837Y187660D01*
X308652Y188587D01*
X308127Y189372D01*
X307342Y189897D01*
X306415Y190082D01*
D02*
G37*
G36*
X336319Y181551D02*
X335469Y181382D01*
X334749Y180901D01*
X334267Y180181D01*
X334098Y179331D01*
X334267Y178481D01*
X334749Y177761D01*
X335469Y177279D01*
X336319Y177110D01*
X337169Y177279D01*
X337889Y177761D01*
X338370Y178481D01*
X338540Y179331D01*
X338370Y180181D01*
X337889Y180901D01*
X337169Y181382D01*
X336319Y181551D01*
D02*
G37*
G36*
X317648Y185221D02*
X311718D01*
Y178897D01*
X317648D01*
Y178897D01*
X318097Y179083D01*
X323840Y173340D01*
Y164914D01*
X323439Y164312D01*
X323254Y163386D01*
X323439Y162459D01*
X323474Y162407D01*
X320767Y159700D01*
X316626D01*
Y158292D01*
X314038D01*
Y160507D01*
X304938D01*
Y152407D01*
X314038D01*
Y154621D01*
X316626D01*
Y153100D01*
X323726D01*
Y157468D01*
X326973Y160716D01*
X327371Y161311D01*
X327419Y161551D01*
X336245D01*
Y159836D01*
X342845D01*
Y166936D01*
X336245D01*
Y165221D01*
X327511D01*
Y174100D01*
X327371Y174802D01*
X326973Y175398D01*
X319014Y183357D01*
X318419Y183755D01*
X317717Y183894D01*
X317648D01*
Y185221D01*
D02*
G37*
G36*
X351845Y166936D02*
X345245D01*
Y159836D01*
X349859D01*
X353043Y156653D01*
X352899Y155653D01*
X349969D01*
Y148147D01*
X353125D01*
Y146985D01*
X349991Y143850D01*
X345376D01*
Y136750D01*
X351976D01*
Y141063D01*
X352088Y141186D01*
X353214Y141327D01*
X366859Y127681D01*
X366859Y126535D01*
X363558Y123234D01*
X363215Y122721D01*
X363095Y122116D01*
Y113482D01*
X358721Y109108D01*
X355844D01*
X355697Y109079D01*
X352145D01*
Y106079D01*
Y103520D01*
Y100961D01*
Y97708D01*
X351145Y97294D01*
X350305Y98133D01*
Y110650D01*
X352076D01*
Y117750D01*
X350611D01*
Y119311D01*
X352076D01*
Y126411D01*
X350554D01*
X350471Y126828D01*
X350073Y127423D01*
X346866Y130630D01*
X346725Y131339D01*
X346200Y132125D01*
X345415Y132650D01*
X344488Y132834D01*
X343562Y132650D01*
X342776Y132125D01*
X342251Y131339D01*
X342110Y130630D01*
X338761Y127281D01*
X338364Y126686D01*
X338309Y126411D01*
X336759D01*
Y119311D01*
X338224D01*
Y117750D01*
X336759D01*
Y110650D01*
X338530D01*
Y97381D01*
X337461Y96313D01*
X317815D01*
X317230Y96196D01*
X316734Y95865D01*
X311332Y90464D01*
X310738Y90542D01*
X308238D01*
X307181Y90402D01*
X306196Y89994D01*
X305350Y89345D01*
X304700Y88499D01*
X304292Y87514D01*
X304153Y86457D01*
X304292Y85399D01*
X304700Y84414D01*
X305350Y83568D01*
X306196Y82919D01*
X307181Y82511D01*
X308238Y82372D01*
X310738D01*
X311795Y82511D01*
X312086Y82631D01*
X312652Y81783D01*
X311332Y80463D01*
X310738Y80542D01*
X308238D01*
X307181Y80402D01*
X306196Y79994D01*
X305350Y79345D01*
X304700Y78499D01*
X304292Y77514D01*
X304153Y76457D01*
X304292Y75399D01*
X304700Y74414D01*
X304922Y74125D01*
X300158Y69362D01*
X299816Y68849D01*
X299695Y68244D01*
Y46334D01*
X299816Y45729D01*
X300158Y45216D01*
X307888Y37486D01*
X307506Y36562D01*
X302976D01*
Y30238D01*
X302976D01*
X303521Y29238D01*
X303454Y28900D01*
X303639Y27973D01*
X304164Y27188D01*
X304949Y26663D01*
X305876Y26479D01*
X306802Y26663D01*
X307588Y27188D01*
X308113Y27973D01*
X308297Y28900D01*
X308230Y29238D01*
X308907Y30238D01*
X308907D01*
Y35161D01*
X309831Y35544D01*
X311244Y34130D01*
Y30238D01*
X317175D01*
Y36562D01*
X313282D01*
X302957Y46888D01*
X303035Y47509D01*
X304075Y47754D01*
X304230Y47522D01*
X305015Y46997D01*
X305942Y46812D01*
X306868Y46997D01*
X307654Y47522D01*
X308179Y48307D01*
X308363Y49234D01*
X308342Y49338D01*
X308907Y50338D01*
X308907D01*
Y56662D01*
X302976Y56662D01*
X302856Y57612D01*
Y67569D01*
X303425Y68032D01*
X304292Y67514D01*
X304153Y66457D01*
X304292Y65399D01*
X304700Y64414D01*
X305350Y63568D01*
X306196Y62919D01*
X307181Y62511D01*
X308238Y62372D01*
X310738D01*
X311268Y62441D01*
X312629Y61081D01*
Y56662D01*
X311244D01*
Y50338D01*
X317175D01*
X317346Y49409D01*
Y40004D01*
X317463Y39419D01*
X317794Y38923D01*
X335708Y21008D01*
X335642Y20849D01*
X335503Y19791D01*
Y18791D01*
X335642Y17734D01*
X336051Y16749D01*
X336700Y15903D01*
X337546Y15254D01*
X338531Y14846D01*
X339588Y14706D01*
X340646Y14846D01*
X341631Y15254D01*
X342477Y15903D01*
X343126Y16749D01*
X343534Y17734D01*
X343673Y18791D01*
Y19791D01*
X343534Y20849D01*
X343126Y21834D01*
X342477Y22680D01*
X341631Y23329D01*
X340646Y23737D01*
X339588Y23876D01*
X338531Y23737D01*
X337664Y23378D01*
X334872Y26171D01*
X335286Y27171D01*
X341742D01*
X346384Y22529D01*
X345850Y21834D01*
X345442Y20849D01*
X345303Y19791D01*
Y18791D01*
X345442Y17734D01*
X345850Y16749D01*
X346500Y15903D01*
X347346Y15254D01*
X348331Y14846D01*
X349388Y14706D01*
X350446Y14846D01*
X351431Y15254D01*
X352277Y15903D01*
X352926Y16749D01*
X353334Y17734D01*
X353473Y18791D01*
Y19791D01*
X353334Y20849D01*
X352926Y21834D01*
X352277Y22680D01*
X351431Y23329D01*
X350446Y23737D01*
X349388Y23876D01*
X349365Y23873D01*
X343457Y29781D01*
X342961Y30113D01*
X342376Y30229D01*
X334809D01*
X330028Y35011D01*
X330442Y36011D01*
X338595D01*
Y43516D01*
X335439D01*
Y46117D01*
X335318Y46722D01*
X334976Y47235D01*
X334666Y47545D01*
X334697Y47700D01*
X334513Y48627D01*
X333988Y49412D01*
X334309Y50400D01*
X359176D01*
X360726Y50950D01*
X362076Y51600D01*
X364126Y53450D01*
X364926Y54250D01*
X365476Y55200D01*
X366476Y57825D01*
Y61600D01*
X365626Y63250D01*
X364776Y64900D01*
X362476Y66929D01*
X359656Y68037D01*
Y72150D01*
X361376D01*
Y74171D01*
X362176D01*
X362761Y74287D01*
X363257Y74619D01*
X366101Y77463D01*
X366433Y77959D01*
X366549Y78544D01*
Y84356D01*
X366433Y84941D01*
X366101Y85437D01*
X363351Y88188D01*
X362855Y88519D01*
X362269Y88636D01*
X359544D01*
Y93283D01*
Y95813D01*
X368208D01*
X368315Y95793D01*
X368396Y95764D01*
X368444Y95736D01*
X368477Y95708D01*
X368507Y95668D01*
X368541Y95601D01*
X368574Y95494D01*
X368595Y95365D01*
Y59066D01*
X368716Y58461D01*
X369058Y57949D01*
X372776Y54230D01*
Y50338D01*
X378707D01*
Y56662D01*
X374815D01*
X371756Y59721D01*
Y95365D01*
X371777Y95494D01*
X371811Y95601D01*
X371844Y95668D01*
X371874Y95708D01*
X371907Y95736D01*
X371955Y95764D01*
X372036Y95793D01*
X372143Y95813D01*
X374317D01*
X374700Y94887D01*
X375350Y94041D01*
X376196Y93392D01*
X377181Y92983D01*
X378238Y92844D01*
X380738D01*
X381796Y92983D01*
X382781Y93392D01*
X383627Y94041D01*
X384276Y94887D01*
X384684Y95872D01*
X384823Y96929D01*
X384684Y97986D01*
X384615Y98153D01*
X385463Y98720D01*
X387595Y96587D01*
Y57405D01*
X386975Y56662D01*
X386595Y56662D01*
X381044D01*
Y50338D01*
X381044D01*
X381602Y49338D01*
X381588Y49266D01*
X381772Y48340D01*
X382297Y47554D01*
X383083Y47029D01*
X384010Y46845D01*
X384936Y47029D01*
X385722Y47554D01*
X386246Y48340D01*
X386392Y49071D01*
X386950Y49349D01*
X387595Y48820D01*
Y47888D01*
X376669Y36962D01*
X372776D01*
Y30638D01*
X378707D01*
Y34530D01*
X380120Y35943D01*
X381044Y35561D01*
Y30638D01*
X381044D01*
X381642Y29638D01*
X381588Y29366D01*
X381772Y28440D01*
X382297Y27654D01*
X383083Y27129D01*
X384010Y26945D01*
X384936Y27129D01*
X385722Y27654D01*
X386246Y28440D01*
X386431Y29366D01*
X386377Y29638D01*
X386975Y30638D01*
X386975D01*
Y36962D01*
X382446D01*
X382063Y37886D01*
X390293Y46116D01*
X390636Y46629D01*
X390756Y47234D01*
Y97242D01*
X390636Y97847D01*
X390293Y98359D01*
X384054Y104598D01*
X384276Y104887D01*
X384684Y105872D01*
X384823Y106929D01*
X384684Y107986D01*
X384276Y108972D01*
X383627Y109818D01*
X382781Y110467D01*
X381796Y110875D01*
X380738Y111014D01*
X378238D01*
X377181Y110875D01*
X376891Y110755D01*
X376325Y111602D01*
X377644Y112922D01*
X378238Y112844D01*
X380738D01*
X381796Y112983D01*
X382781Y113391D01*
X383627Y114041D01*
X384276Y114887D01*
X384684Y115872D01*
X384823Y116929D01*
X384684Y117986D01*
X384276Y118972D01*
X383627Y119818D01*
X382781Y120467D01*
X381796Y120875D01*
X380738Y121014D01*
X378238D01*
X377181Y120875D01*
X376891Y120755D01*
X376325Y121602D01*
X377644Y122922D01*
X378238Y122844D01*
X380738D01*
X381796Y122983D01*
X382781Y123391D01*
X383627Y124041D01*
X384276Y124887D01*
X384684Y125872D01*
X384823Y126929D01*
X384684Y127986D01*
X384276Y128972D01*
X383627Y129818D01*
X382781Y130467D01*
X381796Y130875D01*
X380738Y131014D01*
X378238D01*
X377181Y130875D01*
X377014Y130806D01*
X376448Y131653D01*
X377708Y132914D01*
X378238Y132844D01*
X380738D01*
X381796Y132983D01*
X382781Y133391D01*
X383627Y134041D01*
X384276Y134887D01*
X384684Y135872D01*
X384823Y136929D01*
X384684Y137986D01*
X384276Y138972D01*
X383627Y139818D01*
X382781Y140467D01*
X381796Y140875D01*
X380738Y141014D01*
X378238D01*
X377181Y140875D01*
X376196Y140467D01*
X375350Y139818D01*
X374700Y138972D01*
X374292Y137986D01*
X374153Y136929D01*
X374292Y135872D01*
X374700Y134887D01*
X374922Y134598D01*
X369991Y129667D01*
X369885Y129593D01*
X369790Y129545D01*
X369720Y129524D01*
X369667Y129519D01*
X369614Y129524D01*
X369545Y129545D01*
X369449Y129593D01*
X369344Y129667D01*
X355384Y143627D01*
X355384Y144773D01*
X355823Y145212D01*
X356166Y145725D01*
X356286Y146330D01*
Y148147D01*
X359442D01*
Y155653D01*
X356305D01*
Y157206D01*
X356185Y157811D01*
X355842Y158323D01*
X351845Y162321D01*
Y166936D01*
D02*
G37*
G36*
X314788Y140507D02*
X304188D01*
Y132407D01*
X311375D01*
X312652Y131130D01*
X312086Y130282D01*
X311795Y130402D01*
X310738Y130542D01*
X308238D01*
X307181Y130402D01*
X306196Y129994D01*
X305350Y129345D01*
X304700Y128499D01*
X304292Y127514D01*
X304153Y126457D01*
X304292Y125399D01*
X304700Y124414D01*
X305350Y123568D01*
X306196Y122919D01*
X307181Y122511D01*
X308238Y122372D01*
X310738D01*
X311795Y122511D01*
X312781Y122919D01*
X312788Y122925D01*
X317846Y117867D01*
Y112000D01*
X317927Y111595D01*
X317426Y111160D01*
X317102Y111006D01*
X314023Y114085D01*
X314276Y114414D01*
X314684Y115399D01*
X314823Y116457D01*
X314684Y117514D01*
X314276Y118499D01*
X313627Y119345D01*
X312781Y119994D01*
X311795Y120402D01*
X310738Y120542D01*
X308238D01*
X307181Y120402D01*
X306196Y119994D01*
X305350Y119345D01*
X304700Y118499D01*
X304292Y117514D01*
X304153Y116457D01*
X304292Y115399D01*
X304700Y114414D01*
X305350Y113568D01*
X306196Y112919D01*
X307181Y112511D01*
X308238Y112372D01*
X310738D01*
X311332Y112450D01*
X312652Y111130D01*
X312086Y110282D01*
X311795Y110402D01*
X310738Y110542D01*
X308238D01*
X307181Y110402D01*
X306196Y109994D01*
X305350Y109345D01*
X304700Y108499D01*
X304292Y107514D01*
X304153Y106457D01*
X304292Y105399D01*
X304700Y104414D01*
X305350Y103568D01*
X306196Y102919D01*
X307181Y102511D01*
X308238Y102372D01*
X310738D01*
X311795Y102511D01*
X312781Y102919D01*
X313467Y103446D01*
X318093Y98820D01*
X318589Y98489D01*
X319174Y98372D01*
X332844D01*
X332992Y98402D01*
X336544D01*
Y100961D01*
Y103520D01*
Y106079D01*
Y109079D01*
X332992D01*
X332844Y109108D01*
X329430D01*
X326405Y112134D01*
Y121069D01*
X326289Y121655D01*
X325957Y122151D01*
X314788Y133320D01*
Y140507D01*
D02*
G37*
G36*
X380738Y91014D02*
X378238D01*
X377181Y90875D01*
X376196Y90467D01*
X375350Y89818D01*
X374700Y88972D01*
X374292Y87986D01*
X374153Y86929D01*
X374292Y85872D01*
X374700Y84887D01*
X375350Y84041D01*
X376196Y83391D01*
X377181Y82983D01*
X378238Y82844D01*
X380738D01*
X381796Y82983D01*
X382781Y83391D01*
X383627Y84041D01*
X384276Y84887D01*
X384684Y85872D01*
X384823Y86929D01*
X384684Y87986D01*
X384276Y88972D01*
X383627Y89818D01*
X382781Y90467D01*
X381796Y90875D01*
X380738Y91014D01*
D02*
G37*
G36*
X384788Y70979D02*
X374188D01*
Y62879D01*
X384788D01*
Y70979D01*
D02*
G37*
G36*
X359488Y23876D02*
X358431Y23737D01*
X357446Y23329D01*
X356600Y22680D01*
X355950Y21834D01*
X355542Y20849D01*
X355403Y19791D01*
Y18791D01*
X355542Y17734D01*
X355950Y16749D01*
X356600Y15903D01*
X357446Y15254D01*
X358431Y14846D01*
X359488Y14706D01*
X360545Y14846D01*
X361531Y15254D01*
X362377Y15903D01*
X363026Y16749D01*
X363434Y17734D01*
X363573Y18791D01*
Y19791D01*
X363434Y20849D01*
X363026Y21834D01*
X362377Y22680D01*
X361531Y23329D01*
X360545Y23737D01*
X359488Y23876D01*
D02*
G37*
%LPD*%
G36*
X356383Y170027D02*
X356193Y169815D01*
X356044Y169603D01*
X355938Y169390D01*
X355874Y169178D01*
X355853Y168966D01*
X355874Y168754D01*
X355938Y168542D01*
X356044Y168330D01*
X356193Y168118D01*
X356383Y167905D01*
X356383Y167905D01*
X356383Y167905D01*
X354792Y167375D01*
X353732Y168436D01*
X353202Y171088D01*
X353202Y171087D01*
X353202Y171088D01*
X353414Y170896D01*
X353626Y170748D01*
X353838Y170642D01*
X354050Y170578D01*
X354262Y170557D01*
X354474Y170578D01*
X354686Y170642D01*
X354899Y170748D01*
X355111Y170896D01*
X355323Y171088D01*
D01*
X355323D01*
X356383Y170027D01*
D02*
G37*
G36*
X354506Y145048D02*
X354358Y144836D01*
X354251Y144624D01*
X354188Y144412D01*
X354167Y144200D01*
X354188Y143988D01*
X354251Y143776D01*
X354358Y143564D01*
X354506Y143351D01*
X354697Y143139D01*
X353636Y142079D01*
X353424Y142270D01*
X353212Y142418D01*
X353000Y142524D01*
X352788Y142588D01*
X352576Y142609D01*
X352363Y142588D01*
X352151Y142524D01*
X351939Y142418D01*
X351727Y142270D01*
X351515Y142079D01*
X352576Y144200D01*
X354697Y145261D01*
X354506Y145048D01*
D02*
G37*
G36*
X370198Y126578D02*
X367546Y126048D01*
X367737Y126260D01*
X367885Y126472D01*
X367991Y126684D01*
X368055Y126896D01*
X368076Y127108D01*
X368055Y127320D01*
X367991Y127532D01*
X367885Y127745D01*
X367737Y127957D01*
X367546Y128169D01*
X368607Y129230D01*
X368819Y129039D01*
X369031Y128890D01*
X369243Y128784D01*
X369455Y128720D01*
X369667Y128699D01*
X369880Y128720D01*
X370092Y128784D01*
X370304Y128890D01*
X370516Y129039D01*
X370728Y129230D01*
X370198Y126578D01*
D02*
G37*
G36*
X372326Y96643D02*
X372060Y96627D01*
X371822Y96583D01*
X371612Y96508D01*
X371430Y96403D01*
X371276Y96267D01*
X371150Y96102D01*
X371052Y95907D01*
X370982Y95683D01*
X370940Y95428D01*
X370926Y95143D01*
X369426D01*
X369412Y95428D01*
X369370Y95683D01*
X369300Y95907D01*
X369202Y96102D01*
X369076Y96267D01*
X368922Y96403D01*
X368740Y96508D01*
X368530Y96583D01*
X368292Y96627D01*
X368026Y96643D01*
X370176Y98043D01*
X372326Y96643D01*
D02*
G37*
G36*
X363490Y83722D02*
Y79178D01*
X362376Y78063D01*
X361376Y78477D01*
Y79250D01*
X354776D01*
Y72150D01*
X356495D01*
Y68500D01*
X341456D01*
Y72150D01*
X343176D01*
Y79250D01*
X343176D01*
X342828Y80089D01*
X346716Y83978D01*
X347586Y83539D01*
X347628Y83476D01*
X347454Y82600D01*
X347639Y81673D01*
X348164Y80888D01*
X348949Y80363D01*
X349876Y80179D01*
X350802Y80363D01*
X351588Y80888D01*
X352113Y81673D01*
X352297Y82600D01*
X353230Y83018D01*
X355844D01*
X355992Y83047D01*
X359544D01*
Y85577D01*
X361636D01*
X363490Y83722D01*
D02*
G37*
G36*
X338052Y82688D02*
X338837Y82163D01*
X339108Y82109D01*
X339437Y81024D01*
X338794Y80381D01*
X338463Y79885D01*
X338346Y79300D01*
Y79250D01*
X336576D01*
Y72150D01*
X338295D01*
Y68500D01*
X330976D01*
X329776Y68244D01*
X327367Y67429D01*
X325299Y65858D01*
X323805Y64134D01*
X323705Y64131D01*
X322805Y64462D01*
Y75666D01*
X330156Y83018D01*
X332844D01*
X332992Y83047D01*
X336544D01*
Y83286D01*
X337527Y83473D01*
X338052Y82688D01*
D02*
G37*
%LPC*%
G36*
X266154Y193517D02*
X257468D01*
Y184436D01*
X266154D01*
Y193517D01*
D02*
G37*
G36*
X234658D02*
X225972D01*
Y184436D01*
X234658D01*
Y193517D01*
D02*
G37*
G36*
X246247Y193517D02*
X245247Y193517D01*
X236798D01*
Y184436D01*
X245247D01*
X245879Y184436D01*
X246879Y184436D01*
X255328D01*
Y193517D01*
X246879D01*
X246247Y193517D01*
D02*
G37*
G36*
X279582Y185262D02*
X273651D01*
Y183680D01*
X268971D01*
X268366Y183560D01*
X267853Y183218D01*
X265116Y180480D01*
X264961Y180511D01*
X264034Y180327D01*
X263248Y179802D01*
X262724Y179016D01*
X262539Y178090D01*
X262570Y177934D01*
X256161Y171525D01*
X256055Y171451D01*
X255959Y171403D01*
X255890Y171382D01*
X255837Y171377D01*
X255784Y171382D01*
X255715Y171403D01*
X255619Y171451D01*
X255513Y171525D01*
X252968Y174070D01*
X252768Y174987D01*
X252768Y174987D01*
X252768Y174987D01*
Y176578D01*
X253768Y177202D01*
X254232Y177110D01*
X255082Y177279D01*
X255802Y177761D01*
X256284Y178481D01*
X256453Y179331D01*
X256284Y180181D01*
X255802Y180901D01*
X255082Y181382D01*
X254232Y181551D01*
X253768Y181459D01*
X252768Y181902D01*
Y181902D01*
X241916D01*
Y174987D01*
X249601D01*
Y173622D01*
X249721Y173017D01*
X250064Y172504D01*
X254719Y167849D01*
X254719Y167849D01*
X254719Y167849D01*
X266600Y155968D01*
Y153100D01*
X273700D01*
Y154876D01*
X276513D01*
Y152407D01*
X285613D01*
Y160507D01*
X276513D01*
Y158037D01*
X273700D01*
Y159700D01*
X267338D01*
X258396Y168642D01*
X258322Y168748D01*
X258274Y168844D01*
X258253Y168913D01*
X258248Y168966D01*
X258253Y169019D01*
X258274Y169089D01*
X258322Y169184D01*
X258396Y169290D01*
X264805Y175699D01*
X264961Y175668D01*
X265887Y175853D01*
X266673Y176378D01*
X267198Y177163D01*
X267382Y178090D01*
X267351Y178245D01*
X269625Y180520D01*
X273651D01*
Y178938D01*
X279582D01*
Y185262D01*
D02*
G37*
G36*
X284884Y190255D02*
X283958Y190071D01*
X283172Y189546D01*
X282647Y188760D01*
X282463Y187834D01*
X282647Y186907D01*
X283078Y186262D01*
X282919Y185697D01*
X282659Y185262D01*
X281919D01*
Y178938D01*
X287850D01*
Y185262D01*
X287110D01*
X286850Y185697D01*
X286690Y186262D01*
X287121Y186907D01*
X287306Y187834D01*
X287121Y188760D01*
X286596Y189546D01*
X285811Y190071D01*
X284884Y190255D01*
D02*
G37*
G36*
X207990Y190082D02*
X207064Y189897D01*
X206278Y189372D01*
X205753Y188587D01*
X205569Y187660D01*
X205753Y186734D01*
X206096Y186221D01*
X205745Y185329D01*
X205652Y185221D01*
X205025D01*
Y178897D01*
X210956D01*
Y185221D01*
X210328D01*
X210235Y185329D01*
X209885Y186221D01*
X210227Y186734D01*
X210412Y187660D01*
X210227Y188587D01*
X209702Y189372D01*
X208917Y189897D01*
X207990Y190082D01*
D02*
G37*
G36*
X237894Y181551D02*
X237044Y181382D01*
X236323Y180901D01*
X235842Y180181D01*
X235673Y179331D01*
X235842Y178481D01*
X236323Y177761D01*
X237044Y177279D01*
X237894Y177110D01*
X238743Y177279D01*
X239464Y177761D01*
X239945Y178481D01*
X240114Y179331D01*
X239945Y180181D01*
X239464Y180901D01*
X238743Y181382D01*
X237894Y181551D01*
D02*
G37*
G36*
X219223Y185221D02*
X213293D01*
Y178897D01*
X219223D01*
Y178897D01*
X219672Y179083D01*
X225415Y173340D01*
Y164914D01*
X225013Y164312D01*
X224829Y163386D01*
X225013Y162459D01*
X225048Y162407D01*
X222342Y159700D01*
X218200D01*
Y158292D01*
X215613D01*
Y160507D01*
X206513D01*
Y152407D01*
X215613D01*
Y154621D01*
X218200D01*
Y153100D01*
X225300D01*
Y157468D01*
X228548Y160716D01*
X228946Y161311D01*
X228994Y161551D01*
X237819D01*
Y159836D01*
X244419D01*
Y166936D01*
X237819D01*
Y165221D01*
X229086D01*
Y174100D01*
X228946Y174802D01*
X228548Y175398D01*
X220589Y183357D01*
X219994Y183755D01*
X219291Y183894D01*
X219223D01*
Y185221D01*
D02*
G37*
G36*
X253419Y166936D02*
X246819D01*
Y159836D01*
X251434D01*
X254617Y156653D01*
X254474Y155653D01*
X251543D01*
Y148147D01*
X254700D01*
Y146985D01*
X251565Y143850D01*
X246950D01*
Y136750D01*
X253550D01*
Y141063D01*
X253662Y141186D01*
X254789Y141327D01*
X268434Y127681D01*
X268434Y126535D01*
X265133Y123234D01*
X264790Y122721D01*
X264670Y122116D01*
Y113482D01*
X260296Y109108D01*
X257419D01*
X257272Y109079D01*
X253719D01*
Y106079D01*
Y103520D01*
Y100961D01*
Y97708D01*
X252719Y97294D01*
X251880Y98133D01*
Y110650D01*
X253650D01*
Y117750D01*
X252186D01*
Y119311D01*
X253650D01*
Y126411D01*
X252129D01*
X252046Y126828D01*
X251648Y127423D01*
X248441Y130630D01*
X248300Y131339D01*
X247775Y132125D01*
X246990Y132650D01*
X246063Y132834D01*
X245136Y132650D01*
X244351Y132125D01*
X243826Y131339D01*
X243685Y130630D01*
X240336Y127281D01*
X239938Y126686D01*
X239884Y126411D01*
X238334D01*
Y119311D01*
X239799D01*
Y117750D01*
X238334D01*
Y110650D01*
X240105D01*
Y97381D01*
X239036Y96313D01*
X219390D01*
X218805Y96196D01*
X218308Y95865D01*
X212907Y90464D01*
X212313Y90542D01*
X209813D01*
X208756Y90402D01*
X207770Y89994D01*
X206925Y89345D01*
X206275Y88499D01*
X205867Y87514D01*
X205728Y86457D01*
X205867Y85399D01*
X206275Y84414D01*
X206925Y83568D01*
X207770Y82919D01*
X208756Y82511D01*
X209813Y82372D01*
X212313D01*
X213370Y82511D01*
X213660Y82631D01*
X214227Y81783D01*
X212907Y80463D01*
X212313Y80542D01*
X209813D01*
X208756Y80402D01*
X207770Y79994D01*
X206925Y79345D01*
X206275Y78499D01*
X205867Y77514D01*
X205728Y76457D01*
X205867Y75399D01*
X206275Y74414D01*
X206497Y74125D01*
X201733Y69362D01*
X201390Y68849D01*
X201270Y68244D01*
Y46334D01*
X201390Y45729D01*
X201733Y45216D01*
X209463Y37486D01*
X209081Y36562D01*
X204551D01*
Y30238D01*
X204551D01*
X205096Y29238D01*
X205029Y28900D01*
X205213Y27973D01*
X205738Y27188D01*
X206524Y26663D01*
X207450Y26479D01*
X208377Y26663D01*
X209162Y27188D01*
X209687Y27973D01*
X209872Y28900D01*
X209805Y29238D01*
X210482Y30238D01*
X210482D01*
Y35161D01*
X211406Y35544D01*
X212819Y34130D01*
Y30238D01*
X218750D01*
Y36562D01*
X214857D01*
X204532Y46888D01*
X204610Y47509D01*
X205649Y47754D01*
X205804Y47522D01*
X206590Y46997D01*
X207517Y46812D01*
X208443Y46997D01*
X209229Y47522D01*
X209754Y48307D01*
X209938Y49234D01*
X209917Y49338D01*
X210482Y50338D01*
X210482D01*
Y56662D01*
X204551Y56662D01*
X204431Y57612D01*
Y67569D01*
X204999Y68032D01*
X205867Y67514D01*
X205728Y66457D01*
X205867Y65399D01*
X206275Y64414D01*
X206925Y63568D01*
X207770Y62919D01*
X208756Y62511D01*
X209813Y62372D01*
X212313D01*
X212843Y62441D01*
X214204Y61081D01*
Y56662D01*
X212819D01*
Y50338D01*
X218750D01*
X218921Y49409D01*
Y40004D01*
X219037Y39419D01*
X219369Y38923D01*
X237283Y21008D01*
X237217Y20849D01*
X237078Y19791D01*
Y18791D01*
X237217Y17734D01*
X237625Y16749D01*
X238275Y15903D01*
X239121Y15254D01*
X240106Y14846D01*
X241163Y14706D01*
X242220Y14846D01*
X243205Y15254D01*
X244052Y15903D01*
X244701Y16749D01*
X245109Y17734D01*
X245248Y18791D01*
Y19791D01*
X245109Y20849D01*
X244701Y21834D01*
X244052Y22680D01*
X243205Y23329D01*
X242220Y23737D01*
X241163Y23876D01*
X240106Y23737D01*
X239239Y23378D01*
X236447Y26171D01*
X236861Y27171D01*
X243317D01*
X247959Y22529D01*
X247425Y21834D01*
X247017Y20849D01*
X246878Y19791D01*
Y18791D01*
X247017Y17734D01*
X247425Y16749D01*
X248075Y15903D01*
X248920Y15254D01*
X249906Y14846D01*
X250963Y14706D01*
X252020Y14846D01*
X253006Y15254D01*
X253852Y15903D01*
X254501Y16749D01*
X254909Y17734D01*
X255048Y18791D01*
Y19791D01*
X254909Y20849D01*
X254501Y21834D01*
X253852Y22680D01*
X253006Y23329D01*
X252020Y23737D01*
X250963Y23876D01*
X250940Y23873D01*
X245032Y29781D01*
X244536Y30113D01*
X243950Y30229D01*
X236384D01*
X231602Y35011D01*
X232016Y36011D01*
X240170D01*
Y43516D01*
X237014D01*
Y46117D01*
X236893Y46722D01*
X236551Y47235D01*
X236241Y47545D01*
X236272Y47700D01*
X236087Y48627D01*
X235562Y49412D01*
X235884Y50400D01*
X260750D01*
X262300Y50950D01*
X263650Y51600D01*
X265700Y53450D01*
X266500Y54250D01*
X267050Y55200D01*
X268050Y57825D01*
Y61600D01*
X267200Y63250D01*
X266350Y64900D01*
X264050Y66929D01*
X261231Y68037D01*
Y72150D01*
X262950D01*
Y74171D01*
X263750D01*
X264336Y74287D01*
X264832Y74619D01*
X267676Y77463D01*
X268007Y77959D01*
X268124Y78544D01*
Y84356D01*
X268007Y84941D01*
X267676Y85437D01*
X264926Y88188D01*
X264429Y88519D01*
X263844Y88636D01*
X261119D01*
Y93283D01*
Y95813D01*
X269783D01*
X269890Y95793D01*
X269971Y95764D01*
X270019Y95736D01*
X270052Y95708D01*
X270082Y95668D01*
X270115Y95601D01*
X270149Y95494D01*
X270170Y95365D01*
Y59066D01*
X270290Y58461D01*
X270633Y57949D01*
X274351Y54230D01*
Y50338D01*
X280282D01*
Y56662D01*
X276389D01*
X273331Y59721D01*
Y95365D01*
X273352Y95494D01*
X273385Y95601D01*
X273419Y95668D01*
X273449Y95708D01*
X273482Y95736D01*
X273530Y95764D01*
X273611Y95793D01*
X273718Y95813D01*
X275892D01*
X276275Y94887D01*
X276924Y94041D01*
X277770Y93392D01*
X278756Y92983D01*
X279813Y92844D01*
X282313D01*
X283370Y92983D01*
X284355Y93392D01*
X285202Y94041D01*
X285851Y94887D01*
X286259Y95872D01*
X286398Y96929D01*
X286259Y97986D01*
X286190Y98153D01*
X287037Y98720D01*
X289170Y96587D01*
Y57405D01*
X288550Y56662D01*
X288170Y56662D01*
X282619D01*
Y50338D01*
X282619D01*
X283177Y49338D01*
X283163Y49266D01*
X283347Y48340D01*
X283872Y47554D01*
X284658Y47029D01*
X285584Y46845D01*
X286511Y47029D01*
X287296Y47554D01*
X287821Y48340D01*
X287967Y49071D01*
X288525Y49349D01*
X289170Y48820D01*
Y47888D01*
X278244Y36962D01*
X274351D01*
Y30638D01*
X280282D01*
Y34530D01*
X281695Y35943D01*
X282619Y35561D01*
Y30638D01*
X282619D01*
X283217Y29638D01*
X283163Y29366D01*
X283347Y28440D01*
X283872Y27654D01*
X284658Y27129D01*
X285584Y26945D01*
X286511Y27129D01*
X287296Y27654D01*
X287821Y28440D01*
X288006Y29366D01*
X287952Y29638D01*
X288550Y30638D01*
X288550D01*
Y36962D01*
X284020D01*
X283638Y37886D01*
X291868Y46116D01*
X292211Y46629D01*
X292331Y47234D01*
Y97242D01*
X292211Y97847D01*
X291868Y98359D01*
X285629Y104598D01*
X285851Y104887D01*
X286259Y105872D01*
X286398Y106929D01*
X286259Y107986D01*
X285851Y108972D01*
X285202Y109818D01*
X284355Y110467D01*
X283370Y110875D01*
X282313Y111014D01*
X279813D01*
X278756Y110875D01*
X278466Y110755D01*
X277899Y111602D01*
X279219Y112922D01*
X279813Y112844D01*
X282313D01*
X283370Y112983D01*
X284355Y113391D01*
X285202Y114041D01*
X285851Y114887D01*
X286259Y115872D01*
X286398Y116929D01*
X286259Y117986D01*
X285851Y118972D01*
X285202Y119818D01*
X284355Y120467D01*
X283370Y120875D01*
X282313Y121014D01*
X279813D01*
X278756Y120875D01*
X278466Y120755D01*
X277899Y121602D01*
X279219Y122922D01*
X279813Y122844D01*
X282313D01*
X283370Y122983D01*
X284355Y123391D01*
X285202Y124041D01*
X285851Y124887D01*
X286259Y125872D01*
X286398Y126929D01*
X286259Y127986D01*
X285851Y128972D01*
X285202Y129818D01*
X284355Y130467D01*
X283370Y130875D01*
X282313Y131014D01*
X279813D01*
X278756Y130875D01*
X278589Y130806D01*
X278022Y131653D01*
X279283Y132914D01*
X279813Y132844D01*
X282313D01*
X283370Y132983D01*
X284355Y133391D01*
X285202Y134041D01*
X285851Y134887D01*
X286259Y135872D01*
X286398Y136929D01*
X286259Y137986D01*
X285851Y138972D01*
X285202Y139818D01*
X284355Y140467D01*
X283370Y140875D01*
X282313Y141014D01*
X279813D01*
X278756Y140875D01*
X277770Y140467D01*
X276924Y139818D01*
X276275Y138972D01*
X275867Y137986D01*
X275728Y136929D01*
X275867Y135872D01*
X276275Y134887D01*
X276497Y134598D01*
X271566Y129667D01*
X271460Y129593D01*
X271365Y129545D01*
X271295Y129524D01*
X271242Y129519D01*
X271189Y129524D01*
X271120Y129545D01*
X271024Y129593D01*
X270918Y129667D01*
X256958Y143627D01*
X256958Y144773D01*
X257398Y145212D01*
X257740Y145725D01*
X257861Y146330D01*
Y148147D01*
X261017D01*
Y155653D01*
X257880D01*
Y157206D01*
X257759Y157811D01*
X257417Y158323D01*
X253419Y162321D01*
Y166936D01*
D02*
G37*
G36*
X216363Y140507D02*
X205763D01*
Y132407D01*
X212950D01*
X214227Y131130D01*
X213660Y130282D01*
X213370Y130402D01*
X212313Y130542D01*
X209813D01*
X208756Y130402D01*
X207770Y129994D01*
X206925Y129345D01*
X206275Y128499D01*
X205867Y127514D01*
X205728Y126457D01*
X205867Y125399D01*
X206275Y124414D01*
X206925Y123568D01*
X207770Y122919D01*
X208756Y122511D01*
X209813Y122372D01*
X212313D01*
X213370Y122511D01*
X214355Y122919D01*
X214363Y122925D01*
X219421Y117867D01*
Y112000D01*
X219501Y111595D01*
X219001Y111160D01*
X218677Y111006D01*
X215598Y114085D01*
X215851Y114414D01*
X216259Y115399D01*
X216398Y116457D01*
X216259Y117514D01*
X215851Y118499D01*
X215201Y119345D01*
X214355Y119994D01*
X213370Y120402D01*
X212313Y120542D01*
X209813D01*
X208756Y120402D01*
X207770Y119994D01*
X206925Y119345D01*
X206275Y118499D01*
X205867Y117514D01*
X205728Y116457D01*
X205867Y115399D01*
X206275Y114414D01*
X206925Y113568D01*
X207770Y112919D01*
X208756Y112511D01*
X209813Y112372D01*
X212313D01*
X212907Y112450D01*
X214227Y111130D01*
X213660Y110282D01*
X213370Y110402D01*
X212313Y110542D01*
X209813D01*
X208756Y110402D01*
X207770Y109994D01*
X206925Y109345D01*
X206275Y108499D01*
X205867Y107514D01*
X205728Y106457D01*
X205867Y105399D01*
X206275Y104414D01*
X206925Y103568D01*
X207770Y102919D01*
X208756Y102511D01*
X209813Y102372D01*
X212313D01*
X213370Y102511D01*
X214355Y102919D01*
X215042Y103446D01*
X219667Y98820D01*
X220163Y98489D01*
X220749Y98372D01*
X234419D01*
X234567Y98402D01*
X238119D01*
Y100961D01*
Y103520D01*
Y106079D01*
Y109079D01*
X234567D01*
X234419Y109108D01*
X231005D01*
X227980Y112134D01*
Y121069D01*
X227863Y121655D01*
X227532Y122151D01*
X216363Y133320D01*
Y140507D01*
D02*
G37*
G36*
X282313Y91014D02*
X279813D01*
X278756Y90875D01*
X277770Y90467D01*
X276924Y89818D01*
X276275Y88972D01*
X275867Y87986D01*
X275728Y86929D01*
X275867Y85872D01*
X276275Y84887D01*
X276924Y84041D01*
X277770Y83391D01*
X278756Y82983D01*
X279813Y82844D01*
X282313D01*
X283370Y82983D01*
X284355Y83391D01*
X285202Y84041D01*
X285851Y84887D01*
X286259Y85872D01*
X286398Y86929D01*
X286259Y87986D01*
X285851Y88972D01*
X285202Y89818D01*
X284355Y90467D01*
X283370Y90875D01*
X282313Y91014D01*
D02*
G37*
G36*
X286363Y70979D02*
X275763D01*
Y62879D01*
X286363D01*
Y70979D01*
D02*
G37*
G36*
X261063Y23876D02*
X260006Y23737D01*
X259020Y23329D01*
X258174Y22680D01*
X257525Y21834D01*
X257117Y20849D01*
X256978Y19791D01*
Y18791D01*
X257117Y17734D01*
X257525Y16749D01*
X258174Y15903D01*
X259020Y15254D01*
X260006Y14846D01*
X261063Y14706D01*
X262120Y14846D01*
X263106Y15254D01*
X263951Y15903D01*
X264601Y16749D01*
X265009Y17734D01*
X265148Y18791D01*
Y19791D01*
X265009Y20849D01*
X264601Y21834D01*
X263951Y22680D01*
X263106Y23329D01*
X262120Y23737D01*
X261063Y23876D01*
D02*
G37*
%LPD*%
G36*
X257958Y170027D02*
X257767Y169815D01*
X257619Y169603D01*
X257513Y169390D01*
X257449Y169178D01*
X257428Y168966D01*
X257449Y168754D01*
X257513Y168542D01*
X257619Y168330D01*
X257767Y168118D01*
X257958Y167905D01*
X257958Y167905D01*
X257958Y167905D01*
X256367Y167375D01*
X255307Y168436D01*
X254776Y171088D01*
X254776Y171087D01*
X254776Y171088D01*
X254989Y170896D01*
X255201Y170748D01*
X255413Y170642D01*
X255625Y170578D01*
X255837Y170557D01*
X256049Y170578D01*
X256261Y170642D01*
X256473Y170748D01*
X256685Y170896D01*
X256898Y171088D01*
D01*
X256898D01*
X257958Y170027D01*
D02*
G37*
G36*
X256081Y145048D02*
X255932Y144836D01*
X255826Y144624D01*
X255763Y144412D01*
X255741Y144200D01*
X255763Y143988D01*
X255826Y143776D01*
X255932Y143564D01*
X256081Y143351D01*
X256272Y143139D01*
X255211Y142079D01*
X254999Y142270D01*
X254787Y142418D01*
X254575Y142524D01*
X254363Y142588D01*
X254150Y142609D01*
X253938Y142588D01*
X253726Y142524D01*
X253514Y142418D01*
X253302Y142270D01*
X253090Y142079D01*
X254150Y144200D01*
X256272Y145261D01*
X256081Y145048D01*
D02*
G37*
G36*
X271773Y126578D02*
X269121Y126048D01*
X269312Y126260D01*
X269460Y126472D01*
X269566Y126684D01*
X269630Y126896D01*
X269651Y127108D01*
X269630Y127320D01*
X269566Y127532D01*
X269460Y127745D01*
X269312Y127957D01*
X269121Y128169D01*
X270181Y129230D01*
X270394Y129039D01*
X270606Y128890D01*
X270818Y128784D01*
X271030Y128720D01*
X271242Y128699D01*
X271454Y128720D01*
X271666Y128784D01*
X271879Y128890D01*
X272091Y129039D01*
X272303Y129230D01*
X271773Y126578D01*
D02*
G37*
G36*
X273900Y96643D02*
X273634Y96627D01*
X273396Y96583D01*
X273186Y96508D01*
X273004Y96403D01*
X272850Y96267D01*
X272724Y96102D01*
X272626Y95907D01*
X272556Y95683D01*
X272514Y95428D01*
X272500Y95143D01*
X271000D01*
X270986Y95428D01*
X270944Y95683D01*
X270874Y95907D01*
X270776Y96102D01*
X270650Y96267D01*
X270496Y96403D01*
X270314Y96508D01*
X270104Y96583D01*
X269866Y96627D01*
X269600Y96643D01*
X271750Y98043D01*
X273900Y96643D01*
D02*
G37*
G36*
X265065Y83722D02*
Y79178D01*
X263950Y78063D01*
X262950Y78477D01*
Y79250D01*
X256350D01*
Y72150D01*
X258070D01*
Y68500D01*
X243031D01*
Y72150D01*
X244750D01*
Y79250D01*
X244750D01*
X244403Y80089D01*
X248291Y83978D01*
X249160Y83539D01*
X249203Y83476D01*
X249029Y82600D01*
X249213Y81673D01*
X249738Y80888D01*
X250524Y80363D01*
X251450Y80179D01*
X252377Y80363D01*
X253163Y80888D01*
X253687Y81673D01*
X253872Y82600D01*
X254805Y83018D01*
X257419D01*
X257567Y83047D01*
X261119D01*
Y85577D01*
X263211D01*
X265065Y83722D01*
D02*
G37*
G36*
X239627Y82688D02*
X240412Y82163D01*
X240683Y82109D01*
X241012Y81024D01*
X240369Y80381D01*
X240037Y79885D01*
X239921Y79300D01*
Y79250D01*
X238150D01*
Y72150D01*
X239870D01*
Y68500D01*
X232550D01*
X231350Y68244D01*
X228942Y67429D01*
X226874Y65858D01*
X225380Y64134D01*
X225279Y64131D01*
X224380Y64462D01*
Y75666D01*
X231731Y83018D01*
X234419D01*
X234567Y83047D01*
X238119D01*
Y83286D01*
X239102Y83473D01*
X239627Y82688D01*
D02*
G37*
%LPC*%
G36*
X167729Y193517D02*
X159043D01*
Y184436D01*
X167729D01*
Y193517D01*
D02*
G37*
G36*
X136233D02*
X127547D01*
Y184436D01*
X136233D01*
Y193517D01*
D02*
G37*
G36*
X147822Y193517D02*
X146822Y193517D01*
X138373D01*
Y184436D01*
X146822D01*
X147453Y184436D01*
X148453Y184436D01*
X156902D01*
Y193517D01*
X148453D01*
X147822Y193517D01*
D02*
G37*
G36*
X181157Y185262D02*
X175226D01*
Y183680D01*
X170546D01*
X169941Y183560D01*
X169428Y183218D01*
X166691Y180480D01*
X166535Y180511D01*
X165609Y180327D01*
X164823Y179802D01*
X164298Y179016D01*
X164114Y178090D01*
X164145Y177934D01*
X157736Y171525D01*
X157630Y171451D01*
X157534Y171403D01*
X157465Y171382D01*
X157412Y171377D01*
X157359Y171382D01*
X157289Y171403D01*
X157194Y171451D01*
X157088Y171525D01*
X154543Y174070D01*
X154343Y174987D01*
X154343Y174987D01*
X154343Y174987D01*
Y176578D01*
X155343Y177202D01*
X155807Y177110D01*
X156657Y177279D01*
X157377Y177761D01*
X157859Y178481D01*
X158028Y179331D01*
X157859Y180181D01*
X157377Y180901D01*
X156657Y181382D01*
X155807Y181551D01*
X155343Y181459D01*
X154343Y181902D01*
Y181902D01*
X143491D01*
Y174987D01*
X151175D01*
Y173622D01*
X151296Y173017D01*
X151638Y172504D01*
X156294Y167849D01*
X156294Y167849D01*
X156294Y167849D01*
X168175Y155968D01*
Y153100D01*
X175275D01*
Y154876D01*
X178088D01*
Y152407D01*
X187188D01*
Y160507D01*
X178088D01*
Y158037D01*
X175275D01*
Y159700D01*
X168913D01*
X159970Y168642D01*
X159896Y168748D01*
X159849Y168844D01*
X159828Y168913D01*
X159822Y168966D01*
X159828Y169019D01*
X159849Y169089D01*
X159896Y169184D01*
X159970Y169290D01*
X166380Y175699D01*
X166535Y175668D01*
X167462Y175853D01*
X168248Y176378D01*
X168772Y177163D01*
X168957Y178090D01*
X168926Y178245D01*
X171200Y180520D01*
X175226D01*
Y178938D01*
X181157D01*
Y185262D01*
D02*
G37*
G36*
X186459Y190255D02*
X185532Y190071D01*
X184747Y189546D01*
X184222Y188760D01*
X184038Y187834D01*
X184222Y186907D01*
X184653Y186262D01*
X184493Y185697D01*
X184233Y185262D01*
X183494D01*
Y178938D01*
X189424D01*
Y185262D01*
X188685D01*
X188425Y185697D01*
X188265Y186262D01*
X188696Y186907D01*
X188880Y187834D01*
X188696Y188760D01*
X188171Y189546D01*
X187386Y190071D01*
X186459Y190255D01*
D02*
G37*
G36*
X109565Y190082D02*
X108638Y189897D01*
X107853Y189372D01*
X107328Y188587D01*
X107144Y187660D01*
X107328Y186734D01*
X107670Y186221D01*
X107320Y185329D01*
X107227Y185221D01*
X106600D01*
Y178897D01*
X112530D01*
Y185221D01*
X111903D01*
X111810Y185329D01*
X111460Y186221D01*
X111802Y186734D01*
X111986Y187660D01*
X111802Y188587D01*
X111277Y189372D01*
X110492Y189897D01*
X109565Y190082D01*
D02*
G37*
G36*
X139469Y181551D02*
X138619Y181382D01*
X137898Y180901D01*
X137417Y180181D01*
X137248Y179331D01*
X137417Y178481D01*
X137898Y177761D01*
X138619Y177279D01*
X139469Y177110D01*
X140318Y177279D01*
X141039Y177761D01*
X141520Y178481D01*
X141689Y179331D01*
X141520Y180181D01*
X141039Y180901D01*
X140318Y181382D01*
X139469Y181551D01*
D02*
G37*
G36*
X120798Y185221D02*
X114867D01*
Y178897D01*
X120798D01*
Y178897D01*
X121247Y179083D01*
X126990Y173340D01*
Y164914D01*
X126588Y164312D01*
X126404Y163386D01*
X126588Y162459D01*
X126623Y162407D01*
X123916Y159700D01*
X119775D01*
Y158292D01*
X117188D01*
Y160507D01*
X108088D01*
Y152407D01*
X117188D01*
Y154621D01*
X119775D01*
Y153100D01*
X126875D01*
Y157468D01*
X130123Y160716D01*
X130521Y161311D01*
X130568Y161551D01*
X139394D01*
Y159836D01*
X145994D01*
Y166936D01*
X139394D01*
Y165221D01*
X130660D01*
Y174100D01*
X130521Y174802D01*
X130123Y175398D01*
X122164Y183357D01*
X121569Y183755D01*
X120866Y183894D01*
X120798D01*
Y185221D01*
D02*
G37*
G36*
X154994Y166936D02*
X148394D01*
Y159836D01*
X153009D01*
X156192Y156653D01*
X156049Y155653D01*
X153118D01*
Y148147D01*
X156275D01*
Y146985D01*
X153140Y143850D01*
X148525D01*
Y136750D01*
X155125D01*
Y141063D01*
X155237Y141186D01*
X156364Y141327D01*
X170009Y127681D01*
X170009Y126535D01*
X166708Y123234D01*
X166365Y122721D01*
X166245Y122116D01*
Y113482D01*
X161870Y109108D01*
X158994D01*
X158846Y109079D01*
X155294D01*
Y106079D01*
Y103520D01*
Y100961D01*
Y97708D01*
X154294Y97294D01*
X153455Y98133D01*
Y110650D01*
X155225D01*
Y117750D01*
X153761D01*
Y119311D01*
X155225D01*
Y126411D01*
X153703D01*
X153621Y126828D01*
X153223Y127423D01*
X150016Y130630D01*
X149875Y131339D01*
X149350Y132125D01*
X148564Y132650D01*
X147638Y132834D01*
X146711Y132650D01*
X145926Y132125D01*
X145401Y131339D01*
X145260Y130630D01*
X141911Y127281D01*
X141513Y126686D01*
X141458Y126411D01*
X139909D01*
Y119311D01*
X141373D01*
Y117750D01*
X139909D01*
Y110650D01*
X141679D01*
Y97381D01*
X140611Y96313D01*
X120965D01*
X120379Y96196D01*
X119883Y95865D01*
X114482Y90464D01*
X113888Y90542D01*
X111388D01*
X110330Y90402D01*
X109345Y89994D01*
X108499Y89345D01*
X107850Y88499D01*
X107442Y87514D01*
X107303Y86457D01*
X107442Y85399D01*
X107850Y84414D01*
X108499Y83568D01*
X109345Y82919D01*
X110330Y82511D01*
X111388Y82372D01*
X113888D01*
X114945Y82511D01*
X115235Y82631D01*
X115802Y81783D01*
X114482Y80463D01*
X113888Y80542D01*
X111388D01*
X110330Y80402D01*
X109345Y79994D01*
X108499Y79345D01*
X107850Y78499D01*
X107442Y77514D01*
X107303Y76457D01*
X107442Y75399D01*
X107850Y74414D01*
X108072Y74125D01*
X103308Y69362D01*
X102965Y68849D01*
X102845Y68244D01*
Y46334D01*
X102965Y45729D01*
X103308Y45216D01*
X111038Y37486D01*
X110655Y36562D01*
X106126D01*
Y30238D01*
X106126D01*
X106671Y29238D01*
X106604Y28900D01*
X106788Y27973D01*
X107313Y27188D01*
X108099Y26663D01*
X109025Y26479D01*
X109952Y26663D01*
X110737Y27188D01*
X111262Y27973D01*
X111446Y28900D01*
X111379Y29238D01*
X112057Y30238D01*
X112057D01*
Y35161D01*
X112981Y35544D01*
X114394Y34130D01*
Y30238D01*
X120324D01*
Y36562D01*
X116432D01*
X106106Y46888D01*
X106185Y47509D01*
X107224Y47754D01*
X107379Y47522D01*
X108165Y46997D01*
X109091Y46812D01*
X110018Y46997D01*
X110803Y47522D01*
X111328Y48307D01*
X111513Y49234D01*
X111492Y49338D01*
X112057Y50338D01*
X112057D01*
Y56662D01*
X106126Y56662D01*
X106006Y57612D01*
Y67569D01*
X106574Y68032D01*
X107442Y67514D01*
X107303Y66457D01*
X107442Y65399D01*
X107850Y64414D01*
X108499Y63568D01*
X109345Y62919D01*
X110330Y62511D01*
X111388Y62372D01*
X113888D01*
X114418Y62441D01*
X115779Y61081D01*
Y56662D01*
X114394D01*
Y50338D01*
X120324D01*
X120496Y49409D01*
Y40004D01*
X120612Y39419D01*
X120944Y38923D01*
X138858Y21008D01*
X138792Y20849D01*
X138653Y19791D01*
Y18791D01*
X138792Y17734D01*
X139200Y16749D01*
X139849Y15903D01*
X140695Y15254D01*
X141681Y14846D01*
X142738Y14706D01*
X143795Y14846D01*
X144780Y15254D01*
X145626Y15903D01*
X146275Y16749D01*
X146684Y17734D01*
X146823Y18791D01*
Y19791D01*
X146684Y20849D01*
X146275Y21834D01*
X145626Y22680D01*
X144780Y23329D01*
X143795Y23737D01*
X142738Y23876D01*
X141681Y23737D01*
X140814Y23378D01*
X138021Y26171D01*
X138436Y27171D01*
X144892D01*
X149533Y22529D01*
X149000Y21834D01*
X148592Y20849D01*
X148453Y19791D01*
Y18791D01*
X148592Y17734D01*
X149000Y16749D01*
X149649Y15903D01*
X150495Y15254D01*
X151480Y14846D01*
X152538Y14706D01*
X153595Y14846D01*
X154580Y15254D01*
X155426Y15903D01*
X156076Y16749D01*
X156484Y17734D01*
X156623Y18791D01*
Y19791D01*
X156484Y20849D01*
X156076Y21834D01*
X155426Y22680D01*
X154580Y23329D01*
X153595Y23737D01*
X152538Y23876D01*
X152515Y23873D01*
X146607Y29781D01*
X146110Y30113D01*
X145525Y30229D01*
X137959D01*
X133177Y35011D01*
X133591Y36011D01*
X141745D01*
Y43516D01*
X138588D01*
Y46117D01*
X138468Y46722D01*
X138125Y47235D01*
X137816Y47545D01*
X137847Y47700D01*
X137662Y48627D01*
X137137Y49412D01*
X137459Y50400D01*
X162325D01*
X163875Y50950D01*
X165225Y51600D01*
X167275Y53450D01*
X168075Y54250D01*
X168625Y55200D01*
X169625Y57825D01*
Y61600D01*
X168775Y63250D01*
X167925Y64900D01*
X165625Y66929D01*
X162806Y68037D01*
Y72150D01*
X164525D01*
Y74171D01*
X165325D01*
X165910Y74287D01*
X166407Y74619D01*
X169251Y77463D01*
X169582Y77959D01*
X169699Y78544D01*
Y84356D01*
X169582Y84941D01*
X169251Y85437D01*
X166500Y88188D01*
X166004Y88519D01*
X165419Y88636D01*
X162694D01*
Y93283D01*
Y95813D01*
X171358D01*
X171465Y95793D01*
X171545Y95764D01*
X171594Y95736D01*
X171626Y95708D01*
X171657Y95668D01*
X171690Y95601D01*
X171724Y95494D01*
X171745Y95365D01*
Y59066D01*
X171865Y58461D01*
X172208Y57949D01*
X175926Y54230D01*
Y50338D01*
X181857D01*
Y56662D01*
X177964D01*
X174906Y59721D01*
Y95365D01*
X174927Y95494D01*
X174960Y95601D01*
X174994Y95668D01*
X175024Y95708D01*
X175056Y95736D01*
X175105Y95764D01*
X175185Y95793D01*
X175292Y95813D01*
X177466D01*
X177850Y94887D01*
X178499Y94041D01*
X179345Y93392D01*
X180331Y92983D01*
X181388Y92844D01*
X183888D01*
X184945Y92983D01*
X185930Y93392D01*
X186776Y94041D01*
X187425Y94887D01*
X187834Y95872D01*
X187973Y96929D01*
X187834Y97986D01*
X187764Y98153D01*
X188612Y98720D01*
X190745Y96587D01*
Y57405D01*
X190124Y56662D01*
X189745Y56662D01*
X184194D01*
Y50338D01*
X184194D01*
X184752Y49338D01*
X184738Y49266D01*
X184922Y48340D01*
X185447Y47554D01*
X186232Y47029D01*
X187159Y46845D01*
X188086Y47029D01*
X188871Y47554D01*
X189396Y48340D01*
X189542Y49071D01*
X190100Y49349D01*
X190745Y48820D01*
Y47888D01*
X179819Y36962D01*
X175926D01*
Y30638D01*
X181857D01*
Y34530D01*
X183270Y35943D01*
X184194Y35561D01*
Y30638D01*
X184194D01*
X184792Y29638D01*
X184738Y29366D01*
X184922Y28440D01*
X185447Y27654D01*
X186232Y27129D01*
X187159Y26945D01*
X188086Y27129D01*
X188871Y27654D01*
X189396Y28440D01*
X189580Y29366D01*
X189526Y29638D01*
X190124Y30638D01*
X190124D01*
Y36962D01*
X185595D01*
X185212Y37886D01*
X193443Y46116D01*
X193785Y46629D01*
X193906Y47234D01*
Y97242D01*
X193785Y97847D01*
X193443Y98359D01*
X187204Y104598D01*
X187425Y104887D01*
X187834Y105872D01*
X187973Y106929D01*
X187834Y107986D01*
X187425Y108972D01*
X186776Y109818D01*
X185930Y110467D01*
X184945Y110875D01*
X183888Y111014D01*
X181388D01*
X180331Y110875D01*
X180041Y110755D01*
X179474Y111602D01*
X180794Y112922D01*
X181388Y112844D01*
X183888D01*
X184945Y112983D01*
X185930Y113391D01*
X186776Y114041D01*
X187425Y114887D01*
X187834Y115872D01*
X187973Y116929D01*
X187834Y117986D01*
X187425Y118972D01*
X186776Y119818D01*
X185930Y120467D01*
X184945Y120875D01*
X183888Y121014D01*
X181388D01*
X180331Y120875D01*
X180041Y120755D01*
X179474Y121602D01*
X180794Y122922D01*
X181388Y122844D01*
X183888D01*
X184945Y122983D01*
X185930Y123391D01*
X186776Y124041D01*
X187425Y124887D01*
X187834Y125872D01*
X187973Y126929D01*
X187834Y127986D01*
X187425Y128972D01*
X186776Y129818D01*
X185930Y130467D01*
X184945Y130875D01*
X183888Y131014D01*
X181388D01*
X180331Y130875D01*
X180164Y130806D01*
X179597Y131653D01*
X180858Y132914D01*
X181388Y132844D01*
X183888D01*
X184945Y132983D01*
X185930Y133391D01*
X186776Y134041D01*
X187425Y134887D01*
X187834Y135872D01*
X187973Y136929D01*
X187834Y137986D01*
X187425Y138972D01*
X186776Y139818D01*
X185930Y140467D01*
X184945Y140875D01*
X183888Y141014D01*
X181388D01*
X180331Y140875D01*
X179345Y140467D01*
X178499Y139818D01*
X177850Y138972D01*
X177442Y137986D01*
X177303Y136929D01*
X177442Y135872D01*
X177850Y134887D01*
X178072Y134598D01*
X173141Y129667D01*
X173035Y129593D01*
X172939Y129545D01*
X172870Y129524D01*
X172817Y129519D01*
X172764Y129524D01*
X172695Y129545D01*
X172599Y129593D01*
X172493Y129667D01*
X158533Y143627D01*
X158533Y144773D01*
X158973Y145212D01*
X159315Y145725D01*
X159435Y146330D01*
Y148147D01*
X162592D01*
Y155653D01*
X159454D01*
Y157206D01*
X159334Y157811D01*
X158992Y158323D01*
X154994Y162321D01*
Y166936D01*
D02*
G37*
G36*
X117938Y140507D02*
X107338D01*
Y132407D01*
X114525D01*
X115802Y131130D01*
X115235Y130282D01*
X114945Y130402D01*
X113888Y130542D01*
X111388D01*
X110330Y130402D01*
X109345Y129994D01*
X108499Y129345D01*
X107850Y128499D01*
X107442Y127514D01*
X107303Y126457D01*
X107442Y125399D01*
X107850Y124414D01*
X108499Y123568D01*
X109345Y122919D01*
X110330Y122511D01*
X111388Y122372D01*
X113888D01*
X114945Y122511D01*
X115930Y122919D01*
X115938Y122925D01*
X120996Y117867D01*
Y112000D01*
X121076Y111595D01*
X120576Y111160D01*
X120252Y111006D01*
X117173Y114085D01*
X117426Y114414D01*
X117834Y115399D01*
X117973Y116457D01*
X117834Y117514D01*
X117426Y118499D01*
X116776Y119345D01*
X115930Y119994D01*
X114945Y120402D01*
X113888Y120542D01*
X111388D01*
X110330Y120402D01*
X109345Y119994D01*
X108499Y119345D01*
X107850Y118499D01*
X107442Y117514D01*
X107303Y116457D01*
X107442Y115399D01*
X107850Y114414D01*
X108499Y113568D01*
X109345Y112919D01*
X110330Y112511D01*
X111388Y112372D01*
X113888D01*
X114482Y112450D01*
X115802Y111130D01*
X115235Y110282D01*
X114945Y110402D01*
X113888Y110542D01*
X111388D01*
X110330Y110402D01*
X109345Y109994D01*
X108499Y109345D01*
X107850Y108499D01*
X107442Y107514D01*
X107303Y106457D01*
X107442Y105399D01*
X107850Y104414D01*
X108499Y103568D01*
X109345Y102919D01*
X110330Y102511D01*
X111388Y102372D01*
X113888D01*
X114945Y102511D01*
X115930Y102919D01*
X116617Y103446D01*
X121242Y98820D01*
X121738Y98489D01*
X122324Y98372D01*
X135994D01*
X136142Y98402D01*
X139694D01*
Y100961D01*
Y103520D01*
Y106079D01*
Y109079D01*
X136142D01*
X135994Y109108D01*
X132580D01*
X129555Y112134D01*
Y121069D01*
X129438Y121655D01*
X129107Y122151D01*
X117938Y133320D01*
Y140507D01*
D02*
G37*
G36*
X183888Y91014D02*
X181388D01*
X180331Y90875D01*
X179345Y90467D01*
X178499Y89818D01*
X177850Y88972D01*
X177442Y87986D01*
X177303Y86929D01*
X177442Y85872D01*
X177850Y84887D01*
X178499Y84041D01*
X179345Y83391D01*
X180331Y82983D01*
X181388Y82844D01*
X183888D01*
X184945Y82983D01*
X185930Y83391D01*
X186776Y84041D01*
X187425Y84887D01*
X187834Y85872D01*
X187973Y86929D01*
X187834Y87986D01*
X187425Y88972D01*
X186776Y89818D01*
X185930Y90467D01*
X184945Y90875D01*
X183888Y91014D01*
D02*
G37*
G36*
X187938Y70979D02*
X177338D01*
Y62879D01*
X187938D01*
Y70979D01*
D02*
G37*
G36*
X162638Y23876D02*
X161581Y23737D01*
X160595Y23329D01*
X159749Y22680D01*
X159100Y21834D01*
X158692Y20849D01*
X158553Y19791D01*
Y18791D01*
X158692Y17734D01*
X159100Y16749D01*
X159749Y15903D01*
X160595Y15254D01*
X161581Y14846D01*
X162638Y14706D01*
X163695Y14846D01*
X164680Y15254D01*
X165526Y15903D01*
X166175Y16749D01*
X166584Y17734D01*
X166723Y18791D01*
Y19791D01*
X166584Y20849D01*
X166175Y21834D01*
X165526Y22680D01*
X164680Y23329D01*
X163695Y23737D01*
X162638Y23876D01*
D02*
G37*
%LPD*%
G36*
X159533Y170027D02*
X159342Y169815D01*
X159194Y169603D01*
X159088Y169390D01*
X159024Y169178D01*
X159003Y168966D01*
X159024Y168754D01*
X159088Y168542D01*
X159194Y168330D01*
X159342Y168118D01*
X159533Y167905D01*
X159533Y167905D01*
X159533Y167905D01*
X157942Y167375D01*
X156881Y168436D01*
X156351Y171088D01*
X156351Y171087D01*
X156351Y171088D01*
X156563Y170896D01*
X156775Y170748D01*
X156988Y170642D01*
X157200Y170578D01*
X157412Y170557D01*
X157624Y170578D01*
X157836Y170642D01*
X158048Y170748D01*
X158260Y170896D01*
X158473Y171088D01*
D01*
X158473D01*
X159533Y170027D01*
D02*
G37*
G36*
X157656Y145048D02*
X157507Y144836D01*
X157401Y144624D01*
X157337Y144412D01*
X157316Y144200D01*
X157337Y143988D01*
X157401Y143776D01*
X157507Y143564D01*
X157656Y143351D01*
X157846Y143139D01*
X156786Y142079D01*
X156574Y142270D01*
X156362Y142418D01*
X156149Y142524D01*
X155937Y142588D01*
X155725Y142609D01*
X155513Y142588D01*
X155301Y142524D01*
X155089Y142418D01*
X154877Y142270D01*
X154665Y142079D01*
X155725Y144200D01*
X157846Y145261D01*
X157656Y145048D01*
D02*
G37*
G36*
X173347Y126578D02*
X170696Y126048D01*
X170887Y126260D01*
X171035Y126472D01*
X171141Y126684D01*
X171205Y126896D01*
X171226Y127108D01*
X171205Y127320D01*
X171141Y127532D01*
X171035Y127745D01*
X170887Y127957D01*
X170696Y128169D01*
X171756Y129230D01*
X171968Y129039D01*
X172180Y128890D01*
X172393Y128784D01*
X172605Y128720D01*
X172817Y128699D01*
X173029Y128720D01*
X173241Y128784D01*
X173453Y128890D01*
X173665Y129039D01*
X173878Y129230D01*
X173347Y126578D01*
D02*
G37*
G36*
X175475Y96643D02*
X175209Y96627D01*
X174971Y96583D01*
X174761Y96508D01*
X174579Y96403D01*
X174425Y96267D01*
X174299Y96102D01*
X174201Y95907D01*
X174131Y95683D01*
X174089Y95428D01*
X174075Y95143D01*
X172575D01*
X172561Y95428D01*
X172519Y95683D01*
X172449Y95907D01*
X172351Y96102D01*
X172225Y96267D01*
X172071Y96403D01*
X171889Y96508D01*
X171679Y96583D01*
X171441Y96627D01*
X171175Y96643D01*
X173325Y98043D01*
X175475Y96643D01*
D02*
G37*
G36*
X166640Y83722D02*
Y79178D01*
X165525Y78063D01*
X164525Y78477D01*
Y79250D01*
X157925D01*
Y72150D01*
X159645D01*
Y68500D01*
X144606D01*
Y72150D01*
X146325D01*
Y79250D01*
X146325D01*
X145977Y80089D01*
X149866Y83978D01*
X150735Y83539D01*
X150778Y83476D01*
X150604Y82600D01*
X150788Y81673D01*
X151313Y80888D01*
X152099Y80363D01*
X153025Y80179D01*
X153952Y80363D01*
X154737Y80888D01*
X155262Y81673D01*
X155447Y82600D01*
X156380Y83018D01*
X158994D01*
X159142Y83047D01*
X162694D01*
Y85577D01*
X164785D01*
X166640Y83722D01*
D02*
G37*
G36*
X141201Y82688D02*
X141987Y82163D01*
X142257Y82109D01*
X142586Y81024D01*
X141944Y80381D01*
X141612Y79885D01*
X141496Y79300D01*
Y79250D01*
X139725D01*
Y72150D01*
X141445D01*
Y68500D01*
X134125D01*
X132925Y68244D01*
X130517Y67429D01*
X128449Y65858D01*
X126955Y64134D01*
X126854Y64131D01*
X125955Y64462D01*
Y75666D01*
X133306Y83018D01*
X135994D01*
X136142Y83047D01*
X139694D01*
Y83286D01*
X140676Y83473D01*
X141201Y82688D01*
D02*
G37*
%LPC*%
G36*
X69304Y193517D02*
X60617D01*
Y184436D01*
X69304D01*
Y193517D01*
D02*
G37*
G36*
X37808D02*
X29121D01*
Y184436D01*
X37808D01*
Y193517D01*
D02*
G37*
G36*
X49397Y193517D02*
X48397Y193517D01*
X39948D01*
Y184436D01*
X48397D01*
X49028Y184436D01*
X50028Y184436D01*
X58477D01*
Y193517D01*
X50028D01*
X49397Y193517D01*
D02*
G37*
G36*
X82731Y185262D02*
X76801D01*
Y183680D01*
X72120D01*
X71516Y183560D01*
X71003Y183218D01*
X68266Y180480D01*
X68110Y180511D01*
X67184Y180327D01*
X66398Y179802D01*
X65873Y179016D01*
X65689Y178090D01*
X65720Y177934D01*
X59310Y171525D01*
X59205Y171451D01*
X59109Y171403D01*
X59039Y171382D01*
X58987Y171377D01*
X58934Y171382D01*
X58864Y171403D01*
X58769Y171451D01*
X58663Y171525D01*
X56118Y174070D01*
X55918Y174987D01*
X55918Y174987D01*
X55918Y174987D01*
Y176578D01*
X56918Y177202D01*
X57382Y177110D01*
X58232Y177279D01*
X58952Y177761D01*
X59434Y178481D01*
X59602Y179331D01*
X59434Y180181D01*
X58952Y180901D01*
X58232Y181382D01*
X57382Y181551D01*
X56918Y181459D01*
X55918Y181902D01*
Y181902D01*
X45066D01*
Y174987D01*
X52750D01*
Y173622D01*
X52871Y173017D01*
X53213Y172504D01*
X57869Y167849D01*
X57869Y167849D01*
X57869Y167849D01*
X69750Y155968D01*
Y153100D01*
X76850D01*
Y154876D01*
X79663D01*
Y152407D01*
X88763D01*
Y160507D01*
X79663D01*
Y158037D01*
X76850D01*
Y159700D01*
X70488D01*
X61545Y168642D01*
X61471Y168748D01*
X61423Y168844D01*
X61403Y168913D01*
X61397Y168966D01*
X61403Y169019D01*
X61423Y169089D01*
X61471Y169184D01*
X61545Y169290D01*
X67955Y175699D01*
X68110Y175668D01*
X69037Y175853D01*
X69822Y176378D01*
X70347Y177163D01*
X70532Y178090D01*
X70501Y178245D01*
X72775Y180520D01*
X76801D01*
Y178938D01*
X82731D01*
Y185262D01*
D02*
G37*
G36*
X88034Y190255D02*
X87107Y190071D01*
X86322Y189546D01*
X85797Y188760D01*
X85612Y187834D01*
X85797Y186907D01*
X86228Y186262D01*
X86068Y185697D01*
X85808Y185262D01*
X85069D01*
Y178938D01*
X90999D01*
Y185262D01*
X90260D01*
X90000Y185697D01*
X89840Y186262D01*
X90271Y186907D01*
X90455Y187834D01*
X90271Y188760D01*
X89746Y189546D01*
X88960Y190071D01*
X88034Y190255D01*
D02*
G37*
G36*
X11140Y190082D02*
X10213Y189897D01*
X9428Y189372D01*
X8903Y188587D01*
X8718Y187660D01*
X8903Y186734D01*
X9245Y186221D01*
X8895Y185329D01*
X8802Y185221D01*
X8174D01*
Y178897D01*
X14105D01*
Y185221D01*
X13477D01*
X13385Y185329D01*
X13034Y186221D01*
X13377Y186734D01*
X13561Y187660D01*
X13377Y188587D01*
X12852Y189372D01*
X12066Y189897D01*
X11140Y190082D01*
D02*
G37*
G36*
X41043Y181551D02*
X40194Y181382D01*
X39473Y180901D01*
X38992Y180181D01*
X38823Y179331D01*
X38992Y178481D01*
X39473Y177761D01*
X40194Y177279D01*
X41043Y177110D01*
X41893Y177279D01*
X42614Y177761D01*
X43095Y178481D01*
X43264Y179331D01*
X43095Y180181D01*
X42614Y180901D01*
X41893Y181382D01*
X41043Y181551D01*
D02*
G37*
G36*
X22373Y185221D02*
X16442D01*
Y178897D01*
X22373D01*
Y178897D01*
X22822Y179083D01*
X28565Y173340D01*
Y164914D01*
X28163Y164312D01*
X27979Y163386D01*
X28163Y162459D01*
X28198Y162407D01*
X25491Y159700D01*
X21350D01*
Y158292D01*
X18763D01*
Y160507D01*
X9663D01*
Y152407D01*
X18763D01*
Y154621D01*
X21350D01*
Y153100D01*
X28450D01*
Y157468D01*
X31698Y160716D01*
X32096Y161311D01*
X32143Y161551D01*
X40969D01*
Y159836D01*
X47569D01*
Y166936D01*
X40969D01*
Y165221D01*
X32235D01*
Y174100D01*
X32096Y174802D01*
X31698Y175398D01*
X23739Y183357D01*
X23143Y183755D01*
X22441Y183894D01*
X22373D01*
Y185221D01*
D02*
G37*
G36*
X56569Y166936D02*
X49969D01*
Y159836D01*
X54584D01*
X57767Y156653D01*
X57623Y155653D01*
X54693D01*
Y148147D01*
X57850D01*
Y146985D01*
X54715Y143850D01*
X50100D01*
Y136750D01*
X56700D01*
Y141063D01*
X56812Y141186D01*
X57938Y141327D01*
X71584Y127681D01*
X71584Y126535D01*
X68283Y123234D01*
X67940Y122721D01*
X67820Y122116D01*
Y113482D01*
X63445Y109108D01*
X60569D01*
X60421Y109079D01*
X56869D01*
Y106079D01*
Y103520D01*
Y100961D01*
Y97708D01*
X55869Y97294D01*
X55029Y98133D01*
Y110650D01*
X56800D01*
Y117750D01*
X55335D01*
Y119311D01*
X56800D01*
Y126411D01*
X55278D01*
X55196Y126828D01*
X54798Y127423D01*
X51591Y130630D01*
X51450Y131339D01*
X50925Y132125D01*
X50139Y132650D01*
X49213Y132834D01*
X48286Y132650D01*
X47501Y132125D01*
X46976Y131339D01*
X46834Y130630D01*
X43486Y127281D01*
X43088Y126686D01*
X43033Y126411D01*
X41484D01*
Y119311D01*
X42948D01*
Y117750D01*
X41484D01*
Y110650D01*
X43254D01*
Y97381D01*
X42186Y96313D01*
X22539D01*
X21954Y96196D01*
X21458Y95865D01*
X16057Y90464D01*
X15463Y90542D01*
X12963D01*
X11905Y90402D01*
X10920Y89994D01*
X10074Y89345D01*
X9425Y88499D01*
X9017Y87514D01*
X8878Y86457D01*
X9017Y85399D01*
X9425Y84414D01*
X10074Y83568D01*
X10920Y82919D01*
X11905Y82511D01*
X12963Y82372D01*
X15463D01*
X16520Y82511D01*
X16810Y82631D01*
X17376Y81783D01*
X16057Y80463D01*
X15463Y80542D01*
X12963D01*
X11905Y80402D01*
X10920Y79994D01*
X10074Y79345D01*
X9425Y78499D01*
X9017Y77514D01*
X8878Y76457D01*
X9017Y75399D01*
X9425Y74414D01*
X9646Y74125D01*
X4882Y69362D01*
X4540Y68849D01*
X4420Y68244D01*
Y46334D01*
X4540Y45729D01*
X4882Y45216D01*
X12613Y37486D01*
X12230Y36562D01*
X7701D01*
Y30238D01*
X7701D01*
X8246Y29238D01*
X8179Y28900D01*
X8363Y27973D01*
X8888Y27188D01*
X9673Y26663D01*
X10600Y26479D01*
X11527Y26663D01*
X12312Y27188D01*
X12837Y27973D01*
X13021Y28900D01*
X12954Y29238D01*
X13632Y30238D01*
X13632D01*
Y35161D01*
X14555Y35544D01*
X15969Y34130D01*
Y30238D01*
X21899D01*
Y36562D01*
X18007D01*
X7681Y46888D01*
X7760Y47509D01*
X8799Y47754D01*
X8954Y47522D01*
X9740Y46997D01*
X10666Y46812D01*
X11593Y46997D01*
X12378Y47522D01*
X12903Y48307D01*
X13088Y49234D01*
X13067Y49338D01*
X13632Y50338D01*
X13632D01*
Y56662D01*
X7701Y56662D01*
X7580Y57612D01*
Y67569D01*
X8149Y68032D01*
X9017Y67514D01*
X8878Y66457D01*
X9017Y65399D01*
X9425Y64414D01*
X10074Y63568D01*
X10920Y62919D01*
X11905Y62511D01*
X12963Y62372D01*
X15463D01*
X15993Y62441D01*
X17354Y61081D01*
Y56662D01*
X15969D01*
Y50338D01*
X21899D01*
X22071Y49409D01*
Y40004D01*
X22187Y39419D01*
X22519Y38923D01*
X40433Y21008D01*
X40367Y20849D01*
X40228Y19791D01*
Y18791D01*
X40367Y17734D01*
X40775Y16749D01*
X41424Y15903D01*
X42270Y15254D01*
X43255Y14846D01*
X44313Y14706D01*
X45370Y14846D01*
X46355Y15254D01*
X47201Y15903D01*
X47850Y16749D01*
X48258Y17734D01*
X48398Y18791D01*
Y19791D01*
X48258Y20849D01*
X47850Y21834D01*
X47201Y22680D01*
X46355Y23329D01*
X45370Y23737D01*
X44313Y23876D01*
X43255Y23737D01*
X42389Y23378D01*
X39596Y26171D01*
X40010Y27171D01*
X46466D01*
X51108Y22529D01*
X50575Y21834D01*
X50167Y20849D01*
X50028Y19791D01*
Y18791D01*
X50167Y17734D01*
X50575Y16749D01*
X51224Y15903D01*
X52070Y15254D01*
X53055Y14846D01*
X54113Y14706D01*
X55170Y14846D01*
X56155Y15254D01*
X57001Y15903D01*
X57650Y16749D01*
X58058Y17734D01*
X58198Y18791D01*
Y19791D01*
X58058Y20849D01*
X57650Y21834D01*
X57001Y22680D01*
X56155Y23329D01*
X55170Y23737D01*
X54113Y23876D01*
X54090Y23873D01*
X48181Y29781D01*
X47685Y30113D01*
X47100Y30229D01*
X39533D01*
X34752Y35011D01*
X35166Y36011D01*
X43320D01*
Y43516D01*
X40163D01*
Y46117D01*
X40043Y46722D01*
X39700Y47235D01*
X39390Y47545D01*
X39421Y47700D01*
X39237Y48627D01*
X38712Y49412D01*
X39034Y50400D01*
X63900D01*
X65450Y50950D01*
X66800Y51600D01*
X68850Y53450D01*
X69650Y54250D01*
X70200Y55200D01*
X71200Y57825D01*
Y61600D01*
X70350Y63250D01*
X69500Y64900D01*
X67200Y66929D01*
X64380Y68037D01*
Y72150D01*
X66100D01*
Y74171D01*
X66900D01*
X67485Y74287D01*
X67981Y74619D01*
X70825Y77463D01*
X71157Y77959D01*
X71273Y78544D01*
Y84356D01*
X71157Y84941D01*
X70825Y85437D01*
X68075Y88188D01*
X67579Y88519D01*
X66994Y88636D01*
X64269D01*
Y93283D01*
Y95813D01*
X72933D01*
X73040Y95793D01*
X73120Y95764D01*
X73169Y95736D01*
X73201Y95708D01*
X73231Y95668D01*
X73265Y95601D01*
X73298Y95494D01*
X73320Y95365D01*
Y59066D01*
X73440Y58461D01*
X73782Y57949D01*
X77501Y54230D01*
Y50338D01*
X83432D01*
Y56662D01*
X79539D01*
X76480Y59721D01*
Y95365D01*
X76502Y95494D01*
X76535Y95601D01*
X76569Y95668D01*
X76599Y95708D01*
X76631Y95736D01*
X76680Y95764D01*
X76760Y95793D01*
X76867Y95813D01*
X79041D01*
X79425Y94887D01*
X80074Y94041D01*
X80920Y93392D01*
X81905Y92983D01*
X82963Y92844D01*
X85463D01*
X86520Y92983D01*
X87505Y93392D01*
X88351Y94041D01*
X89000Y94887D01*
X89408Y95872D01*
X89548Y96929D01*
X89408Y97986D01*
X89339Y98153D01*
X90187Y98720D01*
X92320Y96587D01*
Y57405D01*
X91699Y56662D01*
X91320Y56662D01*
X85769D01*
Y50338D01*
X85769D01*
X86327Y49338D01*
X86313Y49266D01*
X86497Y48340D01*
X87022Y47554D01*
X87807Y47029D01*
X88734Y46845D01*
X89661Y47029D01*
X90446Y47554D01*
X90971Y48340D01*
X91116Y49071D01*
X91675Y49349D01*
X92320Y48820D01*
Y47888D01*
X81393Y36962D01*
X77501D01*
Y30638D01*
X83432D01*
Y34530D01*
X84845Y35943D01*
X85769Y35561D01*
Y30638D01*
X85769D01*
X86367Y29638D01*
X86313Y29366D01*
X86497Y28440D01*
X87022Y27654D01*
X87807Y27129D01*
X88734Y26945D01*
X89661Y27129D01*
X90446Y27654D01*
X90971Y28440D01*
X91155Y29366D01*
X91101Y29638D01*
X91699Y30638D01*
X91699D01*
Y36962D01*
X87170D01*
X86787Y37886D01*
X95017Y46116D01*
X95360Y46629D01*
X95480Y47234D01*
Y97242D01*
X95360Y97847D01*
X95017Y98359D01*
X88779Y104598D01*
X89000Y104887D01*
X89408Y105872D01*
X89548Y106929D01*
X89408Y107986D01*
X89000Y108972D01*
X88351Y109818D01*
X87505Y110467D01*
X86520Y110875D01*
X85463Y111014D01*
X82963D01*
X81905Y110875D01*
X81615Y110755D01*
X81049Y111602D01*
X82369Y112922D01*
X82963Y112844D01*
X85463D01*
X86520Y112983D01*
X87505Y113391D01*
X88351Y114041D01*
X89000Y114887D01*
X89408Y115872D01*
X89548Y116929D01*
X89408Y117986D01*
X89000Y118972D01*
X88351Y119818D01*
X87505Y120467D01*
X86520Y120875D01*
X85463Y121014D01*
X82963D01*
X81905Y120875D01*
X81615Y120755D01*
X81049Y121602D01*
X82369Y122922D01*
X82963Y122844D01*
X85463D01*
X86520Y122983D01*
X87505Y123391D01*
X88351Y124041D01*
X89000Y124887D01*
X89408Y125872D01*
X89548Y126929D01*
X89408Y127986D01*
X89000Y128972D01*
X88351Y129818D01*
X87505Y130467D01*
X86520Y130875D01*
X85463Y131014D01*
X82963D01*
X81905Y130875D01*
X81738Y130806D01*
X81172Y131653D01*
X82432Y132914D01*
X82963Y132844D01*
X85463D01*
X86520Y132983D01*
X87505Y133391D01*
X88351Y134041D01*
X89000Y134887D01*
X89408Y135872D01*
X89548Y136929D01*
X89408Y137986D01*
X89000Y138972D01*
X88351Y139818D01*
X87505Y140467D01*
X86520Y140875D01*
X85463Y141014D01*
X82963D01*
X81905Y140875D01*
X80920Y140467D01*
X80074Y139818D01*
X79425Y138972D01*
X79017Y137986D01*
X78878Y136929D01*
X79017Y135872D01*
X79425Y134887D01*
X79646Y134598D01*
X74715Y129667D01*
X74610Y129593D01*
X74514Y129545D01*
X74445Y129524D01*
X74392Y129519D01*
X74339Y129524D01*
X74269Y129545D01*
X74174Y129593D01*
X74068Y129667D01*
X60108Y143627D01*
X60108Y144773D01*
X60547Y145212D01*
X60890Y145725D01*
X61010Y146330D01*
Y148147D01*
X64167D01*
Y155653D01*
X61029D01*
Y157206D01*
X60909Y157811D01*
X60566Y158323D01*
X56569Y162321D01*
Y166936D01*
D02*
G37*
G36*
X19513Y140507D02*
X8913D01*
Y132407D01*
X16100D01*
X17376Y131130D01*
X16810Y130282D01*
X16520Y130402D01*
X15463Y130542D01*
X12963D01*
X11905Y130402D01*
X10920Y129994D01*
X10074Y129345D01*
X9425Y128499D01*
X9017Y127514D01*
X8878Y126457D01*
X9017Y125399D01*
X9425Y124414D01*
X10074Y123568D01*
X10920Y122919D01*
X11905Y122511D01*
X12963Y122372D01*
X15463D01*
X16520Y122511D01*
X17505Y122919D01*
X17512Y122925D01*
X22571Y117867D01*
Y112000D01*
X22651Y111595D01*
X22151Y111160D01*
X21826Y111006D01*
X18747Y114085D01*
X19000Y114414D01*
X19408Y115399D01*
X19548Y116457D01*
X19408Y117514D01*
X19000Y118499D01*
X18351Y119345D01*
X17505Y119994D01*
X16520Y120402D01*
X15463Y120542D01*
X12963D01*
X11905Y120402D01*
X10920Y119994D01*
X10074Y119345D01*
X9425Y118499D01*
X9017Y117514D01*
X8878Y116457D01*
X9017Y115399D01*
X9425Y114414D01*
X10074Y113568D01*
X10920Y112919D01*
X11905Y112511D01*
X12963Y112372D01*
X15463D01*
X16057Y112450D01*
X17376Y111130D01*
X16810Y110282D01*
X16520Y110402D01*
X15463Y110542D01*
X12963D01*
X11905Y110402D01*
X10920Y109994D01*
X10074Y109345D01*
X9425Y108499D01*
X9017Y107514D01*
X8878Y106457D01*
X9017Y105399D01*
X9425Y104414D01*
X10074Y103568D01*
X10920Y102919D01*
X11905Y102511D01*
X12963Y102372D01*
X15463D01*
X16520Y102511D01*
X17505Y102919D01*
X18191Y103446D01*
X22817Y98820D01*
X23313Y98489D01*
X23898Y98372D01*
X37569D01*
X37717Y98402D01*
X41269D01*
Y100961D01*
Y103520D01*
Y106079D01*
Y109079D01*
X37717D01*
X37569Y109108D01*
X34155D01*
X31129Y112134D01*
Y121069D01*
X31013Y121655D01*
X30681Y122151D01*
X19513Y133320D01*
Y140507D01*
D02*
G37*
G36*
X85463Y91014D02*
X82963D01*
X81905Y90875D01*
X80920Y90467D01*
X80074Y89818D01*
X79425Y88972D01*
X79017Y87986D01*
X78878Y86929D01*
X79017Y85872D01*
X79425Y84887D01*
X80074Y84041D01*
X80920Y83391D01*
X81905Y82983D01*
X82963Y82844D01*
X85463D01*
X86520Y82983D01*
X87505Y83391D01*
X88351Y84041D01*
X89000Y84887D01*
X89408Y85872D01*
X89548Y86929D01*
X89408Y87986D01*
X89000Y88972D01*
X88351Y89818D01*
X87505Y90467D01*
X86520Y90875D01*
X85463Y91014D01*
D02*
G37*
G36*
X89513Y70979D02*
X78913D01*
Y62879D01*
X89513D01*
Y70979D01*
D02*
G37*
G36*
X64213Y23876D02*
X63155Y23737D01*
X62170Y23329D01*
X61324Y22680D01*
X60675Y21834D01*
X60267Y20849D01*
X60128Y19791D01*
Y18791D01*
X60267Y17734D01*
X60675Y16749D01*
X61324Y15903D01*
X62170Y15254D01*
X63155Y14846D01*
X64213Y14706D01*
X65270Y14846D01*
X66255Y15254D01*
X67101Y15903D01*
X67750Y16749D01*
X68158Y17734D01*
X68298Y18791D01*
Y19791D01*
X68158Y20849D01*
X67750Y21834D01*
X67101Y22680D01*
X66255Y23329D01*
X65270Y23737D01*
X64213Y23876D01*
D02*
G37*
%LPD*%
G36*
X61108Y170027D02*
X60917Y169815D01*
X60769Y169603D01*
X60663Y169390D01*
X60599Y169178D01*
X60578Y168966D01*
X60599Y168754D01*
X60663Y168542D01*
X60769Y168330D01*
X60917Y168118D01*
X61108Y167905D01*
X61108Y167905D01*
X61108Y167905D01*
X59517Y167375D01*
X58456Y168436D01*
X57926Y171088D01*
X57926Y171087D01*
X57926Y171088D01*
X58138Y170896D01*
X58350Y170748D01*
X58562Y170642D01*
X58775Y170578D01*
X58987Y170557D01*
X59199Y170578D01*
X59411Y170642D01*
X59623Y170748D01*
X59835Y170896D01*
X60047Y171088D01*
D01*
X60047D01*
X61108Y170027D01*
D02*
G37*
G36*
X59230Y145048D02*
X59082Y144836D01*
X58976Y144624D01*
X58912Y144412D01*
X58891Y144200D01*
X58912Y143988D01*
X58976Y143776D01*
X59082Y143564D01*
X59230Y143351D01*
X59421Y143139D01*
X58361Y142079D01*
X58148Y142270D01*
X57936Y142418D01*
X57724Y142524D01*
X57512Y142588D01*
X57300Y142609D01*
X57088Y142588D01*
X56876Y142524D01*
X56664Y142418D01*
X56451Y142270D01*
X56239Y142079D01*
X57300Y144200D01*
X59421Y145261D01*
X59230Y145048D01*
D02*
G37*
G36*
X74922Y126578D02*
X72270Y126048D01*
X72461Y126260D01*
X72610Y126472D01*
X72716Y126684D01*
X72780Y126896D01*
X72801Y127108D01*
X72780Y127320D01*
X72716Y127532D01*
X72610Y127745D01*
X72461Y127957D01*
X72270Y128169D01*
X73331Y129230D01*
X73543Y129039D01*
X73755Y128890D01*
X73967Y128784D01*
X74180Y128720D01*
X74392Y128699D01*
X74604Y128720D01*
X74816Y128784D01*
X75028Y128890D01*
X75240Y129039D01*
X75452Y129230D01*
X74922Y126578D01*
D02*
G37*
G36*
X77050Y96643D02*
X76784Y96627D01*
X76546Y96583D01*
X76336Y96508D01*
X76154Y96403D01*
X76000Y96267D01*
X75874Y96102D01*
X75776Y95907D01*
X75706Y95683D01*
X75664Y95428D01*
X75650Y95143D01*
X74150D01*
X74136Y95428D01*
X74094Y95683D01*
X74024Y95907D01*
X73926Y96102D01*
X73800Y96267D01*
X73646Y96403D01*
X73464Y96508D01*
X73254Y96583D01*
X73016Y96627D01*
X72750Y96643D01*
X74900Y98043D01*
X77050Y96643D01*
D02*
G37*
G36*
X68215Y83722D02*
Y79178D01*
X67100Y78063D01*
X66100Y78477D01*
Y79250D01*
X59500D01*
Y72150D01*
X61220D01*
Y68500D01*
X46180D01*
Y72150D01*
X47900D01*
Y79250D01*
X47900D01*
X47552Y80089D01*
X51441Y83978D01*
X52310Y83539D01*
X52353Y83476D01*
X52179Y82600D01*
X52363Y81673D01*
X52888Y80888D01*
X53673Y80363D01*
X54600Y80179D01*
X55527Y80363D01*
X56312Y80888D01*
X56837Y81673D01*
X57021Y82600D01*
X57954Y83018D01*
X60569D01*
X60717Y83047D01*
X64269D01*
Y85577D01*
X66360D01*
X68215Y83722D01*
D02*
G37*
G36*
X42776Y82688D02*
X43562Y82163D01*
X43832Y82109D01*
X44161Y81024D01*
X43519Y80381D01*
X43187Y79885D01*
X43071Y79300D01*
Y79250D01*
X41300D01*
Y72150D01*
X43020D01*
Y68500D01*
X35700D01*
X34500Y68244D01*
X32091Y67429D01*
X30023Y65858D01*
X28529Y64134D01*
X28429Y64131D01*
X27529Y64462D01*
Y75666D01*
X34881Y83018D01*
X37569D01*
X37717Y83047D01*
X41269D01*
Y83286D01*
X42251Y83473D01*
X42776Y82688D01*
D02*
G37*
D10*
X24900Y156400D02*
D03*
Y165400D02*
D03*
X73300Y156400D02*
D03*
Y165400D02*
D03*
X123325Y156400D02*
D03*
Y165400D02*
D03*
X171725Y156400D02*
D03*
Y165400D02*
D03*
X221750Y156400D02*
D03*
Y165400D02*
D03*
X270150Y156400D02*
D03*
Y165400D02*
D03*
X320176Y156400D02*
D03*
Y165400D02*
D03*
X368576Y156400D02*
D03*
Y165400D02*
D03*
X24900Y353250D02*
D03*
Y362250D02*
D03*
X73300Y353250D02*
D03*
Y362250D02*
D03*
X123325Y353250D02*
D03*
Y362250D02*
D03*
X171725Y353250D02*
D03*
Y362250D02*
D03*
X221750Y353250D02*
D03*
Y362250D02*
D03*
X270150Y353250D02*
D03*
Y362250D02*
D03*
X320176Y353250D02*
D03*
Y362250D02*
D03*
X368576Y353250D02*
D03*
Y362250D02*
D03*
D11*
X44400Y140300D02*
D03*
X53400D02*
D03*
X62500Y122861D02*
D03*
X53500D02*
D03*
X62500Y114200D02*
D03*
X53500D02*
D03*
X35783Y122861D02*
D03*
X44783D02*
D03*
X35783Y114200D02*
D03*
X44783D02*
D03*
X62800Y75700D02*
D03*
X53800D02*
D03*
X35600D02*
D03*
X44600D02*
D03*
X53269Y163386D02*
D03*
X44269D02*
D03*
X142825Y140300D02*
D03*
X151825D02*
D03*
X160925Y122861D02*
D03*
X151925D02*
D03*
X160925Y114200D02*
D03*
X151925D02*
D03*
X134209Y122861D02*
D03*
X143209D02*
D03*
X134209Y114200D02*
D03*
X143209D02*
D03*
X161225Y75700D02*
D03*
X152225D02*
D03*
X134025D02*
D03*
X143025D02*
D03*
X151694Y163386D02*
D03*
X142694D02*
D03*
X241250Y140300D02*
D03*
X250250D02*
D03*
X259350Y122861D02*
D03*
X250350D02*
D03*
X259350Y114200D02*
D03*
X250350D02*
D03*
X232634Y122861D02*
D03*
X241634D02*
D03*
X232634Y114200D02*
D03*
X241634D02*
D03*
X259650Y75700D02*
D03*
X250650D02*
D03*
X232450D02*
D03*
X241450D02*
D03*
X250119Y163386D02*
D03*
X241119D02*
D03*
X339676Y140300D02*
D03*
X348676D02*
D03*
X357776Y122861D02*
D03*
X348776D02*
D03*
X357776Y114200D02*
D03*
X348776D02*
D03*
X331059Y122861D02*
D03*
X340059D02*
D03*
X331059Y114200D02*
D03*
X340059D02*
D03*
X358076Y75700D02*
D03*
X349076D02*
D03*
X330876D02*
D03*
X339876D02*
D03*
X348545Y163386D02*
D03*
X339545D02*
D03*
X44400Y337150D02*
D03*
X53400D02*
D03*
X62500Y319712D02*
D03*
X53500D02*
D03*
X62500Y311050D02*
D03*
X53500D02*
D03*
X35783Y319712D02*
D03*
X44783D02*
D03*
X35783Y311050D02*
D03*
X44783D02*
D03*
X62800Y272550D02*
D03*
X53800D02*
D03*
X35600D02*
D03*
X44600D02*
D03*
X53269Y360236D02*
D03*
X44269D02*
D03*
X142825Y337150D02*
D03*
X151825D02*
D03*
X160925Y319712D02*
D03*
X151925D02*
D03*
X160925Y311050D02*
D03*
X151925D02*
D03*
X134209Y319712D02*
D03*
X143209D02*
D03*
X134209Y311050D02*
D03*
X143209D02*
D03*
X161225Y272550D02*
D03*
X152225D02*
D03*
X134025D02*
D03*
X143025D02*
D03*
X151694Y360236D02*
D03*
X142694D02*
D03*
X241250Y337150D02*
D03*
X250250D02*
D03*
X259350Y319712D02*
D03*
X250350D02*
D03*
X259350Y311050D02*
D03*
X250350D02*
D03*
X232634Y319712D02*
D03*
X241634D02*
D03*
X232634Y311050D02*
D03*
X241634D02*
D03*
X259650Y272550D02*
D03*
X250650D02*
D03*
X232450D02*
D03*
X241450D02*
D03*
X250119Y360236D02*
D03*
X241119D02*
D03*
X339676Y337150D02*
D03*
X348676D02*
D03*
X357776Y319712D02*
D03*
X348776D02*
D03*
X357776Y311050D02*
D03*
X348776D02*
D03*
X331059Y319712D02*
D03*
X340059D02*
D03*
X331059Y311050D02*
D03*
X340059D02*
D03*
X358076Y272550D02*
D03*
X349076D02*
D03*
X330876D02*
D03*
X339876D02*
D03*
X348545Y360236D02*
D03*
X339545D02*
D03*
D12*
X60569Y84547D02*
D03*
Y87106D02*
D03*
Y89665D02*
D03*
Y92224D02*
D03*
Y94784D02*
D03*
Y97342D02*
D03*
Y99902D02*
D03*
Y102461D02*
D03*
Y105020D02*
D03*
Y107579D02*
D03*
X37569Y107579D02*
D03*
Y105020D02*
D03*
Y102461D02*
D03*
Y99902D02*
D03*
Y97342D02*
D03*
Y94784D02*
D03*
Y92224D02*
D03*
Y89665D02*
D03*
Y87106D02*
D03*
Y84547D02*
D03*
X158994Y84547D02*
D03*
Y87106D02*
D03*
Y89665D02*
D03*
Y92224D02*
D03*
Y94784D02*
D03*
Y97342D02*
D03*
Y99902D02*
D03*
Y102461D02*
D03*
Y105020D02*
D03*
Y107579D02*
D03*
X135994Y107579D02*
D03*
Y105020D02*
D03*
Y102461D02*
D03*
Y99902D02*
D03*
Y97342D02*
D03*
Y94784D02*
D03*
Y92224D02*
D03*
Y89665D02*
D03*
Y87106D02*
D03*
Y84547D02*
D03*
X257419Y84547D02*
D03*
Y87106D02*
D03*
Y89665D02*
D03*
Y92224D02*
D03*
Y94784D02*
D03*
Y97342D02*
D03*
Y99902D02*
D03*
Y102461D02*
D03*
Y105020D02*
D03*
Y107579D02*
D03*
X234419Y107579D02*
D03*
Y105020D02*
D03*
Y102461D02*
D03*
Y99902D02*
D03*
Y97342D02*
D03*
Y94784D02*
D03*
Y92224D02*
D03*
Y89665D02*
D03*
Y87106D02*
D03*
Y84547D02*
D03*
X355844Y84547D02*
D03*
Y87106D02*
D03*
Y89665D02*
D03*
Y92224D02*
D03*
Y94784D02*
D03*
Y97342D02*
D03*
Y99902D02*
D03*
Y102461D02*
D03*
Y105020D02*
D03*
Y107579D02*
D03*
X332844Y107579D02*
D03*
Y105020D02*
D03*
Y102461D02*
D03*
Y99902D02*
D03*
Y97342D02*
D03*
Y94784D02*
D03*
Y92224D02*
D03*
Y89665D02*
D03*
Y87106D02*
D03*
Y84547D02*
D03*
X60569Y281398D02*
D03*
Y283957D02*
D03*
Y286516D02*
D03*
Y289075D02*
D03*
Y291634D02*
D03*
Y294193D02*
D03*
Y296752D02*
D03*
Y299311D02*
D03*
Y301870D02*
D03*
Y304429D02*
D03*
X37569Y304429D02*
D03*
Y301870D02*
D03*
Y299311D02*
D03*
Y296752D02*
D03*
Y294193D02*
D03*
Y291634D02*
D03*
Y289075D02*
D03*
Y286516D02*
D03*
Y283957D02*
D03*
Y281398D02*
D03*
X158994Y281398D02*
D03*
Y283957D02*
D03*
Y286516D02*
D03*
Y289075D02*
D03*
Y291634D02*
D03*
Y294193D02*
D03*
Y296752D02*
D03*
Y299311D02*
D03*
Y301870D02*
D03*
Y304429D02*
D03*
X135994Y304429D02*
D03*
Y301870D02*
D03*
Y299311D02*
D03*
Y296752D02*
D03*
Y294193D02*
D03*
Y291634D02*
D03*
Y289075D02*
D03*
Y286516D02*
D03*
Y283957D02*
D03*
Y281398D02*
D03*
X257419Y281398D02*
D03*
Y283957D02*
D03*
Y286516D02*
D03*
Y289075D02*
D03*
Y291634D02*
D03*
Y294193D02*
D03*
Y296752D02*
D03*
Y299311D02*
D03*
Y301870D02*
D03*
Y304429D02*
D03*
X234419Y304429D02*
D03*
Y301870D02*
D03*
Y299311D02*
D03*
Y296752D02*
D03*
Y294193D02*
D03*
Y291634D02*
D03*
Y289075D02*
D03*
Y286516D02*
D03*
Y283957D02*
D03*
Y281398D02*
D03*
X355844Y281398D02*
D03*
Y283957D02*
D03*
Y286516D02*
D03*
Y289075D02*
D03*
Y291634D02*
D03*
Y294193D02*
D03*
Y296752D02*
D03*
Y299311D02*
D03*
Y301870D02*
D03*
Y304429D02*
D03*
X332844Y304429D02*
D03*
Y301870D02*
D03*
Y299311D02*
D03*
Y296752D02*
D03*
Y294193D02*
D03*
Y291634D02*
D03*
Y289075D02*
D03*
Y286516D02*
D03*
Y283957D02*
D03*
Y281398D02*
D03*
D13*
X80466Y53500D02*
D03*
X88734D02*
D03*
X80466Y33800D02*
D03*
X88734D02*
D03*
X18934Y53500D02*
D03*
X10666D02*
D03*
X18934Y33400D02*
D03*
X10666D02*
D03*
X79766Y182100D02*
D03*
X88034D02*
D03*
X19408Y182059D02*
D03*
X11140D02*
D03*
X178891Y53500D02*
D03*
X187159D02*
D03*
X178891Y33800D02*
D03*
X187159D02*
D03*
X117359Y53500D02*
D03*
X109091D02*
D03*
X117359Y33400D02*
D03*
X109091D02*
D03*
X178191Y182100D02*
D03*
X186459D02*
D03*
X117833Y182059D02*
D03*
X109565D02*
D03*
X277316Y53500D02*
D03*
X285584D02*
D03*
X277316Y33800D02*
D03*
X285584D02*
D03*
X215784Y53500D02*
D03*
X207517D02*
D03*
X215784Y33400D02*
D03*
X207517D02*
D03*
X276617Y182100D02*
D03*
X284884D02*
D03*
X216258Y182059D02*
D03*
X207990D02*
D03*
X375742Y53500D02*
D03*
X384010D02*
D03*
X375742Y33800D02*
D03*
X384010D02*
D03*
X314210Y53500D02*
D03*
X305942D02*
D03*
X314210Y33400D02*
D03*
X305942D02*
D03*
X375042Y182100D02*
D03*
X383310D02*
D03*
X314683Y182059D02*
D03*
X306415D02*
D03*
X80466Y250350D02*
D03*
X88734D02*
D03*
X80466Y230650D02*
D03*
X88734D02*
D03*
X18934Y250350D02*
D03*
X10666D02*
D03*
X18934Y230250D02*
D03*
X10666D02*
D03*
X79766Y378950D02*
D03*
X88034D02*
D03*
X19408Y378909D02*
D03*
X11140D02*
D03*
X178891Y250350D02*
D03*
X187159D02*
D03*
X178891Y230650D02*
D03*
X187159D02*
D03*
X117359Y250350D02*
D03*
X109091D02*
D03*
X117359Y230250D02*
D03*
X109091D02*
D03*
X178191Y378950D02*
D03*
X186459D02*
D03*
X117833Y378909D02*
D03*
X109565D02*
D03*
X277316Y250350D02*
D03*
X285584D02*
D03*
X277316Y230650D02*
D03*
X285584D02*
D03*
X215784Y250350D02*
D03*
X207517D02*
D03*
X215784Y230250D02*
D03*
X207517D02*
D03*
X276617Y378950D02*
D03*
X284884D02*
D03*
X216258Y378909D02*
D03*
X207990D02*
D03*
X375742Y250350D02*
D03*
X384010D02*
D03*
X375742Y230650D02*
D03*
X384010D02*
D03*
X314210Y250350D02*
D03*
X305942D02*
D03*
X314210Y230250D02*
D03*
X305942D02*
D03*
X375042Y378950D02*
D03*
X383310D02*
D03*
X314683Y378909D02*
D03*
X306415D02*
D03*
D14*
X59842Y39764D02*
D03*
X38583D02*
D03*
X38170Y151900D02*
D03*
X59430D02*
D03*
X158268Y39764D02*
D03*
X137008D02*
D03*
X136595Y151900D02*
D03*
X157855D02*
D03*
X256693Y39764D02*
D03*
X235433D02*
D03*
X235020Y151900D02*
D03*
X256280D02*
D03*
X355118Y39764D02*
D03*
X333858D02*
D03*
X333446Y151900D02*
D03*
X354706D02*
D03*
X59842Y236614D02*
D03*
X38583D02*
D03*
X38170Y348750D02*
D03*
X59430D02*
D03*
X158268Y236614D02*
D03*
X137008D02*
D03*
X136595Y348750D02*
D03*
X157855D02*
D03*
X256693Y236614D02*
D03*
X235433D02*
D03*
X235020Y348750D02*
D03*
X256280D02*
D03*
X355118Y236614D02*
D03*
X333858D02*
D03*
X333446Y348750D02*
D03*
X354706D02*
D03*
D15*
X53937Y188976D02*
D03*
X44488D02*
D03*
X152362D02*
D03*
X142913D02*
D03*
X250787D02*
D03*
X241339D02*
D03*
X349213D02*
D03*
X339764D02*
D03*
X53937Y385827D02*
D03*
X44488D02*
D03*
X152362D02*
D03*
X142913D02*
D03*
X250787D02*
D03*
X241339D02*
D03*
X349213D02*
D03*
X339764D02*
D03*
D16*
X64961Y188976D02*
D03*
X33465D02*
D03*
X163386D02*
D03*
X131890D02*
D03*
X261811D02*
D03*
X230315D02*
D03*
X360236D02*
D03*
X328740D02*
D03*
X64961Y385827D02*
D03*
X33465D02*
D03*
X163386D02*
D03*
X131890D02*
D03*
X261811D02*
D03*
X230315D02*
D03*
X360236D02*
D03*
X328740D02*
D03*
D17*
X54331Y178445D02*
D03*
X44094D02*
D03*
X51772D02*
D03*
X49213D02*
D03*
X46654D02*
D03*
X152756D02*
D03*
X142520D02*
D03*
X150197D02*
D03*
X147638D02*
D03*
X145079D02*
D03*
X251181D02*
D03*
X240945D02*
D03*
X248622D02*
D03*
X246063D02*
D03*
X243504D02*
D03*
X349606D02*
D03*
X339370D02*
D03*
X347047D02*
D03*
X344488D02*
D03*
X341929D02*
D03*
X54331Y375295D02*
D03*
X44094D02*
D03*
X51772D02*
D03*
X49213D02*
D03*
X46654D02*
D03*
X152756D02*
D03*
X142520D02*
D03*
X150197D02*
D03*
X147638D02*
D03*
X145079D02*
D03*
X251181D02*
D03*
X240945D02*
D03*
X248622D02*
D03*
X246063D02*
D03*
X243504D02*
D03*
X349606D02*
D03*
X339370D02*
D03*
X347047D02*
D03*
X344488D02*
D03*
X341929D02*
D03*
D18*
X47100Y28700D02*
X54113Y21687D01*
X38900Y28700D02*
X47100D01*
X26000Y41600D02*
X38900Y28700D01*
X26000Y41600D02*
Y76300D01*
X34247Y84547D01*
X23600Y77789D02*
X32918Y87106D01*
X23600Y40004D02*
Y77789D01*
Y40004D02*
X44313Y19291D01*
X21100Y79600D02*
X31165Y89665D01*
X21100Y73344D02*
Y79600D01*
X14213Y66457D02*
X21100Y73344D01*
X54113Y19291D02*
Y21687D01*
X44783Y96748D02*
Y114200D01*
X42819Y94784D02*
X44783Y96748D01*
X37569Y94784D02*
X42819D01*
X69744Y78544D02*
Y84356D01*
X66994Y87106D02*
X69744Y84356D01*
X60569Y87106D02*
X66994D01*
X66900Y75700D02*
X69744Y78544D01*
X62800Y75700D02*
X66900D01*
X31165Y89665D02*
X37569D01*
X74900Y97342D02*
X83799D01*
X60569D02*
X74900D01*
X34247Y84547D02*
X37569D01*
X32918Y87106D02*
X37569D01*
X10600Y28900D02*
X10666Y28966D01*
X44488Y84400D02*
X52313Y92224D01*
X60569D01*
X83799Y97342D02*
X84213Y96929D01*
X77185Y99902D02*
X84213Y106929D01*
X60569Y99902D02*
X77185D01*
X69744Y102461D02*
X84213Y116929D01*
X60569Y102461D02*
X69744D01*
X73600Y116316D02*
X84213Y126929D01*
X73600Y113900D02*
Y116316D01*
X64720Y105020D02*
X73600Y113900D01*
X60569Y105020D02*
X64720D01*
X64079Y107579D02*
X69400Y112900D01*
X60569Y107579D02*
X64079D01*
X31080Y105020D02*
X37569D01*
X24100Y112000D02*
X31080Y105020D01*
X24100Y112000D02*
Y118500D01*
X14213Y136457D02*
X29600Y121069D01*
Y111500D02*
Y121069D01*
Y111500D02*
X33521Y107579D01*
X16143Y126457D02*
X24100Y118500D01*
X14213Y126457D02*
X16143D01*
X28209Y102461D02*
X37569D01*
X14213Y116457D02*
X28209Y102461D01*
X23898Y99902D02*
X37569D01*
X17343Y106457D02*
X23898Y99902D01*
X14213Y106457D02*
X17343D01*
X22539Y94784D02*
X37569D01*
X14213Y86457D02*
X22539Y94784D01*
X29980Y92224D02*
X37569D01*
X14213Y76457D02*
X29980Y92224D01*
X14213Y96457D02*
X15098Y97342D01*
X37569D01*
X33521Y107579D02*
X37569D01*
X54600Y82600D02*
X56547Y84547D01*
X60569D01*
X54965Y89665D02*
X60569D01*
X44600Y79300D02*
X54965Y89665D01*
X44600Y75700D02*
Y79300D01*
X56217Y94784D02*
X60569D01*
X53500Y97500D02*
X56217Y94784D01*
X53500Y97500D02*
Y114200D01*
X42300Y98900D02*
Y109300D01*
X40742Y97342D02*
X42300Y98900D01*
X37569Y97342D02*
X40742D01*
X37400Y114200D02*
X42300Y109300D01*
X35783Y114200D02*
X37400D01*
X145525Y28700D02*
X152538Y21687D01*
X137325Y28700D02*
X145525D01*
X124425Y41600D02*
X137325Y28700D01*
X124425Y41600D02*
Y76300D01*
X132673Y84547D01*
X122025Y77789D02*
X131343Y87106D01*
X122025Y40004D02*
Y77789D01*
Y40004D02*
X142738Y19291D01*
X119525Y79600D02*
X129591Y89665D01*
X119525Y73344D02*
Y79600D01*
X112638Y66457D02*
X119525Y73344D01*
X152538Y19291D02*
Y21687D01*
X143209Y96748D02*
Y114200D01*
X141244Y94784D02*
X143209Y96748D01*
X135994Y94784D02*
X141244D01*
X168169Y78544D02*
Y84356D01*
X165419Y87106D02*
X168169Y84356D01*
X158994Y87106D02*
X165419D01*
X165325Y75700D02*
X168169Y78544D01*
X161225Y75700D02*
X165325D01*
X129591Y89665D02*
X135994D01*
X173325Y97342D02*
X182224D01*
X158994D02*
X173325D01*
X132673Y84547D02*
X135994D01*
X131343Y87106D02*
X135994D01*
X109025Y28900D02*
X109091Y28966D01*
X142913Y84400D02*
X150738Y92224D01*
X158994D01*
X182224Y97342D02*
X182638Y96929D01*
X175610Y99902D02*
X182638Y106929D01*
X158994Y99902D02*
X175610D01*
X168169Y102461D02*
X182638Y116929D01*
X158994Y102461D02*
X168169D01*
X172025Y116316D02*
X182638Y126929D01*
X172025Y113900D02*
Y116316D01*
X163145Y105020D02*
X172025Y113900D01*
X158994Y105020D02*
X163145D01*
X162504Y107579D02*
X167825Y112900D01*
X158994Y107579D02*
X162504D01*
X129506Y105020D02*
X135994D01*
X122525Y112000D02*
X129506Y105020D01*
X122525Y112000D02*
Y118500D01*
X112638Y136457D02*
X128025Y121069D01*
Y111500D02*
Y121069D01*
Y111500D02*
X131947Y107579D01*
X114568Y126457D02*
X122525Y118500D01*
X112638Y126457D02*
X114568D01*
X126634Y102461D02*
X135994D01*
X112638Y116457D02*
X126634Y102461D01*
X122324Y99902D02*
X135994D01*
X115769Y106457D02*
X122324Y99902D01*
X112638Y106457D02*
X115769D01*
X120965Y94784D02*
X135994D01*
X112638Y86457D02*
X120965Y94784D01*
X128405Y92224D02*
X135994D01*
X112638Y76457D02*
X128405Y92224D01*
X112638Y96457D02*
X113524Y97342D01*
X135994D01*
X131947Y107579D02*
X135994D01*
X153025Y82600D02*
X154972Y84547D01*
X158994D01*
X153391Y89665D02*
X158994D01*
X143025Y79300D02*
X153391Y89665D01*
X143025Y75700D02*
Y79300D01*
X154642Y94784D02*
X158994D01*
X151925Y97500D02*
X154642Y94784D01*
X151925Y97500D02*
Y114200D01*
X140725Y98900D02*
Y109300D01*
X139168Y97342D02*
X140725Y98900D01*
X135994Y97342D02*
X139168D01*
X135825Y114200D02*
X140725Y109300D01*
X134209Y114200D02*
X135825D01*
X243950Y28700D02*
X250963Y21687D01*
X235750Y28700D02*
X243950D01*
X222850Y41600D02*
X235750Y28700D01*
X222850Y41600D02*
Y76300D01*
X231098Y84547D01*
X220450Y77789D02*
X229768Y87106D01*
X220450Y40004D02*
Y77789D01*
Y40004D02*
X241163Y19291D01*
X217950Y79600D02*
X228016Y89665D01*
X217950Y73344D02*
Y79600D01*
X211063Y66457D02*
X217950Y73344D01*
X250963Y19291D02*
Y21687D01*
X241634Y96748D02*
Y114200D01*
X239670Y94784D02*
X241634Y96748D01*
X234419Y94784D02*
X239670D01*
X266595Y78544D02*
Y84356D01*
X263844Y87106D02*
X266595Y84356D01*
X257419Y87106D02*
X263844D01*
X263750Y75700D02*
X266595Y78544D01*
X259650Y75700D02*
X263750D01*
X228016Y89665D02*
X234419D01*
X271750Y97342D02*
X280650D01*
X257419D02*
X271750D01*
X231098Y84547D02*
X234419D01*
X229768Y87106D02*
X234419D01*
X207450Y28900D02*
X207517Y28966D01*
X241339Y84400D02*
X249163Y92224D01*
X257419D01*
X280650Y97342D02*
X281063Y96929D01*
X274035Y99902D02*
X281063Y106929D01*
X257419Y99902D02*
X274035D01*
X266595Y102461D02*
X281063Y116929D01*
X257419Y102461D02*
X266595D01*
X270450Y116316D02*
X281063Y126929D01*
X270450Y113900D02*
Y116316D01*
X261570Y105020D02*
X270450Y113900D01*
X257419Y105020D02*
X261570D01*
X260929Y107579D02*
X266250Y112900D01*
X257419Y107579D02*
X260929D01*
X227931Y105020D02*
X234419D01*
X220950Y112000D02*
X227931Y105020D01*
X220950Y112000D02*
Y118500D01*
X211063Y136457D02*
X226450Y121069D01*
Y111500D02*
Y121069D01*
Y111500D02*
X230372Y107579D01*
X212994Y126457D02*
X220950Y118500D01*
X211063Y126457D02*
X212994D01*
X225059Y102461D02*
X234419D01*
X211063Y116457D02*
X225059Y102461D01*
X220749Y99902D02*
X234419D01*
X214194Y106457D02*
X220749Y99902D01*
X211063Y106457D02*
X214194D01*
X219390Y94784D02*
X234419D01*
X211063Y86457D02*
X219390Y94784D01*
X226831Y92224D02*
X234419D01*
X211063Y76457D02*
X226831Y92224D01*
X211063Y96457D02*
X211949Y97342D01*
X234419D01*
X230372Y107579D02*
X234419D01*
X251450Y82600D02*
X253398Y84547D01*
X257419D01*
X251816Y89665D02*
X257419D01*
X241450Y79300D02*
X251816Y89665D01*
X241450Y75700D02*
Y79300D01*
X253067Y94784D02*
X257419D01*
X250350Y97500D02*
X253067Y94784D01*
X250350Y97500D02*
Y114200D01*
X239150Y98900D02*
Y109300D01*
X237593Y97342D02*
X239150Y98900D01*
X234419Y97342D02*
X237593D01*
X234250Y114200D02*
X239150Y109300D01*
X232634Y114200D02*
X234250D01*
X342376Y28700D02*
X349388Y21687D01*
X334176Y28700D02*
X342376D01*
X321276Y41600D02*
X334176Y28700D01*
X321276Y41600D02*
Y76300D01*
X329523Y84547D01*
X318876Y77789D02*
X328193Y87106D01*
X318876Y40004D02*
Y77789D01*
Y40004D02*
X339588Y19291D01*
X316376Y79600D02*
X326441Y89665D01*
X316376Y73344D02*
Y79600D01*
X309488Y66457D02*
X316376Y73344D01*
X349388Y19291D02*
Y21687D01*
X340059Y96748D02*
Y114200D01*
X338095Y94784D02*
X340059Y96748D01*
X332844Y94784D02*
X338095D01*
X365020Y78544D02*
Y84356D01*
X362269Y87106D02*
X365020Y84356D01*
X355844Y87106D02*
X362269D01*
X362176Y75700D02*
X365020Y78544D01*
X358076Y75700D02*
X362176D01*
X326441Y89665D02*
X332844D01*
X370176Y97342D02*
X379075D01*
X355844D02*
X370176D01*
X329523Y84547D02*
X332844D01*
X328193Y87106D02*
X332844D01*
X305876Y28900D02*
X305942Y28966D01*
X339764Y84400D02*
X347588Y92224D01*
X355844D01*
X379075Y97342D02*
X379488Y96929D01*
X372461Y99902D02*
X379488Y106929D01*
X355844Y99902D02*
X372461D01*
X365020Y102461D02*
X379488Y116929D01*
X355844Y102461D02*
X365020D01*
X368876Y116316D02*
X379488Y126929D01*
X368876Y113900D02*
Y116316D01*
X359995Y105020D02*
X368876Y113900D01*
X355844Y105020D02*
X359995D01*
X359354Y107579D02*
X364676Y112900D01*
X355844Y107579D02*
X359354D01*
X326356Y105020D02*
X332844D01*
X319376Y112000D02*
X326356Y105020D01*
X319376Y112000D02*
Y118500D01*
X309488Y136457D02*
X324876Y121069D01*
Y111500D02*
Y121069D01*
Y111500D02*
X328797Y107579D01*
X311419Y126457D02*
X319376Y118500D01*
X309488Y126457D02*
X311419D01*
X323484Y102461D02*
X332844D01*
X309488Y116457D02*
X323484Y102461D01*
X319174Y99902D02*
X332844D01*
X312619Y106457D02*
X319174Y99902D01*
X309488Y106457D02*
X312619D01*
X317815Y94784D02*
X332844D01*
X309488Y86457D02*
X317815Y94784D01*
X325256Y92224D02*
X332844D01*
X309488Y76457D02*
X325256Y92224D01*
X309488Y96457D02*
X310374Y97342D01*
X332844D01*
X328797Y107579D02*
X332844D01*
X349876Y82600D02*
X351823Y84547D01*
X355844D01*
X350241Y89665D02*
X355844D01*
X339876Y79300D02*
X350241Y89665D01*
X339876Y75700D02*
Y79300D01*
X351492Y94784D02*
X355844D01*
X348776Y97500D02*
X351492Y94784D01*
X348776Y97500D02*
Y114200D01*
X337576Y98900D02*
Y109300D01*
X336018Y97342D02*
X337576Y98900D01*
X332844Y97342D02*
X336018D01*
X332676Y114200D02*
X337576Y109300D01*
X331059Y114200D02*
X332676D01*
X47100Y225550D02*
X54113Y218538D01*
X38900Y225550D02*
X47100D01*
X26000Y238450D02*
X38900Y225550D01*
X26000Y238450D02*
Y273150D01*
X34247Y281398D01*
X23600Y274639D02*
X32918Y283957D01*
X23600Y236854D02*
Y274639D01*
Y236854D02*
X44313Y216142D01*
X21100Y276450D02*
X31165Y286516D01*
X21100Y270195D02*
Y276450D01*
X14213Y263307D02*
X21100Y270195D01*
X54113Y216142D02*
Y218538D01*
X44783Y293598D02*
Y311050D01*
X42819Y291634D02*
X44783Y293598D01*
X37569Y291634D02*
X42819D01*
X69744Y275395D02*
Y281206D01*
X66994Y283957D02*
X69744Y281206D01*
X60569Y283957D02*
X66994D01*
X66900Y272550D02*
X69744Y275395D01*
X62800Y272550D02*
X66900D01*
X31165Y286516D02*
X37569D01*
X74900Y294193D02*
X83799D01*
X60569D02*
X74900D01*
X34247Y281398D02*
X37569D01*
X32918Y283957D02*
X37569D01*
X10600Y225750D02*
X10666Y225816D01*
X44488Y281250D02*
X52313Y289075D01*
X60569D01*
X83799Y294193D02*
X84213Y293779D01*
X77185Y296752D02*
X84213Y303780D01*
X60569Y296752D02*
X77185D01*
X69744Y299311D02*
X84213Y313779D01*
X60569Y299311D02*
X69744D01*
X73600Y313167D02*
X84213Y323780D01*
X73600Y310750D02*
Y313167D01*
X64720Y301870D02*
X73600Y310750D01*
X60569Y301870D02*
X64720D01*
X64079Y304429D02*
X69400Y309750D01*
X60569Y304429D02*
X64079D01*
X31080Y301870D02*
X37569D01*
X24100Y308850D02*
X31080Y301870D01*
X24100Y308850D02*
Y315350D01*
X14213Y333307D02*
X29600Y317920D01*
Y308350D02*
Y317920D01*
Y308350D02*
X33521Y304429D01*
X16143Y323307D02*
X24100Y315350D01*
X14213Y323307D02*
X16143D01*
X28209Y299311D02*
X37569D01*
X14213Y313307D02*
X28209Y299311D01*
X23898Y296752D02*
X37569D01*
X17343Y303307D02*
X23898Y296752D01*
X14213Y303307D02*
X17343D01*
X22539Y291634D02*
X37569D01*
X14213Y283307D02*
X22539Y291634D01*
X29980Y289075D02*
X37569D01*
X14213Y273307D02*
X29980Y289075D01*
X14213Y293307D02*
X15098Y294193D01*
X37569D01*
X33521Y304429D02*
X37569D01*
X54600Y279450D02*
X56547Y281398D01*
X60569D01*
X54965Y286516D02*
X60569D01*
X44600Y276150D02*
X54965Y286516D01*
X44600Y272550D02*
Y276150D01*
X56217Y291634D02*
X60569D01*
X53500Y294350D02*
X56217Y291634D01*
X53500Y294350D02*
Y311050D01*
X42300Y295750D02*
Y306150D01*
X40742Y294193D02*
X42300Y295750D01*
X37569Y294193D02*
X40742D01*
X37400Y311050D02*
X42300Y306150D01*
X35783Y311050D02*
X37400D01*
X145525Y225550D02*
X152538Y218538D01*
X137325Y225550D02*
X145525D01*
X124425Y238450D02*
X137325Y225550D01*
X124425Y238450D02*
Y273150D01*
X132673Y281398D01*
X122025Y274639D02*
X131343Y283957D01*
X122025Y236854D02*
Y274639D01*
Y236854D02*
X142738Y216142D01*
X119525Y276450D02*
X129591Y286516D01*
X119525Y270195D02*
Y276450D01*
X112638Y263307D02*
X119525Y270195D01*
X152538Y216142D02*
Y218538D01*
X143209Y293598D02*
Y311050D01*
X141244Y291634D02*
X143209Y293598D01*
X135994Y291634D02*
X141244D01*
X168169Y275395D02*
Y281206D01*
X165419Y283957D02*
X168169Y281206D01*
X158994Y283957D02*
X165419D01*
X165325Y272550D02*
X168169Y275395D01*
X161225Y272550D02*
X165325D01*
X129591Y286516D02*
X135994D01*
X173325Y294193D02*
X182224D01*
X158994D02*
X173325D01*
X132673Y281398D02*
X135994D01*
X131343Y283957D02*
X135994D01*
X109025Y225750D02*
X109091Y225816D01*
X142913Y281250D02*
X150738Y289075D01*
X158994D01*
X182224Y294193D02*
X182638Y293779D01*
X175610Y296752D02*
X182638Y303780D01*
X158994Y296752D02*
X175610D01*
X168169Y299311D02*
X182638Y313779D01*
X158994Y299311D02*
X168169D01*
X172025Y313167D02*
X182638Y323780D01*
X172025Y310750D02*
Y313167D01*
X163145Y301870D02*
X172025Y310750D01*
X158994Y301870D02*
X163145D01*
X162504Y304429D02*
X167825Y309750D01*
X158994Y304429D02*
X162504D01*
X129506Y301870D02*
X135994D01*
X122525Y308850D02*
X129506Y301870D01*
X122525Y308850D02*
Y315350D01*
X112638Y333307D02*
X128025Y317920D01*
Y308350D02*
Y317920D01*
Y308350D02*
X131947Y304429D01*
X114568Y323307D02*
X122525Y315350D01*
X112638Y323307D02*
X114568D01*
X126634Y299311D02*
X135994D01*
X112638Y313307D02*
X126634Y299311D01*
X122324Y296752D02*
X135994D01*
X115769Y303307D02*
X122324Y296752D01*
X112638Y303307D02*
X115769D01*
X120965Y291634D02*
X135994D01*
X112638Y283307D02*
X120965Y291634D01*
X128405Y289075D02*
X135994D01*
X112638Y273307D02*
X128405Y289075D01*
X112638Y293307D02*
X113524Y294193D01*
X135994D01*
X131947Y304429D02*
X135994D01*
X153025Y279450D02*
X154972Y281398D01*
X158994D01*
X153391Y286516D02*
X158994D01*
X143025Y276150D02*
X153391Y286516D01*
X143025Y272550D02*
Y276150D01*
X154642Y291634D02*
X158994D01*
X151925Y294350D02*
X154642Y291634D01*
X151925Y294350D02*
Y311050D01*
X140725Y295750D02*
Y306150D01*
X139168Y294193D02*
X140725Y295750D01*
X135994Y294193D02*
X139168D01*
X135825Y311050D02*
X140725Y306150D01*
X134209Y311050D02*
X135825D01*
X243950Y225550D02*
X250963Y218538D01*
X235750Y225550D02*
X243950D01*
X222850Y238450D02*
X235750Y225550D01*
X222850Y238450D02*
Y273150D01*
X231098Y281398D01*
X220450Y274639D02*
X229768Y283957D01*
X220450Y236854D02*
Y274639D01*
Y236854D02*
X241163Y216142D01*
X217950Y276450D02*
X228016Y286516D01*
X217950Y270195D02*
Y276450D01*
X211063Y263307D02*
X217950Y270195D01*
X250963Y216142D02*
Y218538D01*
X241634Y293598D02*
Y311050D01*
X239670Y291634D02*
X241634Y293598D01*
X234419Y291634D02*
X239670D01*
X266595Y275395D02*
Y281206D01*
X263844Y283957D02*
X266595Y281206D01*
X257419Y283957D02*
X263844D01*
X263750Y272550D02*
X266595Y275395D01*
X259650Y272550D02*
X263750D01*
X228016Y286516D02*
X234419D01*
X271750Y294193D02*
X280650D01*
X257419D02*
X271750D01*
X231098Y281398D02*
X234419D01*
X229768Y283957D02*
X234419D01*
X207450Y225750D02*
X207517Y225816D01*
X241339Y281250D02*
X249163Y289075D01*
X257419D01*
X280650Y294193D02*
X281063Y293779D01*
X274035Y296752D02*
X281063Y303780D01*
X257419Y296752D02*
X274035D01*
X266595Y299311D02*
X281063Y313779D01*
X257419Y299311D02*
X266595D01*
X270450Y313167D02*
X281063Y323780D01*
X270450Y310750D02*
Y313167D01*
X261570Y301870D02*
X270450Y310750D01*
X257419Y301870D02*
X261570D01*
X260929Y304429D02*
X266250Y309750D01*
X257419Y304429D02*
X260929D01*
X227931Y301870D02*
X234419D01*
X220950Y308850D02*
X227931Y301870D01*
X220950Y308850D02*
Y315350D01*
X211063Y333307D02*
X226450Y317920D01*
Y308350D02*
Y317920D01*
Y308350D02*
X230372Y304429D01*
X212994Y323307D02*
X220950Y315350D01*
X211063Y323307D02*
X212994D01*
X225059Y299311D02*
X234419D01*
X211063Y313307D02*
X225059Y299311D01*
X220749Y296752D02*
X234419D01*
X214194Y303307D02*
X220749Y296752D01*
X211063Y303307D02*
X214194D01*
X219390Y291634D02*
X234419D01*
X211063Y283307D02*
X219390Y291634D01*
X226831Y289075D02*
X234419D01*
X211063Y273307D02*
X226831Y289075D01*
X211063Y293307D02*
X211949Y294193D01*
X234419D01*
X230372Y304429D02*
X234419D01*
X251450Y279450D02*
X253398Y281398D01*
X257419D01*
X251816Y286516D02*
X257419D01*
X241450Y276150D02*
X251816Y286516D01*
X241450Y272550D02*
Y276150D01*
X253067Y291634D02*
X257419D01*
X250350Y294350D02*
X253067Y291634D01*
X250350Y294350D02*
Y311050D01*
X239150Y295750D02*
Y306150D01*
X237593Y294193D02*
X239150Y295750D01*
X234419Y294193D02*
X237593D01*
X234250Y311050D02*
X239150Y306150D01*
X232634Y311050D02*
X234250D01*
X342376Y225550D02*
X349388Y218538D01*
X334176Y225550D02*
X342376D01*
X321276Y238450D02*
X334176Y225550D01*
X321276Y238450D02*
Y273150D01*
X329523Y281398D01*
X318876Y274639D02*
X328193Y283957D01*
X318876Y236854D02*
Y274639D01*
Y236854D02*
X339588Y216142D01*
X316376Y276450D02*
X326441Y286516D01*
X316376Y270195D02*
Y276450D01*
X309488Y263307D02*
X316376Y270195D01*
X349388Y216142D02*
Y218538D01*
X340059Y293598D02*
Y311050D01*
X338095Y291634D02*
X340059Y293598D01*
X332844Y291634D02*
X338095D01*
X365020Y275395D02*
Y281206D01*
X362269Y283957D02*
X365020Y281206D01*
X355844Y283957D02*
X362269D01*
X362176Y272550D02*
X365020Y275395D01*
X358076Y272550D02*
X362176D01*
X326441Y286516D02*
X332844D01*
X370176Y294193D02*
X379075D01*
X355844D02*
X370176D01*
X329523Y281398D02*
X332844D01*
X328193Y283957D02*
X332844D01*
X305876Y225750D02*
X305942Y225816D01*
X339764Y281250D02*
X347588Y289075D01*
X355844D01*
X379075Y294193D02*
X379488Y293779D01*
X372461Y296752D02*
X379488Y303780D01*
X355844Y296752D02*
X372461D01*
X365020Y299311D02*
X379488Y313779D01*
X355844Y299311D02*
X365020D01*
X368876Y313167D02*
X379488Y323780D01*
X368876Y310750D02*
Y313167D01*
X359995Y301870D02*
X368876Y310750D01*
X355844Y301870D02*
X359995D01*
X359354Y304429D02*
X364676Y309750D01*
X355844Y304429D02*
X359354D01*
X326356Y301870D02*
X332844D01*
X319376Y308850D02*
X326356Y301870D01*
X319376Y308850D02*
Y315350D01*
X309488Y333307D02*
X324876Y317920D01*
Y308350D02*
Y317920D01*
Y308350D02*
X328797Y304429D01*
X311419Y323307D02*
X319376Y315350D01*
X309488Y323307D02*
X311419D01*
X323484Y299311D02*
X332844D01*
X309488Y313307D02*
X323484Y299311D01*
X319174Y296752D02*
X332844D01*
X312619Y303307D02*
X319174Y296752D01*
X309488Y303307D02*
X312619D01*
X317815Y291634D02*
X332844D01*
X309488Y283307D02*
X317815Y291634D01*
X325256Y289075D02*
X332844D01*
X309488Y273307D02*
X325256Y289075D01*
X309488Y293307D02*
X310374Y294193D01*
X332844D01*
X328797Y304429D02*
X332844D01*
X349876Y279450D02*
X351823Y281398D01*
X355844D01*
X350241Y286516D02*
X355844D01*
X339876Y276150D02*
X350241Y286516D01*
X339876Y272550D02*
Y276150D01*
X351492Y291634D02*
X355844D01*
X348776Y294350D02*
X351492Y291634D01*
X348776Y294350D02*
Y311050D01*
X337576Y295750D02*
Y306150D01*
X336018Y294193D02*
X337576Y295750D01*
X332844Y294193D02*
X336018D01*
X332676Y311050D02*
X337576Y306150D01*
X331059Y311050D02*
X332676D01*
D19*
X14213Y66457D02*
X18934Y61735D01*
Y53500D02*
Y61735D01*
X6000Y46334D02*
X18934Y33400D01*
X73300Y165400D02*
X74457Y166557D01*
X84213D01*
X72120Y182100D02*
X79766D01*
X68110Y178090D02*
X72120Y182100D01*
X58987Y168966D02*
X71553Y156400D01*
X58987Y168966D02*
X58987D01*
X71553Y156400D02*
X73300D01*
X88034Y182100D02*
Y187834D01*
X11140Y182059D02*
Y187660D01*
X73300Y156400D02*
X73357Y156457D01*
X84213D01*
X58987Y168966D02*
X68110Y178090D01*
X54331Y173622D02*
X58987Y168966D01*
X69400Y122116D02*
X84213Y136929D01*
X57300Y144200D02*
X59430Y146330D01*
X53400Y140300D02*
X57300Y144200D01*
X74392Y127108D01*
X59430Y146330D02*
Y151900D01*
X59449Y151919D01*
Y157206D01*
X35783Y122861D02*
X44400Y131478D01*
Y140300D01*
Y145670D01*
X38170Y151900D02*
X44400Y145670D01*
X62500Y114200D02*
Y122861D01*
X35783Y114200D02*
Y122861D01*
X80466Y33800D02*
X93900Y47234D01*
X10666Y49234D02*
Y53500D01*
X88734Y29366D02*
Y33800D01*
Y49266D02*
Y53500D01*
X58819Y59449D02*
X62800Y63430D01*
Y75700D01*
X39606Y59449D02*
X44600Y64442D01*
Y75700D01*
X84213Y106929D02*
X93900Y97242D01*
Y47234D02*
Y97242D01*
X74900Y59066D02*
Y97342D01*
Y59066D02*
X80466Y53500D01*
X6000Y46334D02*
Y68244D01*
X14213Y76457D01*
X69400Y112900D02*
Y122116D01*
X53269Y163386D02*
X59449Y157206D01*
X10666Y28966D02*
Y33400D01*
X38583Y39764D02*
Y46117D01*
X37000Y47700D02*
X38583Y46117D01*
X54331Y173622D02*
Y178445D01*
X112638Y66457D02*
X117359Y61735D01*
Y53500D02*
Y61735D01*
X104425Y46334D02*
X117359Y33400D01*
X171725Y165400D02*
X172882Y166557D01*
X182638D01*
X170546Y182100D02*
X178191D01*
X166535Y178090D02*
X170546Y182100D01*
X157412Y168966D02*
X169978Y156400D01*
X157412Y168966D02*
X157412D01*
X169978Y156400D02*
X171725D01*
X186459Y182100D02*
Y187834D01*
X109565Y182059D02*
Y187660D01*
X171725Y156400D02*
X171782Y156457D01*
X182638D01*
X157412Y168966D02*
X166535Y178090D01*
X152756Y173622D02*
X157412Y168966D01*
X167825Y122116D02*
X182638Y136929D01*
X155725Y144200D02*
X157855Y146330D01*
X151825Y140300D02*
X155725Y144200D01*
X172817Y127108D01*
X157855Y146330D02*
Y151900D01*
X157874Y151919D01*
Y157206D01*
X134209Y122861D02*
X142825Y131478D01*
Y140300D01*
Y145670D01*
X136595Y151900D02*
X142825Y145670D01*
X160925Y114200D02*
Y122861D01*
X134209Y114200D02*
Y122861D01*
X178891Y33800D02*
X192325Y47234D01*
X109091Y49234D02*
Y53500D01*
X187159Y29366D02*
Y33800D01*
Y49266D02*
Y53500D01*
X157244Y59449D02*
X161225Y63430D01*
Y75700D01*
X138031Y59449D02*
X143025Y64442D01*
Y75700D01*
X182638Y106929D02*
X192325Y97242D01*
Y47234D02*
Y97242D01*
X173325Y59066D02*
Y97342D01*
Y59066D02*
X178891Y53500D01*
X104425Y46334D02*
Y68244D01*
X112638Y76457D01*
X167825Y112900D02*
Y122116D01*
X151694Y163386D02*
X157874Y157206D01*
X109091Y28966D02*
Y33400D01*
X137008Y39764D02*
Y46117D01*
X135425Y47700D02*
X137008Y46117D01*
X152756Y173622D02*
Y178445D01*
X211063Y66457D02*
X215784Y61735D01*
Y53500D02*
Y61735D01*
X202850Y46334D02*
X215784Y33400D01*
X270150Y165400D02*
X271307Y166557D01*
X281063D01*
X268971Y182100D02*
X276617D01*
X264961Y178090D02*
X268971Y182100D01*
X255837Y168966D02*
X268403Y156400D01*
X255837Y168966D02*
X255837D01*
X268403Y156400D02*
X270150D01*
X284884Y182100D02*
Y187834D01*
X207990Y182059D02*
Y187660D01*
X270150Y156400D02*
X270207Y156457D01*
X281063D01*
X255837Y168966D02*
X264961Y178090D01*
X251181Y173622D02*
X255837Y168966D01*
X266250Y122116D02*
X281063Y136929D01*
X254150Y144200D02*
X256280Y146330D01*
X250250Y140300D02*
X254150Y144200D01*
X271242Y127108D01*
X256280Y146330D02*
Y151900D01*
X256299Y151919D01*
Y157206D01*
X232634Y122861D02*
X241250Y131478D01*
Y140300D01*
Y145670D01*
X235020Y151900D02*
X241250Y145670D01*
X259350Y114200D02*
Y122861D01*
X232634Y114200D02*
Y122861D01*
X277316Y33800D02*
X290750Y47234D01*
X207517Y49234D02*
Y53500D01*
X285584Y29366D02*
Y33800D01*
Y49266D02*
Y53500D01*
X255669Y59449D02*
X259650Y63430D01*
Y75700D01*
X236457Y59449D02*
X241450Y64442D01*
Y75700D01*
X281063Y106929D02*
X290750Y97242D01*
Y47234D02*
Y97242D01*
X271750Y59066D02*
Y97342D01*
Y59066D02*
X277316Y53500D01*
X202850Y46334D02*
Y68244D01*
X211063Y76457D01*
X266250Y112900D02*
Y122116D01*
X250119Y163386D02*
X256299Y157206D01*
X207517Y28966D02*
Y33400D01*
X235433Y39764D02*
Y46117D01*
X233850Y47700D02*
X235433Y46117D01*
X251181Y173622D02*
Y178445D01*
X309488Y66457D02*
X314210Y61735D01*
Y53500D02*
Y61735D01*
X301276Y46334D02*
X314210Y33400D01*
X368576Y165400D02*
X369732Y166557D01*
X379488D01*
X367396Y182100D02*
X375042D01*
X363386Y178090D02*
X367396Y182100D01*
X354262Y168966D02*
X366828Y156400D01*
X354262Y168966D02*
X354262D01*
X366828Y156400D02*
X368576D01*
X383310Y182100D02*
Y187834D01*
X306415Y182059D02*
Y187660D01*
X368576Y156400D02*
X368632Y156457D01*
X379488D01*
X354262Y168966D02*
X363386Y178090D01*
X349606Y173622D02*
X354262Y168966D01*
X364676Y122116D02*
X379488Y136929D01*
X352576Y144200D02*
X354706Y146330D01*
X348676Y140300D02*
X352576Y144200D01*
X369667Y127108D01*
X354706Y146330D02*
Y151900D01*
X354724Y151919D01*
Y157206D01*
X331059Y122861D02*
X339676Y131478D01*
Y140300D01*
Y145670D01*
X333446Y151900D02*
X339676Y145670D01*
X357776Y114200D02*
Y122861D01*
X331059Y114200D02*
Y122861D01*
X375742Y33800D02*
X389176Y47234D01*
X305942Y49234D02*
Y53500D01*
X384010Y29366D02*
Y33800D01*
Y49266D02*
Y53500D01*
X354095Y59449D02*
X358076Y63430D01*
Y75700D01*
X334882Y59449D02*
X339876Y64442D01*
Y75700D01*
X379488Y106929D02*
X389176Y97242D01*
Y47234D02*
Y97242D01*
X370176Y59066D02*
Y97342D01*
Y59066D02*
X375742Y53500D01*
X301276Y46334D02*
Y68244D01*
X309488Y76457D01*
X364676Y112900D02*
Y122116D01*
X348545Y163386D02*
X354724Y157206D01*
X305942Y28966D02*
Y33400D01*
X333858Y39764D02*
Y46117D01*
X332276Y47700D02*
X333858Y46117D01*
X349606Y173622D02*
Y178445D01*
X14213Y263307D02*
X18934Y258586D01*
Y250350D02*
Y258586D01*
X6000Y243184D02*
X18934Y230250D01*
X73300Y362250D02*
X74457Y363407D01*
X84213D01*
X72120Y378950D02*
X79766D01*
X68110Y374940D02*
X72120Y378950D01*
X58987Y365816D02*
X71553Y353250D01*
X58987Y365816D02*
X58987D01*
X71553Y353250D02*
X73300D01*
X88034Y378950D02*
Y384684D01*
X11140Y378909D02*
Y384511D01*
X73300Y353250D02*
X73357Y353307D01*
X84213D01*
X58987Y365816D02*
X68110Y374940D01*
X54331Y370472D02*
X58987Y365816D01*
X69400Y318967D02*
X84213Y333780D01*
X57300Y341050D02*
X59430Y343180D01*
X53400Y337150D02*
X57300Y341050D01*
X74392Y323959D01*
X59430Y343180D02*
Y348750D01*
X59449Y348769D01*
Y354056D01*
X35783Y319712D02*
X44400Y328328D01*
Y337150D01*
Y342520D01*
X38170Y348750D02*
X44400Y342520D01*
X62500Y311050D02*
Y319712D01*
X35783Y311050D02*
Y319712D01*
X80466Y230650D02*
X93900Y244084D01*
X10666Y246084D02*
Y250350D01*
X88734Y226217D02*
Y230650D01*
Y246116D02*
Y250350D01*
X58819Y256299D02*
X62800Y260280D01*
Y272550D01*
X39606Y256299D02*
X44600Y261293D01*
Y272550D01*
X84213Y303780D02*
X93900Y294092D01*
Y244084D02*
Y294092D01*
X74900Y255917D02*
Y294193D01*
Y255917D02*
X80466Y250350D01*
X6000Y243184D02*
Y265094D01*
X14213Y273307D01*
X69400Y309750D02*
Y318967D01*
X53269Y360236D02*
X59449Y354056D01*
X10666Y225816D02*
Y230250D01*
X38583Y236614D02*
Y242968D01*
X37000Y244550D02*
X38583Y242968D01*
X54331Y370472D02*
Y375295D01*
X112638Y263307D02*
X117359Y258586D01*
Y250350D02*
Y258586D01*
X104425Y243184D02*
X117359Y230250D01*
X171725Y362250D02*
X172882Y363407D01*
X182638D01*
X170546Y378950D02*
X178191D01*
X166535Y374940D02*
X170546Y378950D01*
X157412Y365816D02*
X169978Y353250D01*
X157412Y365816D02*
X157412D01*
X169978Y353250D02*
X171725D01*
X186459Y378950D02*
Y384684D01*
X109565Y378909D02*
Y384511D01*
X171725Y353250D02*
X171782Y353307D01*
X182638D01*
X157412Y365816D02*
X166535Y374940D01*
X152756Y370472D02*
X157412Y365816D01*
X167825Y318967D02*
X182638Y333780D01*
X155725Y341050D02*
X157855Y343180D01*
X151825Y337150D02*
X155725Y341050D01*
X172817Y323959D01*
X157855Y343180D02*
Y348750D01*
X157874Y348769D01*
Y354056D01*
X134209Y319712D02*
X142825Y328328D01*
Y337150D01*
Y342520D01*
X136595Y348750D02*
X142825Y342520D01*
X160925Y311050D02*
Y319712D01*
X134209Y311050D02*
Y319712D01*
X178891Y230650D02*
X192325Y244084D01*
X109091Y246084D02*
Y250350D01*
X187159Y226217D02*
Y230650D01*
Y246116D02*
Y250350D01*
X157244Y256299D02*
X161225Y260280D01*
Y272550D01*
X138031Y256299D02*
X143025Y261293D01*
Y272550D01*
X182638Y303780D02*
X192325Y294092D01*
Y244084D02*
Y294092D01*
X173325Y255917D02*
Y294193D01*
Y255917D02*
X178891Y250350D01*
X104425Y243184D02*
Y265094D01*
X112638Y273307D01*
X167825Y309750D02*
Y318967D01*
X151694Y360236D02*
X157874Y354056D01*
X109091Y225816D02*
Y230250D01*
X137008Y236614D02*
Y242968D01*
X135425Y244550D02*
X137008Y242968D01*
X152756Y370472D02*
Y375295D01*
X211063Y263307D02*
X215784Y258586D01*
Y250350D02*
Y258586D01*
X202850Y243184D02*
X215784Y230250D01*
X270150Y362250D02*
X271307Y363407D01*
X281063D01*
X268971Y378950D02*
X276617D01*
X264961Y374940D02*
X268971Y378950D01*
X255837Y365816D02*
X268403Y353250D01*
X255837Y365816D02*
X255837D01*
X268403Y353250D02*
X270150D01*
X284884Y378950D02*
Y384684D01*
X207990Y378909D02*
Y384511D01*
X270150Y353250D02*
X270207Y353307D01*
X281063D01*
X255837Y365816D02*
X264961Y374940D01*
X251181Y370472D02*
X255837Y365816D01*
X266250Y318967D02*
X281063Y333780D01*
X254150Y341050D02*
X256280Y343180D01*
X250250Y337150D02*
X254150Y341050D01*
X271242Y323959D01*
X256280Y343180D02*
Y348750D01*
X256299Y348769D01*
Y354056D01*
X232634Y319712D02*
X241250Y328328D01*
Y337150D01*
Y342520D01*
X235020Y348750D02*
X241250Y342520D01*
X259350Y311050D02*
Y319712D01*
X232634Y311050D02*
Y319712D01*
X277316Y230650D02*
X290750Y244084D01*
X207517Y246084D02*
Y250350D01*
X285584Y226217D02*
Y230650D01*
Y246116D02*
Y250350D01*
X255669Y256299D02*
X259650Y260280D01*
Y272550D01*
X236457Y256299D02*
X241450Y261293D01*
Y272550D01*
X281063Y303780D02*
X290750Y294092D01*
Y244084D02*
Y294092D01*
X271750Y255917D02*
Y294193D01*
Y255917D02*
X277316Y250350D01*
X202850Y243184D02*
Y265094D01*
X211063Y273307D01*
X266250Y309750D02*
Y318967D01*
X250119Y360236D02*
X256299Y354056D01*
X207517Y225816D02*
Y230250D01*
X235433Y236614D02*
Y242968D01*
X233850Y244550D02*
X235433Y242968D01*
X251181Y370472D02*
Y375295D01*
X309488Y263307D02*
X314210Y258586D01*
Y250350D02*
Y258586D01*
X301276Y243184D02*
X314210Y230250D01*
X368576Y362250D02*
X369732Y363407D01*
X379488D01*
X367396Y378950D02*
X375042D01*
X363386Y374940D02*
X367396Y378950D01*
X354262Y365816D02*
X366828Y353250D01*
X354262Y365816D02*
X354262D01*
X366828Y353250D02*
X368576D01*
X383310Y378950D02*
Y384684D01*
X306415Y378909D02*
Y384511D01*
X368576Y353250D02*
X368632Y353307D01*
X379488D01*
X354262Y365816D02*
X363386Y374940D01*
X349606Y370472D02*
X354262Y365816D01*
X364676Y318967D02*
X379488Y333780D01*
X352576Y341050D02*
X354706Y343180D01*
X348676Y337150D02*
X352576Y341050D01*
X369667Y323959D01*
X354706Y343180D02*
Y348750D01*
X354724Y348769D01*
Y354056D01*
X331059Y319712D02*
X339676Y328328D01*
Y337150D01*
Y342520D01*
X333446Y348750D02*
X339676Y342520D01*
X357776Y311050D02*
Y319712D01*
X331059Y311050D02*
Y319712D01*
X375742Y230650D02*
X389176Y244084D01*
X305942Y246084D02*
Y250350D01*
X384010Y226217D02*
Y230650D01*
Y246116D02*
Y250350D01*
X354095Y256299D02*
X358076Y260280D01*
Y272550D01*
X334882Y256299D02*
X339876Y261293D01*
Y272550D01*
X379488Y303780D02*
X389176Y294092D01*
Y244084D02*
Y294092D01*
X370176Y255917D02*
Y294193D01*
Y255917D02*
X375742Y250350D01*
X301276Y243184D02*
Y265094D01*
X309488Y273307D01*
X364676Y309750D02*
Y318967D01*
X348545Y360236D02*
X354724Y354056D01*
X305942Y225816D02*
Y230250D01*
X333858Y236614D02*
Y242968D01*
X332276Y244550D02*
X333858Y242968D01*
X349606Y370472D02*
Y375295D01*
D20*
X24843Y156457D02*
X30400Y162013D01*
Y163386D01*
X14213Y156457D02*
X24843D01*
X22441Y182059D02*
X30400Y174100D01*
X19408Y182059D02*
X22441D01*
X30400Y163386D02*
X44269D01*
X30400D02*
Y174100D01*
X53500Y114200D02*
Y122861D01*
X44783Y114200D02*
Y122861D01*
X53500D02*
Y126125D01*
X49213Y130413D02*
X53500Y126125D01*
X44783Y122861D02*
Y125984D01*
X49213Y130413D01*
X123268Y156457D02*
X128825Y162013D01*
Y163386D01*
X112638Y156457D02*
X123268D01*
X120866Y182059D02*
X128825Y174100D01*
X117833Y182059D02*
X120866D01*
X128825Y163386D02*
X142694D01*
X128825D02*
Y174100D01*
X151925Y114200D02*
Y122861D01*
X143209Y114200D02*
Y122861D01*
X151925D02*
Y126125D01*
X147638Y130413D02*
X151925Y126125D01*
X143209Y122861D02*
Y125984D01*
X147638Y130413D01*
X221694Y156457D02*
X227250Y162013D01*
Y163386D01*
X211063Y156457D02*
X221694D01*
X219291Y182059D02*
X227250Y174100D01*
X216258Y182059D02*
X219291D01*
X227250Y163386D02*
X241119D01*
X227250D02*
Y174100D01*
X250350Y114200D02*
Y122861D01*
X241634Y114200D02*
Y122861D01*
X250350D02*
Y126125D01*
X246063Y130413D02*
X250350Y126125D01*
X241634Y122861D02*
Y125984D01*
X246063Y130413D01*
X320119Y156457D02*
X325676Y162013D01*
Y163386D01*
X309488Y156457D02*
X320119D01*
X317717Y182059D02*
X325676Y174100D01*
X314683Y182059D02*
X317717D01*
X325676Y163386D02*
X339545D01*
X325676D02*
Y174100D01*
X348776Y114200D02*
Y122861D01*
X340059Y114200D02*
Y122861D01*
X348776D02*
Y126125D01*
X344488Y130413D02*
X348776Y126125D01*
X340059Y122861D02*
Y125984D01*
X344488Y130413D01*
X24843Y353307D02*
X30400Y358864D01*
Y360236D01*
X14213Y353307D02*
X24843D01*
X22441Y378909D02*
X30400Y370950D01*
X19408Y378909D02*
X22441D01*
X30400Y360236D02*
X44269D01*
X30400D02*
Y370950D01*
X53500Y311050D02*
Y319712D01*
X44783Y311050D02*
Y319712D01*
X53500D02*
Y322976D01*
X49213Y327263D02*
X53500Y322976D01*
X44783Y319712D02*
Y322834D01*
X49213Y327263D01*
X123268Y353307D02*
X128825Y358864D01*
Y360236D01*
X112638Y353307D02*
X123268D01*
X120866Y378909D02*
X128825Y370950D01*
X117833Y378909D02*
X120866D01*
X128825Y360236D02*
X142694D01*
X128825D02*
Y370950D01*
X151925Y311050D02*
Y319712D01*
X143209Y311050D02*
Y319712D01*
X151925D02*
Y322976D01*
X147638Y327263D02*
X151925Y322976D01*
X143209Y319712D02*
Y322834D01*
X147638Y327263D01*
X221694Y353307D02*
X227250Y358864D01*
Y360236D01*
X211063Y353307D02*
X221694D01*
X219291Y378909D02*
X227250Y370950D01*
X216258Y378909D02*
X219291D01*
X227250Y360236D02*
X241119D01*
X227250D02*
Y370950D01*
X250350Y311050D02*
Y319712D01*
X241634Y311050D02*
Y319712D01*
X250350D02*
Y322976D01*
X246063Y327263D02*
X250350Y322976D01*
X241634Y319712D02*
Y322834D01*
X246063Y327263D01*
X320119Y353307D02*
X325676Y358864D01*
Y360236D01*
X309488Y353307D02*
X320119D01*
X317717Y378909D02*
X325676Y370950D01*
X314683Y378909D02*
X317717D01*
X325676Y360236D02*
X339545D01*
X325676D02*
Y370950D01*
X348776Y311050D02*
Y319712D01*
X340059Y311050D02*
Y319712D01*
X348776D02*
Y322976D01*
X344488Y327263D02*
X348776Y322976D01*
X340059Y319712D02*
Y322834D01*
X344488Y327263D01*
D21*
X84213Y126929D02*
D03*
Y106929D02*
D03*
Y76929D02*
D03*
Y86929D02*
D03*
Y96929D02*
D03*
Y116929D02*
D03*
Y136929D02*
D03*
X14213Y76457D02*
D03*
Y96457D02*
D03*
Y126457D02*
D03*
Y116457D02*
D03*
Y106457D02*
D03*
Y86457D02*
D03*
Y66457D02*
D03*
X182638Y126929D02*
D03*
Y106929D02*
D03*
Y76929D02*
D03*
Y86929D02*
D03*
Y96929D02*
D03*
Y116929D02*
D03*
Y136929D02*
D03*
X112638Y76457D02*
D03*
Y96457D02*
D03*
Y126457D02*
D03*
Y116457D02*
D03*
Y106457D02*
D03*
Y86457D02*
D03*
Y66457D02*
D03*
X281063Y126929D02*
D03*
Y106929D02*
D03*
Y76929D02*
D03*
Y86929D02*
D03*
Y96929D02*
D03*
Y116929D02*
D03*
Y136929D02*
D03*
X211063Y76457D02*
D03*
Y96457D02*
D03*
Y126457D02*
D03*
Y116457D02*
D03*
Y106457D02*
D03*
Y86457D02*
D03*
Y66457D02*
D03*
X379488Y126929D02*
D03*
Y106929D02*
D03*
Y76929D02*
D03*
Y86929D02*
D03*
Y96929D02*
D03*
Y116929D02*
D03*
Y136929D02*
D03*
X309488Y76457D02*
D03*
Y96457D02*
D03*
Y126457D02*
D03*
Y116457D02*
D03*
Y106457D02*
D03*
Y86457D02*
D03*
Y66457D02*
D03*
X84213Y323780D02*
D03*
Y303780D02*
D03*
Y273780D02*
D03*
Y283780D02*
D03*
Y293779D02*
D03*
Y313779D02*
D03*
Y333780D02*
D03*
X14213Y273307D02*
D03*
Y293307D02*
D03*
Y323307D02*
D03*
Y313307D02*
D03*
Y303307D02*
D03*
Y283307D02*
D03*
Y263307D02*
D03*
X182638Y323780D02*
D03*
Y303780D02*
D03*
Y273780D02*
D03*
Y283780D02*
D03*
Y293779D02*
D03*
Y313779D02*
D03*
Y333780D02*
D03*
X112638Y273307D02*
D03*
Y293307D02*
D03*
Y323307D02*
D03*
Y313307D02*
D03*
Y303307D02*
D03*
Y283307D02*
D03*
Y263307D02*
D03*
X281063Y323780D02*
D03*
Y303780D02*
D03*
Y273780D02*
D03*
Y283780D02*
D03*
Y293779D02*
D03*
Y313779D02*
D03*
Y333780D02*
D03*
X211063Y273307D02*
D03*
Y293307D02*
D03*
Y323307D02*
D03*
Y313307D02*
D03*
Y303307D02*
D03*
Y283307D02*
D03*
Y263307D02*
D03*
X379488Y323780D02*
D03*
Y303780D02*
D03*
Y273780D02*
D03*
Y283780D02*
D03*
Y293779D02*
D03*
Y313779D02*
D03*
Y333780D02*
D03*
X309488Y273307D02*
D03*
Y293307D02*
D03*
Y323307D02*
D03*
Y313307D02*
D03*
Y303307D02*
D03*
Y283307D02*
D03*
Y263307D02*
D03*
D22*
X84213Y66929D02*
D03*
X14213Y136457D02*
D03*
X182638Y66929D02*
D03*
X112638Y136457D02*
D03*
X281063Y66929D02*
D03*
X211063Y136457D02*
D03*
X379488Y66929D02*
D03*
X309488Y136457D02*
D03*
X84213Y263779D02*
D03*
X14213Y333307D02*
D03*
X182638Y263779D02*
D03*
X112638Y333307D02*
D03*
X281063Y263779D02*
D03*
X211063Y333307D02*
D03*
X379488Y263779D02*
D03*
X309488Y333307D02*
D03*
D23*
X14213Y166557D02*
D03*
X84213D02*
D03*
X112638D02*
D03*
X182638D02*
D03*
X211063D02*
D03*
X281063D02*
D03*
X309488D02*
D03*
X379488D02*
D03*
X14213Y363407D02*
D03*
X84213D02*
D03*
X112638D02*
D03*
X182638D02*
D03*
X211063D02*
D03*
X281063D02*
D03*
X309488D02*
D03*
X379488D02*
D03*
D24*
X14213Y156457D02*
D03*
X84213D02*
D03*
X112638D02*
D03*
X182638D02*
D03*
X211063D02*
D03*
X281063D02*
D03*
X309488D02*
D03*
X379488D02*
D03*
X14213Y353307D02*
D03*
X84213D02*
D03*
X112638D02*
D03*
X182638D02*
D03*
X211063D02*
D03*
X281063D02*
D03*
X309488D02*
D03*
X379488D02*
D03*
D25*
X39606Y59449D02*
D03*
X58819D02*
D03*
X138031D02*
D03*
X157244D02*
D03*
X236457D02*
D03*
X255669D02*
D03*
X334882D02*
D03*
X354095D02*
D03*
X39606Y256299D02*
D03*
X58819D02*
D03*
X138031D02*
D03*
X157244D02*
D03*
X236457D02*
D03*
X255669D02*
D03*
X334882D02*
D03*
X354095D02*
D03*
D26*
X34213Y19291D02*
D03*
X44313D02*
D03*
X54113D02*
D03*
X64213D02*
D03*
X132638D02*
D03*
X142738D02*
D03*
X152538D02*
D03*
X162638D02*
D03*
X231063D02*
D03*
X241163D02*
D03*
X250963D02*
D03*
X261063D02*
D03*
X329488D02*
D03*
X339588D02*
D03*
X349388D02*
D03*
X359488D02*
D03*
X34213Y216142D02*
D03*
X44313D02*
D03*
X54113D02*
D03*
X64213D02*
D03*
X132638D02*
D03*
X142738D02*
D03*
X152538D02*
D03*
X162638D02*
D03*
X231063D02*
D03*
X241163D02*
D03*
X250963D02*
D03*
X261063D02*
D03*
X329488D02*
D03*
X339588D02*
D03*
X349388D02*
D03*
X359488D02*
D03*
D27*
X57382Y179331D02*
D03*
X41043D02*
D03*
X155807D02*
D03*
X139469D02*
D03*
X254232D02*
D03*
X237894D02*
D03*
X352658D02*
D03*
X336319D02*
D03*
X57382Y376181D02*
D03*
X41043D02*
D03*
X155807D02*
D03*
X139469D02*
D03*
X254232D02*
D03*
X237894D02*
D03*
X352658D02*
D03*
X336319D02*
D03*
D28*
X29400Y74414D02*
D03*
X45700Y25500D02*
D03*
X84700Y58900D02*
D03*
X19408Y39200D02*
D03*
X89000Y131900D02*
D03*
X89400Y122000D02*
D03*
X89661Y111800D02*
D03*
Y91900D02*
D03*
X95000Y150800D02*
D03*
X73500Y47900D02*
D03*
X66255Y118500D02*
D03*
X61200Y47800D02*
D03*
X49028Y43400D02*
D03*
X35700Y70600D02*
D03*
X56500D02*
D03*
X47967D02*
D03*
X84213Y146000D02*
D03*
X13900Y146600D02*
D03*
X31600Y155800D02*
D03*
X32000Y178300D02*
D03*
X24300Y173200D02*
D03*
X88034Y187834D02*
D03*
X11140Y187660D02*
D03*
X39700Y138200D02*
D03*
X44200Y153900D02*
D03*
X60400Y176100D02*
D03*
X53600Y169200D02*
D03*
X44400Y169800D02*
D03*
X35850Y80888D02*
D03*
X58198Y24700D02*
D03*
X59200Y33700D02*
D03*
X66200Y81600D02*
D03*
X89500Y81200D02*
D03*
X78300D02*
D03*
Y92300D02*
D03*
X68298Y92500D02*
D03*
X67917Y70200D02*
D03*
X67000Y42000D02*
D03*
X49100Y35600D02*
D03*
X12500Y59381D02*
D03*
X35000Y169200D02*
D03*
X74400Y170500D02*
D03*
X61222Y160600D02*
D03*
X53000Y156653D02*
D03*
X56200Y129994D02*
D03*
X69200Y140900D02*
D03*
X66700Y128800D02*
D03*
X74600Y133400D02*
D03*
X10666Y49234D02*
D03*
X88734Y29366D02*
D03*
Y49266D02*
D03*
X10600Y28900D02*
D03*
X37000Y47700D02*
D03*
X44488Y84400D02*
D03*
X54600Y82600D02*
D03*
X30400Y163386D02*
D03*
X49213Y130413D02*
D03*
X68110Y178090D02*
D03*
X127825Y74414D02*
D03*
X144125Y25500D02*
D03*
X183125Y58900D02*
D03*
X117834Y39200D02*
D03*
X187425Y131900D02*
D03*
X187825Y122000D02*
D03*
X188086Y111800D02*
D03*
Y91900D02*
D03*
X193425Y150800D02*
D03*
X171925Y47900D02*
D03*
X164680Y118500D02*
D03*
X159625Y47800D02*
D03*
X147453Y43400D02*
D03*
X134125Y70600D02*
D03*
X154925D02*
D03*
X146392D02*
D03*
X182638Y146000D02*
D03*
X112325Y146600D02*
D03*
X130025Y155800D02*
D03*
X130425Y178300D02*
D03*
X122725Y173200D02*
D03*
X186459Y187834D02*
D03*
X109565Y187660D02*
D03*
X138125Y138200D02*
D03*
X142625Y153900D02*
D03*
X158825Y176100D02*
D03*
X152025Y169200D02*
D03*
X142825Y169800D02*
D03*
X134275Y80888D02*
D03*
X156623Y24700D02*
D03*
X157625Y33700D02*
D03*
X164625Y81600D02*
D03*
X187925Y81200D02*
D03*
X176725D02*
D03*
Y92300D02*
D03*
X166723Y92500D02*
D03*
X166342Y70200D02*
D03*
X165425Y42000D02*
D03*
X147525Y35600D02*
D03*
X110925Y59381D02*
D03*
X133425Y169200D02*
D03*
X172825Y170500D02*
D03*
X159647Y160600D02*
D03*
X151425Y156653D02*
D03*
X154625Y129994D02*
D03*
X167625Y140900D02*
D03*
X165125Y128800D02*
D03*
X173025Y133400D02*
D03*
X109091Y49234D02*
D03*
X187159Y29366D02*
D03*
Y49266D02*
D03*
X109025Y28900D02*
D03*
X135425Y47700D02*
D03*
X142913Y84400D02*
D03*
X153025Y82600D02*
D03*
X128825Y163386D02*
D03*
X147638Y130413D02*
D03*
X166535Y178090D02*
D03*
X226250Y74414D02*
D03*
X242550Y25500D02*
D03*
X281550Y58900D02*
D03*
X216259Y39200D02*
D03*
X285850Y131900D02*
D03*
X286250Y122000D02*
D03*
X286511Y111800D02*
D03*
Y91900D02*
D03*
X291850Y150800D02*
D03*
X270350Y47900D02*
D03*
X263106Y118500D02*
D03*
X258050Y47800D02*
D03*
X245878Y43400D02*
D03*
X232550Y70600D02*
D03*
X253350D02*
D03*
X244817D02*
D03*
X281063Y146000D02*
D03*
X210750Y146600D02*
D03*
X228450Y155800D02*
D03*
X228850Y178300D02*
D03*
X221150Y173200D02*
D03*
X284884Y187834D02*
D03*
X207990Y187660D02*
D03*
X236550Y138200D02*
D03*
X241050Y153900D02*
D03*
X257250Y176100D02*
D03*
X250450Y169200D02*
D03*
X241250Y169800D02*
D03*
X232701Y80888D02*
D03*
X255048Y24700D02*
D03*
X256050Y33700D02*
D03*
X263050Y81600D02*
D03*
X286350Y81200D02*
D03*
X275150D02*
D03*
Y92300D02*
D03*
X265148Y92500D02*
D03*
X264767Y70200D02*
D03*
X263850Y42000D02*
D03*
X245950Y35600D02*
D03*
X209350Y59381D02*
D03*
X231850Y169200D02*
D03*
X271250Y170500D02*
D03*
X258072Y160600D02*
D03*
X249850Y156653D02*
D03*
X253050Y129994D02*
D03*
X266050Y140900D02*
D03*
X263550Y128800D02*
D03*
X271450Y133400D02*
D03*
X207517Y49234D02*
D03*
X285584Y29366D02*
D03*
Y49266D02*
D03*
X207450Y28900D02*
D03*
X233850Y47700D02*
D03*
X241339Y84400D02*
D03*
X251450Y82600D02*
D03*
X227250Y163386D02*
D03*
X246063Y130413D02*
D03*
X264961Y178090D02*
D03*
X324676Y74414D02*
D03*
X340976Y25500D02*
D03*
X379976Y58900D02*
D03*
X314684Y39200D02*
D03*
X384276Y131900D02*
D03*
X384676Y122000D02*
D03*
X384936Y111800D02*
D03*
Y91900D02*
D03*
X390276Y150800D02*
D03*
X368776Y47900D02*
D03*
X361531Y118500D02*
D03*
X356476Y47800D02*
D03*
X344303Y43400D02*
D03*
X330976Y70600D02*
D03*
X351776D02*
D03*
X343242D02*
D03*
X379488Y146000D02*
D03*
X309176Y146600D02*
D03*
X326876Y155800D02*
D03*
X327276Y178300D02*
D03*
X319576Y173200D02*
D03*
X383310Y187834D02*
D03*
X306415Y187660D02*
D03*
X334976Y138200D02*
D03*
X339476Y153900D02*
D03*
X355676Y176100D02*
D03*
X348876Y169200D02*
D03*
X339676Y169800D02*
D03*
X331126Y80888D02*
D03*
X353473Y24700D02*
D03*
X354476Y33700D02*
D03*
X361476Y81600D02*
D03*
X384776Y81200D02*
D03*
X373576D02*
D03*
Y92300D02*
D03*
X363573Y92500D02*
D03*
X363192Y70200D02*
D03*
X362276Y42000D02*
D03*
X344376Y35600D02*
D03*
X307776Y59381D02*
D03*
X330276Y169200D02*
D03*
X369676Y170500D02*
D03*
X356497Y160600D02*
D03*
X348276Y156653D02*
D03*
X351476Y129994D02*
D03*
X364476Y140900D02*
D03*
X361976Y128800D02*
D03*
X369876Y133400D02*
D03*
X305942Y49234D02*
D03*
X384010Y29366D02*
D03*
Y49266D02*
D03*
X305876Y28900D02*
D03*
X332276Y47700D02*
D03*
X339764Y84400D02*
D03*
X349876Y82600D02*
D03*
X325676Y163386D02*
D03*
X344488Y130413D02*
D03*
X363386Y178090D02*
D03*
X29400Y271265D02*
D03*
X45700Y222350D02*
D03*
X84700Y255750D02*
D03*
X19408Y236050D02*
D03*
X89000Y328750D02*
D03*
X89400Y318850D02*
D03*
X89661Y308650D02*
D03*
Y288750D02*
D03*
X95000Y347650D02*
D03*
X73500Y244750D02*
D03*
X66255Y315350D02*
D03*
X61200Y244650D02*
D03*
X49028Y240250D02*
D03*
X35700Y267450D02*
D03*
X56500D02*
D03*
X47967D02*
D03*
X84213Y342850D02*
D03*
X13900Y343450D02*
D03*
X31600Y352650D02*
D03*
X32000Y375150D02*
D03*
X24300Y370050D02*
D03*
X88034Y384684D02*
D03*
X11140Y384511D02*
D03*
X39700Y335050D02*
D03*
X44200Y350750D02*
D03*
X60400Y372950D02*
D03*
X53600Y366050D02*
D03*
X44400Y366650D02*
D03*
X35850Y277738D02*
D03*
X58198Y221550D02*
D03*
X59200Y230550D02*
D03*
X66200Y278450D02*
D03*
X89500Y278050D02*
D03*
X78300D02*
D03*
Y289150D02*
D03*
X68298Y289350D02*
D03*
X67917Y267050D02*
D03*
X67000Y238850D02*
D03*
X49100Y232450D02*
D03*
X12500Y256231D02*
D03*
X35000Y366050D02*
D03*
X74400Y367350D02*
D03*
X61222Y357450D02*
D03*
X53000Y353503D02*
D03*
X56200Y326845D02*
D03*
X69200Y337750D02*
D03*
X66700Y325650D02*
D03*
X74600Y330250D02*
D03*
X10666Y246084D02*
D03*
X88734Y226217D02*
D03*
Y246116D02*
D03*
X10600Y225750D02*
D03*
X37000Y244550D02*
D03*
X44488Y281250D02*
D03*
X54600Y279450D02*
D03*
X30400Y360236D02*
D03*
X49213Y327263D02*
D03*
X68110Y374940D02*
D03*
X127825Y271265D02*
D03*
X144125Y222350D02*
D03*
X183125Y255750D02*
D03*
X117834Y236050D02*
D03*
X187425Y328750D02*
D03*
X187825Y318850D02*
D03*
X188086Y308650D02*
D03*
Y288750D02*
D03*
X193425Y347650D02*
D03*
X171925Y244750D02*
D03*
X164680Y315350D02*
D03*
X159625Y244650D02*
D03*
X147453Y240250D02*
D03*
X134125Y267450D02*
D03*
X154925D02*
D03*
X146392D02*
D03*
X182638Y342850D02*
D03*
X112325Y343450D02*
D03*
X130025Y352650D02*
D03*
X130425Y375150D02*
D03*
X122725Y370050D02*
D03*
X186459Y384684D02*
D03*
X109565Y384511D02*
D03*
X138125Y335050D02*
D03*
X142625Y350750D02*
D03*
X158825Y372950D02*
D03*
X152025Y366050D02*
D03*
X142825Y366650D02*
D03*
X134275Y277738D02*
D03*
X156623Y221550D02*
D03*
X157625Y230550D02*
D03*
X164625Y278450D02*
D03*
X187925Y278050D02*
D03*
X176725D02*
D03*
Y289150D02*
D03*
X166723Y289350D02*
D03*
X166342Y267050D02*
D03*
X165425Y238850D02*
D03*
X147525Y232450D02*
D03*
X110925Y256231D02*
D03*
X133425Y366050D02*
D03*
X172825Y367350D02*
D03*
X159647Y357450D02*
D03*
X151425Y353503D02*
D03*
X154625Y326845D02*
D03*
X167625Y337750D02*
D03*
X165125Y325650D02*
D03*
X173025Y330250D02*
D03*
X109091Y246084D02*
D03*
X187159Y226217D02*
D03*
Y246116D02*
D03*
X109025Y225750D02*
D03*
X135425Y244550D02*
D03*
X142913Y281250D02*
D03*
X153025Y279450D02*
D03*
X128825Y360236D02*
D03*
X147638Y327263D02*
D03*
X166535Y374940D02*
D03*
X226250Y271265D02*
D03*
X242550Y222350D02*
D03*
X281550Y255750D02*
D03*
X216259Y236050D02*
D03*
X285850Y328750D02*
D03*
X286250Y318850D02*
D03*
X286511Y308650D02*
D03*
Y288750D02*
D03*
X291850Y347650D02*
D03*
X270350Y244750D02*
D03*
X263106Y315350D02*
D03*
X258050Y244650D02*
D03*
X245878Y240250D02*
D03*
X232550Y267450D02*
D03*
X253350D02*
D03*
X244817D02*
D03*
X281063Y342850D02*
D03*
X210750Y343450D02*
D03*
X228450Y352650D02*
D03*
X228850Y375150D02*
D03*
X221150Y370050D02*
D03*
X284884Y384684D02*
D03*
X207990Y384511D02*
D03*
X236550Y335050D02*
D03*
X241050Y350750D02*
D03*
X257250Y372950D02*
D03*
X250450Y366050D02*
D03*
X241250Y366650D02*
D03*
X232701Y277738D02*
D03*
X255048Y221550D02*
D03*
X256050Y230550D02*
D03*
X263050Y278450D02*
D03*
X286350Y278050D02*
D03*
X275150D02*
D03*
Y289150D02*
D03*
X265148Y289350D02*
D03*
X264767Y267050D02*
D03*
X263850Y238850D02*
D03*
X245950Y232450D02*
D03*
X209350Y256231D02*
D03*
X231850Y366050D02*
D03*
X271250Y367350D02*
D03*
X258072Y357450D02*
D03*
X249850Y353503D02*
D03*
X253050Y326845D02*
D03*
X266050Y337750D02*
D03*
X263550Y325650D02*
D03*
X271450Y330250D02*
D03*
X207517Y246084D02*
D03*
X285584Y226217D02*
D03*
Y246116D02*
D03*
X207450Y225750D02*
D03*
X233850Y244550D02*
D03*
X241339Y281250D02*
D03*
X251450Y279450D02*
D03*
X227250Y360236D02*
D03*
X246063Y327263D02*
D03*
X264961Y374940D02*
D03*
X324676Y271265D02*
D03*
X340976Y222350D02*
D03*
X379976Y255750D02*
D03*
X314684Y236050D02*
D03*
X384276Y328750D02*
D03*
X384676Y318850D02*
D03*
X384936Y308650D02*
D03*
Y288750D02*
D03*
X390276Y347650D02*
D03*
X368776Y244750D02*
D03*
X361531Y315350D02*
D03*
X356476Y244650D02*
D03*
X344303Y240250D02*
D03*
X330976Y267450D02*
D03*
X351776D02*
D03*
X343242D02*
D03*
X379488Y342850D02*
D03*
X309176Y343450D02*
D03*
X326876Y352650D02*
D03*
X327276Y375150D02*
D03*
X319576Y370050D02*
D03*
X383310Y384684D02*
D03*
X306415Y384511D02*
D03*
X334976Y335050D02*
D03*
X339476Y350750D02*
D03*
X355676Y372950D02*
D03*
X348876Y366050D02*
D03*
X339676Y366650D02*
D03*
X331126Y277738D02*
D03*
X353473Y221550D02*
D03*
X354476Y230550D02*
D03*
X361476Y278450D02*
D03*
X384776Y278050D02*
D03*
X373576D02*
D03*
Y289150D02*
D03*
X363573Y289350D02*
D03*
X363192Y267050D02*
D03*
X362276Y238850D02*
D03*
X344376Y232450D02*
D03*
X307776Y256231D02*
D03*
X330276Y366050D02*
D03*
X369676Y367350D02*
D03*
X356497Y357450D02*
D03*
X348276Y353503D02*
D03*
X351476Y326845D02*
D03*
X364476Y337750D02*
D03*
X361976Y325650D02*
D03*
X369876Y330250D02*
D03*
X305942Y246084D02*
D03*
X384010Y226217D02*
D03*
Y246116D02*
D03*
X305876Y225750D02*
D03*
X332276Y244550D02*
D03*
X339764Y281250D02*
D03*
X349876Y279450D02*
D03*
X325676Y360236D02*
D03*
X344488Y327263D02*
D03*
X363386Y374940D02*
D03*
M02*
