G04*
G04 #@! TF.GenerationSoftware,Altium Limited,Altium Designer,18.1.6 (161)*
G04*
G04 Layer_Color=255*
%FSLAX25Y25*%
%MOIN*%
G70*
G01*
G75*
%ADD10R,0.05500X0.05000*%
%ADD11R,0.05000X0.05500*%
%ADD21O,0.09000X0.06500*%
%ADD22R,0.09000X0.06500*%
%ADD23O,0.07500X0.06500*%
%ADD24R,0.07500X0.06500*%
%ADD25C,0.07000*%
%ADD26O,0.06500X0.07500*%
%ADD27C,0.02756*%
%ADD29R,0.03937X0.09449*%
%ADD30R,0.12992X0.09449*%
D10*
X54724Y47583D02*
D03*
Y38583D02*
D03*
X42913D02*
D03*
Y47583D02*
D03*
X68110Y159898D02*
D03*
Y168898D02*
D03*
X153150Y47583D02*
D03*
Y38583D02*
D03*
X141339D02*
D03*
Y47583D02*
D03*
X166535Y159898D02*
D03*
Y168898D02*
D03*
X251575Y47583D02*
D03*
Y38583D02*
D03*
X239764D02*
D03*
Y47583D02*
D03*
X264961Y159898D02*
D03*
Y168898D02*
D03*
X350000Y47583D02*
D03*
Y38583D02*
D03*
X338189D02*
D03*
Y47583D02*
D03*
X363386Y159898D02*
D03*
Y168898D02*
D03*
X54724Y244433D02*
D03*
Y235433D02*
D03*
X42913D02*
D03*
Y244433D02*
D03*
X68110Y356748D02*
D03*
Y365748D02*
D03*
X153150Y244433D02*
D03*
Y235433D02*
D03*
X141339D02*
D03*
Y244433D02*
D03*
X166535Y356748D02*
D03*
Y365748D02*
D03*
X251575Y244433D02*
D03*
Y235433D02*
D03*
X239764D02*
D03*
Y244433D02*
D03*
X264961Y356748D02*
D03*
Y365748D02*
D03*
X350000Y244433D02*
D03*
Y235433D02*
D03*
X338189D02*
D03*
Y244433D02*
D03*
X363386Y356748D02*
D03*
Y365748D02*
D03*
D11*
X79700Y182100D02*
D03*
X88700D02*
D03*
X52800Y90400D02*
D03*
X61800D02*
D03*
X35200D02*
D03*
X44200D02*
D03*
X10600Y44600D02*
D03*
X19600D02*
D03*
X10600Y24100D02*
D03*
X19600D02*
D03*
X44763Y30315D02*
D03*
X53763D02*
D03*
X88900Y24400D02*
D03*
X79900D02*
D03*
X88800Y44600D02*
D03*
X79800D02*
D03*
X19474Y182059D02*
D03*
X10474D02*
D03*
X58213Y136221D02*
D03*
X49213D02*
D03*
X178125Y182100D02*
D03*
X187125D02*
D03*
X151225Y90400D02*
D03*
X160225D02*
D03*
X133625D02*
D03*
X142625D02*
D03*
X109025Y44600D02*
D03*
X118025D02*
D03*
X109025Y24100D02*
D03*
X118025D02*
D03*
X143188Y30315D02*
D03*
X152188D02*
D03*
X187325Y24400D02*
D03*
X178325D02*
D03*
X187225Y44600D02*
D03*
X178225D02*
D03*
X117899Y182059D02*
D03*
X108899D02*
D03*
X156638Y136221D02*
D03*
X147638D02*
D03*
X276550Y182100D02*
D03*
X285550D02*
D03*
X249650Y90400D02*
D03*
X258650D02*
D03*
X232050D02*
D03*
X241050D02*
D03*
X207450Y44600D02*
D03*
X216450D02*
D03*
X207450Y24100D02*
D03*
X216450D02*
D03*
X241613Y30315D02*
D03*
X250613D02*
D03*
X285750Y24400D02*
D03*
X276750D02*
D03*
X285650Y44600D02*
D03*
X276650D02*
D03*
X216324Y182059D02*
D03*
X207324D02*
D03*
X255063Y136221D02*
D03*
X246063D02*
D03*
X374976Y182100D02*
D03*
X383976D02*
D03*
X348076Y90400D02*
D03*
X357076D02*
D03*
X330476D02*
D03*
X339476D02*
D03*
X305876Y44600D02*
D03*
X314876D02*
D03*
X305876Y24100D02*
D03*
X314876D02*
D03*
X340038Y30315D02*
D03*
X349038D02*
D03*
X384176Y24400D02*
D03*
X375176D02*
D03*
X384076Y44600D02*
D03*
X375076D02*
D03*
X314749Y182059D02*
D03*
X305749D02*
D03*
X353488Y136221D02*
D03*
X344488D02*
D03*
X79700Y378950D02*
D03*
X88700D02*
D03*
X52800Y287250D02*
D03*
X61800D02*
D03*
X35200D02*
D03*
X44200D02*
D03*
X10600Y241450D02*
D03*
X19600D02*
D03*
X10600Y220950D02*
D03*
X19600D02*
D03*
X44763Y227165D02*
D03*
X53763D02*
D03*
X88900Y221250D02*
D03*
X79900D02*
D03*
X88800Y241450D02*
D03*
X79800D02*
D03*
X19474Y378909D02*
D03*
X10474D02*
D03*
X58213Y333071D02*
D03*
X49213D02*
D03*
X178125Y378950D02*
D03*
X187125D02*
D03*
X151225Y287250D02*
D03*
X160225D02*
D03*
X133625D02*
D03*
X142625D02*
D03*
X109025Y241450D02*
D03*
X118025D02*
D03*
X109025Y220950D02*
D03*
X118025D02*
D03*
X143188Y227165D02*
D03*
X152188D02*
D03*
X187325Y221250D02*
D03*
X178325D02*
D03*
X187225Y241450D02*
D03*
X178225D02*
D03*
X117899Y378909D02*
D03*
X108899D02*
D03*
X156638Y333071D02*
D03*
X147638D02*
D03*
X276550Y378950D02*
D03*
X285550D02*
D03*
X249650Y287250D02*
D03*
X258650D02*
D03*
X232050D02*
D03*
X241050D02*
D03*
X207450Y241450D02*
D03*
X216450D02*
D03*
X207450Y220950D02*
D03*
X216450D02*
D03*
X241613Y227165D02*
D03*
X250613D02*
D03*
X285750Y221250D02*
D03*
X276750D02*
D03*
X285650Y241450D02*
D03*
X276650D02*
D03*
X216324Y378909D02*
D03*
X207324D02*
D03*
X255063Y333071D02*
D03*
X246063D02*
D03*
X374976Y378950D02*
D03*
X383976D02*
D03*
X348076Y287250D02*
D03*
X357076D02*
D03*
X330476D02*
D03*
X339476D02*
D03*
X305876Y241450D02*
D03*
X314876D02*
D03*
X305876Y220950D02*
D03*
X314876D02*
D03*
X340038Y227165D02*
D03*
X349038D02*
D03*
X384176Y221250D02*
D03*
X375176D02*
D03*
X384076Y241450D02*
D03*
X375076D02*
D03*
X314749Y378909D02*
D03*
X305749D02*
D03*
X353488Y333071D02*
D03*
X344488D02*
D03*
D21*
X84213Y126929D02*
D03*
Y106929D02*
D03*
Y76929D02*
D03*
Y86929D02*
D03*
Y96929D02*
D03*
Y116929D02*
D03*
Y136929D02*
D03*
X14213Y76457D02*
D03*
Y96457D02*
D03*
Y126457D02*
D03*
Y116457D02*
D03*
Y106457D02*
D03*
Y86457D02*
D03*
Y66457D02*
D03*
X182638Y126929D02*
D03*
Y106929D02*
D03*
Y76929D02*
D03*
Y86929D02*
D03*
Y96929D02*
D03*
Y116929D02*
D03*
Y136929D02*
D03*
X112638Y76457D02*
D03*
Y96457D02*
D03*
Y126457D02*
D03*
Y116457D02*
D03*
Y106457D02*
D03*
Y86457D02*
D03*
Y66457D02*
D03*
X281063Y126929D02*
D03*
Y106929D02*
D03*
Y76929D02*
D03*
Y86929D02*
D03*
Y96929D02*
D03*
Y116929D02*
D03*
Y136929D02*
D03*
X211063Y76457D02*
D03*
Y96457D02*
D03*
Y126457D02*
D03*
Y116457D02*
D03*
Y106457D02*
D03*
Y86457D02*
D03*
Y66457D02*
D03*
X379488Y126929D02*
D03*
Y106929D02*
D03*
Y76929D02*
D03*
Y86929D02*
D03*
Y96929D02*
D03*
Y116929D02*
D03*
Y136929D02*
D03*
X309488Y76457D02*
D03*
Y96457D02*
D03*
Y126457D02*
D03*
Y116457D02*
D03*
Y106457D02*
D03*
Y86457D02*
D03*
Y66457D02*
D03*
X84213Y323780D02*
D03*
Y303780D02*
D03*
Y273780D02*
D03*
Y283780D02*
D03*
Y293779D02*
D03*
Y313779D02*
D03*
Y333780D02*
D03*
X14213Y273307D02*
D03*
Y293307D02*
D03*
Y323307D02*
D03*
Y313307D02*
D03*
Y303307D02*
D03*
Y283307D02*
D03*
Y263307D02*
D03*
X182638Y323780D02*
D03*
Y303780D02*
D03*
Y273780D02*
D03*
Y283780D02*
D03*
Y293779D02*
D03*
Y313779D02*
D03*
Y333780D02*
D03*
X112638Y273307D02*
D03*
Y293307D02*
D03*
Y323307D02*
D03*
Y313307D02*
D03*
Y303307D02*
D03*
Y283307D02*
D03*
Y263307D02*
D03*
X281063Y323780D02*
D03*
Y303780D02*
D03*
Y273780D02*
D03*
Y283780D02*
D03*
Y293779D02*
D03*
Y313779D02*
D03*
Y333780D02*
D03*
X211063Y273307D02*
D03*
Y293307D02*
D03*
Y323307D02*
D03*
Y313307D02*
D03*
Y303307D02*
D03*
Y283307D02*
D03*
Y263307D02*
D03*
X379488Y323780D02*
D03*
Y303780D02*
D03*
Y273780D02*
D03*
Y283780D02*
D03*
Y293779D02*
D03*
Y313779D02*
D03*
Y333780D02*
D03*
X309488Y273307D02*
D03*
Y293307D02*
D03*
Y323307D02*
D03*
Y313307D02*
D03*
Y303307D02*
D03*
Y283307D02*
D03*
Y263307D02*
D03*
D22*
X84213Y66929D02*
D03*
X14213Y136457D02*
D03*
X182638Y66929D02*
D03*
X112638Y136457D02*
D03*
X281063Y66929D02*
D03*
X211063Y136457D02*
D03*
X379488Y66929D02*
D03*
X309488Y136457D02*
D03*
X84213Y263779D02*
D03*
X14213Y333307D02*
D03*
X182638Y263779D02*
D03*
X112638Y333307D02*
D03*
X281063Y263779D02*
D03*
X211063Y333307D02*
D03*
X379488Y263779D02*
D03*
X309488Y333307D02*
D03*
D23*
X14213Y166557D02*
D03*
X84213D02*
D03*
X112638D02*
D03*
X182638D02*
D03*
X211063D02*
D03*
X281063D02*
D03*
X309488D02*
D03*
X379488D02*
D03*
X14213Y363407D02*
D03*
X84213D02*
D03*
X112638D02*
D03*
X182638D02*
D03*
X211063D02*
D03*
X281063D02*
D03*
X309488D02*
D03*
X379488D02*
D03*
D24*
X14213Y156457D02*
D03*
X84213D02*
D03*
X112638D02*
D03*
X182638D02*
D03*
X211063D02*
D03*
X281063D02*
D03*
X309488D02*
D03*
X379488D02*
D03*
X14213Y353307D02*
D03*
X84213D02*
D03*
X112638D02*
D03*
X182638D02*
D03*
X211063D02*
D03*
X281063D02*
D03*
X309488D02*
D03*
X379488D02*
D03*
D25*
X39606Y59449D02*
D03*
X58819D02*
D03*
X138031D02*
D03*
X157244D02*
D03*
X236457D02*
D03*
X255669D02*
D03*
X334882D02*
D03*
X354095D02*
D03*
X39606Y256299D02*
D03*
X58819D02*
D03*
X138031D02*
D03*
X157244D02*
D03*
X236457D02*
D03*
X255669D02*
D03*
X334882D02*
D03*
X354095D02*
D03*
D26*
X34213Y19291D02*
D03*
X44313D02*
D03*
X54113D02*
D03*
X64213D02*
D03*
X132638D02*
D03*
X142738D02*
D03*
X152538D02*
D03*
X162638D02*
D03*
X231063D02*
D03*
X241163D02*
D03*
X250963D02*
D03*
X261063D02*
D03*
X329488D02*
D03*
X339588D02*
D03*
X349388D02*
D03*
X359488D02*
D03*
X34213Y216142D02*
D03*
X44313D02*
D03*
X54113D02*
D03*
X64213D02*
D03*
X132638D02*
D03*
X142738D02*
D03*
X152538D02*
D03*
X162638D02*
D03*
X231063D02*
D03*
X241163D02*
D03*
X250963D02*
D03*
X261063D02*
D03*
X329488D02*
D03*
X339588D02*
D03*
X349388D02*
D03*
X359488D02*
D03*
D27*
X57382Y179331D02*
D03*
X41043D02*
D03*
X155807D02*
D03*
X139469D02*
D03*
X254232D02*
D03*
X237894D02*
D03*
X352658D02*
D03*
X336319D02*
D03*
X57382Y376181D02*
D03*
X41043D02*
D03*
X155807D02*
D03*
X139469D02*
D03*
X254232D02*
D03*
X237894D02*
D03*
X352658D02*
D03*
X336319D02*
D03*
D29*
X40157Y168898D02*
D03*
X49213D02*
D03*
X58268D02*
D03*
X138583D02*
D03*
X147638D02*
D03*
X156693D02*
D03*
X237008D02*
D03*
X246063D02*
D03*
X255118D02*
D03*
X335433D02*
D03*
X344488D02*
D03*
X353543D02*
D03*
X40157Y365748D02*
D03*
X49213D02*
D03*
X58268D02*
D03*
X138583D02*
D03*
X147638D02*
D03*
X156693D02*
D03*
X237008D02*
D03*
X246063D02*
D03*
X255118D02*
D03*
X335433D02*
D03*
X344488D02*
D03*
X353543D02*
D03*
D30*
X49213Y146063D02*
D03*
X147638D02*
D03*
X246063D02*
D03*
X344488D02*
D03*
X49213Y342913D02*
D03*
X147638D02*
D03*
X246063D02*
D03*
X344488D02*
D03*
M02*
