G04*
G04 #@! TF.GenerationSoftware,Altium Limited,Altium Designer,18.1.6 (161)*
G04*
G04 Layer_Color=16711935*
%FSTAX24Y24*%
%MOIN*%
G70*
G01*
G75*
%ADD11C,0.0070*%
%ADD57C,0.0039*%
%ADD58C,0.0000*%
%ADD59C,0.0010*%
D11*
X015762Y018586D02*
X015562Y018786D01*
X015762D02*
X015562Y018586D01*
X015762Y018686D02*
X015562D01*
X015662Y018786D02*
Y018586D01*
D57*
X018047Y015084D02*
Y015616D01*
X018873Y015084D02*
Y015616D01*
X018047D02*
X018873D01*
X018047Y015084D02*
X018873D01*
X018047Y013114D02*
Y013646D01*
X018873Y013114D02*
Y013646D01*
X018047D02*
X018873D01*
X018047Y013114D02*
X018873D01*
X012063Y015084D02*
Y015616D01*
X011237Y015084D02*
Y015616D01*
Y015084D02*
X012063D01*
X011237Y015616D02*
X012063D01*
Y013074D02*
Y013606D01*
X011237Y013074D02*
Y013606D01*
Y013074D02*
X012063D01*
X011237Y013606D02*
X012063D01*
X016102Y013287D02*
Y014665D01*
X01374D02*
X016102D01*
X01374Y013287D02*
Y014665D01*
Y013287D02*
X016102D01*
X013699Y024501D02*
Y025879D01*
Y024501D02*
X016061D01*
Y025879D01*
X013699D02*
X016061D01*
X017977Y027944D02*
Y028476D01*
X018803Y027944D02*
Y028476D01*
X017977D02*
X018803D01*
X017977Y027944D02*
X018803D01*
X011941Y02794D02*
Y028472D01*
X011114Y02794D02*
Y028472D01*
Y02794D02*
X011941D01*
X011114Y028472D02*
X011941D01*
X014459Y027657D02*
Y027776D01*
X01436Y027657D02*
X014459D01*
X01436D02*
Y027776D01*
X014715Y027657D02*
Y027776D01*
X014616Y027657D02*
X014715D01*
X014616D02*
Y027776D01*
X015482Y027657D02*
Y027776D01*
X015384Y027657D02*
X015482D01*
X015384D02*
Y027776D01*
X015226Y027657D02*
Y027776D01*
X015128Y027657D02*
X015226D01*
X015128D02*
Y027776D01*
X014872Y027657D02*
Y027776D01*
Y027657D02*
X01497D01*
Y027776D01*
X013346Y029931D02*
X013415Y02998D01*
X013563Y029744D01*
X013346Y029931D02*
X013465Y029744D01*
Y027776D02*
Y029744D01*
Y027776D02*
X016378D01*
Y029744D01*
X016496Y029931D01*
X01628Y029744D02*
X016427Y02998D01*
X016496Y029931D01*
X013701Y02998D02*
X016142D01*
X013701Y029744D02*
Y02998D01*
X013563Y029744D02*
X013701D01*
X016142D02*
Y02998D01*
Y029744D02*
X01628D01*
D58*
X015027Y018306D02*
G03*
X014787Y018306I-00012J0D01*
G01*
D59*
X015787Y018395D02*
Y018515D01*
Y018395D02*
X016207D01*
Y018515D01*
X015787D02*
X016207D01*
X015787Y018651D02*
Y018771D01*
Y018651D02*
X016207D01*
Y018771D01*
X015787D02*
X016207D01*
X015787Y018907D02*
Y019027D01*
Y018907D02*
X016207D01*
Y019027D01*
X015787D02*
X016207D01*
X015787Y019162D02*
Y019282D01*
Y019162D02*
X016207D01*
Y019282D01*
X015787D02*
X016207D01*
X015787Y019418D02*
Y019538D01*
Y019418D02*
X016207D01*
Y019538D01*
X015787D02*
X016207D01*
X015787Y019674D02*
Y019794D01*
Y019674D02*
X016207D01*
Y019794D01*
X015787D02*
X016207D01*
X015787Y01993D02*
Y02005D01*
Y01993D02*
X016207D01*
Y02005D01*
X015787D02*
X016207D01*
X015787Y020186D02*
Y020306D01*
Y020186D02*
X016207D01*
Y020306D01*
X015787D02*
X016207D01*
X015787Y020442D02*
Y020562D01*
Y020442D02*
X016207D01*
Y020562D01*
X015787D02*
X016207D01*
X015787Y020698D02*
Y020818D01*
Y020698D02*
X016207D01*
Y020818D01*
X015787D02*
X016207D01*
X014027Y020698D02*
Y020818D01*
X013607D02*
X014027D01*
X013607Y020698D02*
Y020818D01*
Y020698D02*
X014027D01*
Y020442D02*
Y020562D01*
X013607D02*
X014027D01*
X013607Y020442D02*
Y020562D01*
Y020442D02*
X014027D01*
Y020186D02*
Y020306D01*
X013607D02*
X014027D01*
X013607Y020186D02*
Y020306D01*
Y020186D02*
X014027D01*
Y01993D02*
Y02005D01*
X013607D02*
X014027D01*
X013607Y01993D02*
Y02005D01*
Y01993D02*
X014027D01*
Y019674D02*
Y019794D01*
X013607D02*
X014027D01*
X013607Y019674D02*
Y019794D01*
Y019674D02*
X014027D01*
Y019418D02*
Y019538D01*
X013607D02*
X014027D01*
X013607Y019418D02*
Y019538D01*
Y019418D02*
X014027D01*
Y019162D02*
Y019282D01*
X013607D02*
X014027D01*
X013607Y019162D02*
Y019282D01*
Y019162D02*
X014027D01*
Y018907D02*
Y019027D01*
X013607D02*
X014027D01*
X013607Y018907D02*
Y019027D01*
Y018907D02*
X014027D01*
Y018651D02*
Y018771D01*
X013607D02*
X014027D01*
X013607Y018651D02*
Y018771D01*
Y018651D02*
X014027D01*
Y018395D02*
Y018515D01*
X013607D02*
X014027D01*
X013607Y018395D02*
Y018515D01*
Y018395D02*
X014027D01*
Y020906D02*
X015787D01*
X014027Y018306D02*
Y020906D01*
Y018306D02*
X015787D01*
Y020906D01*
M02*
