G04*
G04 #@! TF.GenerationSoftware,Altium Limited,Altium Designer,18.1.6 (161)*
G04*
G04 Layer_Color=255*
%FSTAX24Y24*%
%MOIN*%
G70*
G01*
G75*
%ADD18R,0.0550X0.0500*%
%ADD19R,0.0500X0.0550*%
%ADD20R,0.0580X0.0140*%
%ADD21R,0.0433X0.0472*%
%ADD22R,0.0787X0.0591*%
%ADD23R,0.0748X0.0748*%
%ADD24R,0.0709X0.0748*%
%ADD25R,0.0157X0.0531*%
%ADD43O,0.0900X0.0650*%
%ADD44R,0.0900X0.0650*%
%ADD45O,0.0750X0.0650*%
%ADD46R,0.0750X0.0650*%
%ADD47C,0.0700*%
%ADD48O,0.0650X0.0750*%
%ADD49C,0.0276*%
D18*
X01249Y02564D02*
D03*
Y02654D02*
D03*
X01733Y02564D02*
D03*
Y02654D02*
D03*
D19*
X01444Y02403D02*
D03*
X01534D02*
D03*
X01625Y022286D02*
D03*
X01535D02*
D03*
X01625Y02142D02*
D03*
X01535D02*
D03*
X013578Y022286D02*
D03*
X014478D02*
D03*
X013578Y02142D02*
D03*
X014478D02*
D03*
X01628Y01757D02*
D03*
X01538D02*
D03*
X01356D02*
D03*
X01446D02*
D03*
X015327Y026339D02*
D03*
X014427D02*
D03*
D20*
X016057Y018455D02*
D03*
Y018711D02*
D03*
Y018967D02*
D03*
Y019222D02*
D03*
Y019478D02*
D03*
Y019734D02*
D03*
Y01999D02*
D03*
Y020246D02*
D03*
Y020502D02*
D03*
Y020758D02*
D03*
X013757Y020758D02*
D03*
Y020502D02*
D03*
Y020246D02*
D03*
Y01999D02*
D03*
Y019734D02*
D03*
Y019478D02*
D03*
Y019222D02*
D03*
Y018967D02*
D03*
Y018711D02*
D03*
Y018455D02*
D03*
D21*
X018047Y01535D02*
D03*
X018873D02*
D03*
X018047Y01338D02*
D03*
X018873D02*
D03*
X011893Y01535D02*
D03*
X011067D02*
D03*
X011893Y01334D02*
D03*
X011067D02*
D03*
X017977Y02821D02*
D03*
X018803D02*
D03*
X011941Y028206D02*
D03*
X011114D02*
D03*
D22*
X015984Y013976D02*
D03*
X013858D02*
D03*
X013817Y02519D02*
D03*
X015943D02*
D03*
D23*
X015394Y028898D02*
D03*
X014449D02*
D03*
D24*
X016496D02*
D03*
X013346D02*
D03*
D25*
X015433Y027844D02*
D03*
X014409D02*
D03*
X015177D02*
D03*
X014921D02*
D03*
X014665D02*
D03*
D43*
X018421Y022693D02*
D03*
Y020693D02*
D03*
Y017693D02*
D03*
Y018693D02*
D03*
Y019693D02*
D03*
Y021693D02*
D03*
Y023693D02*
D03*
X011421Y017646D02*
D03*
Y019646D02*
D03*
Y022646D02*
D03*
Y021646D02*
D03*
Y020646D02*
D03*
Y018646D02*
D03*
Y016646D02*
D03*
D44*
X018421Y016693D02*
D03*
X011421Y023646D02*
D03*
D45*
Y026656D02*
D03*
X018421D02*
D03*
D46*
X011421Y025646D02*
D03*
X018421D02*
D03*
D47*
X013961Y015945D02*
D03*
X015882D02*
D03*
D48*
X013421Y011929D02*
D03*
X014431D02*
D03*
X015411D02*
D03*
X016421D02*
D03*
D49*
X015738Y027933D02*
D03*
X014104D02*
D03*
M02*
