G04*
G04 #@! TF.GenerationSoftware,Altium Limited,Altium Designer,18.1.6 (161)*
G04*
G04 Layer_Color=32896*
%FSTAX24Y24*%
%MOIN*%
G70*
G01*
G75*
%ADD10C,0.0079*%
%ADD11C,0.0070*%
%ADD12C,0.0040*%
%ADD13C,0.0050*%
%ADD55C,0.0098*%
%ADD56C,0.0158*%
G36*
X015148Y020537D02*
X015148Y020536D01*
X01514Y020457D01*
X01514Y020456D01*
X01514Y020456D01*
X015119Y020381D01*
X015082Y020231D01*
X015081Y02023D01*
Y02023D01*
X015061Y02018D01*
X01506Y02018D01*
X01506Y020179D01*
X015002Y020067D01*
X015002Y020067D01*
X015002Y020066D01*
X014935Y019966D01*
X014935Y019966D01*
X014935Y019966D01*
X014901Y019924D01*
X0149Y019924D01*
X014899Y019922D01*
X014898Y019922D01*
X014897Y019922D01*
X014896Y019922D01*
X014894Y019922D01*
X014819Y019951D01*
X014819Y019952D01*
X014818Y019952D01*
X014731Y019998D01*
X014731Y019998D01*
X014731Y019998D01*
X014668Y020031D01*
X014668Y020031D01*
X014668Y020031D01*
X014543Y020119D01*
X014542Y020119D01*
X014542Y020119D01*
X014483Y020178D01*
X014483Y020178D01*
X014483Y020179D01*
X014437Y020245D01*
X014437Y020246D01*
X014436Y020246D01*
X014403Y020313D01*
X014403Y020313D01*
X014403Y020313D01*
X014357Y020409D01*
X014357Y020409D01*
X014357Y020409D01*
X014332Y020467D01*
X014332Y020468D01*
X014332Y020469D01*
X014315Y020569D01*
X014315Y020569D01*
X014315Y02057D01*
X014311Y02072D01*
X014311Y02072D01*
X014311Y02072D01*
X014319Y020879D01*
X014319Y020879D01*
X014319Y02088D01*
X014344Y021D01*
X014344Y021001D01*
X014344Y021001D01*
X014374Y021101D01*
X014374Y021101D01*
X014374Y021102D01*
X01442Y021202D01*
X01442Y021202D01*
X01442Y021202D01*
X014466Y021277D01*
X014466Y021278D01*
X014466Y021278D01*
X014508Y021332D01*
X014508Y021332D01*
X014508Y021333D01*
X014509Y021333D01*
X01451Y021334D01*
X014511Y021334D01*
X014512Y021335D01*
X014513Y021335D01*
X014513Y021335D01*
X014514Y021334D01*
X014515Y021334D01*
X014765Y021255D01*
X014767Y021254D01*
X014768Y021253D01*
X014784Y021228D01*
X014892Y021137D01*
X014942Y021096D01*
X014942Y021095D01*
X014943Y021095D01*
X014997Y021033D01*
X014997Y021032D01*
X014997Y021032D01*
X015064Y020927D01*
X015064Y020927D01*
X015064Y020927D01*
X015106Y020839D01*
X015106Y020839D01*
X015107Y020838D01*
X015136Y020688D01*
X015136Y020688D01*
X015136Y020687D01*
X015148Y020537D01*
X015148Y020537D01*
D02*
G37*
G36*
X015298Y022277D02*
X015298Y022276D01*
X015285Y022106D01*
X015285Y022105D01*
X015285Y022104D01*
X015247Y021971D01*
X015247Y021971D01*
X015247Y02197D01*
X015172Y021791D01*
X015172Y021791D01*
X015172Y02179D01*
X015122Y021703D01*
X015121Y021702D01*
X015121Y021702D01*
X015075Y021652D01*
X015074Y021651D01*
X015074Y021651D01*
X015016Y021609D01*
X015016Y021609D01*
X015016Y021609D01*
X014941Y021559D01*
X014941Y021559D01*
X01494Y021559D01*
X014811Y021476D01*
X014811Y021476D01*
X014811Y021475D01*
X014761Y02145D01*
X014703Y021421D01*
X014701Y021421D01*
X0147Y02142D01*
X014683D01*
X014682Y021421D01*
X014681Y021421D01*
X014557Y02147D01*
X014557Y02147D01*
X014556Y02147D01*
X014556Y021471D01*
X014555Y021471D01*
X014555Y021472D01*
X014554Y021473D01*
X014554Y021474D01*
X014553Y021474D01*
X014535Y02155D01*
X014519Y021604D01*
X014519Y021604D01*
X014518Y021605D01*
X014502Y021684D01*
X014502Y021684D01*
X014502Y021684D01*
X014481Y021792D01*
X014481Y021792D01*
X014481Y021792D01*
X014464Y021888D01*
X014464Y021889D01*
X014464Y021889D01*
Y021981D01*
X014464Y021981D01*
X014464Y021982D01*
X014472Y022073D01*
X014473Y022074D01*
X014472Y022074D01*
X014489Y022145D01*
X014489Y022145D01*
X014489Y022145D01*
X014519Y022245D01*
X014519Y022246D01*
X014519Y022246D01*
X014581Y022359D01*
X014582Y022359D01*
X014582Y022359D01*
X014619Y022418D01*
X01462Y022418D01*
X01462Y022419D01*
X014741Y022536D01*
X014741Y022536D01*
X014741Y022536D01*
X014816Y022606D01*
X014816Y022606D01*
X014816Y022607D01*
X014871Y022653D01*
X014871Y022653D01*
X014872Y022653D01*
X014934Y022687D01*
X01505Y022753D01*
X015051Y022753D01*
X015051Y022753D01*
X015113Y022787D01*
X015115Y022787D01*
X015118Y022787D01*
X015118Y022787D01*
X015118Y022787D01*
X01512Y022786D01*
X015122Y022785D01*
X015201Y022668D01*
X015201Y022667D01*
X015201Y022667D01*
X015235Y022592D01*
X015235Y022592D01*
X015235Y022591D01*
X015264Y022495D01*
X015264Y022495D01*
X015264Y022495D01*
X015289Y022408D01*
X015289Y022407D01*
X015289Y022406D01*
X015298Y022277D01*
X015298Y022277D01*
D02*
G37*
G36*
X015988Y022387D02*
X015989Y022387D01*
X01599Y022386D01*
X015992Y022385D01*
X016063Y022276D01*
X016063Y022276D01*
X016063Y022276D01*
X016125Y022155D01*
X016125Y022154D01*
X016126Y022154D01*
X016151Y022079D01*
X016151Y022079D01*
X016151Y022079D01*
X016167Y02202D01*
X016167Y02202D01*
X016168Y022019D01*
X016176Y021944D01*
X016176Y021944D01*
X016176Y021943D01*
X016164Y02176D01*
X016163Y021759D01*
X016164Y021759D01*
X016139Y021667D01*
X016138Y021667D01*
X016138Y021667D01*
X016117Y0216D01*
X016117Y0216D01*
X016117Y021599D01*
X01608Y021528D01*
X016079Y021527D01*
X016046Y021466D01*
X016046Y021465D01*
X016046Y021465D01*
X015967Y021344D01*
X015966Y021344D01*
X015965Y021343D01*
X015815Y021226D01*
X015815Y021226D01*
X015815Y021226D01*
X015686Y021147D01*
X015686Y021147D01*
X015686Y021147D01*
X015644Y021122D01*
X015642Y021121D01*
X01564Y021121D01*
X015502Y021141D01*
X015501Y021142D01*
X015501Y021142D01*
X0155Y021143D01*
X015498Y021143D01*
X015498Y021144D01*
X015498Y021144D01*
X015498Y021144D01*
X015497Y021145D01*
X015418Y021312D01*
X015418Y021312D01*
X015418Y021313D01*
X015376Y021501D01*
X015376Y021501D01*
X015376Y021502D01*
X015372Y021647D01*
X015372Y021648D01*
X015372Y021649D01*
X015397Y021824D01*
X015397Y021824D01*
X015397Y021824D01*
X01543Y021937D01*
X01543Y021937D01*
Y021938D01*
X01546Y022008D01*
X01546Y022009D01*
X015461Y02201D01*
X015498Y02206D01*
X015498Y02206D01*
X015498Y02206D01*
X015561Y022139D01*
X015561Y02214D01*
X015561Y02214D01*
X015628Y022202D01*
X015629Y022203D01*
X015629Y022203D01*
X015808Y022308D01*
X015808Y022308D01*
X015809Y022308D01*
X015913Y022358D01*
X015913Y022358D01*
X015913Y022358D01*
X015984Y022387D01*
X015986Y022387D01*
X015988Y022387D01*
X015988Y022387D01*
D02*
G37*
G36*
X016822Y021523D02*
X016822Y021523D01*
X016918Y021515D01*
X016918Y021515D01*
X016918Y021515D01*
X017031Y021502D01*
X017031Y021502D01*
X017032Y021502D01*
X017111Y021473D01*
X017111Y021473D01*
X017111Y021473D01*
X017186Y021443D01*
X017187Y021443D01*
X017187Y021443D01*
X017283Y021384D01*
X017283Y021384D01*
X017284Y021384D01*
X01735Y021339D01*
X017391Y021318D01*
X017393Y021316D01*
X017394Y021314D01*
X017394Y021314D01*
X017394Y021314D01*
X017394Y021312D01*
X017394Y02131D01*
X017361Y021239D01*
X01736Y021239D01*
X01736Y021238D01*
X017323Y02118D01*
X017322Y02118D01*
X017322Y021179D01*
X017251Y0211D01*
X017251Y0211D01*
X017251Y0211D01*
X017193Y021037D01*
X017192Y021037D01*
X017192Y021037D01*
X017109Y020974D01*
X017109Y020974D01*
X017109Y020974D01*
X017063Y02094D01*
X017062Y02094D01*
X017062Y02094D01*
X016995Y020911D01*
X016995Y020911D01*
X016995Y020911D01*
X016945Y02089D01*
X016944Y02089D01*
X016944Y020889D01*
X016831Y020864D01*
X016831Y020864D01*
X016831Y020864D01*
X016752Y020848D01*
X016752Y020848D01*
X016752Y020848D01*
X016664Y020835D01*
X016664Y020835D01*
X016663Y020835D01*
X016572D01*
X016571Y020835D01*
X016571Y020835D01*
X016442Y020844D01*
X016442Y020844D01*
X016442Y020844D01*
X016334Y020852D01*
X016333Y020852D01*
X016333Y020852D01*
X016283Y02086D01*
X016283Y02086D01*
X016283Y02086D01*
X016195Y020877D01*
X016195Y020877D01*
X016195Y020877D01*
X01616Y020888D01*
X01616Y020888D01*
X01616Y020888D01*
X016096Y020916D01*
X016095Y020916D01*
X016095Y020916D01*
X016043Y020952D01*
X016042Y020953D01*
X016042Y020953D01*
X015978Y021009D01*
X015978Y021009D01*
X015977Y02101D01*
X015967Y021023D01*
X015934Y021023D01*
X015933Y021023D01*
X015932Y021023D01*
X015931Y021024D01*
X01593Y021024D01*
X015929Y021025D01*
X015928Y021026D01*
X015928Y021027D01*
X015928Y021029D01*
X015928Y02103D01*
X015928Y021031D01*
X015957Y021135D01*
X015958Y021136D01*
X015958Y021137D01*
X015991Y021191D01*
X015992Y021191D01*
X015992Y021191D01*
X016067Y021287D01*
X016067Y021288D01*
X016068Y021288D01*
X016176Y021372D01*
X016177Y021372D01*
X016177Y021372D01*
X016244Y02141D01*
X016244Y02141D01*
X016244Y02141D01*
X016344Y021448D01*
X016419Y021477D01*
X01642Y021477D01*
X01642Y021477D01*
X016503Y021498D01*
X016503Y021498D01*
X016503Y021498D01*
X016587Y021519D01*
X016587Y021518D01*
X016588Y021519D01*
X016663Y021523D01*
X016663Y021523D01*
X016663Y021523D01*
X016822D01*
X016822Y021523D01*
D02*
G37*
G36*
X015492Y021057D02*
X015493Y021057D01*
X015622Y021037D01*
X015623Y021036D01*
X015624Y021036D01*
X015761Y020965D01*
X015762Y020965D01*
X015762Y020965D01*
X015837Y020915D01*
X015837Y020914D01*
X015838Y020914D01*
X015908Y020844D01*
X015908Y020844D01*
X015908Y020843D01*
X01598Y020755D01*
X01598Y020755D01*
X01598Y020755D01*
X015987Y020745D01*
X015987Y020745D01*
X015987Y020744D01*
X016Y020724D01*
X016Y020724D01*
X016Y020724D01*
X016011Y020703D01*
X016011Y020703D01*
X016011Y020703D01*
X016022Y020681D01*
X016022Y020681D01*
X016022Y020681D01*
X016026Y02067D01*
X01606Y0206D01*
X01606Y0206D01*
X01606Y020599D01*
X016098Y020508D01*
X016098Y020507D01*
X016098Y020507D01*
X016115Y020427D01*
X016115Y020427D01*
X016115Y020426D01*
X016123Y020314D01*
X016123Y020313D01*
X016123Y020313D01*
X016106Y020213D01*
X016106Y020212D01*
X016106Y020212D01*
X016085Y020121D01*
X016085Y02012D01*
X016085Y020119D01*
X016056Y020053D01*
X016056Y020053D01*
Y020053D01*
X016027Y019986D01*
X016026Y019986D01*
X016026Y019985D01*
X015968Y019902D01*
X015966Y019901D01*
X015964Y019899D01*
X015964Y019899D01*
X015963Y019899D01*
X015961Y019899D01*
X015959Y0199D01*
X015926Y019916D01*
X015864Y019941D01*
X015864Y019941D01*
X015864Y019941D01*
X015789Y019979D01*
X015789Y019979D01*
X015789Y019979D01*
X015697Y020025D01*
X015697Y020025D01*
X015696Y020025D01*
X015633Y020075D01*
X015633Y020075D01*
X015633Y020075D01*
X015575Y020125D01*
X015574Y020126D01*
X015574Y020127D01*
X015516Y020206D01*
X015515Y020206D01*
X015515Y020206D01*
X01544Y020323D01*
X01544Y020323D01*
X01544Y020324D01*
X015402Y020424D01*
X015402Y020424D01*
X015402Y020424D01*
X015386Y020478D01*
X015386Y020479D01*
X015385Y02048D01*
X015377Y020584D01*
X015377Y020584D01*
X015377Y020585D01*
X015398Y020781D01*
X015398Y020781D01*
X015398Y020781D01*
X01541Y020869D01*
X015411Y020869D01*
X01541Y020869D01*
X015427Y020932D01*
X015427Y020932D01*
X015427Y020932D01*
X015444Y020982D01*
X015444Y020983D01*
X015444Y020984D01*
X015486Y021054D01*
X015487Y021055D01*
X015487Y021056D01*
X015488Y021056D01*
X015488Y021056D01*
X015489Y021056D01*
X01549Y021057D01*
X015491Y021057D01*
X015492Y021057D01*
X015492Y021057D01*
D02*
G37*
D10*
X013602Y026299D02*
X01624D01*
X013602Y025197D02*
X01624D01*
X013602D02*
Y026299D01*
X01624Y025197D02*
Y026299D01*
D11*
X01357Y01101D02*
X01362Y01106D01*
X01372D01*
X01377Y01101D01*
Y01081D01*
X01372Y01076D01*
X01362D01*
X01357Y01081D01*
Y01091D01*
X01367D01*
X01347Y01076D02*
Y01106D01*
X01327Y01076D01*
Y01106D01*
X01317D02*
Y01076D01*
X01302D01*
X01297Y01081D01*
Y01101D01*
X01302Y01106D01*
X01317D01*
X014597Y01101D02*
X014647Y01106D01*
X014747D01*
X014797Y01101D01*
Y01081D01*
X014747Y01076D01*
X014647D01*
X014597Y01081D01*
X014497Y01106D02*
Y01076D01*
X014297D01*
X014197Y01106D02*
Y01076D01*
Y01086D01*
X013997Y01106D01*
X014147Y01091D01*
X013997Y01076D01*
X015773Y01106D02*
Y01076D01*
X015623D01*
X015573Y01081D01*
Y01101D01*
X015623Y01106D01*
X015773D01*
X015473D02*
X015373D01*
X015423D01*
Y01076D01*
X015473D01*
X015373D01*
X015074Y01106D02*
X015174D01*
X015224Y01101D01*
Y01081D01*
X015174Y01076D01*
X015074D01*
X015024Y01081D01*
Y01101D01*
X015074Y01106D01*
X01685Y01101D02*
X0168Y01106D01*
X0167D01*
X01665Y01101D01*
Y01096D01*
X0167Y01091D01*
X01675D01*
X0167D01*
X01665Y01086D01*
Y01081D01*
X0167Y01076D01*
X0168D01*
X01685Y01081D01*
X01655Y01106D02*
Y01086D01*
X01645Y01076D01*
X01635Y01086D01*
Y01106D01*
X01625Y01101D02*
X0162Y01106D01*
X0161D01*
X01605Y01101D01*
Y01096D01*
X0161Y01091D01*
X01615D01*
X0161D01*
X01605Y01086D01*
Y01081D01*
X0161Y01076D01*
X0162D01*
X01625Y01081D01*
X01029Y01728D02*
X01049D01*
X01059Y01738D01*
X01049Y01748D01*
X01029D01*
X01044D01*
Y01728D01*
X01029Y01758D02*
Y01768D01*
Y01763D01*
X01059D01*
X01054Y01758D01*
X01029Y01783D02*
Y01793D01*
Y01788D01*
X01059D01*
X01054Y01783D01*
X0103Y01627D02*
X0105D01*
X0106Y01637D01*
X0105Y01647D01*
X0103D01*
X01045D01*
Y01627D01*
X0103Y01657D02*
Y01667D01*
Y01662D01*
X0106D01*
X01055Y01657D01*
X0103Y01702D02*
Y01682D01*
X0105Y01702D01*
X01055D01*
X0106Y01697D01*
Y01687D01*
X01055Y01682D01*
X0163Y01834D02*
X01625Y01839D01*
X01615D01*
X0161Y01834D01*
Y01814D01*
X01615Y01809D01*
X01625D01*
X0163Y01814D01*
Y01834D01*
X0154Y01839D02*
Y01809D01*
X01525D01*
X0152Y01814D01*
Y01819D01*
X01525Y01824D01*
X0154D01*
X01525D01*
X0152Y01829D01*
Y01834D01*
X01525Y01839D01*
X0154D01*
X01495D02*
X01505D01*
X0151Y01834D01*
Y01814D01*
X01505Y01809D01*
X01495D01*
X0149Y01814D01*
Y01834D01*
X01495Y01839D01*
X014651D02*
X01475D01*
X0148Y01834D01*
Y01814D01*
X01475Y01809D01*
X014651D01*
X014601Y01814D01*
Y01834D01*
X014651Y01839D01*
X014501D02*
X014301D01*
X014401D01*
Y01809D01*
X013601D02*
X013501D01*
X013551D01*
Y01839D01*
X013601Y01834D01*
X01285Y01979D02*
X01315D01*
Y01994D01*
X0131Y01999D01*
X013D01*
X01295Y01994D01*
Y01979D01*
X01315Y02014D02*
Y02024D01*
X0131Y02029D01*
X01295D01*
Y02014D01*
X013Y02009D01*
X01305Y02014D01*
Y02029D01*
X01315Y02039D02*
X013D01*
X01295Y02044D01*
Y02059D01*
X0129D01*
X01285Y02054D01*
Y02049D01*
X01295Y02059D02*
X01315D01*
X01295Y02069D02*
Y02079D01*
Y02074D01*
X01315D01*
Y02069D01*
X0132Y02099D02*
X01315D01*
Y02094D01*
Y02104D01*
Y02099D01*
X013D01*
X01295Y02104D01*
Y02124D02*
X0132D01*
X0131D01*
Y02119D01*
Y02129D01*
Y02124D01*
X0132D01*
X01325Y02129D01*
X01295Y021489D02*
Y021589D01*
X013Y021639D01*
X0131D01*
X01315Y021589D01*
Y021489D01*
X0131Y021439D01*
X013D01*
X01295Y021489D01*
X01315Y021739D02*
X01295D01*
X01305D01*
X0131Y021789D01*
X01315Y021839D01*
Y021889D01*
Y022039D02*
X013D01*
X01295Y022089D01*
X013Y022139D01*
X01295Y022189D01*
X013Y022239D01*
X01315D01*
Y022389D02*
Y022489D01*
X0131Y022539D01*
X01295D01*
Y022389D01*
X013Y022339D01*
X01305Y022389D01*
Y022539D01*
X01315Y022639D02*
X01295D01*
X01305D01*
X0131Y022689D01*
X01315Y022739D01*
Y022789D01*
X01325Y023139D02*
X01295D01*
Y022989D01*
X013Y022939D01*
X0131D01*
X01315Y022989D01*
Y023139D01*
X01721Y01888D02*
Y01918D01*
X01706D01*
X01701Y01913D01*
Y01903D01*
X01706Y01898D01*
X01721D01*
X01711D02*
X01701Y01888D01*
X01671Y01918D02*
X01691D01*
Y01903D01*
X01681Y01908D01*
X01676D01*
X01671Y01903D01*
Y01893D01*
X01676Y01888D01*
X01686D01*
X01691Y01893D01*
X01297Y01888D02*
Y01918D01*
X01282D01*
X01277Y01913D01*
Y01903D01*
X01282Y01898D01*
X01297D01*
X01287D02*
X01277Y01888D01*
X01252D02*
Y01918D01*
X01267Y01903D01*
X01247D01*
X01203Y015078D02*
Y015378D01*
X01188D01*
X01183Y015328D01*
Y015228D01*
X01188Y015178D01*
X01203D01*
X01193D02*
X01183Y015078D01*
X01173D02*
X01163D01*
X01168D01*
Y015378D01*
X01173Y015328D01*
X01148D02*
X01143Y015378D01*
X01133D01*
X01128Y015328D01*
Y015128D01*
X01133Y015078D01*
X01143D01*
X01148Y015128D01*
Y015328D01*
X01188Y01307D02*
Y01337D01*
X01173D01*
X01168Y01332D01*
Y01322D01*
X01173Y01317D01*
X01188D01*
X01178D02*
X01168Y01307D01*
X01158Y01312D02*
X01153Y01307D01*
X01143D01*
X01138Y01312D01*
Y01332D01*
X01143Y01337D01*
X01153D01*
X01158Y01332D01*
Y01327D01*
X01153Y01322D01*
X01138D01*
X01871Y01306D02*
Y01336D01*
X01856D01*
X01851Y01331D01*
Y01321D01*
X01856Y01316D01*
X01871D01*
X01861D02*
X01851Y01306D01*
X01841Y01331D02*
X01836Y01336D01*
X01826D01*
X01821Y01331D01*
Y01326D01*
X01826Y01321D01*
X01821Y01316D01*
Y01311D01*
X01826Y01306D01*
X01836D01*
X01841Y01311D01*
Y01316D01*
X01836Y01321D01*
X01841Y01326D01*
Y01331D01*
X01836Y01321D02*
X01826D01*
X01869Y01509D02*
Y01539D01*
X01854D01*
X01849Y01534D01*
Y01524D01*
X01854Y01519D01*
X01869D01*
X01859D02*
X01849Y01509D01*
X01839Y01539D02*
X01819D01*
Y01534D01*
X01839Y01514D01*
Y01509D01*
X01657Y01464D02*
Y01494D01*
X01642D01*
X01637Y01489D01*
Y01479D01*
X01642Y01474D01*
X01657D01*
X01647D02*
X01637Y01464D01*
X01627Y01489D02*
X01622Y01494D01*
X01612D01*
X01607Y01489D01*
Y01484D01*
X01612Y01479D01*
X01617D01*
X01612D01*
X01607Y01474D01*
Y01469D01*
X01612Y01464D01*
X01622D01*
X01627Y01469D01*
X013Y02805D02*
Y02835D01*
X01285D01*
X0128Y0283D01*
Y0282D01*
X01285Y02815D01*
X013D01*
X0129D02*
X0128Y02805D01*
X0125D02*
X0127D01*
X0125Y02825D01*
Y0283D01*
X01255Y02835D01*
X01265D01*
X0127Y0283D01*
X01743Y02805D02*
Y02835D01*
X01728D01*
X01723Y0283D01*
Y0282D01*
X01728Y02815D01*
X01743D01*
X01733D02*
X01723Y02805D01*
X01713D02*
X01703D01*
X01708D01*
Y02835D01*
X01713Y0283D01*
X014Y02492D02*
X0139D01*
X01395D01*
Y02462D01*
X014D01*
X0139D01*
X01355Y02487D02*
X0136Y02492D01*
X0137D01*
X01375Y02487D01*
Y02467D01*
X0137Y02462D01*
X0136D01*
X01355Y02467D01*
X01345Y02462D02*
X01335D01*
X0134D01*
Y02492D01*
X01345Y02487D01*
X01633Y01314D02*
X01638Y01319D01*
X01648D01*
X01653Y01314D01*
Y01294D01*
X01648Y01289D01*
X01638D01*
X01633Y01294D01*
X01623Y01289D02*
X01613D01*
X01618D01*
Y01319D01*
X01623Y01314D01*
X01598Y01289D02*
X01588D01*
X01593D01*
Y01319D01*
X01598Y01314D01*
X0135Y01491D02*
X01355Y01496D01*
X01365D01*
X0137Y01491D01*
Y01471D01*
X01365Y01466D01*
X01355D01*
X0135Y01471D01*
X0134D02*
X01335Y01466D01*
X01325D01*
X0132Y01471D01*
Y01491D01*
X01325Y01496D01*
X01335D01*
X0134Y01491D01*
Y01486D01*
X01335Y01481D01*
X0132D01*
X016094Y02439D02*
X016144Y02444D01*
X016244D01*
X016294Y02439D01*
Y02419D01*
X016244Y02414D01*
X016144D01*
X016094Y02419D01*
X015795Y02414D02*
X015994D01*
X015795Y02434D01*
Y02439D01*
X015845Y02444D01*
X015945D01*
X015994Y02439D01*
X01752Y02651D02*
X01757Y02656D01*
X01767D01*
X01772Y02651D01*
Y02631D01*
X01767Y02626D01*
X01757D01*
X01752Y02631D01*
X01742Y02626D02*
X01732D01*
X01737D01*
Y02656D01*
X01742Y02651D01*
D12*
X015722Y014138D02*
Y014478D01*
X015222Y014138D02*
Y014478D01*
X014041Y014138D02*
Y014478D01*
X014541Y014138D02*
Y014478D01*
X01825Y02846D02*
X01859D01*
X01825Y02796D02*
X01859D01*
X016561Y02627D02*
Y02661D01*
X017061Y02627D02*
Y02661D01*
X01556Y01929D02*
X0159D01*
X01556Y01879D02*
X0159D01*
X0138Y01929D02*
X01414D01*
X0138Y01879D02*
X01414D01*
X01151Y01471D02*
X01185D01*
X01151Y01421D02*
X01185D01*
X01151Y01266D02*
X01185D01*
X01151Y01216D02*
X01185D01*
X014756Y013282D02*
X015096D01*
X014756Y012781D02*
X015096D01*
X01827Y01219D02*
X01861D01*
X01827Y01269D02*
X01861D01*
X01826Y01421D02*
X0186D01*
X01826Y01471D02*
X0186D01*
X011327Y027956D02*
X011667D01*
X011327Y028456D02*
X011667D01*
X015201Y023372D02*
X015541D01*
X015201Y023872D02*
X015541D01*
D13*
X015142Y015078D02*
X015812D01*
X015142Y013548D02*
Y015078D01*
Y013548D02*
X015812D01*
Y015078D01*
X013951Y013538D02*
X014621D01*
Y015068D01*
X013951D02*
X014621D01*
X013951Y013538D02*
Y015068D01*
X01765Y02788D02*
Y02855D01*
Y02788D02*
X01918D01*
Y02855D01*
X01765D02*
X01918D01*
X016471Y02567D02*
X017141D01*
Y0272D01*
X016471D02*
X017141D01*
X016471Y02567D02*
Y0272D01*
X01497Y0187D02*
X0165D01*
X01497D02*
Y01937D01*
X0165D01*
Y0187D02*
Y01937D01*
X01321Y0187D02*
X01474D01*
X01321D02*
Y01937D01*
X01474D01*
Y0187D02*
Y01937D01*
X01091Y01413D02*
Y0148D01*
Y01413D02*
X01244D01*
Y0148D01*
X01091D02*
X01244D01*
X01091Y01208D02*
Y01275D01*
Y01208D02*
X01244D01*
Y01275D01*
X01091D02*
X01244D01*
X014156Y012701D02*
Y013371D01*
Y012701D02*
X015686D01*
Y013371D01*
X014156D02*
X015686D01*
X01921Y0121D02*
Y01277D01*
X01768D02*
X01921D01*
X01768Y0121D02*
Y01277D01*
Y0121D02*
X01921D01*
X0192Y01412D02*
Y01479D01*
X01767D02*
X0192D01*
X01767Y01412D02*
Y01479D01*
Y01412D02*
X0192D01*
X012267Y027866D02*
Y028536D01*
X010737D02*
X012267D01*
X010737Y027866D02*
Y028536D01*
Y027866D02*
X012267D01*
X016141Y023282D02*
Y023952D01*
X014611D02*
X016141D01*
X014611Y023282D02*
Y023952D01*
Y023282D02*
X016141D01*
D55*
X013652Y02689D02*
G03*
X013652Y02689I-000049J0D01*
G01*
D56*
X013841Y022165D02*
X014041Y02184D01*
X014136Y021723D01*
X014661Y021348D02*
X015016Y021223D01*
X01507Y021211D01*
X014491Y021419D02*
X014661Y021348D01*
X015407Y021136D02*
X015507Y021113D01*
X015612Y021105D01*
X015716Y021097D01*
X015807Y021092D01*
X015236Y021173D02*
X015407Y021136D01*
X01507Y021211D02*
X015236Y021173D01*
X015807Y021092D02*
X016148Y02108D01*
X013739Y022388D02*
X013841Y022165D01*
X014136Y021723D02*
X014282Y021569D01*
X013636Y022678D02*
X013739Y022388D01*
X014282Y021569D02*
X014374Y021498D01*
X014491Y021419D01*
M02*
