G04*
G04 #@! TF.GenerationSoftware,Altium Limited,Altium Designer,18.1.6 (161)*
G04*
G04 Layer_Physical_Order=2*
G04 Layer_Color=16711680*
%FSTAX24Y24*%
%MOIN*%
G70*
G01*
G75*
%ADD18R,0.0550X0.0500*%
%ADD19R,0.0500X0.0550*%
%ADD40C,0.0150*%
%ADD42C,0.0200*%
%ADD43O,0.0900X0.0650*%
%ADD44R,0.0900X0.0650*%
%ADD45O,0.0750X0.0650*%
%ADD46R,0.0750X0.0650*%
%ADD47C,0.0700*%
%ADD48O,0.0650X0.0750*%
%ADD49C,0.0276*%
%ADD50C,0.0315*%
%ADD51R,0.0394X0.0945*%
%ADD52R,0.1299X0.0945*%
G36*
X01971Y010133D02*
X010133D01*
Y029552D01*
X01971D01*
Y010133D01*
D02*
G37*
%LPC*%
G36*
X011114Y029008D02*
X011021Y02899D01*
X010943Y028937D01*
X01089Y028859D01*
X010872Y028766D01*
X010889Y028678D01*
Y028561D01*
X010717D01*
Y027851D01*
X011377D01*
Y028561D01*
X011377D01*
X011329Y028661D01*
X011338Y028673D01*
X011356Y028766D01*
X011338Y028859D01*
X011285Y028937D01*
X011207Y02899D01*
X011114Y029008D01*
D02*
G37*
G36*
X018803Y029026D02*
X018711Y029007D01*
X018632Y028955D01*
X01858Y028876D01*
X018561Y028783D01*
X01858Y028691D01*
X018597Y028665D01*
X018543Y028565D01*
X01854D01*
Y027855D01*
X0192D01*
Y028565D01*
X019028D01*
Y028695D01*
X019046Y028783D01*
X019027Y028876D01*
X018975Y028955D01*
X018896Y029007D01*
X018803Y029026D01*
D02*
G37*
G36*
X015738Y028155D02*
X015653Y028138D01*
X015581Y02809D01*
X015533Y028018D01*
X015516Y027933D01*
X015533Y027848D01*
X015581Y027776D01*
X015653Y027728D01*
X015738Y027711D01*
X015823Y027728D01*
X015895Y027776D01*
X015943Y027848D01*
X01596Y027933D01*
X015943Y028018D01*
X015895Y02809D01*
X015823Y028138D01*
X015738Y028155D01*
D02*
G37*
G36*
X014104D02*
X014019Y028138D01*
X013947Y02809D01*
X013899Y028018D01*
X013882Y027933D01*
X013899Y027848D01*
X013947Y027776D01*
X014019Y027728D01*
X014104Y027711D01*
X014189Y027728D01*
X014261Y027776D01*
X014309Y027848D01*
X014326Y027933D01*
X014309Y028018D01*
X014261Y02809D01*
X014189Y028138D01*
X014104Y028155D01*
D02*
G37*
G36*
X016811Y028051D02*
X016718Y028033D01*
X01664Y02798D01*
X016587Y027902D01*
X016569Y027809D01*
X016587Y027716D01*
X01664Y027638D01*
X016653Y027629D01*
Y02722D01*
X016456D01*
Y027048D01*
X016104D01*
Y027442D01*
X01555D01*
Y026337D01*
X016104D01*
Y026732D01*
X016456D01*
Y02656D01*
X017166D01*
Y02722D01*
X016969D01*
Y027629D01*
X016982Y027638D01*
X017035Y027716D01*
X017053Y027809D01*
X017035Y027902D01*
X016982Y02798D01*
X016904Y028033D01*
X016811Y028051D01*
D02*
G37*
G36*
X015198Y027442D02*
X014644D01*
Y026337D01*
X014738D01*
Y025999D01*
X014734Y025978D01*
X014728Y02596D01*
X014721Y025948D01*
X014713Y025938D01*
X014704Y02593D01*
X014691Y025923D01*
X014673Y025917D01*
X014652Y025914D01*
X013725D01*
X013278Y02636D01*
X013264Y026431D01*
X013211Y02651D01*
X013133Y026562D01*
X01304Y026581D01*
X012947Y026562D01*
X012869Y02651D01*
X012816Y026431D01*
X012798Y026339D01*
X012816Y026246D01*
X012869Y026167D01*
X012947Y026115D01*
X013018Y026101D01*
X013519Y0256D01*
X013578Y02556D01*
X013649Y025546D01*
X014652D01*
X014673Y025543D01*
X014691Y025537D01*
X014704Y02553D01*
X014713Y025522D01*
X014721Y025512D01*
X014728Y0255D01*
X014734Y025482D01*
X014738Y025461D01*
Y025159D01*
X014192D01*
Y024054D01*
X014535D01*
X014591Y023977D01*
Y023267D01*
X014681D01*
X01472Y023167D01*
X014698Y023134D01*
X014679Y023041D01*
X014698Y022949D01*
X01475Y02287D01*
X014829Y022818D01*
X0149Y022803D01*
X017126Y020577D01*
Y018693D01*
Y015466D01*
X015903Y014242D01*
X015827Y014188D01*
Y014188D01*
X015827Y014188D01*
X015117D01*
Y013528D01*
X015193D01*
Y013386D01*
X015046D01*
Y012677D01*
X015706D01*
Y012727D01*
X015806Y012768D01*
X016161Y012414D01*
X016151Y012282D01*
X016132Y012268D01*
X016067Y012183D01*
X016027Y012085D01*
X016013Y011979D01*
Y011879D01*
X016027Y011773D01*
X016067Y011675D01*
X016132Y01159D01*
X016217Y011525D01*
X016316Y011485D01*
X016421Y011471D01*
X016527Y011485D01*
X016626Y011525D01*
X01671Y01159D01*
X016775Y011675D01*
X016816Y011773D01*
X01683Y011879D01*
Y011979D01*
X016816Y012085D01*
X016775Y012183D01*
X01671Y012268D01*
X016626Y012333D01*
X016605Y012341D01*
Y012413D01*
X016591Y012483D01*
X016551Y012543D01*
X015932Y013161D01*
X015873Y013201D01*
X015803Y013215D01*
X015706D01*
Y013386D01*
X01556D01*
Y013528D01*
X015827D01*
Y013685D01*
X015848Y013689D01*
X015908Y013728D01*
X01744Y01526D01*
X01748Y01532D01*
X017494Y01539D01*
Y018424D01*
X017497Y018445D01*
X017503Y018462D01*
X01751Y018475D01*
X017518Y018485D01*
X017528Y018493D01*
X01754Y0185D01*
X017558Y018506D01*
X017579Y018509D01*
X017934D01*
X017942Y018489D01*
X018007Y018404D01*
X018092Y018339D01*
X018191Y018298D01*
X018296Y018284D01*
X018546D01*
X018652Y018298D01*
X018751Y018339D01*
X018835Y018404D01*
X0189Y018489D01*
X018941Y018587D01*
X018955Y018693D01*
X018941Y018799D01*
X0189Y018897D01*
X018835Y018982D01*
X018751Y019047D01*
X018652Y019087D01*
X018546Y019101D01*
X018296D01*
X018191Y019087D01*
X018092Y019047D01*
X018007Y018982D01*
X017942Y018897D01*
X017934Y018876D01*
X017579D01*
X017558Y01888D01*
X01754Y018886D01*
X017528Y018893D01*
X017518Y018901D01*
X01751Y01891D01*
X017503Y018923D01*
X017497Y018941D01*
X017494Y018962D01*
Y020653D01*
X01748Y020723D01*
X01744Y020782D01*
X015159Y023063D01*
X015145Y023134D01*
X015123Y023167D01*
X015162Y023267D01*
X015251D01*
Y023977D01*
X015307Y024054D01*
X015651D01*
Y025159D01*
X015105D01*
Y02573D01*
Y026337D01*
X015198D01*
Y027442D01*
D02*
G37*
G36*
X011876Y026051D02*
X010966D01*
Y025241D01*
X011876D01*
Y026051D01*
D02*
G37*
G36*
X018546Y024101D02*
X018296D01*
X018191Y024087D01*
X018092Y024047D01*
X018007Y023982D01*
X017942Y023897D01*
X017902Y023799D01*
X017888Y023693D01*
X017902Y023587D01*
X017942Y023489D01*
X018007Y023404D01*
X018092Y023339D01*
X018191Y023298D01*
X018296Y023284D01*
X018546D01*
X018652Y023298D01*
X018751Y023339D01*
X018835Y023404D01*
X0189Y023489D01*
X018941Y023587D01*
X018955Y023693D01*
X018941Y023799D01*
X0189Y023897D01*
X018835Y023982D01*
X018751Y024047D01*
X018652Y024087D01*
X018546Y024101D01*
D02*
G37*
G36*
X011951Y024051D02*
X010891D01*
Y023241D01*
X011951D01*
Y024051D01*
D02*
G37*
G36*
X018546Y023101D02*
X018296D01*
X018191Y023087D01*
X018092Y023047D01*
X018007Y022982D01*
X017942Y022897D01*
X017902Y022799D01*
X017888Y022693D01*
X017902Y022587D01*
X017942Y022489D01*
X018007Y022404D01*
X018092Y022339D01*
X018191Y022298D01*
X018296Y022284D01*
X018546D01*
X018652Y022298D01*
X018751Y022339D01*
X018835Y022404D01*
X0189Y022489D01*
X018941Y022587D01*
X018955Y022693D01*
X018941Y022799D01*
X0189Y022897D01*
X018835Y022982D01*
X018751Y023047D01*
X018652Y023087D01*
X018546Y023101D01*
D02*
G37*
G36*
X011546Y023054D02*
X011296D01*
X011191Y02304D01*
X011092Y022999D01*
X011007Y022935D01*
X010942Y02285D01*
X010902Y022751D01*
X010888Y022646D01*
X010902Y02254D01*
X010942Y022441D01*
X011007Y022357D01*
X011092Y022292D01*
X011191Y022251D01*
X011296Y022237D01*
X011546D01*
X011652Y022251D01*
X011751Y022292D01*
X011835Y022357D01*
X0119Y022441D01*
X011941Y02254D01*
X011955Y022646D01*
X011941Y022751D01*
X0119Y02285D01*
X011835Y022935D01*
X011751Y022999D01*
X011652Y02304D01*
X011546Y023054D01*
D02*
G37*
G36*
X018546Y022101D02*
X018296D01*
X018191Y022087D01*
X018092Y022047D01*
X018007Y021982D01*
X017942Y021897D01*
X017902Y021799D01*
X017888Y021693D01*
X017902Y021587D01*
X017942Y021489D01*
X018007Y021404D01*
X018092Y021339D01*
X018191Y021298D01*
X018296Y021284D01*
X018546D01*
X018652Y021298D01*
X018751Y021339D01*
X018835Y021404D01*
X0189Y021489D01*
X018941Y021587D01*
X018955Y021693D01*
X018941Y021799D01*
X0189Y021897D01*
X018835Y021982D01*
X018751Y022047D01*
X018652Y022087D01*
X018546Y022101D01*
D02*
G37*
G36*
X011546Y022054D02*
X011296D01*
X011191Y02204D01*
X011092Y021999D01*
X011007Y021935D01*
X010942Y02185D01*
X010902Y021751D01*
X010888Y021646D01*
X010902Y02154D01*
X010942Y021441D01*
X011007Y021357D01*
X011092Y021292D01*
X011191Y021251D01*
X011296Y021237D01*
X011546D01*
X011652Y021251D01*
X011751Y021292D01*
X011835Y021357D01*
X0119Y021441D01*
X011941Y02154D01*
X011955Y021646D01*
X011941Y021751D01*
X0119Y02185D01*
X011835Y021935D01*
X011751Y021999D01*
X011652Y02204D01*
X011546Y022054D01*
D02*
G37*
G36*
X018546Y021101D02*
X018296D01*
X018191Y021087D01*
X018092Y021047D01*
X018007Y020982D01*
X017942Y020897D01*
X017902Y020799D01*
X017888Y020693D01*
X017902Y020587D01*
X017942Y020489D01*
X018007Y020404D01*
X018092Y020339D01*
X018191Y020298D01*
X018296Y020284D01*
X018546D01*
X018652Y020298D01*
X018751Y020339D01*
X018835Y020404D01*
X0189Y020489D01*
X018941Y020587D01*
X018955Y020693D01*
X018941Y020799D01*
X0189Y020897D01*
X018835Y020982D01*
X018751Y021047D01*
X018652Y021087D01*
X018546Y021101D01*
D02*
G37*
G36*
X011546Y021054D02*
X011296D01*
X011191Y02104D01*
X011092Y020999D01*
X011007Y020935D01*
X010942Y02085D01*
X010902Y020751D01*
X010888Y020646D01*
X010902Y02054D01*
X010942Y020441D01*
X011007Y020357D01*
X011092Y020292D01*
X011191Y020251D01*
X011296Y020237D01*
X011546D01*
X011652Y020251D01*
X011751Y020292D01*
X011835Y020357D01*
X0119Y020441D01*
X011941Y02054D01*
X011955Y020646D01*
X011941Y020751D01*
X0119Y02085D01*
X011835Y020935D01*
X011751Y020999D01*
X011652Y02104D01*
X011546Y021054D01*
D02*
G37*
G36*
X018546Y020101D02*
X018296D01*
X018191Y020087D01*
X018092Y020047D01*
X018007Y019982D01*
X017942Y019897D01*
X017902Y019799D01*
X017888Y019693D01*
X017902Y019587D01*
X017942Y019489D01*
X018007Y019404D01*
X018092Y019339D01*
X018191Y019298D01*
X018296Y019284D01*
X018546D01*
X018652Y019298D01*
X018751Y019339D01*
X018835Y019404D01*
X0189Y019489D01*
X018941Y019587D01*
X018955Y019693D01*
X018941Y019799D01*
X0189Y019897D01*
X018835Y019982D01*
X018751Y020047D01*
X018652Y020087D01*
X018546Y020101D01*
D02*
G37*
G36*
X01561Y019395D02*
X01495D01*
Y019198D01*
X01475D01*
Y019395D01*
X01409D01*
Y018685D01*
X014216D01*
X014227Y018672D01*
X01426Y018585D01*
X014225Y018533D01*
X014207Y01844D01*
X01421Y018424D01*
X013108Y017323D01*
X013074Y017272D01*
X013062Y017211D01*
Y01525D01*
X013074Y01519D01*
X013108Y015138D01*
X013461Y014786D01*
X013458Y01477D01*
X013476Y014677D01*
X013529Y014599D01*
X013607Y014546D01*
X0137Y014528D01*
X013793Y014546D01*
X013836Y014575D01*
X013936Y01453D01*
Y014428D01*
X014646D01*
Y0146D01*
X015117D01*
Y014428D01*
X015827D01*
Y015088D01*
X015117D01*
Y014916D01*
X014646D01*
Y015088D01*
X013936D01*
Y01501D01*
X013836Y014965D01*
X013793Y014994D01*
X0137Y015012D01*
X013684Y015009D01*
X013378Y015315D01*
Y017146D01*
X014433Y018201D01*
X014449Y018198D01*
X014541Y018216D01*
X01462Y018269D01*
X01466Y018329D01*
X014664Y018332D01*
X014737Y01835D01*
X014775Y018351D01*
X014978Y018148D01*
X01503Y018114D01*
X01509Y018102D01*
X01528D01*
X015289Y018089D01*
X015367Y018036D01*
X01546Y018018D01*
X015553Y018036D01*
X015631Y018089D01*
X015684Y018167D01*
X015702Y01826D01*
X015684Y018353D01*
X015631Y018431D01*
X015553Y018484D01*
X01546Y018502D01*
X015367Y018484D01*
X015289Y018431D01*
X01528Y018418D01*
X015155D01*
X015008Y018565D01*
Y018685D01*
X01561D01*
Y019395D01*
D02*
G37*
G36*
X01385D02*
X01319D01*
Y019224D01*
X011816D01*
X011745Y01921D01*
X011686Y01917D01*
X011567Y019051D01*
X011546Y019054D01*
X011296D01*
X011191Y01904D01*
X011092Y018999D01*
X011007Y018935D01*
X010942Y01885D01*
X010902Y018751D01*
X010888Y018646D01*
X010902Y01854D01*
X010942Y018441D01*
X011007Y018357D01*
X011092Y018292D01*
X011191Y018251D01*
X011296Y018237D01*
X011546D01*
X011652Y018251D01*
X011751Y018292D01*
X011835Y018357D01*
X0119Y018441D01*
X011941Y01854D01*
X011955Y018646D01*
X011941Y018751D01*
X011939Y018756D01*
X012006Y018856D01*
X01319D01*
Y018685D01*
X01385D01*
Y019395D01*
D02*
G37*
G36*
X011546Y018054D02*
X011296D01*
X011191Y01804D01*
X011092Y017999D01*
X011007Y017935D01*
X010942Y01785D01*
X010902Y017751D01*
X010888Y017646D01*
X010902Y01754D01*
X010942Y017441D01*
X011007Y017357D01*
X011092Y017292D01*
X011191Y017251D01*
X011296Y017237D01*
X011546D01*
X011652Y017251D01*
X011751Y017292D01*
X011835Y017357D01*
X0119Y017441D01*
X011941Y01754D01*
X011955Y017646D01*
X011941Y017751D01*
X0119Y01785D01*
X011835Y017935D01*
X011751Y017999D01*
X011652Y01804D01*
X011546Y018054D01*
D02*
G37*
G36*
X018876Y026051D02*
X017966D01*
Y025241D01*
X018603D01*
X019152Y024691D01*
Y017647D01*
X018603Y017098D01*
X017891D01*
Y016288D01*
X018951D01*
Y016999D01*
X019422Y01747D01*
X019456Y017521D01*
X019468Y017582D01*
Y024757D01*
X019456Y024817D01*
X019422Y024869D01*
X018876Y025414D01*
Y026051D01*
D02*
G37*
G36*
X011546Y017054D02*
X011296D01*
X011191Y01704D01*
X011092Y016999D01*
X011007Y016935D01*
X010942Y01685D01*
X010902Y016751D01*
X010888Y016646D01*
X010902Y01654D01*
X010942Y016441D01*
X011007Y016357D01*
X011092Y016292D01*
X011191Y016251D01*
X011296Y016237D01*
X011546D01*
X011652Y016251D01*
X011751Y016292D01*
X011835Y016357D01*
X0119Y016441D01*
X011941Y01654D01*
X011955Y016646D01*
X011941Y016751D01*
X0119Y01685D01*
X011835Y016935D01*
X011751Y016999D01*
X011652Y01704D01*
X011546Y017054D01*
D02*
G37*
G36*
X015882Y016379D02*
X01577Y016364D01*
X015665Y01632D01*
X015575Y016252D01*
X015506Y016162D01*
X015463Y016057D01*
X015448Y015945D01*
X015463Y015833D01*
X015506Y015728D01*
X015575Y015638D01*
X015665Y015569D01*
X01577Y015526D01*
X015882Y015511D01*
X015994Y015526D01*
X016099Y015569D01*
X016189Y015638D01*
X016257Y015728D01*
X016301Y015833D01*
X016316Y015945D01*
X016301Y016057D01*
X016257Y016162D01*
X016189Y016252D01*
X016099Y01632D01*
X015994Y016364D01*
X015882Y016379D01*
D02*
G37*
G36*
X013961D02*
X013848Y016364D01*
X013744Y01632D01*
X013654Y016252D01*
X013585Y016162D01*
X013542Y016057D01*
X013527Y015945D01*
X013542Y015833D01*
X013585Y015728D01*
X013654Y015638D01*
X013744Y015569D01*
X013848Y015526D01*
X013961Y015511D01*
X014073Y015526D01*
X014177Y015569D01*
X014267Y015638D01*
X014336Y015728D01*
X01438Y015833D01*
X014394Y015945D01*
X01438Y016057D01*
X014336Y016162D01*
X014267Y016252D01*
X014177Y01632D01*
X014073Y016364D01*
X013961Y016379D01*
D02*
G37*
G36*
X018873Y015169D02*
X018781Y01515D01*
X018702Y015098D01*
X01865Y015019D01*
X018631Y014927D01*
X018634Y014915D01*
X018551Y014815D01*
X01855D01*
Y014105D01*
X01921D01*
Y014815D01*
X019195D01*
X019113Y014915D01*
X019116Y014927D01*
X019097Y015019D01*
X019045Y015098D01*
X018966Y01515D01*
X018873Y015169D01*
D02*
G37*
G36*
X011237Y015166D02*
X011144Y015147D01*
X011065Y015095D01*
X011013Y015016D01*
X010994Y014923D01*
X010996Y014915D01*
X010914Y014815D01*
X0109D01*
Y014105D01*
X01156D01*
Y014815D01*
X011559D01*
X011477Y014915D01*
X011479Y014923D01*
X01146Y015016D01*
X011408Y015095D01*
X011329Y015147D01*
X011237Y015166D01*
D02*
G37*
G36*
X018873Y013179D02*
X018781Y01316D01*
X018702Y013108D01*
X01865Y013029D01*
X018631Y012937D01*
X01864Y012895D01*
X018571Y012795D01*
X01856D01*
Y012085D01*
X01922D01*
Y012795D01*
X019175D01*
X019107Y012895D01*
X019116Y012937D01*
X019097Y013029D01*
X019045Y013108D01*
X018966Y01316D01*
X018873Y013179D01*
D02*
G37*
G36*
X01123Y013132D02*
X011137Y013114D01*
X011059Y013061D01*
X011006Y012983D01*
X010988Y01289D01*
X010993Y012865D01*
X010917Y012765D01*
X0109D01*
Y012055D01*
X01156D01*
Y012765D01*
X011543D01*
X011467Y012865D01*
X011472Y01289D01*
X011454Y012983D01*
X011401Y013061D01*
X011323Y013114D01*
X01123Y013132D01*
D02*
G37*
G36*
X015411Y012388D02*
X015306Y012374D01*
X015207Y012333D01*
X015122Y012268D01*
X015057Y012183D01*
X015017Y012085D01*
X015003Y011979D01*
Y011879D01*
X015017Y011773D01*
X015057Y011675D01*
X015122Y01159D01*
X015207Y011525D01*
X015306Y011485D01*
X015411Y011471D01*
X015517Y011485D01*
X015616Y011525D01*
X0157Y01159D01*
X015765Y011675D01*
X015806Y011773D01*
X01582Y011879D01*
Y011979D01*
X015806Y012085D01*
X015765Y012183D01*
X0157Y012268D01*
X015616Y012333D01*
X015517Y012374D01*
X015411Y012388D01*
D02*
G37*
G36*
X014431D02*
X014326Y012374D01*
X014227Y012333D01*
X014142Y012268D01*
X014077Y012183D01*
X014037Y012085D01*
X014023Y011979D01*
Y011879D01*
X014037Y011773D01*
X014077Y011675D01*
X014142Y01159D01*
X014227Y011525D01*
X014326Y011485D01*
X014431Y011471D01*
X014537Y011485D01*
X014636Y011525D01*
X01472Y01159D01*
X014785Y011675D01*
X014826Y011773D01*
X01484Y011879D01*
Y011979D01*
X014826Y012085D01*
X014785Y012183D01*
X01472Y012268D01*
X014636Y012333D01*
X014537Y012374D01*
X014431Y012388D01*
D02*
G37*
%LPD*%
G36*
X015021Y02573D02*
X014821Y02543D01*
X014819Y025468D01*
X014813Y025502D01*
X014803Y025532D01*
X014789Y025558D01*
X014771Y02558D01*
X014749Y025598D01*
X014723Y025612D01*
X014693Y025622D01*
X014659Y025628D01*
X014621Y02563D01*
Y02583D01*
X014659Y025832D01*
X014693Y025838D01*
X014723Y025848D01*
X014749Y025862D01*
X014771Y02588D01*
X014789Y025902D01*
X014803Y025928D01*
X014813Y025958D01*
X014819Y025992D01*
X014821Y02603D01*
X015021Y02573D01*
D02*
G37*
G36*
X017412Y018955D02*
X017418Y018921D01*
X017428Y018891D01*
X017442Y018865D01*
X01746Y018843D01*
X017482Y018825D01*
X017508Y018811D01*
X017538Y018801D01*
X017572Y018795D01*
X01761Y018793D01*
Y018593D01*
X017572Y018591D01*
X017538Y018585D01*
X017508Y018575D01*
X017482Y018561D01*
X01746Y018543D01*
X017442Y018521D01*
X017428Y018495D01*
X017418Y018465D01*
X017412Y018431D01*
X01741Y018393D01*
X01721Y018693D01*
X01741Y018993D01*
X017412Y018955D01*
D02*
G37*
G36*
X015075Y018965D02*
X015046Y018964D01*
X015021Y018959D01*
X014999Y018951D01*
X014979Y018941D01*
X014963Y018928D01*
X014949Y018911D01*
X014938Y018892D01*
X014931Y018869D01*
X014927Y018843D01*
X014925Y018815D01*
X014775D01*
X014773Y018843D01*
X014769Y018869D01*
X014762Y018892D01*
X014751Y018911D01*
X014737Y018928D01*
X014721Y018941D01*
X014701Y018951D01*
X014679Y018959D01*
X014654Y018964D01*
X014625Y018965D01*
X01485Y019115D01*
X015075Y018965D01*
D02*
G37*
D18*
X015472Y014758D02*
D03*
Y013858D02*
D03*
X014291D02*
D03*
Y014758D02*
D03*
X016811Y02599D02*
D03*
Y02689D02*
D03*
D19*
X01797Y02821D02*
D03*
X01887D02*
D03*
X01528Y01904D02*
D03*
X01618D02*
D03*
X01352D02*
D03*
X01442D02*
D03*
X01123Y01446D02*
D03*
X01213D02*
D03*
X01123Y01241D02*
D03*
X01213D02*
D03*
X014476Y013032D02*
D03*
X015376D02*
D03*
X01889Y01244D02*
D03*
X01799D02*
D03*
X01888Y01446D02*
D03*
X01798D02*
D03*
X011947Y028206D02*
D03*
X011047D02*
D03*
X015821Y023622D02*
D03*
X014921D02*
D03*
D40*
X01931Y017582D02*
Y024757D01*
X018421Y016693D02*
X01931Y017582D01*
X018421Y025646D02*
X01931Y024757D01*
X015874Y019646D02*
X01618Y01934D01*
X011421Y019646D02*
X015874D01*
X01618Y01904D02*
Y01934D01*
X01044Y018664D02*
X011421Y019646D01*
X01044Y01598D02*
Y018664D01*
Y01598D02*
X01112Y0153D01*
X0116D01*
X01213Y01477D01*
Y01446D02*
Y01477D01*
X011947Y028206D02*
X013244D01*
X01887Y02821D02*
Y028717D01*
X018803Y028783D02*
X01887Y028717D01*
X011047Y028206D02*
Y028699D01*
X011114Y028766D01*
X016811Y024612D02*
Y02599D01*
X014291Y013858D02*
X014476Y013673D01*
Y013032D02*
Y013673D01*
X014092Y013032D02*
X014476D01*
X013421Y012361D02*
X014092Y013032D01*
X013421Y011929D02*
Y012361D01*
X015821Y023622D02*
X016811Y024612D01*
X014016Y02689D02*
Y027434D01*
X013244Y028206D02*
X014016Y027434D01*
X0177Y01474D02*
X01798Y01446D01*
X0177Y01474D02*
Y016972D01*
X018421Y017693D01*
X01798Y01446D02*
X01799Y01445D01*
Y01244D02*
Y01445D01*
X012611Y011929D02*
X013421D01*
X01213Y01241D02*
X012611Y011929D01*
X01213Y01241D02*
Y01446D01*
X01123D02*
X011237Y014467D01*
Y014923D01*
X01889Y01244D02*
Y01292D01*
X018873Y012937D02*
X01889Y01292D01*
X01888Y01446D02*
Y01492D01*
X018873Y014927D02*
X01888Y01492D01*
X01123Y01241D02*
Y01289D01*
X01428Y01477D02*
X014291Y014758D01*
X0137Y01477D02*
X01428D01*
X01322Y01525D02*
X0137Y01477D01*
X01322Y01525D02*
Y017211D01*
X014449Y01844D01*
X014291Y014758D02*
X015472D01*
X01485Y01904D02*
X01528D01*
X01442D02*
X01485D01*
Y0185D02*
Y01904D01*
Y0185D02*
X01509Y01826D01*
X01546D01*
X015827Y02689D02*
X015827Y02689D01*
X016811D01*
Y027809D01*
D42*
X011421Y018646D02*
X011816Y01904D01*
X01352D01*
X015376Y013032D02*
X015803D01*
X016421Y012413D01*
Y011929D02*
Y012413D01*
X01731Y01539D02*
Y018693D01*
X015778Y013858D02*
X01731Y01539D01*
X015472Y013858D02*
X015778D01*
X01731Y018693D02*
X018421D01*
X01731D02*
Y020653D01*
X014921Y023041D02*
X01731Y020653D01*
X015376Y013762D02*
X015472Y013858D01*
X015376Y013032D02*
Y013762D01*
X013649Y02573D02*
X014921D01*
X01304Y026339D02*
X013649Y02573D01*
X014921D02*
Y02689D01*
Y024606D02*
Y02573D01*
Y023041D02*
Y023622D01*
Y024606D01*
D43*
X018421Y022693D02*
D03*
Y020693D02*
D03*
Y017693D02*
D03*
Y018693D02*
D03*
Y019693D02*
D03*
Y021693D02*
D03*
Y023693D02*
D03*
X011421Y017646D02*
D03*
Y019646D02*
D03*
Y022646D02*
D03*
Y021646D02*
D03*
Y020646D02*
D03*
Y018646D02*
D03*
Y016646D02*
D03*
D44*
X018421Y016693D02*
D03*
X011421Y023646D02*
D03*
D45*
Y026656D02*
D03*
X018421D02*
D03*
D46*
X011421Y025646D02*
D03*
X018421D02*
D03*
D47*
X013961Y015945D02*
D03*
X015882D02*
D03*
D48*
X013421Y011929D02*
D03*
X014431D02*
D03*
X015411D02*
D03*
X016421D02*
D03*
D49*
X015738Y027933D02*
D03*
X014104D02*
D03*
D50*
X0189Y02319D02*
D03*
X01894Y0222D02*
D03*
X018966Y02118D02*
D03*
Y01919D02*
D03*
X0195Y02508D02*
D03*
X01735Y01479D02*
D03*
X016626Y02185D02*
D03*
X01612Y01478D02*
D03*
X014903Y01434D02*
D03*
X01357Y01706D02*
D03*
X01565D02*
D03*
X014797D02*
D03*
X018421Y0246D02*
D03*
X01139Y02466D02*
D03*
X01316Y02558D02*
D03*
X0132Y02783D02*
D03*
X01243Y02732D02*
D03*
X018803Y028783D02*
D03*
X011114Y028766D02*
D03*
X01397Y02382D02*
D03*
X01442Y02539D02*
D03*
X01604Y02761D02*
D03*
X01536Y02692D02*
D03*
X01444Y02698D02*
D03*
X013585Y018089D02*
D03*
X01582Y01247D02*
D03*
X01592Y01337D02*
D03*
X01242Y01593D02*
D03*
X0124Y01693D02*
D03*
X01662Y01816D02*
D03*
X01895Y01812D02*
D03*
X01783D02*
D03*
Y01923D02*
D03*
X01683Y01925D02*
D03*
X016792Y01702D02*
D03*
X0167Y0142D02*
D03*
X01491Y01356D02*
D03*
X01125Y015938D02*
D03*
X0135Y02692D02*
D03*
X01744Y02705D02*
D03*
X016122Y02606D02*
D03*
X0153Y025665D02*
D03*
X01562Y022999D02*
D03*
X01692Y02409D02*
D03*
X01667Y02288D02*
D03*
X01746Y02334D02*
D03*
X011237Y014923D02*
D03*
X018873Y012937D02*
D03*
Y014927D02*
D03*
X01123Y01289D02*
D03*
X0137Y01477D02*
D03*
X014449Y01844D02*
D03*
X01546Y01826D02*
D03*
X01304Y026339D02*
D03*
X014921Y023041D02*
D03*
X016811Y027809D02*
D03*
D51*
X014016Y02689D02*
D03*
X014921D02*
D03*
X015827D02*
D03*
D52*
X014921Y024606D02*
D03*
M02*
