M48
;Layer_Color=9474304
;FILE_FORMAT=2:4
INCH,LZ
;TYPE=PLATED
T1F00S00C0.0157
T2F00S00C0.0340
T3F00S00C0.0360
T4F00S00C0.0420
;TYPE=NON_PLATED
T5F00S00C0.0276
%
T01
X00123Y00289
X001237Y004923
X0037Y00477
X004903Y00434
X00491Y00356
X00592Y00337
X00582Y00247
X00612Y00478
X0067Y0042
X00735Y00479
X008873Y004927
Y002937
X00895Y00812
X008966Y00919
X00783Y00923
X00683Y00925
X00662Y00816
X00783Y00812
X006792Y00702
X00565Y00706
X006626Y01185
X00667Y01288
X00746Y01334
X00692Y01409
X008421Y0146
X0095Y01508
X0089Y01319
X00894Y0122
X008966Y01118
X00744Y01705
X006811Y017809
X00604Y01761
X006122Y01606
X008803Y018783
X00536Y01692
X00444Y01698
X0035Y01692
X00304Y016339
X00316Y01558
X00442Y01539
X0053Y015665
X00562Y012999
X004921Y013041
X00397Y01382
X00139Y01466
X00243Y01732
X0032Y01783
X001114Y018766
X00125Y005938
X00242Y00593
X0024Y00693
X00357Y00706
X003585Y008089
X004449Y00844
X00546Y00826
X004797Y00706
T02
X005882Y005945
X003961
T03
X003421Y001929
X004431
X005411
X006421
X008421Y015646
Y016656
X001421
Y015646
T04
X008421Y006693
Y007693
Y008693
Y009693
Y010693
Y011693
Y012693
Y013693
X001421Y013646
Y012646
Y011646
Y010646
Y009646
Y008646
Y007646
Y006646
T05
X005738Y017933
X004104
M30
