M48
;Layer_Color=9474304
;FILE_FORMAT=2:4
INCH,LZ
;TYPE=PLATED
T1F00S00C0.0157
T2F00S00C0.0340
T3F00S00C0.0360
T4F00S00C0.0420
;TYPE=NON_PLATED
T5F00S00C0.0276
%
T01
X00123Y00289
X001237Y004923
X00319Y00477
X0037
X00319Y00392
X0038Y00323
X00491Y00356
Y0025
X0045Y00534
X00545
X00621Y00505
X00714Y00447
X008873Y004927
Y002937
X00592Y00337
X00582Y00247
X00679Y0059
Y00705
X00662Y00816
X00783Y00812
Y00923
X00683Y00925
X00895Y00812
X00563Y00672
X00572Y01305
X0066Y01287
X00746Y01334
X00692Y01409
X008421Y0146
X00744Y01705
X006811Y017809
X00604Y01761
X006122Y01606
X008803Y018783
X00536Y01692
X00444Y01698
X0035Y01692
X00304Y016339
X00316Y01558
X00442Y01539
X0053Y015665
X004921Y013041
X00397Y01382
X00139Y01466
X00243Y01732
X0032Y01783
X001114Y018766
X00125Y005938
X00245Y0059
X00248Y0071
X003961Y00695
X00357Y00645
X003585Y008089
X004449Y00844
X00546Y00826
X00497Y00673
X00479Y00601
T02
X005882Y005945
X003961
T03
X003421Y001929
X004431
X005411
X006421
X008421Y015646
Y016656
X001421
Y015646
T04
X008421Y006693
Y007693
Y008693
Y009693
Y010693
Y011693
Y012693
Y013693
X001421Y013646
Y012646
Y011646
Y010646
Y009646
Y008646
Y007646
Y006646
T05
X005738Y017933
X004104
M30
