G04*
G04 #@! TF.GenerationSoftware,Altium Limited,Altium Designer,18.1.6 (161)*
G04*
G04 Layer_Color=255*
%FSTAX24Y24*%
%MOIN*%
G70*
G01*
G75*
%ADD18R,0.0550X0.0500*%
%ADD19R,0.0500X0.0550*%
%ADD43O,0.0900X0.0650*%
%ADD44R,0.0900X0.0650*%
%ADD45O,0.0750X0.0650*%
%ADD46R,0.0750X0.0650*%
%ADD47C,0.0700*%
%ADD48O,0.0650X0.0750*%
%ADD49C,0.0276*%
%ADD51R,0.0394X0.0945*%
%ADD52R,0.1299X0.0945*%
D18*
X015472Y014758D02*
D03*
Y013858D02*
D03*
X014291D02*
D03*
Y014758D02*
D03*
X016811Y02599D02*
D03*
Y02689D02*
D03*
D19*
X01797Y02821D02*
D03*
X01887D02*
D03*
X01528Y01904D02*
D03*
X01618D02*
D03*
X01352D02*
D03*
X01442D02*
D03*
X01106Y01446D02*
D03*
X01196D02*
D03*
X01106Y01241D02*
D03*
X01196D02*
D03*
X014476Y013032D02*
D03*
X015376D02*
D03*
X01889Y01244D02*
D03*
X01799D02*
D03*
X01888Y01446D02*
D03*
X01798D02*
D03*
X011947Y028206D02*
D03*
X011047D02*
D03*
X015821Y023622D02*
D03*
X014921D02*
D03*
D43*
X018421Y022693D02*
D03*
Y020693D02*
D03*
Y017693D02*
D03*
Y018693D02*
D03*
Y019693D02*
D03*
Y021693D02*
D03*
Y023693D02*
D03*
X011421Y017646D02*
D03*
Y019646D02*
D03*
Y022646D02*
D03*
Y021646D02*
D03*
Y020646D02*
D03*
Y018646D02*
D03*
Y016646D02*
D03*
D44*
X018421Y016693D02*
D03*
X011421Y023646D02*
D03*
D45*
Y026656D02*
D03*
X018421D02*
D03*
D46*
X011421Y025646D02*
D03*
X018421D02*
D03*
D47*
X013961Y015945D02*
D03*
X015882D02*
D03*
D48*
X013421Y011929D02*
D03*
X014431D02*
D03*
X015411D02*
D03*
X016421D02*
D03*
D49*
X015738Y027933D02*
D03*
X014104D02*
D03*
D51*
X014016Y02689D02*
D03*
X014921D02*
D03*
X015827D02*
D03*
D52*
X014921Y024606D02*
D03*
M02*
