G04*
G04 #@! TF.GenerationSoftware,Altium Limited,Altium Designer,18.1.6 (161)*
G04*
G04 Layer_Color=128*
%FSTAX24Y24*%
%MOIN*%
G70*
G01*
G75*
%ADD61C,0.0020*%
D61*
X018211Y022693D02*
X018631D01*
X018421Y022483D02*
Y022903D01*
X018211Y020693D02*
X018631D01*
X018421Y020483D02*
Y020903D01*
X018211Y016693D02*
X018631D01*
X018421Y016483D02*
Y016903D01*
X018211Y017693D02*
X018631D01*
X018421Y017483D02*
Y017903D01*
X018211Y018693D02*
X018631D01*
X018421Y018483D02*
Y018903D01*
X018211Y019693D02*
X018631D01*
X018421Y019483D02*
Y019903D01*
X018211Y021693D02*
X018631D01*
X018421Y021483D02*
Y021903D01*
X018211Y023693D02*
X018631D01*
X018421Y023483D02*
Y023903D01*
X011241Y026656D02*
X011601D01*
X011421Y026476D02*
Y026836D01*
X011241Y025646D02*
X011601D01*
X011421Y025466D02*
Y025826D01*
X018241Y026656D02*
X018601D01*
X018421Y026476D02*
Y026836D01*
X018241Y025646D02*
X018601D01*
X018421Y025466D02*
Y025826D01*
X011211Y017646D02*
X011631D01*
X011421Y017436D02*
Y017856D01*
X011211Y019646D02*
X011631D01*
X011421Y019436D02*
Y019856D01*
X011211Y023646D02*
X011631D01*
X011421Y023436D02*
Y023856D01*
X011211Y022646D02*
X011631D01*
X011421Y022436D02*
Y022856D01*
X011211Y021646D02*
X011631D01*
X011421Y021436D02*
Y021856D01*
X011211Y020646D02*
X011631D01*
X011421Y020436D02*
Y020856D01*
X011211Y018646D02*
X011631D01*
X011421Y018436D02*
Y018856D01*
X011211Y016646D02*
X011631D01*
X011421Y016436D02*
Y016856D01*
X013791Y015945D02*
X014131D01*
X013961Y015775D02*
Y016115D01*
X015712Y015945D02*
X016052D01*
X015882Y015775D02*
Y016115D01*
X013241Y011929D02*
X013601D01*
X013421Y011749D02*
Y012109D01*
X014251Y011929D02*
X014611D01*
X014431Y011749D02*
Y012109D01*
X015231Y011929D02*
X015591D01*
X015411Y011749D02*
Y012109D01*
X016241Y011929D02*
X016601D01*
X016421Y011749D02*
Y012109D01*
X0156Y027933D02*
X015876D01*
X015738Y027795D02*
Y028071D01*
X013967Y027933D02*
X014242D01*
X014104Y027795D02*
Y028071D01*
X018343Y0246D02*
X0185D01*
X018421Y024521D02*
Y024679D01*
X011311Y02466D02*
X011469D01*
X01139Y024581D02*
Y024739D01*
X013081Y02558D02*
X013239D01*
X01316Y025501D02*
Y025659D01*
X013121Y02783D02*
X013279D01*
X0132Y027751D02*
Y027909D01*
X012351Y02732D02*
X012509D01*
X01243Y027241D02*
Y027399D01*
X018725Y028783D02*
X018882D01*
X018803Y028705D02*
Y028862D01*
X011035Y028766D02*
X011193D01*
X011114Y028687D02*
Y028845D01*
X013891Y02382D02*
X014049D01*
X01397Y023741D02*
Y023899D01*
X014341Y02539D02*
X014499D01*
X01442Y025311D02*
Y025469D01*
X015961Y02761D02*
X016119D01*
X01604Y027531D02*
Y027689D01*
X015281Y02692D02*
X015439D01*
X01536Y026841D02*
Y026999D01*
X014361Y02698D02*
X014519D01*
X01444Y026901D02*
Y027059D01*
X013506Y018089D02*
X013664D01*
X013585Y01801D02*
Y018168D01*
X014831Y0125D02*
X014989D01*
X01491Y012421D02*
Y012579D01*
X015741Y01247D02*
X015898D01*
X01582Y012391D02*
Y012549D01*
X015841Y01337D02*
X015999D01*
X01592Y013291D02*
Y013449D01*
X012371Y0159D02*
X012529D01*
X01245Y015821D02*
Y015979D01*
X012401Y0171D02*
X012559D01*
X01248Y017021D02*
Y017179D01*
X016541Y01816D02*
X016699D01*
X01662Y018081D02*
Y018239D01*
X014711Y01601D02*
X014869D01*
X01479Y015931D02*
Y016089D01*
X018871Y01812D02*
X019029D01*
X01895Y018041D02*
Y018199D01*
X017751Y01812D02*
X017909D01*
X01783Y018041D02*
Y018199D01*
X017751Y01923D02*
X017909D01*
X01783Y019151D02*
Y019309D01*
X016751Y01925D02*
X016909D01*
X01683Y019171D02*
Y019329D01*
X016711Y01705D02*
X016869D01*
X01679Y016971D02*
Y017129D01*
X016711Y0159D02*
X016869D01*
X01679Y015821D02*
Y015979D01*
X016131Y01505D02*
X016289D01*
X01621Y014971D02*
Y015129D01*
X017061Y01447D02*
X017219D01*
X01714Y014391D02*
Y014549D01*
X013721Y01323D02*
X013879D01*
X0138Y013151D02*
Y013309D01*
X013111Y01392D02*
X013269D01*
X01319Y013841D02*
Y013999D01*
X013111Y01477D02*
X013269D01*
X01319Y014691D02*
Y014849D01*
X015371Y01534D02*
X015529D01*
X01545Y015261D02*
Y015419D01*
X014421Y01534D02*
X014579D01*
X0145Y015261D02*
Y015419D01*
X014831Y01356D02*
X014989D01*
X01491Y013481D02*
Y013639D01*
X011171Y015938D02*
X011329D01*
X01125Y015859D02*
Y016017D01*
X013421Y02692D02*
X013579D01*
X0135Y026841D02*
Y026999D01*
X017361Y02705D02*
X017519D01*
X01744Y026971D02*
Y027129D01*
X016043Y02606D02*
X016201D01*
X016122Y025981D02*
Y026139D01*
X015221Y025665D02*
X015379D01*
X0153Y025587D02*
Y025744D01*
X015641Y02305D02*
X015799D01*
X01572Y022971D02*
Y023129D01*
X016841Y02409D02*
X016999D01*
X01692Y024011D02*
Y024169D01*
X016521Y02287D02*
X016679D01*
X0166Y022791D02*
Y022949D01*
X017381Y02334D02*
X017539D01*
X01746Y023261D02*
Y023419D01*
X015551Y01672D02*
X015709D01*
X01563Y016641D02*
Y016799D01*
X014891Y01673D02*
X015049D01*
X01497Y016651D02*
Y016809D01*
X013491Y01645D02*
X013649D01*
X01357Y016371D02*
Y016529D01*
X013882Y01695D02*
X014039D01*
X013961Y016871D02*
Y017029D01*
X011158Y014923D02*
X011315D01*
X011237Y014845D02*
Y015002D01*
X018795Y012937D02*
X018952D01*
X018873Y012858D02*
Y013015D01*
X018795Y014927D02*
X018952D01*
X018873Y014848D02*
Y015005D01*
X011151Y01289D02*
X011309D01*
X01123Y012811D02*
Y012969D01*
X013621Y01477D02*
X013779D01*
X0137Y014691D02*
Y014849D01*
X01437Y01844D02*
X014528D01*
X014449Y018361D02*
Y018519D01*
X015381Y01826D02*
X015539D01*
X01546Y018181D02*
Y018339D01*
X012961Y026339D02*
X013119D01*
X01304Y02626D02*
Y026417D01*
X014843Y023041D02*
X015D01*
X014921Y022963D02*
Y02312D01*
X016732Y027809D02*
X01689D01*
X016811Y02773D02*
Y027888D01*
M02*
