G04*
G04 #@! TF.GenerationSoftware,Altium Limited,Altium Designer,18.1.6 (161)*
G04*
G04 Layer_Physical_Order=1*
G04 Layer_Color=255*
%FSTAX24Y24*%
%MOIN*%
G70*
G01*
G75*
%ADD18R,0.0550X0.0500*%
%ADD19R,0.0500X0.0550*%
%ADD20R,0.0580X0.0140*%
%ADD21R,0.0433X0.0472*%
%ADD22R,0.0787X0.0591*%
%ADD23R,0.0748X0.0748*%
%ADD24R,0.0709X0.0748*%
%ADD25R,0.0157X0.0531*%
%ADD40C,0.0150*%
%ADD41C,0.0200*%
%ADD42C,0.0140*%
%ADD43O,0.0900X0.0650*%
%ADD44R,0.0900X0.0650*%
%ADD45O,0.0750X0.0650*%
%ADD46R,0.0750X0.0650*%
%ADD47C,0.0700*%
%ADD48O,0.0650X0.0750*%
%ADD49C,0.0276*%
%ADD50C,0.0315*%
G36*
X01971Y010133D02*
X010133D01*
Y029552D01*
X01971D01*
Y010133D01*
D02*
G37*
%LPC*%
G36*
X01693Y029352D02*
X016062D01*
Y028444D01*
X01693D01*
Y029352D01*
D02*
G37*
G36*
X013781D02*
X012912D01*
Y028444D01*
X013781D01*
Y029352D01*
D02*
G37*
G36*
X01494Y029352D02*
X01484Y029352D01*
X013995D01*
Y028444D01*
X01484D01*
X014903Y028444D01*
X015003Y028444D01*
X015848D01*
Y029352D01*
X015003D01*
X01494Y029352D01*
D02*
G37*
G36*
X018273Y028526D02*
X01768D01*
Y028368D01*
X017212D01*
X017152Y028356D01*
X0171Y028322D01*
X016827Y028048D01*
X016811Y028051D01*
X016718Y028033D01*
X01664Y02798D01*
X016587Y027902D01*
X016569Y027809D01*
X016572Y027793D01*
X015931Y027152D01*
X01592Y027145D01*
X015911Y02714D01*
X015904Y027138D01*
X015899Y027138D01*
X015893Y027138D01*
X015886Y02714D01*
X015877Y027145D01*
X015866Y027152D01*
X015612Y027407D01*
X015592Y027499D01*
X015592Y027499D01*
X015592Y027499D01*
Y027658D01*
X015692Y02772D01*
X015738Y027711D01*
X015823Y027728D01*
X015895Y027776D01*
X015943Y027848D01*
X01596Y027933D01*
X015943Y028018D01*
X015895Y02809D01*
X015823Y028138D01*
X015738Y028155D01*
X015692Y028146D01*
X015592Y02819D01*
Y02819D01*
X014507D01*
Y027499D01*
X015275D01*
Y027362D01*
X015287Y027302D01*
X015321Y02725D01*
X015787Y026785D01*
X015787Y026785D01*
X015787Y026785D01*
X016975Y025597D01*
Y02531D01*
X017685D01*
Y025488D01*
X017966D01*
Y025241D01*
X018876D01*
Y026051D01*
X017966D01*
Y025804D01*
X017685D01*
Y02597D01*
X017049D01*
X016155Y026864D01*
X016147Y026875D01*
X016142Y026884D01*
X01614Y026891D01*
X01614Y026897D01*
X01614Y026902D01*
X016142Y026909D01*
X016147Y026918D01*
X016155Y026929D01*
X016795Y02757D01*
X016811Y027567D01*
X016904Y027585D01*
X016982Y027638D01*
X017035Y027716D01*
X017053Y027809D01*
X01705Y027825D01*
X017278Y028052D01*
X01768D01*
Y027894D01*
X018273D01*
Y028526D01*
D02*
G37*
G36*
X018803Y029026D02*
X018711Y029007D01*
X018632Y028955D01*
X01858Y028876D01*
X018561Y028783D01*
X01858Y028691D01*
X018623Y028626D01*
X018607Y02857D01*
X018581Y028526D01*
X018507D01*
Y027894D01*
X0191D01*
Y028526D01*
X019026D01*
X019Y02857D01*
X018984Y028626D01*
X019027Y028691D01*
X019046Y028783D01*
X019027Y028876D01*
X018975Y028955D01*
X018896Y029007D01*
X018803Y029026D01*
D02*
G37*
G36*
X011114Y029008D02*
X011021Y02899D01*
X010943Y028937D01*
X01089Y028859D01*
X010872Y028766D01*
X01089Y028673D01*
X010925Y028622D01*
X010889Y028533D01*
X01088Y028522D01*
X010817D01*
Y02789D01*
X011411D01*
Y028522D01*
X011348D01*
X011338Y028533D01*
X011303Y028622D01*
X011338Y028673D01*
X011356Y028766D01*
X011338Y028859D01*
X011285Y028937D01*
X011207Y02899D01*
X011114Y029008D01*
D02*
G37*
G36*
X014104Y028155D02*
X014019Y028138D01*
X013947Y02809D01*
X013899Y028018D01*
X013882Y027933D01*
X013899Y027848D01*
X013947Y027776D01*
X014019Y027728D01*
X014104Y027711D01*
X014189Y027728D01*
X014261Y027776D01*
X014309Y027848D01*
X014326Y027933D01*
X014309Y028018D01*
X014261Y02809D01*
X014189Y028138D01*
X014104Y028155D01*
D02*
G37*
G36*
X012237Y028522D02*
X011644D01*
Y02789D01*
X012237D01*
Y02789D01*
X012282Y027908D01*
X012856Y027334D01*
Y026491D01*
X012816Y026431D01*
X012798Y026339D01*
X012816Y026246D01*
X01282Y026241D01*
X012549Y02597D01*
X012135D01*
Y025829D01*
X011876D01*
Y026051D01*
X010966D01*
Y025241D01*
X011876D01*
Y025462D01*
X012135D01*
Y02531D01*
X012845D01*
Y025747D01*
X01317Y026072D01*
X01321Y026131D01*
X013214Y026155D01*
X014097D01*
Y025984D01*
X014757D01*
Y026694D01*
X014097D01*
Y026522D01*
X013224D01*
Y02741D01*
X01321Y02748D01*
X01317Y02754D01*
X012374Y028336D01*
X012314Y028375D01*
X012244Y028389D01*
X012237D01*
Y028522D01*
D02*
G37*
G36*
X015657Y026694D02*
X014997D01*
Y025984D01*
X015458D01*
X015777Y025665D01*
X015762Y025565D01*
X015469D01*
Y024815D01*
X015785D01*
Y024698D01*
X015472Y024385D01*
X01501D01*
Y023675D01*
X01567D01*
Y024106D01*
X015681Y024119D01*
X015794Y024133D01*
X017158Y022768D01*
X017158Y022654D01*
X016828Y022323D01*
X016794Y022272D01*
X016782Y022212D01*
Y021348D01*
X016345Y020911D01*
X016057D01*
X016042Y020908D01*
X015687D01*
Y020608D01*
Y020352D01*
Y020096D01*
Y019771D01*
X015587Y019729D01*
X015503Y019813D01*
Y021065D01*
X01568D01*
Y021775D01*
X015534D01*
Y021931D01*
X01568D01*
Y022641D01*
X015528D01*
X01552Y022683D01*
X01548Y022742D01*
X015159Y023063D01*
X015145Y023134D01*
X015092Y023212D01*
X015014Y023265D01*
X014921Y023283D01*
X014829Y023265D01*
X01475Y023212D01*
X014698Y023134D01*
X014683Y023063D01*
X014349Y022728D01*
X014309Y022669D01*
X014303Y022641D01*
X014148D01*
Y021931D01*
X014295D01*
Y021775D01*
X014148D01*
Y021065D01*
X014325D01*
Y019738D01*
X014219Y019631D01*
X012254D01*
X012195Y01962D01*
X012146Y019586D01*
X011606Y019046D01*
X011546Y019054D01*
X011296D01*
X011191Y01904D01*
X011092Y018999D01*
X011007Y018935D01*
X010942Y01885D01*
X010902Y018751D01*
X010888Y018646D01*
X010902Y01854D01*
X010942Y018441D01*
X011007Y018357D01*
X011092Y018292D01*
X011191Y018251D01*
X011296Y018237D01*
X011546D01*
X011652Y018251D01*
X011681Y018263D01*
X011738Y018178D01*
X011606Y018046D01*
X011546Y018054D01*
X011296D01*
X011191Y01804D01*
X011092Y017999D01*
X011007Y017935D01*
X010942Y01785D01*
X010902Y017751D01*
X010888Y017646D01*
X010902Y01754D01*
X010942Y017441D01*
X010965Y017413D01*
X010488Y016936D01*
X010454Y016885D01*
X010442Y016824D01*
Y014803D01*
X010454Y014743D01*
X010488Y014692D01*
X011431Y013749D01*
X011393Y013656D01*
X01094D01*
Y013024D01*
X01094D01*
X010995Y012924D01*
X010988Y01289D01*
X011006Y012797D01*
X011059Y012719D01*
X011137Y012666D01*
X01123Y012648D01*
X011323Y012666D01*
X011401Y012719D01*
X011454Y012797D01*
X011472Y01289D01*
X011465Y012924D01*
X011533Y013024D01*
X011533D01*
Y013516D01*
X011626Y013554D01*
X011767Y013413D01*
Y013024D01*
X01236D01*
Y013656D01*
X011971D01*
X010758Y014869D01*
Y016757D01*
X010815Y016803D01*
X010902Y016751D01*
X010888Y016646D01*
X010902Y01654D01*
X010942Y016441D01*
X011007Y016357D01*
X011092Y016292D01*
X011191Y016251D01*
X011296Y016237D01*
X011546D01*
X011599Y016244D01*
X011905Y015938D01*
Y015666D01*
X011767D01*
Y015034D01*
X01236D01*
Y015666D01*
X012221D01*
Y016004D01*
X012209Y016064D01*
X012175Y016115D01*
X011878Y016413D01*
X0119Y016441D01*
X011941Y01654D01*
X011955Y016646D01*
X011941Y016751D01*
X0119Y01685D01*
X011875Y016883D01*
X012448Y017456D01*
X012481Y017506D01*
X012493Y017564D01*
Y018124D01*
X012568Y018186D01*
X012657Y018149D01*
Y01355D01*
X012669Y013492D01*
X012702Y013442D01*
X014043Y012101D01*
X014037Y012085D01*
X014023Y011979D01*
Y011879D01*
X014037Y011773D01*
X014077Y011675D01*
X014142Y01159D01*
X014227Y011525D01*
X014326Y011485D01*
X014431Y011471D01*
X014537Y011485D01*
X014636Y011525D01*
X01472Y01159D01*
X014785Y011675D01*
X014826Y011773D01*
X01484Y011879D01*
Y011979D01*
X014826Y012085D01*
X014785Y012183D01*
X01472Y012268D01*
X014636Y012333D01*
X014537Y012374D01*
X014431Y012388D01*
X014326Y012374D01*
X014239Y012338D01*
X012963Y013614D01*
Y015728D01*
X013063Y01577D01*
X013723Y015109D01*
X013712Y015062D01*
X013683Y015009D01*
X013607Y014994D01*
X013529Y014941D01*
X013476Y014863D01*
X013458Y01477D01*
X013476Y014677D01*
X013529Y014599D01*
X013607Y014546D01*
X0137Y014528D01*
X0137Y014528D01*
Y014352D01*
X013385D01*
Y013601D01*
X014332D01*
Y014352D01*
X014016D01*
Y014612D01*
X014004Y014672D01*
X01397Y014723D01*
X014042Y01479D01*
X015258Y013574D01*
Y012354D01*
X015207Y012333D01*
X015122Y012268D01*
X015057Y012183D01*
X015017Y012085D01*
X015003Y011979D01*
Y011879D01*
X015017Y011773D01*
X015057Y011675D01*
X015122Y01159D01*
X015207Y011525D01*
X015306Y011485D01*
X015411Y011471D01*
X015517Y011485D01*
X015616Y011525D01*
X0157Y01159D01*
X015765Y011675D01*
X015806Y011773D01*
X01582Y011879D01*
Y011979D01*
X015806Y012085D01*
X015765Y012183D01*
X0157Y012268D01*
X015616Y012333D01*
X015564Y012354D01*
Y013638D01*
X015553Y013696D01*
X015519Y013746D01*
X013839Y015426D01*
X013886Y015521D01*
X013961Y015511D01*
X014073Y015526D01*
X014177Y015569D01*
X014267Y015638D01*
X014336Y015728D01*
X01438Y015833D01*
X014394Y015945D01*
X01438Y016057D01*
X014355Y016116D01*
X014572Y016332D01*
X014606Y016384D01*
X014618Y016444D01*
Y017215D01*
X01479D01*
Y017925D01*
X01479D01*
X014755Y018009D01*
X015144Y018398D01*
X015231Y018354D01*
X015235Y018348D01*
X015218Y01826D01*
X015236Y018167D01*
X015289Y018089D01*
X015367Y018036D01*
X01546Y018018D01*
X015553Y018036D01*
X015631Y018089D01*
X015684Y018167D01*
X015702Y01826D01*
X015795Y018302D01*
X016057D01*
X016072Y018305D01*
X016427D01*
Y018558D01*
X016636D01*
X016821Y018372D01*
Y017918D01*
X01671Y017806D01*
X01661Y017848D01*
Y017925D01*
X01595D01*
Y017215D01*
X016122D01*
Y016408D01*
X016053Y016339D01*
X015994Y016364D01*
X015882Y016379D01*
X01577Y016364D01*
X015665Y01632D01*
X015575Y016252D01*
X015506Y016162D01*
X015463Y016057D01*
X015448Y015945D01*
X015463Y015833D01*
X015506Y015728D01*
X015575Y015638D01*
X015665Y015569D01*
X01577Y015526D01*
X015882Y015511D01*
X015994Y015526D01*
X016099Y015569D01*
X016189Y015638D01*
X016257Y015728D01*
X016301Y015833D01*
X016316Y015945D01*
X016301Y016057D01*
X016276Y016116D01*
X016392Y016231D01*
X016426Y016283D01*
X016438Y016343D01*
Y017215D01*
X01661D01*
Y017417D01*
X01669D01*
X016749Y017429D01*
X016798Y017462D01*
X017083Y017746D01*
X017116Y017796D01*
X017127Y017854D01*
Y018436D01*
X017116Y018494D01*
X017083Y018544D01*
X016808Y018819D01*
X016758Y018852D01*
X016699Y018864D01*
X016427D01*
Y019328D01*
Y019581D01*
X017293D01*
X017304Y019579D01*
X017312Y019576D01*
X017317Y019574D01*
X01732Y019571D01*
X017323Y019567D01*
X017327Y01956D01*
X01733Y019549D01*
X017332Y019536D01*
Y015907D01*
X017344Y015846D01*
X017378Y015795D01*
X01775Y015423D01*
Y015034D01*
X018343D01*
Y015666D01*
X017954D01*
X017648Y015972D01*
Y019536D01*
X01765Y019549D01*
X017653Y01956D01*
X017657Y019567D01*
X01766Y019571D01*
X017663Y019574D01*
X017668Y019576D01*
X017676Y019579D01*
X017687Y019581D01*
X017904D01*
X017942Y019489D01*
X018007Y019404D01*
X018092Y019339D01*
X018191Y019298D01*
X018296Y019284D01*
X018546D01*
X018652Y019298D01*
X018751Y019339D01*
X018835Y019404D01*
X0189Y019489D01*
X018941Y019587D01*
X018955Y019693D01*
X018941Y019799D01*
X018934Y019815D01*
X019019Y019872D01*
X019232Y019659D01*
Y015741D01*
X01917Y015666D01*
X019132Y015666D01*
X018577D01*
Y015034D01*
X018577D01*
X018633Y014934D01*
X018631Y014927D01*
X01865Y014834D01*
X018702Y014755D01*
X018781Y014703D01*
X018873Y014684D01*
X018966Y014703D01*
X019045Y014755D01*
X019097Y014834D01*
X019112Y014907D01*
X019167Y014935D01*
X019232Y014882D01*
Y014789D01*
X018139Y013696D01*
X01775D01*
Y013064D01*
X018343D01*
Y013453D01*
X018484Y013594D01*
X018577Y013556D01*
Y013064D01*
X018577D01*
X018637Y012964D01*
X018631Y012937D01*
X01865Y012844D01*
X018702Y012765D01*
X018781Y012713D01*
X018873Y012694D01*
X018966Y012713D01*
X019045Y012765D01*
X019097Y012844D01*
X019116Y012937D01*
X01911Y012964D01*
X01917Y013064D01*
X01917D01*
Y013696D01*
X018717D01*
X018679Y013789D01*
X019502Y014612D01*
X019536Y014663D01*
X019548Y014723D01*
Y019724D01*
X019536Y019785D01*
X019502Y019836D01*
X018878Y02046D01*
X0189Y020489D01*
X018941Y020587D01*
X018955Y020693D01*
X018941Y020799D01*
X0189Y020897D01*
X018835Y020982D01*
X018751Y021047D01*
X018652Y021087D01*
X018546Y021101D01*
X018296D01*
X018191Y021087D01*
X018162Y021075D01*
X018105Y02116D01*
X018237Y021292D01*
X018296Y021284D01*
X018546D01*
X018652Y021298D01*
X018751Y021339D01*
X018835Y021404D01*
X0189Y021489D01*
X018941Y021587D01*
X018955Y021693D01*
X018941Y021799D01*
X0189Y021897D01*
X018835Y021982D01*
X018751Y022047D01*
X018652Y022087D01*
X018546Y022101D01*
X018296D01*
X018191Y022087D01*
X018162Y022075D01*
X018105Y02216D01*
X018237Y022292D01*
X018296Y022284D01*
X018546D01*
X018652Y022298D01*
X018751Y022339D01*
X018835Y022404D01*
X0189Y022489D01*
X018941Y022587D01*
X018955Y022693D01*
X018941Y022799D01*
X0189Y022897D01*
X018835Y022982D01*
X018751Y023047D01*
X018652Y023087D01*
X018546Y023101D01*
X018296D01*
X018191Y023087D01*
X018174Y023081D01*
X018117Y023165D01*
X018243Y023291D01*
X018296Y023284D01*
X018546D01*
X018652Y023298D01*
X018751Y023339D01*
X018835Y023404D01*
X0189Y023489D01*
X018941Y023587D01*
X018955Y023693D01*
X018941Y023799D01*
X0189Y023897D01*
X018835Y023982D01*
X018751Y024047D01*
X018652Y024087D01*
X018546Y024101D01*
X018296D01*
X018191Y024087D01*
X018092Y024047D01*
X018007Y023982D01*
X017942Y023897D01*
X017902Y023799D01*
X017888Y023693D01*
X017902Y023587D01*
X017942Y023489D01*
X017965Y02346D01*
X017472Y022967D01*
X017461Y022959D01*
X017451Y022955D01*
X017444Y022952D01*
X017439Y022952D01*
X017434Y022952D01*
X017427Y022955D01*
X017417Y022959D01*
X017407Y022967D01*
X016011Y024363D01*
X016011Y024477D01*
X016055Y024521D01*
X016089Y024573D01*
X016101Y024633D01*
Y024815D01*
X016417D01*
Y025565D01*
X016103D01*
Y025721D01*
X016091Y025781D01*
X016057Y025832D01*
X015657Y026232D01*
Y026694D01*
D02*
G37*
G36*
X011951Y024051D02*
X010891D01*
Y023241D01*
X01161D01*
X011738Y023113D01*
X011681Y023028D01*
X011652Y02304D01*
X011546Y023054D01*
X011296D01*
X011191Y02304D01*
X011092Y022999D01*
X011007Y022935D01*
X010942Y02285D01*
X010902Y022751D01*
X010888Y022646D01*
X010902Y02254D01*
X010942Y022441D01*
X011007Y022357D01*
X011092Y022292D01*
X011191Y022251D01*
X011296Y022237D01*
X011546D01*
X011652Y022251D01*
X011751Y022292D01*
X011751Y022292D01*
X012257Y021787D01*
Y0212D01*
X012265Y02116D01*
X012215Y021116D01*
X012183Y021101D01*
X011875Y021408D01*
X0119Y021441D01*
X011941Y02154D01*
X011955Y021646D01*
X011941Y021751D01*
X0119Y02185D01*
X011835Y021935D01*
X011751Y021999D01*
X011652Y02204D01*
X011546Y022054D01*
X011296D01*
X011191Y02204D01*
X011092Y021999D01*
X011007Y021935D01*
X010942Y02185D01*
X010902Y021751D01*
X010888Y021646D01*
X010902Y02154D01*
X010942Y021441D01*
X011007Y021357D01*
X011092Y021292D01*
X011191Y021251D01*
X011296Y021237D01*
X011546D01*
X011606Y021245D01*
X011738Y021113D01*
X011681Y021028D01*
X011652Y02104D01*
X011546Y021054D01*
X011296D01*
X011191Y02104D01*
X011092Y020999D01*
X011007Y020935D01*
X010942Y02085D01*
X010902Y020751D01*
X010888Y020646D01*
X010902Y02054D01*
X010942Y020441D01*
X011007Y020357D01*
X011092Y020292D01*
X011191Y020251D01*
X011296Y020237D01*
X011546D01*
X011652Y020251D01*
X011751Y020292D01*
X011819Y020345D01*
X012282Y019882D01*
X012331Y019849D01*
X01239Y019837D01*
X013757D01*
X013772Y01984D01*
X014127D01*
Y020096D01*
Y020352D01*
Y020608D01*
Y020908D01*
X013772D01*
X013757Y020911D01*
X013415D01*
X013113Y021213D01*
Y022107D01*
X013101Y022165D01*
X013068Y022215D01*
X011951Y023332D01*
Y024051D01*
D02*
G37*
G36*
X018546Y019101D02*
X018296D01*
X018191Y019087D01*
X018092Y019047D01*
X018007Y018982D01*
X017942Y018897D01*
X017902Y018799D01*
X017888Y018693D01*
X017902Y018587D01*
X017942Y018489D01*
X018007Y018404D01*
X018092Y018339D01*
X018191Y018298D01*
X018296Y018284D01*
X018546D01*
X018652Y018298D01*
X018751Y018339D01*
X018835Y018404D01*
X0189Y018489D01*
X018941Y018587D01*
X018955Y018693D01*
X018941Y018799D01*
X0189Y018897D01*
X018835Y018982D01*
X018751Y019047D01*
X018652Y019087D01*
X018546Y019101D01*
D02*
G37*
G36*
X018951Y017098D02*
X017891D01*
Y016288D01*
X018951D01*
Y017098D01*
D02*
G37*
G36*
X011533Y015666D02*
X01094D01*
Y015034D01*
X01094D01*
X010997Y014934D01*
X010994Y014923D01*
X011013Y014831D01*
X011065Y014752D01*
X011144Y0147D01*
X011237Y014681D01*
X011329Y0147D01*
X011408Y014752D01*
X01146Y014831D01*
X011479Y014923D01*
X011477Y014934D01*
X011533Y015034D01*
X011533D01*
Y015666D01*
D02*
G37*
G36*
X016421Y012388D02*
X016316Y012374D01*
X016217Y012333D01*
X016132Y012268D01*
X016067Y012183D01*
X016027Y012085D01*
X016013Y011979D01*
Y011879D01*
X016027Y011773D01*
X016067Y011675D01*
X016132Y01159D01*
X016217Y011525D01*
X016316Y011485D01*
X016421Y011471D01*
X016527Y011485D01*
X016626Y011525D01*
X01671Y01159D01*
X016775Y011675D01*
X016816Y011773D01*
X01683Y011879D01*
Y011979D01*
X016816Y012085D01*
X016775Y012183D01*
X01671Y012268D01*
X016626Y012333D01*
X016527Y012374D01*
X016421Y012388D01*
D02*
G37*
%LPD*%
G36*
X016111Y027003D02*
X016092Y026981D01*
X016077Y02696D01*
X016066Y026939D01*
X01606Y026918D01*
X016058Y026897D01*
X01606Y026875D01*
X016066Y026854D01*
X016077Y026833D01*
X016092Y026812D01*
X016111Y026791D01*
X016111Y026791D01*
X016111Y026791D01*
X015952Y026738D01*
X015846Y026844D01*
X015793Y027109D01*
X015793Y027109D01*
X015793Y027109D01*
X015814Y02709D01*
X015835Y027075D01*
X015856Y027064D01*
X015877Y027058D01*
X015899Y027056D01*
X01592Y027058D01*
X015941Y027064D01*
X015962Y027075D01*
X015984Y02709D01*
X016005Y027109D01*
D01*
X016005D01*
X016111Y027003D01*
D02*
G37*
G36*
X015923Y024505D02*
X015908Y024484D01*
X015898Y024462D01*
X015891Y024441D01*
X015889Y02442D01*
X015891Y024399D01*
X015898Y024378D01*
X015908Y024356D01*
X015923Y024335D01*
X015942Y024314D01*
X015836Y024208D01*
X015815Y024227D01*
X015794Y024242D01*
X015772Y024252D01*
X015751Y024259D01*
X01573Y024261D01*
X015709Y024259D01*
X015688Y024252D01*
X015666Y024242D01*
X015645Y024227D01*
X015624Y024208D01*
X01573Y02442D01*
X015942Y024526D01*
X015923Y024505D01*
D02*
G37*
G36*
X017492Y022658D02*
X017227Y022605D01*
X017246Y022626D01*
X017261Y022647D01*
X017272Y022668D01*
X017278Y02269D01*
X01728Y022711D01*
X017278Y022732D01*
X017272Y022753D01*
X017261Y022774D01*
X017246Y022796D01*
X017227Y022817D01*
X017333Y022923D01*
X017354Y022904D01*
X017376Y022889D01*
X017397Y022878D01*
X017418Y022872D01*
X017439Y02287D01*
X01746Y022872D01*
X017482Y022878D01*
X017503Y022889D01*
X017524Y022904D01*
X017545Y022923D01*
X017492Y022658D01*
D02*
G37*
G36*
X017705Y019664D02*
X017678Y019663D01*
X017655Y019658D01*
X017634Y019651D01*
X017615Y01964D01*
X0176Y019627D01*
X017587Y01961D01*
X017578Y019591D01*
X017571Y019568D01*
X017566Y019543D01*
X017565Y019514D01*
X017415D01*
X017414Y019543D01*
X017409Y019568D01*
X017402Y019591D01*
X017393Y01961D01*
X01738Y019627D01*
X017365Y01964D01*
X017346Y019651D01*
X017325Y019658D01*
X017302Y019663D01*
X017275Y019664D01*
X01749Y019804D01*
X017705Y019664D01*
D02*
G37*
G36*
X014278Y018269D02*
X014356Y018216D01*
X014383Y018211D01*
X014416Y018102D01*
X014352Y018038D01*
X014319Y017989D01*
X014307Y01793D01*
Y017925D01*
X01413D01*
Y017215D01*
X014302D01*
Y01651D01*
X014132Y016339D01*
X014073Y016364D01*
X013961Y016379D01*
X013848Y016364D01*
X013744Y01632D01*
X013654Y016252D01*
X013585Y016162D01*
X013542Y016057D01*
X013527Y015945D01*
X013537Y01587D01*
X013442Y015823D01*
X013263Y016002D01*
Y018077D01*
X013488Y018302D01*
X013757D01*
X013772Y018305D01*
X014127D01*
Y018329D01*
X014225Y018347D01*
X014278Y018269D01*
D02*
G37*
D18*
X01249Y02564D02*
D03*
Y02654D02*
D03*
X01733Y02564D02*
D03*
Y02654D02*
D03*
D19*
X01444Y02403D02*
D03*
X01534D02*
D03*
X01625Y022286D02*
D03*
X01535D02*
D03*
X01625Y02142D02*
D03*
X01535D02*
D03*
X013578Y022286D02*
D03*
X014478D02*
D03*
X013578Y02142D02*
D03*
X014478D02*
D03*
X01628Y01757D02*
D03*
X01538D02*
D03*
X01356D02*
D03*
X01446D02*
D03*
X015327Y026339D02*
D03*
X014427D02*
D03*
D20*
X016057Y018455D02*
D03*
Y018711D02*
D03*
Y018967D02*
D03*
Y019222D02*
D03*
Y019478D02*
D03*
Y019734D02*
D03*
Y01999D02*
D03*
Y020246D02*
D03*
Y020502D02*
D03*
Y020758D02*
D03*
X013757Y020758D02*
D03*
Y020502D02*
D03*
Y020246D02*
D03*
Y01999D02*
D03*
Y019734D02*
D03*
Y019478D02*
D03*
Y019222D02*
D03*
Y018967D02*
D03*
Y018711D02*
D03*
Y018455D02*
D03*
D21*
X018047Y01535D02*
D03*
X018873D02*
D03*
X018047Y01338D02*
D03*
X018873D02*
D03*
X012063Y01535D02*
D03*
X011237D02*
D03*
X012063Y01334D02*
D03*
X011237D02*
D03*
X017977Y02821D02*
D03*
X018803D02*
D03*
X011941Y028206D02*
D03*
X011114D02*
D03*
D22*
X015984Y013976D02*
D03*
X013858D02*
D03*
X013817Y02519D02*
D03*
X015943D02*
D03*
D23*
X015394Y028898D02*
D03*
X014449D02*
D03*
D24*
X016496D02*
D03*
X013346D02*
D03*
D25*
X015433Y027844D02*
D03*
X014409D02*
D03*
X015177D02*
D03*
X014921D02*
D03*
X014665D02*
D03*
D40*
X01733Y02654D02*
X017446Y026656D01*
X018421D01*
X017212Y02821D02*
X017977D01*
X016811Y027809D02*
X017212Y02821D01*
X015899Y026897D02*
X017155Y02564D01*
X015899Y026897D02*
X015899D01*
X017155Y02564D02*
X01733D01*
X018803Y02821D02*
Y028783D01*
X011114Y028206D02*
Y028766D01*
X01733Y02564D02*
X017336Y025646D01*
X018421D01*
X01513Y014831D02*
Y01732D01*
X012047Y024134D02*
X014336D01*
X01444Y02403D01*
X015899Y026897D02*
X016811Y027809D01*
X015433Y027362D02*
X015899Y026897D01*
X01694Y022212D02*
X018421Y023693D01*
X01573Y02442D02*
X015943Y024633D01*
X01534Y02403D02*
X01573Y02442D01*
X017439Y022711D01*
X015943Y024633D02*
Y02519D01*
X015945Y025192D01*
Y025721D01*
X013578Y022286D02*
X01444Y023148D01*
Y02403D01*
Y024567D01*
X013817Y02519D02*
X01444Y024567D01*
X01625Y02142D02*
Y022286D01*
X013578Y02142D02*
Y022286D01*
X01513Y014831D02*
X015984Y013976D01*
X01513Y01732D02*
X01538Y01757D01*
X018047Y01338D02*
X01939Y014723D01*
X011237Y014923D02*
Y01535D01*
X018873Y012937D02*
Y01338D01*
Y014927D02*
Y01535D01*
X015882Y015945D02*
X01628Y016343D01*
Y01757D01*
X013961Y015945D02*
X01446Y016444D01*
Y01757D01*
X012063Y01535D02*
Y016004D01*
X011421Y016646D02*
X012063Y016004D01*
X018421Y020693D02*
X01939Y019724D01*
Y014723D02*
Y019724D01*
X01749Y015907D02*
Y019734D01*
Y015907D02*
X018047Y01535D01*
X0106Y014803D02*
X012063Y01334D01*
X0106Y014803D02*
Y016824D01*
X011421Y017646D01*
X01694Y02129D02*
Y022212D01*
X015327Y026339D02*
X015945Y025721D01*
X011237Y012897D02*
Y01334D01*
X013858Y013976D02*
Y014612D01*
X0137Y01477D02*
X013858Y014612D01*
X015433Y027362D02*
Y027844D01*
D41*
X012484Y025646D02*
X01304Y026201D01*
Y026339D01*
X011421Y025646D02*
X012484D01*
X012244Y028206D02*
X01304Y02741D01*
X011941Y028206D02*
X012244D01*
X01304Y026339D02*
X014427D01*
X01304D02*
Y02741D01*
X01535Y02142D02*
Y022286D01*
X014478Y02142D02*
Y022286D01*
X01535D02*
Y022613D01*
X014921Y023041D02*
X01535Y022613D01*
X014478Y022286D02*
Y022598D01*
X014921Y023041D01*
D42*
X014478Y019675D02*
Y02142D01*
X014282Y019478D02*
X014478Y019675D01*
X013757Y019478D02*
X014282D01*
X016974Y017854D02*
Y018436D01*
X016699Y018711D02*
X016974Y018436D01*
X016057Y018711D02*
X016699D01*
X01669Y01757D02*
X016974Y017854D01*
X01628Y01757D02*
X01669D01*
X013117Y018967D02*
X013757D01*
X01234Y01819D02*
X013117Y018967D01*
X01234Y017564D02*
Y01819D01*
X011421Y016646D02*
X01234Y017564D01*
X01749Y019734D02*
X01838D01*
X016057D02*
X01749D01*
X015411Y011929D02*
Y013638D01*
X01311Y015939D02*
X015411Y013638D01*
X01311Y015939D02*
Y01814D01*
X013425Y018455D01*
X013757D01*
X01281Y01355D02*
X014431Y011929D01*
X01281Y01355D02*
Y018229D01*
X013292Y018711D01*
X013757D01*
X01123Y01289D02*
X011237Y012897D01*
X014449Y01844D02*
X015231Y019222D01*
X016057D01*
X01838Y019734D02*
X018421Y019693D01*
X017718Y01999D02*
X018421Y020693D01*
X016057Y01999D02*
X017718D01*
X016974Y020246D02*
X018421Y021693D01*
X016057Y020246D02*
X016974D01*
X01736Y021632D02*
X018421Y022693D01*
X01736Y02139D02*
Y021632D01*
X016472Y020502D02*
X01736Y02139D01*
X016057Y020502D02*
X016472D01*
X016408Y020758D02*
X01694Y02129D01*
X016057Y020758D02*
X016408D01*
X013108Y020502D02*
X013757D01*
X01241Y0212D02*
X013108Y020502D01*
X01241Y0212D02*
Y02185D01*
X011421Y023646D02*
X01296Y022107D01*
Y02115D02*
Y022107D01*
Y02115D02*
X013352Y020758D01*
X011614Y022646D02*
X01241Y02185D01*
X011421Y022646D02*
X011614D01*
X012821Y020246D02*
X013757D01*
X011421Y021646D02*
X012821Y020246D01*
X01239Y01999D02*
X013757D01*
X011734Y020646D02*
X01239Y01999D01*
X011421Y020646D02*
X011734D01*
X012254Y019478D02*
X013757D01*
X011421Y018646D02*
X012254Y019478D01*
X012998Y019222D02*
X013757D01*
X011421Y017646D02*
X012998Y019222D01*
X011421Y019646D02*
X01151Y019734D01*
X013757D01*
X013352Y020758D02*
X013757D01*
X01546Y01826D02*
X015655Y018455D01*
X016057D01*
X015497Y018967D02*
X016057D01*
X01446Y01793D02*
X015497Y018967D01*
X01446Y01757D02*
Y01793D01*
X015622Y019478D02*
X016057D01*
X01535Y01975D02*
X015622Y019478D01*
X01535Y01975D02*
Y02142D01*
X01423Y01989D02*
Y02093D01*
X014074Y019734D02*
X01423Y01989D01*
X013757Y019734D02*
X014074D01*
X01374Y02142D02*
X01423Y02093D01*
X013578Y02142D02*
X01374D01*
D43*
X018421Y022693D02*
D03*
Y020693D02*
D03*
Y017693D02*
D03*
Y018693D02*
D03*
Y019693D02*
D03*
Y021693D02*
D03*
Y023693D02*
D03*
X011421Y017646D02*
D03*
Y019646D02*
D03*
Y022646D02*
D03*
Y021646D02*
D03*
Y020646D02*
D03*
Y018646D02*
D03*
Y016646D02*
D03*
D44*
X018421Y016693D02*
D03*
X011421Y023646D02*
D03*
D45*
Y026656D02*
D03*
X018421D02*
D03*
D46*
X011421Y025646D02*
D03*
X018421D02*
D03*
D47*
X013961Y015945D02*
D03*
X015882D02*
D03*
D48*
X013421Y011929D02*
D03*
X014431D02*
D03*
X015411D02*
D03*
X016421D02*
D03*
D49*
X015738Y027933D02*
D03*
X014104D02*
D03*
D50*
X018421Y0246D02*
D03*
X01139Y02466D02*
D03*
X01316Y02558D02*
D03*
X0132Y02783D02*
D03*
X01243Y02732D02*
D03*
X018803Y028783D02*
D03*
X011114Y028766D02*
D03*
X01397Y02382D02*
D03*
X01442Y02539D02*
D03*
X01604Y02761D02*
D03*
X01536Y02692D02*
D03*
X01444Y02698D02*
D03*
X013585Y018089D02*
D03*
X01491Y0125D02*
D03*
X01582Y01247D02*
D03*
X01592Y01337D02*
D03*
X01245Y0159D02*
D03*
X01248Y0171D02*
D03*
X01662Y01816D02*
D03*
X01479Y01601D02*
D03*
X01895Y01812D02*
D03*
X01783D02*
D03*
Y01923D02*
D03*
X01683Y01925D02*
D03*
X01679Y01705D02*
D03*
Y0159D02*
D03*
X01621Y01505D02*
D03*
X01714Y01447D02*
D03*
X0138Y01323D02*
D03*
X01319Y01392D02*
D03*
Y01477D02*
D03*
X01545Y01534D02*
D03*
X0145D02*
D03*
X01491Y01356D02*
D03*
X01125Y015938D02*
D03*
X0135Y02692D02*
D03*
X01744Y02705D02*
D03*
X016122Y02606D02*
D03*
X0153Y025665D02*
D03*
X01572Y02305D02*
D03*
X01692Y02409D02*
D03*
X0166Y02287D02*
D03*
X01746Y02334D02*
D03*
X01563Y01672D02*
D03*
X01497Y01673D02*
D03*
X01357Y01645D02*
D03*
X013961Y01695D02*
D03*
X011237Y014923D02*
D03*
X018873Y012937D02*
D03*
Y014927D02*
D03*
X01123Y01289D02*
D03*
X0137Y01477D02*
D03*
X014449Y01844D02*
D03*
X01546Y01826D02*
D03*
X01304Y026339D02*
D03*
X014921Y023041D02*
D03*
X016811Y027809D02*
D03*
M02*
