G04*
G04 #@! TF.GenerationSoftware,Altium Limited,Altium Designer,18.1.6 (161)*
G04*
G04 Layer_Color=32768*
%FSTAX24Y24*%
%MOIN*%
G70*
G01*
G75*
%ADD11C,0.0070*%
%ADD57C,0.0039*%
D11*
X01561Y013972D02*
Y014272D01*
X01546D01*
X01541Y014222D01*
Y014172D01*
X01546Y014122D01*
X01561D01*
X01546D01*
X01541Y014072D01*
Y014022D01*
X01546Y013972D01*
X01561D01*
X01531D02*
X01511D01*
X01521D01*
Y014272D01*
X01501D02*
Y013972D01*
X014811Y014272D01*
Y013972D01*
X014711Y014272D02*
X014611D01*
X014661D01*
Y013972D01*
X014711Y014022D01*
X014191Y025195D02*
Y024895D01*
X014341D01*
X014391Y024945D01*
Y024995D01*
X014341Y025045D01*
X014191D01*
X014341D01*
X014391Y025095D01*
Y025145D01*
X014341Y025195D01*
X014191D01*
X014491D02*
X014691D01*
X014591D01*
Y024895D01*
X014791D02*
Y025195D01*
X014991Y024895D01*
Y025195D01*
X015291Y024895D02*
X015091D01*
X015291Y025095D01*
Y025145D01*
X015241Y025195D01*
X015141D01*
X015091Y025145D01*
X01541Y028893D02*
X01551D01*
X01546D01*
Y029143D01*
X01551Y029193D01*
X01556D01*
X01561Y029143D01*
X01531Y029193D02*
X01521D01*
X01526D01*
Y028893D01*
X01531Y028943D01*
D57*
X01374Y013287D02*
X016102D01*
X01374D02*
Y014665D01*
X016102D01*
Y013287D02*
Y014665D01*
X013699Y025879D02*
X016061D01*
Y024501D02*
Y025879D01*
X013699Y024501D02*
X016061D01*
X013699D02*
Y025879D01*
X016142Y029744D02*
X01628D01*
X016142D02*
Y02998D01*
X013563Y029744D02*
X013701D01*
Y02998D01*
X016142D01*
X016427D02*
X016496Y029931D01*
X01628Y029744D02*
X016427Y02998D01*
X016378Y029744D02*
X016496Y029931D01*
X016378Y027776D02*
Y029744D01*
X013465Y027776D02*
X016378D01*
X013465D02*
Y029744D01*
X013346Y029931D02*
X013465Y029744D01*
X013415Y02998D02*
X013563Y029744D01*
X013346Y029931D02*
X013415Y02998D01*
X01497Y027657D02*
Y027776D01*
X014872Y027657D02*
X01497D01*
X014872D02*
Y027776D01*
X015128Y027657D02*
Y027776D01*
Y027657D02*
X015226D01*
Y027776D01*
X015384Y027657D02*
Y027776D01*
Y027657D02*
X015482D01*
Y027776D01*
X014616Y027657D02*
Y027776D01*
Y027657D02*
X014715D01*
Y027776D01*
X01436Y027657D02*
Y027776D01*
Y027657D02*
X014459D01*
Y027776D01*
M02*
