G04*
G04 #@! TF.GenerationSoftware,Altium Limited,Altium Designer,18.1.6 (161)*
G04*
G04 Layer_Color=2752767*
%FSTAX24Y24*%
%MOIN*%
G70*
G01*
G75*
%ADD61C,0.0020*%
%ADD62C,0.0027*%
D61*
X018341Y022613D02*
Y022773D01*
X018501D01*
Y022613D01*
X018341D01*
Y020613D02*
Y020773D01*
X018501D01*
Y020613D01*
X018341D01*
Y016613D02*
Y016773D01*
X018501D01*
Y016613D01*
X018341D01*
Y017613D02*
Y017773D01*
X018501D01*
Y017613D01*
X018341D01*
Y018613D02*
Y018773D01*
X018501D01*
Y018613D01*
X018341D01*
Y019613D02*
Y019773D01*
X018501D01*
Y019613D01*
X018341D01*
Y021613D02*
Y021773D01*
X018501D01*
Y021613D01*
X018341D01*
Y023613D02*
Y023773D01*
X018501D01*
Y023613D01*
X018341D01*
X011341Y017566D02*
Y017726D01*
X011501D01*
Y017566D01*
X011341D01*
Y019566D02*
Y019726D01*
X011501D01*
Y019566D01*
X011341D01*
Y023566D02*
Y023726D01*
X011501D01*
Y023566D01*
X011341D01*
Y022566D02*
Y022726D01*
X011501D01*
Y022566D01*
X011341D01*
Y021566D02*
Y021726D01*
X011501D01*
Y021566D01*
X011341D01*
Y020566D02*
Y020726D01*
X011501D01*
Y020566D01*
X011341D01*
Y018566D02*
Y018726D01*
X011501D01*
Y018566D01*
X011341D01*
Y016566D02*
Y016726D01*
X011501D01*
Y016566D01*
X011341D01*
X013961Y015865D02*
X013881Y016025D01*
X014041D01*
X013961Y015865D01*
X015882D02*
X015802Y016025D01*
X015962D01*
X015882Y015865D01*
X015738Y027853D02*
X015778Y027893D01*
X015818D01*
X015778Y027933D01*
X015818Y027973D01*
X015778D01*
X015738Y028013D01*
X015698Y027973D01*
X015658D01*
X015698Y027933D01*
X015658Y027893D01*
X015698D01*
X015738Y027853D01*
X014104D02*
X014144Y027893D01*
X014184D01*
X014144Y027933D01*
X014184Y027973D01*
X014144D01*
X014104Y028013D01*
X014064Y027973D01*
X014024D01*
X014064Y027933D01*
X014024Y027893D01*
X014064D01*
X014104Y027853D01*
X018341Y02452D02*
X018381Y0246D01*
X018341Y02468D01*
X018421Y02464D01*
X018501Y02468D01*
X018461Y0246D01*
X018501Y02452D01*
X018421Y02456D01*
X018341Y02452D01*
X01131Y02458D02*
X01135Y02466D01*
X01131Y02474D01*
X01139Y0247D01*
X01147Y02474D01*
X01143Y02466D01*
X01147Y02458D01*
X01139Y02462D01*
X01131Y02458D01*
X01308Y0255D02*
X01312Y02558D01*
X01308Y02566D01*
X01316Y02562D01*
X01324Y02566D01*
X0132Y02558D01*
X01324Y0255D01*
X01316Y02554D01*
X01308Y0255D01*
X01312Y02775D02*
X01316Y02783D01*
X01312Y02791D01*
X0132Y02787D01*
X01328Y02791D01*
X01324Y02783D01*
X01328Y02775D01*
X0132Y02779D01*
X01312Y02775D01*
X01235Y02724D02*
X01239Y02732D01*
X01235Y0274D01*
X01243Y02736D01*
X01251Y0274D01*
X01247Y02732D01*
X01251Y02724D01*
X01243Y02728D01*
X01235Y02724D01*
X018723Y028703D02*
X018763Y028783D01*
X018723Y028863D01*
X018803Y028823D01*
X018883Y028863D01*
X018843Y028783D01*
X018883Y028703D01*
X018803Y028743D01*
X018723Y028703D01*
X011034Y028686D02*
X011074Y028766D01*
X011034Y028846D01*
X011114Y028806D01*
X011194Y028846D01*
X011154Y028766D01*
X011194Y028686D01*
X011114Y028726D01*
X011034Y028686D01*
X01389Y02374D02*
X01393Y02382D01*
X01389Y0239D01*
X01397Y02386D01*
X01405Y0239D01*
X01401Y02382D01*
X01405Y02374D01*
X01397Y02378D01*
X01389Y02374D01*
X01434Y02531D02*
X01438Y02539D01*
X01434Y02547D01*
X01442Y02543D01*
X0145Y02547D01*
X01446Y02539D01*
X0145Y02531D01*
X01442Y02535D01*
X01434Y02531D01*
X01596Y02753D02*
X016Y02761D01*
X01596Y02769D01*
X01604Y02765D01*
X01612Y02769D01*
X01608Y02761D01*
X01612Y02753D01*
X01604Y02757D01*
X01596Y02753D01*
X01528Y02684D02*
X01532Y02692D01*
X01528Y027D01*
X01536Y02696D01*
X01544Y027D01*
X0154Y02692D01*
X01544Y02684D01*
X01536Y02688D01*
X01528Y02684D01*
X01436Y0269D02*
X0144Y02698D01*
X01436Y02706D01*
X01444Y02702D01*
X01452Y02706D01*
X01448Y02698D01*
X01452Y0269D01*
X01444Y02694D01*
X01436Y0269D01*
X013505Y018009D02*
X013545Y018089D01*
X013505Y018169D01*
X013585Y018129D01*
X013665Y018169D01*
X013625Y018089D01*
X013665Y018009D01*
X013585Y018049D01*
X013505Y018009D01*
X01483Y01242D02*
X01487Y0125D01*
X01483Y01258D01*
X01491Y01254D01*
X01499Y01258D01*
X01495Y0125D01*
X01499Y01242D01*
X01491Y01246D01*
X01483Y01242D01*
X01574Y01239D02*
X01578Y01247D01*
X01574Y01255D01*
X01582Y01251D01*
X0159Y01255D01*
X01586Y01247D01*
X0159Y01239D01*
X01582Y01243D01*
X01574Y01239D01*
X01584Y01329D02*
X01588Y01337D01*
X01584Y01345D01*
X01592Y01341D01*
X016Y01345D01*
X01596Y01337D01*
X016Y01329D01*
X01592Y01333D01*
X01584Y01329D01*
X01237Y01582D02*
X01241Y0159D01*
X01237Y01598D01*
X01245Y01594D01*
X01253Y01598D01*
X01249Y0159D01*
X01253Y01582D01*
X01245Y01586D01*
X01237Y01582D01*
X0124Y01702D02*
X01244Y0171D01*
X0124Y01718D01*
X01248Y01714D01*
X01256Y01718D01*
X01252Y0171D01*
X01256Y01702D01*
X01248Y01706D01*
X0124Y01702D01*
X01654Y01808D02*
X01658Y01816D01*
X01654Y01824D01*
X01662Y0182D01*
X0167Y01824D01*
X01666Y01816D01*
X0167Y01808D01*
X01662Y01812D01*
X01654Y01808D01*
X01471Y01593D02*
X01475Y01601D01*
X01471Y01609D01*
X01479Y01605D01*
X01487Y01609D01*
X01483Y01601D01*
X01487Y01593D01*
X01479Y01597D01*
X01471Y01593D01*
X01887Y01804D02*
X01891Y01812D01*
X01887Y0182D01*
X01895Y01816D01*
X01903Y0182D01*
X01899Y01812D01*
X01903Y01804D01*
X01895Y01808D01*
X01887Y01804D01*
X01775D02*
X01779Y01812D01*
X01775Y0182D01*
X01783Y01816D01*
X01791Y0182D01*
X01787Y01812D01*
X01791Y01804D01*
X01783Y01808D01*
X01775Y01804D01*
Y01915D02*
X01779Y01923D01*
X01775Y01931D01*
X01783Y01927D01*
X01791Y01931D01*
X01787Y01923D01*
X01791Y01915D01*
X01783Y01919D01*
X01775Y01915D01*
X01675Y01917D02*
X01679Y01925D01*
X01675Y01933D01*
X01683Y01929D01*
X01691Y01933D01*
X01687Y01925D01*
X01691Y01917D01*
X01683Y01921D01*
X01675Y01917D01*
X01671Y01697D02*
X01675Y01705D01*
X01671Y01713D01*
X01679Y01709D01*
X01687Y01713D01*
X01683Y01705D01*
X01687Y01697D01*
X01679Y01701D01*
X01671Y01697D01*
Y01582D02*
X01675Y0159D01*
X01671Y01598D01*
X01679Y01594D01*
X01687Y01598D01*
X01683Y0159D01*
X01687Y01582D01*
X01679Y01586D01*
X01671Y01582D01*
X01613Y01497D02*
X01617Y01505D01*
X01613Y01513D01*
X01621Y01509D01*
X01629Y01513D01*
X01625Y01505D01*
X01629Y01497D01*
X01621Y01501D01*
X01613Y01497D01*
X01706Y01439D02*
X0171Y01447D01*
X01706Y01455D01*
X01714Y01451D01*
X01722Y01455D01*
X01718Y01447D01*
X01722Y01439D01*
X01714Y01443D01*
X01706Y01439D01*
X01372Y01315D02*
X01376Y01323D01*
X01372Y01331D01*
X0138Y01327D01*
X01388Y01331D01*
X01384Y01323D01*
X01388Y01315D01*
X0138Y01319D01*
X01372Y01315D01*
X01311Y01384D02*
X01315Y01392D01*
X01311Y014D01*
X01319Y01396D01*
X01327Y014D01*
X01323Y01392D01*
X01327Y01384D01*
X01319Y01388D01*
X01311Y01384D01*
Y01469D02*
X01315Y01477D01*
X01311Y01485D01*
X01319Y01481D01*
X01327Y01485D01*
X01323Y01477D01*
X01327Y01469D01*
X01319Y01473D01*
X01311Y01469D01*
X01537Y01526D02*
X01541Y01534D01*
X01537Y01542D01*
X01545Y01538D01*
X01553Y01542D01*
X01549Y01534D01*
X01553Y01526D01*
X01545Y0153D01*
X01537Y01526D01*
X01442D02*
X01446Y01534D01*
X01442Y01542D01*
X0145Y01538D01*
X01458Y01542D01*
X01454Y01534D01*
X01458Y01526D01*
X0145Y0153D01*
X01442Y01526D01*
X01483Y01348D02*
X01487Y01356D01*
X01483Y01364D01*
X01491Y0136D01*
X01499Y01364D01*
X01495Y01356D01*
X01499Y01348D01*
X01491Y01352D01*
X01483Y01348D01*
X01117Y015858D02*
X01121Y015938D01*
X01117Y016018D01*
X01125Y015978D01*
X01133Y016018D01*
X01129Y015938D01*
X01133Y015858D01*
X01125Y015898D01*
X01117Y015858D01*
X01342Y02684D02*
X01346Y02692D01*
X01342Y027D01*
X0135Y02696D01*
X01358Y027D01*
X01354Y02692D01*
X01358Y02684D01*
X0135Y02688D01*
X01342Y02684D01*
X01736Y02697D02*
X0174Y02705D01*
X01736Y02713D01*
X01744Y02709D01*
X01752Y02713D01*
X01748Y02705D01*
X01752Y02697D01*
X01744Y02701D01*
X01736Y02697D01*
X016042Y02598D02*
X016082Y02606D01*
X016042Y02614D01*
X016122Y0261D01*
X016202Y02614D01*
X016162Y02606D01*
X016202Y02598D01*
X016122Y02602D01*
X016042Y02598D01*
X01522Y025585D02*
X01526Y025665D01*
X01522Y025745D01*
X0153Y025705D01*
X01538Y025745D01*
X01534Y025665D01*
X01538Y025585D01*
X0153Y025625D01*
X01522Y025585D01*
X01564Y02297D02*
X01568Y02305D01*
X01564Y02313D01*
X01572Y02309D01*
X0158Y02313D01*
X01576Y02305D01*
X0158Y02297D01*
X01572Y02301D01*
X01564Y02297D01*
X01684Y02401D02*
X01688Y02409D01*
X01684Y02417D01*
X01692Y02413D01*
X017Y02417D01*
X01696Y02409D01*
X017Y02401D01*
X01692Y02405D01*
X01684Y02401D01*
X01652Y02279D02*
X01656Y02287D01*
X01652Y02295D01*
X0166Y02291D01*
X01668Y02295D01*
X01664Y02287D01*
X01668Y02279D01*
X0166Y02283D01*
X01652Y02279D01*
X01738Y02326D02*
X01742Y02334D01*
X01738Y02342D01*
X01746Y02338D01*
X01754Y02342D01*
X0175Y02334D01*
X01754Y02326D01*
X01746Y0233D01*
X01738Y02326D01*
X01555Y01664D02*
X01559Y01672D01*
X01555Y0168D01*
X01563Y01676D01*
X01571Y0168D01*
X01567Y01672D01*
X01571Y01664D01*
X01563Y01668D01*
X01555Y01664D01*
X01489Y01665D02*
X01493Y01673D01*
X01489Y01681D01*
X01497Y01677D01*
X01505Y01681D01*
X01501Y01673D01*
X01505Y01665D01*
X01497Y01669D01*
X01489Y01665D01*
X01349Y01637D02*
X01353Y01645D01*
X01349Y01653D01*
X01357Y01649D01*
X01365Y01653D01*
X01361Y01645D01*
X01365Y01637D01*
X01357Y01641D01*
X01349Y01637D01*
X013881Y01687D02*
X013921Y01695D01*
X013881Y01703D01*
X013961Y01699D01*
X014041Y01703D01*
X014001Y01695D01*
X014041Y01687D01*
X013961Y01691D01*
X013881Y01687D01*
X011157Y014843D02*
X011197Y014923D01*
X011157Y015003D01*
X011237Y014963D01*
X011317Y015003D01*
X011277Y014923D01*
X011317Y014843D01*
X011237Y014883D01*
X011157Y014843D01*
X018793Y012857D02*
X018833Y012937D01*
X018793Y013017D01*
X018873Y012977D01*
X018953Y013017D01*
X018913Y012937D01*
X018953Y012857D01*
X018873Y012897D01*
X018793Y012857D01*
Y014847D02*
X018833Y014927D01*
X018793Y015007D01*
X018873Y014967D01*
X018953Y015007D01*
X018913Y014927D01*
X018953Y014847D01*
X018873Y014887D01*
X018793Y014847D01*
X01115Y01281D02*
X01119Y01289D01*
X01115Y01297D01*
X01123Y01293D01*
X01131Y01297D01*
X01127Y01289D01*
X01131Y01281D01*
X01123Y01285D01*
X01115Y01281D01*
X01362Y01469D02*
X01366Y01477D01*
X01362Y01485D01*
X0137Y01481D01*
X01378Y01485D01*
X01374Y01477D01*
X01378Y01469D01*
X0137Y01473D01*
X01362Y01469D01*
X014369Y01836D02*
X014409Y01844D01*
X014369Y01852D01*
X014449Y01848D01*
X014529Y01852D01*
X014489Y01844D01*
X014529Y01836D01*
X014449Y0184D01*
X014369Y01836D01*
X01538Y01818D02*
X01542Y01826D01*
X01538Y01834D01*
X01546Y0183D01*
X01554Y01834D01*
X0155Y01826D01*
X01554Y01818D01*
X01546Y01822D01*
X01538Y01818D01*
X01296Y026259D02*
X013Y026339D01*
X01296Y026419D01*
X01304Y026379D01*
X01312Y026419D01*
X01308Y026339D01*
X01312Y026259D01*
X01304Y026299D01*
X01296Y026259D01*
X014841Y022961D02*
X014881Y023041D01*
X014841Y023121D01*
X014921Y023081D01*
X015001Y023121D01*
X014961Y023041D01*
X015001Y022961D01*
X014921Y023001D01*
X014841Y022961D01*
X016731Y027729D02*
X016771Y027809D01*
X016731Y027889D01*
X016811Y027849D01*
X016891Y027889D01*
X016851Y027809D01*
X016891Y027729D01*
X016811Y027769D01*
X016731Y027729D01*
D62*
X011501Y026656D02*
G03*
X011501Y026656I-00008J0D01*
G01*
Y025646D02*
G03*
X011501Y025646I-00008J0D01*
G01*
X018501Y026656D02*
G03*
X018501Y026656I-00008J0D01*
G01*
Y025646D02*
G03*
X018501Y025646I-00008J0D01*
G01*
X013501Y011929D02*
G03*
X013501Y011929I-00008J0D01*
G01*
X014511D02*
G03*
X014511Y011929I-00008J0D01*
G01*
X015491D02*
G03*
X015491Y011929I-00008J0D01*
G01*
X016501D02*
G03*
X016501Y011929I-00008J0D01*
G01*
M02*
